<?xml version="1.0" encoding="UTF-8" standalone="no"?>
<!-- Created with Inkscape (http://www.inkscape.org/) -->

<svg
   xmlns:dc="http://purl.org/dc/elements/1.1/"
   xmlns:cc="http://creativecommons.org/ns#"
   xmlns:rdf="http://www.w3.org/1999/02/22-rdf-syntax-ns#"
   xmlns:svg="http://www.w3.org/2000/svg"
   xmlns="http://www.w3.org/2000/svg"
   xmlns:sodipodi="http://sodipodi.sourceforge.net/DTD/sodipodi-0.dtd"
   xmlns:inkscape="http://www.inkscape.org/namespaces/inkscape"
   width="240"
   height="217"
   viewBox="0 0 63.499999 57.414585"
   version="1.1"
   id="svg3595"
   inkscape:version="0.92.4 (f8dce91, 2019-08-02)"
   sodipodi:docname="i1.svg">
  <defs
     id="defs3589" />
  <sodipodi:namedview
     id="base"
     pagecolor="#ffffff"
     bordercolor="#666666"
     borderopacity="1.0"
     inkscape:pageopacity="0.0"
     inkscape:pageshadow="2"
     inkscape:zoom="3.2840467"
     inkscape:cx="76.221513"
     inkscape:cy="101.5"
     inkscape:document-units="px"
     inkscape:current-layer="layer1"
     showgrid="false"
     units="px"
     inkscape:window-width="1853"
     inkscape:window-height="1025"
     inkscape:window-x="67"
     inkscape:window-y="27"
     inkscape:window-maximized="1" />
  <metadata
     id="metadata3592">
    <rdf:RDF>
      <cc:Work
         rdf:about="">
        <dc:format>image/svg+xml</dc:format>
        <dc:type
           rdf:resource="http://purl.org/dc/dcmitype/StillImage" />
        <dc:title></dc:title>
      </cc:Work>
    </rdf:RDF>
  </metadata>
  <g
     inkscape:label="Layer 1"
     inkscape:groupmode="layer"
     id="layer1"
     transform="translate(0,-239.58541)">
    <rect
       style="fill:#7f7f7f;fill-opacity:1;stroke:#7f7f7f;stroke-width:0.2655288;stroke-linejoin:miter;stroke-miterlimit:4;stroke-dasharray:none;stroke-opacity:1"
       id="rect821"
       width="63.23447"
       height="57.149055"
       x="0.1327644"
       y="239.71817"
       rx="2.6668329"
       ry="2.6650703" />
    <rect
       ry="2.640502"
       rx="2.6446142"
       y="239.9816"
       x="0.39618272"
       height="56.622219"
       width="62.707634"
       id="rect3496"
       style="fill:#7f7f7f;fill-opacity:1;stroke:#ffff96;stroke-width:0.26319873;stroke-linejoin:miter;stroke-miterlimit:4;stroke-dasharray:none;stroke-opacity:1" />
    <path
       inkscape:connector-curvature="0"
       id="path3498"
       d="m 0.26491942,281.93362 v 2.64583 6.89881 2.38125 c 0,1.46579 1.17949958,2.64583 2.64461798,2.64583 H 60.591135 c 1.465119,0 2.644617,-1.18004 2.644617,-2.64583 v -2.38125 -6.89881 -2.64583 H 60.591135 2.9095374 Z"
       style="fill:#ffff96;fill-opacity:1;stroke:none;stroke-width:0.24492864;stroke-miterlimit:4;stroke-dasharray:none;stroke-opacity:1" />
    <text
       id="text3504"
       y="287.86121"
       x="31.709738"
       style="font-style:normal;font-variant:normal;font-weight:bold;font-stretch:normal;font-size:4.2813673px;line-height:1.25;font-family:sans-serif;-inkscape-font-specification:'sans-serif Bold';text-align:center;letter-spacing:0px;word-spacing:0px;text-anchor:middle;fill:#7f7f7f;fill-opacity:1;stroke:none;stroke-width:0.10703417"
       xml:space="preserve"><tspan
         style="font-style:normal;font-variant:normal;font-weight:bold;font-stretch:normal;font-family:sans-serif;-inkscape-font-specification:'sans-serif Bold';text-align:center;text-anchor:middle;fill:#7f7f7f;fill-opacity:1;stroke-width:0.10703417"
         y="287.86121"
         x="31.709738"
         id="tspan3500"
         sodipodi:role="line">drag inside central oval</tspan><tspan
         id="tspan3502"
         style="font-style:normal;font-variant:normal;font-weight:bold;font-stretch:normal;font-family:sans-serif;-inkscape-font-specification:'sans-serif Bold';text-align:center;text-anchor:middle;fill:#7f7f7f;fill-opacity:1;stroke-width:0.10703417"
         y="293.21292"
         x="31.709738"
         sodipodi:role="line">to pan the contents</tspan></text>
    <g
       transform="translate(-4.209226,157.3991)"
       id="g3577">
      <path
         style="fill:#ffff96;fill-opacity:1;stroke-width:0.03323485"
         d="m 35.537012,121.07688 c -0.182507,-0.0794 -0.176126,-0.24845 0.01208,-0.32001 0.121569,-0.0462 0.08981,-0.0792 -0.114956,-0.1193 -0.105105,-0.0206 -0.218032,-0.0483 -0.25095,-0.0617 -0.05081,-0.0205 -0.05668,-0.0116 -0.03888,0.0593 0.01605,0.0639 0.003,0.0961 -0.05556,0.13714 -0.10227,0.0716 -0.302229,0.0682 -0.394828,-0.007 -0.06292,-0.051 -0.06862,-0.0715 -0.03651,-0.13151 0.03435,-0.0642 0.0935,-0.0852 0.331041,-0.11774 0.03143,-0.004 0.02317,-0.0305 -0.0281,-0.0892 -0.123613,-0.14143 -0.173362,-0.26599 -0.15191,-0.38034 0.03673,-0.19579 0.301359,-0.39774 0.610023,-0.46553 0.164569,-0.0362 0.157501,-0.0784 -0.01692,-0.10108 -0.347073,-0.0452 -0.694843,-0.12501 -0.949969,-0.21812 -0.147487,-0.0538 -0.281271,-0.0979 -0.297296,-0.0979 -0.01603,0 0.0048,0.0476 0.04624,0.10586 0.100189,0.1407 0.09784,0.30031 -0.006,0.41162 -0.100368,0.10752 -0.273837,0.19741 -0.4387,0.22733 -0.128049,0.0232 -0.163029,0.0734 -0.07478,0.10729 0.07934,0.0305 0.05838,0.1425 -0.03458,0.18485 -0.163318,0.0744 -0.385215,-0.0953 -0.234719,-0.17956 0.0916,-0.0513 0.05919,-0.0862 -0.114543,-0.12345 -0.226407,-0.0485 -0.238882,-0.0467 -0.213885,0.032 0.02901,0.0914 -0.03297,0.1583 -0.170573,0.18412 -0.123262,0.0231 -0.296652,-0.0317 -0.323785,-0.10244 -0.03383,-0.0882 0.06733,-0.16344 0.244199,-0.18172 l 0.172988,-0.0179 -0.105504,-0.13246 c -0.08375,-0.10516 -0.101563,-0.15312 -0.08639,-0.23265 0.04707,-0.24667 0.44677,-0.44148 0.832024,-0.4055 0.110965,0.0103 0.227743,0.0288 0.259506,0.041 0.115106,0.0442 0.05379,-0.0464 -0.120464,-0.17798 -0.09802,-0.074 -0.233892,-0.21041 -0.301943,-0.30311 -0.06805,-0.0927 -0.135791,-0.16855 -0.150531,-0.16855 -0.01474,0 -0.03646,0.0385 -0.04826,0.0855 -0.0503,0.20041 -0.564213,0.28255 -0.776451,0.12408 -0.136233,-0.10171 -0.125966,-0.2658 0.02291,-0.36613 0.148496,-0.10007 0.432178,-0.10449 0.618238,-0.01 0.07171,0.0366 0.133964,0.0665 0.138349,0.0665 0.0044,0 -8.19e-4,-0.12446 -0.01155,-0.27658 -0.01844,-0.26133 -0.01378,-0.28861 0.08449,-0.49451 0.250158,-0.52416 0.954963,-0.94087 1.79111,-1.05898 0.150804,-0.0213 0.274188,-0.0504 0.274188,-0.0646 0,-0.0142 -0.13834,-0.0359 -0.307423,-0.0481 -1.23606,-0.0895 -2.306332,-0.34141 -3.244283,-0.7636 -0.189499,-0.0853 -0.351251,-0.14838 -0.359449,-0.14018 -0.0082,0.008 0.06026,0.0852 0.15212,0.17113 0.387205,0.3622 0.444784,0.817 0.152026,1.20083 -0.04513,0.0592 -0.08206,0.11606 -0.08206,0.12642 0,0.0103 0.06547,0.0188 0.145487,0.0188 0.154274,0 0.241657,0.062 0.20862,0.14814 -0.04409,0.1149 -0.347194,0.1015 -0.378108,-0.0167 -0.024,-0.0918 -0.06393,-0.0819 -0.308347,0.0761 l -0.216027,0.13965 0.17895,0.0227 c 0.327984,0.0417 0.440485,0.27396 0.184498,0.38092 -0.213003,0.089 -0.51696,0.0252 -0.562411,-0.11795 -0.01382,-0.0436 -0.0019,-0.10271 0.0308,-0.15259 0.06419,-0.098 0.07821,-0.0973 -0.3134,-0.0153 -0.173839,0.0364 -0.374103,0.0748 -0.445031,0.0854 -0.144251,0.0214 -0.129241,0.0542 0.05126,0.11187 0.235775,0.0753 0.349907,0.26736 0.259376,0.43652 -0.04007,0.0749 -0.232007,0.17855 -0.396221,0.21404 l -0.114836,0.0248 0.0759,0.0615 c 0.09486,0.0768 0.08079,0.16511 -0.03229,0.20278 -0.196236,0.0654 -0.360836,-0.1179 -0.188647,-0.21006 0.06967,-0.0373 0.06403,-0.0428 -0.0971,-0.0953 -0.319612,-0.1042 -0.42372,-0.22976 -0.355488,-0.42877 0.0287,-0.0837 0.213371,-0.20269 0.383734,-0.24724 0.115718,-0.0303 0.05693,-0.057 -0.205465,-0.0933 -0.200319,-0.0278 -0.466836,-0.0967 -0.8444,-0.21831 -0.05851,-0.0188 -0.05716,-0.0106 0.01496,0.0906 0.104147,0.14626 0.103339,0.3041 -0.0022,0.4171 -0.100367,0.10752 -0.273837,0.19741 -0.438699,0.22733 -0.132809,0.0241 -0.15812,0.064 -0.07136,0.11258 0.150496,0.0842 -0.0714,0.25397 -0.23472,0.17956 -0.09295,-0.0423 -0.113913,-0.15441 -0.03458,-0.18485 0.09493,-0.0364 0.04911,-0.0823 -0.117958,-0.11817 -0.226406,-0.0485 -0.238882,-0.0467 -0.213884,0.0321 0.02901,0.0914 -0.03297,0.1583 -0.170574,0.18412 -0.123261,0.0231 -0.296651,-0.0318 -0.323784,-0.10244 -0.03383,-0.0882 0.06733,-0.16344 0.244199,-0.18172 l 0.172987,-0.0179 -0.105504,-0.13246 c -0.131125,-0.16462 -0.118391,-0.28518 0.04634,-0.43872 0.189727,-0.17684 0.550425,-0.25082 0.866063,-0.17765 0.0726,0.0169 0.138624,0.024 0.146711,0.0159 0.0081,-0.008 -0.07018,-0.0933 -0.173932,-0.18926 -0.103751,-0.096 -0.231238,-0.25412 -0.283305,-0.35137 l -0.09466,-0.17681 -0.06879,0.11659 c -0.08685,0.1472 -0.232664,0.22312 -0.469362,0.24437 -0.250485,0.0225 -0.456033,-0.0383 -0.593331,-0.17567 -0.120547,-0.12055 -0.123425,-0.19765 -0.01219,-0.32658 0.213533,-0.24749 0.824474,-0.2431 1.047408,0.008 0.08167,0.0918 0.120112,0.0638 0.120514,-0.0879 6.65e-4,-0.25919 0.192774,-0.54018 0.523893,-0.76635 0.125854,-0.086 0.102814,-0.13587 -0.06317,-0.13684 -0.04803,-2.7e-4 -0.107367,-0.0247 -0.131861,-0.0542 -0.03818,-0.046 -0.03349,-0.0626 0.03285,-0.11632 0.09447,-0.0765 0.196729,-0.0799 0.29661,-0.01 0.05407,0.0379 0.0691,0.0719 0.05346,0.12119 -0.01778,0.056 -0.01045,0.0648 0.0402,0.0484 0.868213,-0.28177 1.396146,-0.30861 2.121005,-0.10784 0.163687,0.0453 0.302397,0.0777 0.308243,0.0718 0.0058,-0.006 -0.105647,-0.0902 -0.247761,-0.18755 -0.61793,-0.42309 -0.982198,-0.78348 -1.325584,-1.31148 -0.106993,-0.16451 -0.197545,-0.27667 -0.201227,-0.24926 -0.03119,0.2322 -0.05936,0.30468 -0.16755,0.43108 -0.07369,0.0861 -0.201414,0.18023 -0.32168,0.23711 -0.174406,0.0825 -0.275085,0.11106 -0.646849,0.1836 l -0.07806,0.0153 0.09285,0.0861 0.09285,0.0861 -0.07663,0.062 c -0.08514,0.0689 -0.206347,0.08 -0.304096,0.0276 -0.08543,-0.0457 -0.08129,-0.12393 0.01049,-0.19841 l 0.07478,-0.0607 -0.08309,-0.0163 c -0.0457,-0.009 -0.162745,-0.0327 -0.260105,-0.0526 -0.262989,-0.054 -0.294809,-0.0505 -0.226951,0.0245 0.05776,0.0638 0.07082,0.16327 0.02957,0.22505 -0.08634,0.12931 -0.44247,0.15616 -0.584927,0.0441 -0.13773,-0.10834 -0.117618,-0.21984 0.05368,-0.2976 0.07769,-0.0353 0.200871,-0.0644 0.273743,-0.0648 l 0.132496,-5.1e-4 -0.170387,-0.11475 c -0.09371,-0.0631 -0.201341,-0.1541 -0.239175,-0.2022 -0.06718,-0.0854 -0.137924,-0.0868 -0.137924,-0.003 0,0.0232 -0.03833,0.0781 -0.08519,0.12214 -0.120965,0.11364 -0.511415,0.13346 -0.67001,0.034 -0.204147,-0.128 -0.1678,-0.31742 0.08113,-0.42278 0.160792,-0.0681 0.344681,-0.0549 0.527193,0.0377 0.08992,0.0456 0.165511,0.083 0.167972,0.0831 0.0025,7e-5 0.0045,-0.0724 0.0045,-0.16105 0,-0.0887 0.01789,-0.19463 0.03976,-0.2355 0.05157,-0.0964 0.02245,-0.12221 -0.08337,-0.074 -0.197078,0.0898 -0.518275,0.0152 -0.564734,-0.13121 -0.0163,-0.0513 0.0011,-0.0944 0.06309,-0.15645 0.172089,-0.17209 0.615604,-0.0872 0.646875,0.12383 0.01247,0.0841 0.0011,0.0871 0.230082,-0.0605 0.183019,-0.11802 0.216737,-0.16905 0.111695,-0.16905 -0.03453,0 -0.0981,-0.0299 -0.141248,-0.0665 l -0.07846,-0.0665 0.07846,-0.0665 c 0.09004,-0.0763 0.164324,-0.0831 0.288389,-0.0266 0.07372,0.0336 0.08443,0.0551 0.06809,0.13681 -0.01768,0.0884 -0.01281,0.0949 0.05533,0.0739 0.147588,-0.0455 0.740282,-0.0592 0.922582,-0.0213 0.254751,0.053 0.525683,0.18497 0.672632,0.32777 0.147046,0.14289 0.151932,0.12102 0.05459,-0.24434 -0.05361,-0.20123 -0.07015,-0.36224 -0.07053,-0.68651 l -4.98e-4,-0.42361 -0.118148,0.10373 c -0.188863,0.16583 -0.321499,0.20836 -0.654741,0.20996 -0.251178,0.001 -0.325422,-0.0115 -0.463282,-0.0792 -0.114611,-0.0563 -0.168178,-0.0686 -0.17745,-0.0408 -0.04569,0.13707 -0.318933,0.19361 -0.409326,0.0847 -0.03824,-0.0461 -0.03307,-0.0629 0.03662,-0.11937 0.06291,-0.0509 0.110065,-0.0611 0.209704,-0.0452 0.09709,0.0155 0.12426,0.0102 0.111026,-0.0219 -0.0096,-0.0234 -0.03533,-0.0969 -0.0571,-0.16347 l -0.03958,-0.12104 -0.113553,0.067 c -0.175968,0.10382 -0.443069,0.0391 -0.443069,-0.10742 0,-0.15788 0.335462,-0.20404 0.482054,-0.0663 l 0.08269,0.0777 0.112961,-0.1303 0.11296,-0.13032 -0.135381,-0.0242 c -0.157514,-0.0282 -0.206806,-0.0669 -0.178647,-0.14024 0.05806,-0.1513 0.387465,-0.11846 0.387465,0.0386 0,0.0744 0.01017,0.0813 0.0914,0.0622 0.522937,-0.12336 1.013237,0.011 1.13784,0.31182 0.05302,0.12801 0.082,0.10743 0.151073,-0.1073 0.0308,-0.0957 0.1226,-0.29905 0.204005,-0.45177 0.0814,-0.15272 0.140995,-0.28468 0.132423,-0.29325 -0.0086,-0.009 -0.06027,0.008 -0.114887,0.0358 -0.226298,0.11702 -0.532338,0.0961 -0.716788,-0.0489 -0.224089,-0.17628 0.02013,-0.46278 0.394479,-0.46278 0.239876,0 0.481906,0.14479 0.481906,0.2883 0,0.0425 0.01253,0.0773 0.02784,0.0773 0.02853,0 0.537149,-0.54584 0.537149,-0.57646 0,-0.009 -0.0795,-0.009 -0.176672,10e-4 -0.222853,0.023 -0.38832,-0.0501 -0.38832,-0.17157 0,-0.11512 0.118006,-0.18382 0.315731,-0.18382 0.198367,0 0.315731,0.0687 0.315731,0.18468 0,0.0446 0.01409,0.0812 0.03132,0.0812 0.04473,0 0.457799,-0.30752 0.479899,-0.35728 0.01321,-0.0297 -0.02309,-0.0415 -0.127685,-0.0415 -0.122866,0 -0.250592,-0.0593 -0.250592,-0.11632 0,-0.0503 0.125256,-0.11633 0.220585,-0.11633 0.171741,0 0.254893,0.0546 0.230601,0.15137 -0.02486,0.099 -0.01439,0.0952 0.429597,-0.15823 0.583999,-0.33332 1.500096,-0.66284 2.293144,-0.82484 0.362832,-0.0741 1.344722,-0.19818 1.570347,-0.19842 0.07769,-7e-5 0.141248,-0.0124 0.141248,-0.0273 0,-0.0149 -0.404689,-0.0457 -0.899309,-0.0683 -3.470772,-0.15874 -6.806896,-0.96252 -9.409014,-2.26691 -0.398451,-0.19974 -0.559471,-0.27182 -0.559471,-0.25044 0,0.006 0.141846,0.11906 0.315213,0.25109 0.546118,0.4159 0.926663,0.89959 1.106102,1.40589 0.06852,0.19333 0.08851,0.32218 0.100495,0.64757 0.01491,0.40498 0.01517,0.40607 0.08484,0.35727 0.08084,-0.0566 0.295992,-0.0647 0.389626,-0.0145 0.07675,0.0411 0.08387,0.14061 0.0142,0.19844 -0.08373,0.0695 -0.300258,0.0568 -0.409551,-0.024 l -0.09797,-0.0724 -0.08678,0.24445 c -0.111193,0.31322 -0.110444,0.33102 0.01128,0.26807 0.204644,-0.10582 0.600922,-0.0383 0.648128,0.11043 0.04956,0.15615 -0.111895,0.27092 -0.381133,0.27092 -0.203644,0 -0.281649,-0.037 -0.364274,-0.17289 l -0.06214,-0.10218 -0.110567,0.15961 c -0.06081,0.0878 -0.181606,0.24174 -0.268432,0.34212 -0.165559,0.1914 -0.197192,0.26182 -0.09971,0.22196 0.258739,-0.10578 0.571012,-0.10514 0.788861,0.002 0.177687,0.0871 0.239483,0.20207 0.198223,0.3689 -0.02825,0.11422 -0.05086,0.13549 -0.214374,0.20163 -0.30582,0.12373 -0.662912,0.0906 -0.86599,-0.0802 -0.09159,-0.0771 -0.102319,-0.10399 -0.09219,-0.23136 0.0063,-0.0793 0.0011,-0.14415 -0.01156,-0.14415 -0.01267,0 -0.147374,0.0898 -0.299353,0.1995 -0.15198,0.10973 -0.4371,0.28233 -0.633601,0.38356 -0.196502,0.10125 -0.357275,0.19309 -0.357275,0.20411 0,0.011 0.101006,0.0106 0.224459,-0.001 0.442113,-0.0411 0.919729,0.10307 1.092658,0.32978 0.05245,0.0688 0.09372,0.174 0.103998,0.26518 0.01382,0.12259 0.02718,0.14703 0.07067,0.12926 0.151383,-0.0618 0.245335,-0.0736 0.351719,-0.0442 0.217088,0.0599 0.217516,0.22371 7.68e-4,0.29524 -0.1517,0.0501 -0.332476,-0.006 -0.393517,-0.12289 l -0.04411,-0.0842 -0.06355,0.0801 c -0.03496,0.0441 -0.112161,0.11589 -0.171569,0.1596 -0.05941,0.0437 -0.108013,0.0916 -0.108013,0.10644 0,0.0148 0.06356,0.027 0.141248,0.0271 0.168879,1.3e-4 0.357275,0.1037 0.357275,0.19638 0,0.0836 -0.142706,0.1949 -0.283702,0.22135 -0.134651,0.0252 -0.317988,-0.0308 -0.401049,-0.12254 -0.05822,-0.0643 -0.05846,-0.0728 -0.0048,-0.16624 l 0.05652,-0.0985 -0.256779,0.022 c -0.298667,0.0256 -0.347038,0.0535 -0.241259,0.13919 0.155802,0.12616 -0.03608,0.30308 -0.284912,0.2627 -0.242031,-0.0393 -0.285629,-0.181 -0.09101,-0.29582 0.134732,-0.0795 0.149337,-0.0641 -0.168153,-0.17677 -0.202253,-0.0717 -0.402854,-0.24885 -0.452598,-0.39957 -0.05234,-0.15861 0.0055,-0.31626 0.178384,-0.48598 0.09642,-0.0947 0.118018,-0.13035 0.0716,-0.11828 -0.03656,0.01 -0.196459,0.0556 -0.355334,0.1025 -0.570634,0.16837 -1.05026,0.25258 -1.948978,0.34219 -0.0975,0.01 -0.170362,0.0246 -0.161906,0.0331 0.0085,0.008 0.137743,0.0446 0.287304,0.0803 0.344193,0.0822 0.583146,0.19509 0.780251,0.36859 0.209375,0.1843 0.285295,0.34195 0.285295,0.59242 0,0.18161 0.03218,0.24986 0.08076,0.17127 0.03692,-0.0597 0.246944,-0.0731 0.366161,-0.0232 0.09091,0.038 0.118071,0.0686 0.118071,0.13295 0,0.10625 -0.08537,0.15243 -0.281822,0.15243 -0.118105,0 -0.17183,-0.0186 -0.234255,-0.081 l -0.081,-0.081 -0.199984,0.19998 c -0.10999,0.11 -0.199983,0.20694 -0.199983,0.21545 0,0.008 0.05244,0.006 0.116544,-0.006 0.278191,-0.0522 0.614623,0.093 0.614623,0.26527 0,0.2159 -0.424229,0.35989 -0.707308,0.24008 -0.206756,-0.0875 -0.256675,-0.19932 -0.175183,-0.39237 0.02047,-0.0485 -0.007,-0.0458 -0.220061,0.0218 -0.133902,0.0425 -0.318237,0.088 -0.409634,0.10111 -0.253745,0.0365 -0.275134,0.0632 -0.103275,0.12884 0.16219,0.0619 0.319302,0.21884 0.319302,0.31886 0,0.10466 -0.161309,0.26203 -0.309872,0.30231 -0.253622,0.0688 -0.245921,0.0622 -0.157092,0.1346 0.111533,0.091 0.0578,0.17446 -0.120904,0.18789 -0.182705,0.0137 -0.249255,-0.0633 -0.147873,-0.17126 0.07659,-0.0815 0.06496,-0.12119 -0.03552,-0.12119 -0.0798,0 -0.299904,-0.11192 -0.358174,-0.18213 -0.120001,-0.1446 -0.0015,-0.37891 0.228676,-0.45238 0.160915,-0.0514 0.196123,-0.0897 0.09962,-0.10846 -0.04377,-0.008 -0.214187,-0.0481 -0.378699,-0.088 -0.164513,-0.0399 -0.333283,-0.0805 -0.375045,-0.0902 -0.0707,-0.0164 -0.07327,-0.0118 -0.03733,0.0671 0.0634,0.13915 0.01274,0.25188 -0.145485,0.3237 -0.269554,0.12237 -0.611326,0.0554 -0.72033,-0.14114 -0.04577,-0.0825 -0.04434,-0.0972 0.01741,-0.17996 0.09501,-0.12725 0.287891,-0.18812 0.52321,-0.16511 l 0.193013,0.0189 -0.217668,-0.21448 -0.217669,-0.21448 -0.08185,0.0818 c -0.166914,0.16691 -0.56197,0.0767 -0.501295,-0.11444 0.04031,-0.127 0.280501,-0.15245 0.518986,-0.055 0.04532,0.0185 0.05059,-0.004 0.0376,-0.16068 -0.03727,-0.44944 0.374434,-0.82249 1.092549,-0.98997 0.163943,-0.0382 0.292953,-0.0746 0.28669,-0.0809 -0.0063,-0.006 -0.189917,-0.0268 -0.408118,-0.0457 -0.835931,-0.0722 -1.575024,-0.24049 -2.253747,-0.51305 -0.253636,-0.10185 -0.475878,-0.18518 -0.493871,-0.18518 -0.01799,0 0.05275,0.0841 0.157199,0.1869 0.232857,0.22917 0.314221,0.39782 0.315192,0.65334 8.19e-4,0.2111 -0.05088,0.36406 -0.180361,0.53382 -0.108131,0.14177 -0.106619,0.16482 0.0091,0.13939 0.140353,-0.0308 0.278704,0.0321 0.265648,0.12081 -0.02291,0.15568 -0.392814,0.14646 -0.392814,-0.01 0,-0.0344 -0.0079,-0.0624 -0.01763,-0.0624 -0.03659,0 -0.480889,0.27737 -0.480889,0.30021 0,0.0132 0.08203,0.0307 0.182277,0.039 0.193472,0.016 0.316246,0.0918 0.316246,0.19525 0,0.0737 -0.138715,0.18537 -0.264658,0.21302 -0.127002,0.0279 -0.341215,-0.0327 -0.418834,-0.11845 -0.0601,-0.0664 -0.06027,-0.0732 -0.0042,-0.17082 0.03209,-0.0559 0.05414,-0.1052 0.049,-0.10953 -0.0051,-0.004 -0.121514,0.0191 -0.258608,0.0521 -0.137094,0.033 -0.342735,0.0702 -0.456979,0.0827 -0.114245,0.0125 -0.207718,0.0336 -0.207718,0.0469 0,0.0133 0.05915,0.0418 0.131441,0.0635 0.333294,0.0999 0.434452,0.34121 0.221411,0.52826 -0.06184,0.0543 -0.170154,0.10955 -0.240699,0.12279 -0.18093,0.0339 -0.189046,0.0455 -0.09117,0.12967 0.08277,0.0712 0.08416,0.0776 0.02885,0.13289 -0.07479,0.0748 -0.277926,0.0614 -0.328961,-0.0216 -0.0299,-0.0486 -0.02142,-0.0711 0.04627,-0.12257 0.06428,-0.0489 0.07174,-0.0666 0.03323,-0.0792 -0.0273,-0.009 -0.106099,-0.0335 -0.17511,-0.0548 -0.187818,-0.0578 -0.323196,-0.18527 -0.323196,-0.3043 0,-0.13062 0.147081,-0.27695 0.327097,-0.32542 0.076,-0.0205 0.138191,-0.0488 0.138191,-0.0631 0,-0.0142 -0.123385,-0.0426 -0.274187,-0.0628 -0.150803,-0.0203 -0.398972,-0.0765 -0.551486,-0.1248 -0.152514,-0.0483 -0.285777,-0.0794 -0.29614,-0.069 -0.01036,0.0104 0.0066,0.047 0.03777,0.0814 0.03114,0.0344 0.06493,0.11384 0.0751,0.17652 0.01498,0.0923 7.68e-4,0.13505 -0.07482,0.22488 -0.09622,0.11435 -0.311438,0.23198 -0.428418,0.23417 -0.03656,5.1e-4 -0.0889,0.0156 -0.116322,0.033 -0.04231,0.027 -0.03852,0.0398 0.02504,0.0845 0.157091,0.11065 -0.06303,0.24162 -0.271586,0.16159 -0.07022,-0.0269 -0.06695,-0.13466 0.0053,-0.17509 0.07438,-0.0416 0.04483,-0.0692 -0.113412,-0.10598 -0.196597,-0.0456 -0.239611,-0.0397 -0.221276,0.0304 0.0285,0.10902 -0.07808,0.17545 -0.263812,0.16443 -0.308023,-0.0183 -0.307542,-0.21728 6.65e-4,-0.27306 l 0.168533,-0.0305 -0.103552,-0.12886 c -0.102094,-0.12704 -0.102872,-0.1308 -0.05524,-0.26752 0.09056,-0.25994 0.367763,-0.37456 0.841687,-0.34802 l 0.294853,0.0165 -0.185026,-0.17638 c -0.101765,-0.097 -0.223485,-0.25227 -0.270488,-0.34502 -0.047,-0.0928 -0.0923,-0.16865 -0.100665,-0.16865 -0.0084,0 -0.03833,0.0447 -0.06659,0.0994 -0.167745,0.32438 -0.930186,0.32989 -1.120277,0.008 -0.05061,-0.0857 -0.05082,-0.10228 -0.0025,-0.20204 0.149073,-0.30779 0.865269,-0.34505 1.103979,-0.0574 0.06884,0.0829 0.101721,0.0616 0.101721,-0.0662 0,-0.0652 0.03195,-0.19274 0.071,-0.28351 0.03905,-0.0908 0.06248,-0.17355 0.05208,-0.18396 -0.0104,-0.0104 -0.07388,-0.001 -0.141064,0.0214 -0.353167,0.11655 -0.686548,-0.15881 -0.405757,-0.33515 0.217147,-0.13636 0.583596,-0.0367 0.598623,0.16276 0.003,0.0397 0.01574,0.0722 0.02833,0.0722 0.01259,0 0.115828,-0.0785 0.229424,-0.17448 l 0.206536,-0.17449 -0.139616,-0.0192 c -0.187402,-0.0258 -0.259609,-0.12956 -0.136151,-0.19563 0.162037,-0.0867 0.380029,-0.005 0.344964,0.12871 -0.01587,0.0607 0.0012,0.0588 0.283646,-0.032 0.422761,-0.13596 0.723249,-0.17598 1.151639,-0.1534 0.321336,0.017 0.755894,0.10493 1.030281,0.20861 0.08355,0.0316 -0.06808,-0.0974 -0.298079,-0.25353 -0.238065,-0.16161 -0.667721,-0.58163 -0.832114,-0.81345 -0.158802,-0.22394 -0.286022,-0.46677 -0.348236,-0.6647 -0.06408,-0.20387 -0.08907,-0.20494 -0.146814,-0.006 -0.03722,0.12804 -0.09647,0.22761 -0.196952,0.331 -0.269988,0.2778 -0.8541,0.48957 -1.350333,0.48957 -0.110446,0 -0.200811,0.008 -0.200811,0.0182 0,0.01 0.0394,0.0521 0.08756,0.0935 0.07459,0.0642 0.08198,0.0858 0.04989,0.14572 -0.09761,0.18238 -0.536267,0.14615 -0.536267,-0.0443 0,-0.0643 0.02714,-0.095 0.117661,-0.13278 0.111886,-0.0467 0.130513,-0.11362 0.03165,-0.11362 -0.0254,0 -0.167993,-0.0385 -0.316881,-0.0855 -0.264857,-0.0837 -0.349441,-0.0858 -0.270576,-0.007 0.02163,0.0216 0.03933,0.0786 0.03933,0.12659 0,0.28429 -0.609099,0.39011 -0.851309,0.1479 -0.106463,-0.10646 -0.0998,-0.19204 0.023,-0.29537 0.129832,-0.10925 0.217561,-0.13057 0.463938,-0.11274 0.109009,0.008 0.198198,0.008 0.198198,5.1e-4 0,-0.008 -0.07552,-0.0816 -0.167829,-0.16455 -0.09231,-0.083 -0.197811,-0.20967 -0.234455,-0.2815 l -0.06663,-0.1306 -0.0734,0.11024 c -0.110483,0.16593 -0.29347,0.24344 -0.571051,0.24188 -0.454049,-0.003 -0.706736,-0.2461 -0.51207,-0.49358 0.099,-0.12586 0.270382,-0.18654 0.524437,-0.1857 0.247885,0.001 0.474572,0.0839 0.534495,0.19585 0.05756,0.10755 0.09105,0.0828 0.109499,-0.0809 0.0099,-0.0882 0.05628,-0.20791 0.112335,-0.29017 0.05248,-0.077 0.10709,-0.15849 0.121366,-0.18107 0.01896,-0.03 -0.01124,-0.028 -0.112192,0.008 -0.187027,0.066 -0.383886,0.0602 -0.552362,-0.0163 -0.236846,-0.10751 -0.235816,-0.3278 0.002,-0.4358 0.345708,-0.15697 0.79259,0.0115 0.739157,0.27867 -0.0104,0.052 -0.0073,0.0896 0.007,0.0836 0.01423,-0.006 0.14856,-0.0708 0.298505,-0.14392 0.260979,-0.12726 0.329324,-0.18279 0.224964,-0.18279 -0.09036,0 -0.216248,-0.0764 -0.237791,-0.14423 -0.03143,-0.099 0.09445,-0.18812 0.265749,-0.18812 0.233883,0 0.354122,0.13575 0.235924,0.26636 -0.04678,0.0517 -0.01724,0.0554 0.423744,0.0535 0.514816,-0.002 0.754654,0.0427 1.064573,0.19982 0.194114,0.0984 0.426844,0.30575 0.530913,0.47309 l 0.075,0.12061 0.02054,-0.34897 c 0.02405,-0.40867 0.119505,-0.72648 0.325518,-1.0838 0.07472,-0.12959 0.135849,-0.24598 0.135849,-0.25863 0,-0.0127 -0.06356,0.0137 -0.141249,0.0587 -0.422977,0.2445 -1.024356,0.24806 -1.433157,0.008 -0.07941,-0.0465 -0.169744,-0.12332 -0.200748,-0.17064 l -0.05637,-0.086 -0.09462,0.10129 c -0.07827,0.0838 -0.12038,0.10129 -0.243776,0.10129 -0.30179,0 -0.391048,-0.22282 -0.121597,-0.30355 0.10855,-0.0325 0.154125,-0.0299 0.269768,0.0155 0.07653,0.0301 0.141913,0.0511 0.145286,0.0467 0.0034,-0.005 0.01472,-0.0952 0.02522,-0.2018 0.01704,-0.17309 0.01309,-0.19128 -0.03696,-0.16986 -0.03082,0.0132 -0.1383,0.0308 -0.238835,0.0392 -0.151742,0.0126 -0.198316,0.003 -0.274187,-0.0569 -0.199552,-0.15748 -0.05874,-0.34742 0.25757,-0.34742 0.21044,0 0.348966,0.0785 0.348966,0.1978 0,0.0997 0.02068,0.10168 0.149556,0.0142 0.05484,-0.0372 0.149387,-0.0891 0.21011,-0.11541 0.121455,-0.0525 0.114545,-0.11559 -0.01266,-0.11559 -0.07782,0 -0.214064,-0.10249 -0.214064,-0.16102 0,-0.0608 0.134289,-0.1445 0.25499,-0.15883 0.226734,-0.0269 0.335171,0.0841 0.273786,0.28035 -0.01038,0.0332 0.0537,0.0456 0.26886,0.0518 0.376448,0.0109 0.628916,0.0941 0.825335,0.27202 0.154409,0.13987 0.15509,0.14143 0.154521,0.35584 l -5.63e-4,0.21537 0.256519,-0.23831 c 0.243269,-0.226 0.42994,-0.36639 0.749979,-0.56402 0.07769,-0.048 0.141248,-0.0986 0.141248,-0.11238 0,-0.0138 -0.113086,-0.0195 -0.251303,-0.0125 -0.291905,0.0147 -0.506486,-0.05 -0.612446,-0.18467 -0.08906,-0.11321 -0.08423,-0.20575 0.01794,-0.34372 l 0.08476,-0.11447 -0.139549,-0.0166 c -0.173213,-0.0206 -0.246419,-0.11185 -0.148258,-0.18474 0.139664,-0.10371 0.378672,-0.0247 0.342593,0.1133 -0.0217,0.083 -0.01693,0.0838 0.202609,0.0331 0.31996,-0.0738 0.730518,0.0778 0.783642,0.28945 0.01495,0.0596 6.14e-4,0.12371 -0.0448,0.20072 -0.07995,0.13551 -0.03802,0.14916 0.156645,0.051 0.06782,-0.0342 0.280341,-0.11907 0.472272,-0.18861 0.191931,-0.0695 0.361122,-0.13671 0.37598,-0.14928 0.01486,-0.0126 -0.04842,-0.0329 -0.14063,-0.0451 -0.334713,-0.0444 -0.449223,-0.29426 -0.185383,-0.4045 0.35502,-0.14834 0.759859,0.0761 0.546655,0.30301 -0.04191,0.0446 -0.06927,0.088 -0.0608,0.0965 0.0085,0.008 0.104497,-0.005 0.213387,-0.0299 0.10889,-0.0249 0.283977,-0.0628 0.389083,-0.0841 0.105105,-0.0213 0.1911,-0.0494 0.1911,-0.0624 0,-0.013 -0.04483,-0.0405 -0.09963,-0.0612 -0.136344,-0.0515 -0.163766,-0.13757 -0.06841,-0.21479 0.125963,-0.102 0.39787,-0.0702 0.444764,0.052 0.01027,0.0268 -0.01328,0.0893 -0.05232,0.13891 l -0.07099,0.0902 0.164243,-0.0218 c 0.09033,-0.012 0.427863,-0.0314 0.750065,-0.0432 1.124917,-0.041 2.182958,0.13363 3.154149,0.52055 0.186777,0.0744 0.352527,0.13093 0.368333,0.1256 0.01581,-0.005 -0.218428,-0.16673 -0.520519,-0.35866 -1.854298,-1.17811 -3.207373,-2.54494 -4.02207,-4.06297 -0.10546,-0.19649 -0.200444,-0.35727 -0.211078,-0.35727 -0.01063,0 -0.01933,0.16078 -0.01933,0.35727 0,0.3348 -0.0067,0.37101 -0.106769,0.57545 -0.141103,0.28833 -0.4544,0.62466 -0.778562,0.83579 -0.264478,0.17227 -0.28592,0.22392 -0.09343,0.22507 0.09836,5.2e-4 0.164513,0.0559 0.164513,0.13752 0,0.0851 -0.191609,0.13972 -0.326003,0.0929 -0.08731,-0.0304 -0.106051,-0.0545 -0.106051,-0.13619 0,-0.0546 -0.01123,-0.0942 -0.02497,-0.0881 -0.01373,0.006 -0.163288,0.0617 -0.332349,0.12363 -0.317961,0.11644 -0.382309,0.16994 -0.204392,0.16994 0.05664,0 0.153307,0.0239 0.214804,0.0531 0.274971,0.13048 0.12107,0.37899 -0.234708,0.37899 -0.314178,0 -0.459644,-0.16479 -0.296125,-0.33546 0.10937,-0.11416 0.118784,-0.11308 -0.384668,-0.0443 -0.210497,0.0288 -0.448088,0.0598 -0.527979,0.0691 -0.160627,0.0186 -0.150316,0.0499 0.03608,0.10944 0.170227,0.0544 0.325208,0.20573 0.325208,0.31759 0,0.12522 -0.183998,0.30007 -0.367591,0.34932 -0.203926,0.0547 -0.210733,0.0626 -0.11694,0.13642 0.09928,0.0781 0.08169,0.14562 -0.04989,0.19148 -0.203461,0.0709 -0.406024,-0.10114 -0.22998,-0.19535 0.10125,-0.0542 0.08012,-0.0916 -0.0657,-0.11619 -0.160453,-0.0271 -0.330589,-0.13673 -0.397652,-0.25621 -0.04441,-0.0791 -0.04389,-0.10042 0.0049,-0.20278 0.05066,-0.10622 0.156524,-0.17697 0.408579,-0.27301 0.05665,-0.0216 0.04929,-0.0291 -0.04985,-0.0506 -0.06398,-0.0139 -0.265878,-0.042 -0.44867,-0.0625 -0.182791,-0.0205 -0.466844,-0.0743 -0.631228,-0.11954 -0.380862,-0.10492 -0.426217,-0.10391 -0.299348,0.007 0.216711,0.18888 0.273652,0.4011 0.164342,0.61248 -0.06236,0.1206 -0.311057,0.28504 -0.505564,0.3343 -0.078,0.0198 -0.149014,0.0476 -0.157816,0.0618 -0.0088,0.0142 0.03632,0.0568 0.10027,0.0945 0.130084,0.0768 0.145042,0.13422 0.05593,0.21486 -0.09248,0.0837 -0.244607,0.10097 -0.382327,0.0434 -0.13961,-0.0583 -0.159628,-0.14339 -0.05585,-0.2373 0.09893,-0.0895 0.08188,-0.11623 -0.07478,-0.11711 -0.07769,-4.4e-4 -0.200652,-0.0145 -0.273255,-0.0314 -0.144771,-0.0336 -0.183831,-0.0211 -0.123348,0.0394 0.02163,0.0216 0.03933,0.0808 0.03933,0.13153 0,0.24607 -0.625771,0.27719 -0.686769,0.0341 -0.03158,-0.12584 0.112817,-0.23936 0.304461,-0.23936 0.08016,0 0.15384,-0.0131 0.163738,-0.0291 0.0099,-0.016 -0.03783,-0.0679 -0.106052,-0.1153 -0.06823,-0.0474 -0.143411,-0.11742 -0.167076,-0.1556 -0.04257,-0.0687 -0.04403,-0.0683 -0.137965,0.0322 -0.07861,0.0841 -0.120589,0.10163 -0.244095,0.10163 -0.188352,0 -0.325692,-0.0962 -0.269778,-0.18901 0.01996,-0.0331 0.0791,-0.0812 0.131401,-0.10685 0.09232,-0.0453 0.207336,-0.0321 0.384574,0.0439 0.04449,0.0191 0.05656,-0.006 0.07005,-0.14654 0.01228,-0.12783 0.03996,-0.19452 0.112421,-0.27084 0.213829,-0.22523 0.641542,-0.35224 1.051627,-0.31229 0.141041,0.0137 0.224336,0.01 0.224336,-0.0112 0,-0.0182 -0.02919,-0.0423 -0.06485,-0.0536 -0.101026,-0.032 -0.545316,-0.33041 -0.699572,-0.46977 -0.07645,-0.0691 -0.208674,-0.22324 -0.293828,-0.3426 l -0.154824,-0.21701 -0.02107,0.17192 c -0.02722,0.22207 -0.125939,0.37831 -0.320447,0.50715 -0.151195,0.10014 -0.457706,0.20719 -0.713689,0.24924 -0.140638,0.0231 -0.154539,0.0493 -0.05816,0.10946 0.08011,0.05 0.08339,0.0858 0.01424,0.15489 -0.09456,0.0946 -0.379826,0.047 -0.379826,-0.0634 0,-0.0258 0.03275,-0.0697 0.07277,-0.0978 0.04002,-0.0281 0.0662,-0.0569 0.05816,-0.0642 -0.02356,-0.0214 -0.541255,-0.12077 -0.555406,-0.10662 -0.0071,0.007 0.0118,0.0506 0.04198,0.0966 0.107246,0.16368 -0.042,0.28761 -0.346354,0.28761 -0.177696,0 -0.334667,-0.0935 -0.334667,-0.19941 0,-0.1065 0.15694,-0.19941 0.336831,-0.19941 0.08893,0 0.161692,-0.0142 0.161692,-0.0316 0,-0.0174 -0.06617,-0.0772 -0.147037,-0.13281 -0.08087,-0.0556 -0.176496,-0.13861 -0.212501,-0.18438 -0.08284,-0.10532 -0.09189,-0.10434 -0.133262,0.0143 -0.09729,0.27909 -0.7517522,0.29117 -0.8770422,0.0162 -0.031227,-0.0685 -0.026245,-0.0976 0.029553,-0.17234 0.132412,-0.17736 0.5037799,-0.21442 0.7356412,-0.0734 0.05925,0.0361 0.11485,0.0655 0.123548,0.0655 0.0087,0 0.01653,-0.071 0.01741,-0.15787 0.0024,-0.23499 0.08395,-0.36751 0.32129,-0.52196 0.219434,-0.1428 0.250994,-0.18428 0.140217,-0.18428 -0.190369,0 -0.271048,-0.17299 -0.10935,-0.23447 0.06089,-0.0231 0.123169,-0.0218 0.202822,0.005 0.104817,0.0346 0.113188,0.0468 0.09498,0.13781 -0.01899,0.0949 -0.01545,0.0988 0.07137,0.079 0.05024,-0.0115 0.233416,-0.0297 0.407068,-0.0406 0.50937,-0.0319 0.881206,0.0818 1.188269,0.36351 l 0.151379,0.13889 -0.02281,-0.0997 c -0.05061,-0.22121 -0.06122,-0.55074 -0.02268,-0.70464 0.02196,-0.0877 0.08374,-0.24591 0.13729,-0.35156 0.05355,-0.10566 0.09735,-0.19934 0.09735,-0.2082 0,-0.009 -0.086,0.0271 -0.1911,0.0799 -0.342706,0.1722 -0.698817,0.21238 -1.056533,0.11923 -0.491103,-0.12788 -0.687412,-0.37001 -0.598176,-0.737786 l 0.02622,-0.108059 -0.119418,0.04992 c -0.149419,0.06243 -0.290701,0.06343 -0.435148,0.0031 -0.153539,-0.06415 -0.182635,-0.169992 -0.07604,-0.276591 0.17668,-0.176678 0.602198,-0.117644 0.643584,0.08929 0.01113,0.05565 0.02403,0.101172 0.02867,0.101172 0.0047,0 0.09536,-0.05234 0.201609,-0.116323 0.106244,-0.06397 0.20615,-0.116317 0.222014,-0.116317 0.06874,0 -0.01636,-0.05977 -0.112469,-0.07899 -0.217558,-0.04352 -0.263495,-0.182976 -0.08985,-0.272772 0.115017,-0.05948 0.327739,-0.0489 0.41133,0.02048 0.06299,0.05228 0.062,0.145789 -0.0021,0.198992 -0.02786,0.02314 -0.04332,0.04936 -0.03435,0.05835 0.009,0.009 0.155147,0.01971 0.324843,0.02381 0.624993,0.01521 1.02942,0.292632 0.977621,0.670549 -0.01085,0.07916 -0.011,0.143955 -3.32e-4,0.143955 0.01067,0 0.09638,-0.0692 0.190464,-0.153826 0.193561,-0.174062 0.422965,-0.326788 0.727255,-0.484169 l 0.208204,-0.10768 -0.250416,-0.0214 c -0.276585,-0.02365 -0.422814,-0.08384 -0.527668,-0.217142 -0.101954,-0.129614 -0.08817,-0.236511 0.04692,-0.363918 0.137626,-0.129799 0.142035,-0.147407 0.03692,-0.147407 -0.04367,0 -0.114227,-0.02821 -0.156787,-0.06266 -0.06491,-0.05256 -0.07049,-0.07097 -0.03462,-0.114183 0.05973,-0.07197 0.208739,-0.09836 0.318905,-0.05647 0.07901,0.03005 0.09009,0.0492 0.07425,0.128416 l -0.01862,0.0931 0.25556,-0.0015 c 0.544981,-0.0036 0.812902,0.301428 0.530049,0.603373 -0.08475,0.09047 -0.05071,0.09447 0.207416,0.02432 0.100535,-0.02734 0.315761,-0.07163 0.478279,-0.09845 0.162517,-0.02683 0.3021,-0.05539 0.310184,-0.06348 0.0081,-0.0081 -0.05236,-0.04434 -0.134326,-0.08062 -0.159165,-0.07041 -0.214149,-0.162613 -0.158725,-0.266171 0.08606,-0.160801 0.496141,-0.184712 0.652275,-0.03804 0.106016,0.09959 0.103383,0.132287 -0.02016,0.25033 l -0.102159,0.09761 0.309877,0.01792 c 0.343325,0.01987 0.428993,0.0036 0.345212,-0.06605 -0.07462,-0.06193 -0.06418,-0.125139 0.03099,-0.187497 0.09318,-0.06105 0.283383,-0.04301 0.346346,0.03287 0.04806,0.05791 0.01401,0.144842 -0.06677,0.170483 -0.08593,0.02729 -0.08001,0.07743 0.01138,0.09626 0.04113,0.0085 0.226101,0.04511 0.41105,0.08142 0.738838,0.145026 1.302101,0.429737 1.765833,0.892571 0.169082,0.16876 0.307422,0.29442 0.307422,0.27924 0,-0.0152 -0.05983,-0.20979 -0.132954,-0.432479 -0.342433,-1.042818 -0.441201,-2.247492 -0.263208,-3.21034 0.02998,-0.162158 0.02382,-0.263325 -0.01302,-0.214106 -0.0057,0.0076 -0.06636,0.09177 -0.134804,0.187015 -0.06844,0.09524 -0.181783,0.218586 -0.251872,0.274093 -0.289884,0.229594 -0.864395,0.43178 -1.380494,0.485832 l -0.198881,0.02084 0.07686,0.06223 c 0.04227,0.03425 0.0718,0.08849 0.06562,0.120578 -0.01563,0.08117 -0.170614,0.130413 -0.284456,0.09037 -0.117228,-0.04122 -0.133875,-0.132256 -0.03833,-0.209626 l 0.07521,-0.0609 -0.147386,-0.01997 c -0.08106,-0.01101 -0.236088,-0.03011 -0.344502,-0.0425 l -0.197116,-0.02253 0.07249,0.09215 c 0.0931,0.118355 0.09124,0.153689 -0.01328,0.251876 -0.07232,0.06794 -0.119104,0.08057 -0.298359,0.08057 -0.185228,0 -0.223839,-0.01126 -0.299956,-0.08736 -0.06354,-0.06354 -0.08123,-0.106692 -0.06487,-0.15823 0.02629,-0.08284 0.178258,-0.169843 0.296667,-0.169843 0.04553,0 0.09103,-0.01336 0.101114,-0.0297 0.01407,-0.02279 -0.334578,-0.21493 -0.717734,-0.395597 -0.0121,-0.0057 -0.01392,0.04992 -0.004,0.123645 0.01582,0.117961 0.0059,0.145312 -0.08289,0.228247 -0.337765,0.315529 -1.137373,0.167334 -1.137373,-0.210793 0,-0.03016 0.04931,-0.104132 0.109572,-0.164395 0.178543,-0.178542 0.487622,-0.230039 0.805862,-0.134263 0.08888,0.02678 0.167475,0.04275 0.174659,0.03558 0.0072,-0.0072 -0.03087,-0.07768 -0.08457,-0.156648 -0.120837,-0.177702 -0.174649,-0.330992 -0.174649,-0.497512 0,-0.150545 -0.02628,-0.158629 -0.135455,-0.04168 -0.163349,0.175004 -0.318109,0.228524 -0.662181,0.228985 -0.480953,5.12e-4 -0.681812,-0.108899 -0.778304,-0.424484 -0.01677,-0.05484 -0.0256,-0.05546 -0.11679,-0.0083 -0.137075,0.07088 -0.343979,0.06599 -0.412532,-0.0098 -0.0737,-0.08143 -0.06931,-0.124843 0.01886,-0.186601 0.117348,-0.08219 0.313228,-0.06648 0.41282,0.03313 l 0.08484,0.08485 0.111671,-0.126384 c 0.06142,-0.06951 0.112294,-0.137607 0.113055,-0.151318 7.68e-4,-0.01372 -0.04447,-0.02493 -0.100506,-0.02493 -0.200445,0 -0.304545,-0.124187 -0.166174,-0.198239 0.163475,-0.08749 0.392633,10e-4 0.350039,0.135272 -0.02409,0.07592 -0.03622,0.07541 0.222274,0.0092 0.395736,-0.101382 0.84827,0.04255 0.975291,0.310143 0.03656,0.07702 0.07542,0.140587 0.08635,0.141247 0.01093,5.12e-4 0.04646,-0.05774 0.07895,-0.129799 0.06545,-0.145143 0.190766,-0.288024 0.416309,-0.474659 l 0.149557,-0.123757 -0.232643,0.01951 c -0.297739,0.02499 -0.495071,-0.02775 -0.637764,-0.170467 -0.131527,-0.131529 -0.136879,-0.200753 -0.02793,-0.361292 l 0.08209,-0.120962 h -0.108969 c -0.05993,0 -0.137999,-0.02156 -0.173481,-0.04792 -0.135328,-0.100492 0.06063,-0.223097 0.271851,-0.170084 0.06053,0.01521 0.07907,0.04245 0.07907,0.116236 0,0.09514 0.0016,0.09595 0.123119,0.0624 0.16982,-0.0469 0.499128,-0.0193 0.65262,0.05472 0.07996,0.03855 0.147968,0.104137 0.182014,0.175531 0.05178,0.108592 0.05098,0.120127 -0.01689,0.244038 -0.03918,0.07153 -0.06132,0.130055 -0.04919,0.130055 0.01213,0 0.134271,-0.03645 0.271426,-0.08096 0.137157,-0.04454 0.336556,-0.09818 0.443111,-0.119226 0.106555,-0.02104 0.186908,-0.04511 0.178562,-0.05344 -0.0083,-0.0083 -0.08057,-0.04818 -0.160501,-0.08849 -0.307241,-0.155005 -0.146614,-0.40558 0.243937,-0.380543 0.313352,0.02007 0.432281,0.209513 0.226886,0.361369 -0.05412,0.03999 -0.09063,0.08532 -0.08113,0.100696 0.0095,0.01536 0.159318,0.02795 0.332928,0.02795 h 0.315558 l -0.05106,-0.0729 c -0.04615,-0.06589 -0.04584,-0.07868 0.0033,-0.132937 0.06256,-0.06913 0.27481,-0.08184 0.336494,-0.02017 0.07188,0.07189 0.0442,0.151518 -0.06603,0.189945 -0.05852,0.02043 -0.09198,0.04859 -0.07478,0.06298 0.01713,0.01434 0.160219,0.06683 0.317985,0.116661 0.342623,0.108218 0.621061,0.280723 0.83177,0.515318 0.150742,0.167825 0.260628,0.403973 0.260628,0.560089 0,0.126475 0.06117,0.08764 0.100906,-0.06408 0.161761,-0.617551 0.507251,-1.409793 0.892669,-2.046974 0.11434,-0.189033 0.201523,-0.350059 0.193739,-0.357847 -0.0078,-0.0078 -0.102385,0.03896 -0.210224,0.103917 -0.263207,0.158497 -0.467295,0.216169 -0.844448,0.238621 -0.257293,0.01531 -0.368109,0.0056 -0.596246,-0.05205 -0.346792,-0.0877 -0.339578,-0.08792 -0.315131,0.0095 0.01498,0.05966 0.0029,0.08962 -0.04703,0.116323 -0.140405,0.07514 -0.403921,0.02319 -0.403921,-0.07964 0,-0.07253 0.135565,-0.150274 0.262037,-0.150274 h 0.114307 l -0.19648,-0.179807 -0.196481,-0.179806 -0.04606,0.09352 c -0.06286,0.127633 -0.180438,0.183006 -0.38859,0.183006 -0.193171,0 -0.355329,-0.08875 -0.37268,-0.203957 -0.02914,-0.193488 0.384426,-0.313742 0.632845,-0.184021 l 0.12463,0.06508 v -0.175055 c 0,-0.09628 0.0096,-0.222943 0.02128,-0.281481 l 0.02128,-0.106426 -0.128806,0.06904 c -0.222636,0.119323 -0.568206,0.08558 -0.736326,-0.07191 -0.200907,-0.188198 0.04088,-0.424043 0.434735,-0.424043 0.221555,0 0.392713,0.08823 0.438838,0.226224 0.04981,0.149025 0.05864,0.150638 0.20145,0.03676 0.07136,-0.05689 0.185824,-0.132169 0.254371,-0.167282 0.153278,-0.07851 0.159766,-0.128918 0.01662,-0.129082 -0.05941,-6.7e-5 -0.157577,-0.03036 -0.218156,-0.06728 -0.136336,-0.08312 -0.135141,-0.207654 0.003,-0.310322 0.175912,-0.130766 0.580707,-0.06847 0.645078,0.09928 0.01056,0.02755 -9.73e-4,0.09021 -0.02565,0.139311 -0.02466,0.0491 -0.05018,0.100113 -0.05671,0.113353 -0.01142,0.02319 0.527311,-0.0046 0.555131,-0.02852 0.0075,-0.0065 -0.0143,-0.04265 -0.04846,-0.0804 -0.04748,-0.05247 -0.05379,-0.08179 -0.0268,-0.124586 0.05053,-0.0801 0.209826,-0.117915 0.32003,-0.07596 0.13806,0.05256 0.152247,0.132671 0.03943,0.22263 -0.104635,0.08343 -0.106426,0.08167 0.150266,0.14756 0.507755,0.130326 0.836527,0.475649 0.78915,0.828872 -0.0098,0.07327 -0.0064,0.133214 0.0075,0.133214 0.01396,0 0.150511,-0.1533 0.303454,-0.340659 0.152943,-0.187363 0.476603,-0.544001 0.719245,-0.792529 0.242642,-0.248528 0.441167,-0.461113 0.441167,-0.472413 0,-0.01131 -0.06936,0.0092 -0.154142,0.04552 -0.449023,0.192473 -1.050239,0.11793 -1.333501,-0.165332 -0.138831,-0.138831 -0.161646,-0.237919 -0.09498,-0.412488 0.07169,-0.187722 0.07154,-0.188085 -0.06468,-0.150473 -0.06517,0.01797 -0.166124,0.02263 -0.224335,0.01024 -0.343731,-0.07301 -0.268925,-0.364047 0.09357,-0.364047 0.201007,0 0.315731,0.07534 0.315731,0.207332 0,0.04439 0.01127,0.07572 0.02506,0.06962 0.01378,-0.0061 0.118472,-0.04838 0.232643,-0.09399 0.114172,-0.04562 0.207585,-0.0912 0.207585,-0.101336 0,-0.01014 -0.05092,-0.03681 -0.113152,-0.05934 -0.141483,-0.05115 -0.170449,-0.12089 -0.0855,-0.205832 0.08661,-0.08662 0.297076,-0.08773 0.402692,-0.002 l 0.07846,0.06359 -0.07236,0.09797 -0.07236,0.09797 0.251644,0.01905 c 0.563625,0.04265 0.944855,0.401751 0.77111,0.726399 -0.01976,0.03692 -0.02811,0.07495 -0.01856,0.0845 0.0096,0.0096 0.201449,-0.130331 0.426437,-0.310859 0.224987,-0.180528 0.53331,-0.415595 0.685161,-0.522369 0.151852,-0.106779 0.268945,-0.20129 0.260207,-0.21003 -0.0087,-0.0088 -0.102153,0.002 -0.207586,0.02391 -0.356426,0.074 -0.734826,-0.04219 -0.837305,-0.257088 -0.0524,-0.109877 -0.05166,-0.120818 0.0164,-0.245072 l 0.07124,-0.130055 h -0.126496 c -0.07819,0 -0.156461,-0.0254 -0.204957,-0.06647 l -0.07846,-0.06647 0.07846,-0.06647 c 0.04315,-0.03656 0.121671,-0.06647 0.174483,-0.06647 0.111906,0 0.236166,0.108734 0.208035,0.182038 -0.02397,0.06248 -0.0041,0.06252 0.200692,3.95e-4 0.205107,-0.06222 0.364173,-0.06265 0.56725,-0.0015 0.222527,0.06697 0.349735,0.196139 0.349735,0.355117 0,0.06862 -0.01496,0.134007 -0.03324,0.145302 -0.04118,0.02545 -0.04375,0.08309 -0.0037,0.08309 0.0256,0 0.832777,-0.474348 1.067202,-0.627156 0.08114,-0.05289 0.07667,-0.05457 -0.190231,-0.07195 -0.204928,-0.01331 -0.296405,-0.03502 -0.365583,-0.08661 -0.17245,-0.128631 -0.143066,-0.305704 0.06766,-0.407716 0.178815,-0.08657 0.394263,-0.08802 0.579517,-0.0041 0.182812,0.08298 0.233538,0.186995 0.160283,0.328652 -0.03092,0.05979 -0.03919,0.104311 -0.01938,0.104311 0.04935,0 0.888707,-0.423813 0.911093,-0.460038 0.01024,-0.01659 -0.05502,-0.03722 -0.145039,-0.04588 -0.436854,-0.04198 -0.45541,-0.381454 -0.02281,-0.417331 0.286374,-0.02376 0.479406,0.119349 0.388963,0.288342 -0.0655,0.122379 -0.07402,0.124264 0.50499,-0.111638 0.123385,-0.05028 0.224257,-0.101029 0.224161,-0.112795 -9.9e-5,-0.01178 -0.06998,-0.04383 -0.155297,-0.07124 -0.193366,-0.06215 -0.247295,-0.13647 -0.164998,-0.227407 0.163914,-0.181127 0.621068,-0.06137 0.515898,0.135139 -0.01905,0.03558 -0.02631,0.07305 -0.01613,0.08324 0.02153,0.0215 0.513512,-0.150069 0.580439,-0.202443 0.03543,-0.02775 0.01569,-0.04787 -0.0914,-0.09337 -0.215365,-0.09147 -0.156543,-0.235974 0.09606,-0.235974 0.164174,0 0.243715,0.06014 0.21753,0.164462 -0.01131,0.04506 -0.0045,0.07725 0.01642,0.07725 0.0197,0 0.276995,-0.07546 0.571777,-0.167692 1.746124,-0.546321 3.687232,-0.905468 5.77477,-1.06846 0.677008,-0.05286 3.118593,-0.05367 3.822007,-10e-4 2.063595,0.153725 4.049187,0.519436 5.808005,1.06973 0.294783,0.09223 0.552081,0.167692 0.571776,0.167692 0.02088,0 0.02773,-0.03221 0.01643,-0.07725 -0.02618,-0.104327 0.05335,-0.164462 0.217529,-0.164462 0.252598,0 0.31142,0.144504 0.09605,0.235974 -0.107083,0.04547 -0.126824,0.06564 -0.0914,0.09337 0.06693,0.05237 0.558914,0.223967 0.58044,0.202442 0.01018,-0.01019 0.0029,-0.04762 -0.01613,-0.08324 -0.103852,-0.194051 0.351482,-0.31682 0.513016,-0.138324 0.03083,0.03405 0.04698,0.08561 0.03587,0.114531 -0.02325,0.06062 -0.216784,0.149295 -0.325807,0.149295 -0.049,0 -0.06301,0.01116 -0.04125,0.03292 0.0402,0.04019 0.75463,0.333854 0.77141,0.317076 0.0066,-0.0066 -0.005,-0.04373 -0.0258,-0.08254 -0.09308,-0.173928 0.09589,-0.317449 0.386273,-0.293369 0.432597,0.03589 0.414039,0.375357 -0.02282,0.417331 -0.09002,0.0087 -0.155287,0.02929 -0.145041,0.04588 0.02238,0.03625 0.861743,0.460037 0.911094,0.460037 0.01981,0 0.01154,-0.04449 -0.01938,-0.104311 -0.07326,-0.141656 -0.02253,-0.24567 0.160285,-0.328651 0.450655,-0.204562 1.002616,0.146526 0.647173,0.411653 -0.06918,0.0516 -0.160654,0.07327 -0.365584,0.08661 -0.266902,0.01736 -0.271365,0.01905 -0.190229,0.07195 0.234425,0.152808 1.0416,0.627156 1.0672,0.627156 0.04006,0 0.0375,-0.05763 -0.0037,-0.08309 -0.01828,-0.01131 -0.03323,-0.07668 -0.03323,-0.145302 0,-0.30189 0.478797,-0.486509 0.916985,-0.353582 0.20477,0.06212 0.224665,0.06208 0.200692,-3.94e-4 -0.02813,-0.07331 0.09613,-0.182039 0.208034,-0.182039 0.05281,0 0.13133,0.0299 0.174483,0.06647 l 0.07846,0.06647 -0.07846,0.06647 c -0.0485,0.04106 -0.126771,0.06647 -0.204956,0.06647 h -0.126496 l 0.07124,0.130055 c 0.06806,0.124248 0.06879,0.135195 0.01639,0.245072 -0.102476,0.214894 -0.480879,0.331083 -0.837302,0.257088 -0.105434,-0.02191 -0.198848,-0.03267 -0.207588,-0.02391 -0.0087,0.0088 0.108355,0.103252 0.260205,0.210025 0.151854,0.106779 0.460177,0.341847 0.685163,0.522375 0.224987,0.180523 0.416885,0.320413 0.426436,0.310859 0.0096,-0.0096 0.0012,-0.04756 -0.01856,-0.0845 -0.173745,-0.324643 0.207485,-0.683764 0.771109,-0.726394 l 0.251646,-0.01905 -0.07236,-0.09797 -0.07236,-0.09797 0.07846,-0.06359 c 0.105611,-0.0856 0.316076,-0.08449 0.402687,0.002 0.08495,0.08495 0.05598,0.154677 -0.0855,0.205837 -0.06223,0.02248 -0.113148,0.0492 -0.113148,0.05934 0,0.01014 0.09341,0.05573 0.207583,0.101336 0.114172,0.04562 0.218862,0.0879 0.232645,0.09399 0.01377,0.0061 0.02504,-0.02524 0.02504,-0.06963 0,-0.131996 0.114726,-0.207327 0.315734,-0.207327 0.270508,0 0.40408,0.159003 0.250402,0.29808 -0.07041,0.06372 -0.288669,0.08471 -0.439993,0.04234 l -0.08989,-0.02519 0.06423,0.141503 c 0.08035,0.177026 0.08126,0.250166 0.0046,0.366515 -0.151145,0.229225 -0.489719,0.367912 -0.888285,0.363867 -0.208335,-0.002 -0.387379,-0.0446 -0.66245,-0.157232 -0.03656,-0.01495 0.143199,0.188377 0.399458,0.451881 0.256259,0.263504 0.597696,0.63987 0.758742,0.836373 0.161046,0.196503 0.298812,0.357273 0.306144,0.357273 0.0073,0 0.0041,-0.0673 -0.0072,-0.149552 -0.05074,-0.370206 0.267697,-0.712544 0.786723,-0.845763 0.257001,-0.06597 0.255025,-0.06394 0.147555,-0.150642 -0.0814,-0.06566 -0.09196,-0.08958 -0.06156,-0.139404 0.05105,-0.08367 0.208832,-0.12301 0.321427,-0.08014 0.11961,0.04552 0.146787,0.121776 0.07262,0.203728 -0.03256,0.03599 -0.05308,0.07074 -0.04557,0.07722 0.0278,0.02401 0.56655,0.05169 0.555128,0.02852 -0.0065,-0.01326 -0.03205,-0.06425 -0.05671,-0.113353 -0.02468,-0.0491 -0.0362,-0.111791 -0.02565,-0.139312 0.06438,-0.167748 0.469167,-0.230049 0.645077,-0.09929 0.138119,0.102673 0.139317,0.227208 0.0031,0.310327 -0.06058,0.03692 -0.158747,0.06721 -0.218156,0.06728 -0.143146,1.64e-4 -0.136659,0.05059 0.01664,0.129082 0.06855,0.03512 0.183011,0.110388 0.25437,0.167277 0.142813,0.11386 0.15164,0.112252 0.201448,-0.03676 0.08702,-0.260324 0.630116,-0.313343 0.873575,-0.08528 0.201111,0.188393 -0.04091,0.424044 -0.435502,0.424044 -0.106528,0 -0.222733,-0.02504 -0.300773,-0.06484 l -0.127182,-0.06484 0.02043,0.102227 c 0.01126,0.05622 0.02043,0.181005 0.02043,0.277282 v 0.175055 l 0.124632,-0.06508 c 0.248421,-0.129722 0.661978,-0.0095 0.632845,0.184015 -0.01736,0.115217 -0.179509,0.203963 -0.372679,0.203963 -0.208156,0 -0.325733,-0.05537 -0.388592,-0.183006 l -0.04608,-0.09352 -0.196477,0.179806 -0.196482,0.179806 h 0.114305 c 0.126476,0 0.26204,0.07774 0.26204,0.150269 0,0.102826 -0.263515,0.154785 -0.403922,0.07964 -0.04992,-0.02673 -0.06201,-0.05666 -0.04705,-0.116323 0.02447,-0.09741 0.03164,-0.09719 -0.315134,-0.0095 -0.228135,0.05769 -0.338948,0.06737 -0.596242,0.05205 -0.377154,-0.02248 -0.581245,-0.08012 -0.844452,-0.23862 -0.107833,-0.06494 -0.202437,-0.111699 -0.210224,-0.103917 -0.0078,0.0078 0.0794,0.168814 0.193743,0.357846 0.385418,0.637182 0.730909,1.429423 0.892667,2.046975 0.03973,0.151717 0.100907,0.190558 0.100907,0.06408 0,-0.156116 0.109886,-0.392258 0.260626,-0.560088 0.210711,-0.23459 0.48915,-0.407096 0.831775,-0.515318 0.157764,-0.04982 0.300855,-0.102325 0.317981,-0.116656 0.0172,-0.01439 -0.01623,-0.0426 -0.07478,-0.06298 -0.110235,-0.03845 -0.137919,-0.118063 -0.06603,-0.189949 0.06169,-0.06168 0.273939,-0.04895 0.336496,0.02017 0.0491,0.05426 0.04941,0.06705 0.0031,0.132943 l -0.05105,0.0729 h 0.315652 c 0.173611,0 0.323429,-0.0126 0.332927,-0.02796 0.0095,-0.01536 -0.02698,-0.06069 -0.08112,-0.100702 -0.205396,-0.151851 -0.08647,-0.341272 0.226886,-0.361363 0.390548,-0.02504 0.551174,0.225538 0.243935,0.380543 -0.07993,0.0403 -0.152153,0.08014 -0.160499,0.08849 -0.0083,0.0083 0.07201,0.03241 0.178562,0.05344 0.106554,0.02104 0.30595,0.07469 0.443111,0.119226 0.137156,0.04454 0.260319,0.08096 0.273698,0.08096 0.01336,0 -0.0053,-0.04859 -0.04152,-0.108012 -0.09034,-0.148165 -0.08286,-0.235702 0.02975,-0.348303 0.157575,-0.15757 0.518273,-0.223142 0.79341,-0.144232 0.103963,0.0298 0.107793,0.0275 0.107793,-0.06584 0,-0.07417 0.01843,-0.101382 0.07907,-0.116594 0.211213,-0.05301 0.407173,0.06959 0.27185,0.170078 -0.03548,0.02637 -0.113553,0.04792 -0.173483,0.04792 h -0.108994 l 0.08208,0.120962 c 0.10895,0.160534 0.103594,0.229762 -0.02796,0.361287 -0.142697,0.142696 -0.340029,0.195437 -0.637766,0.170472 l -0.232645,-0.01951 0.149557,0.123757 c 0.225544,0.186635 0.350857,0.32951 0.416312,0.474659 0.03251,0.07205 0.06802,0.130459 0.07895,0.129799 0.01091,-5.12e-4 0.04977,-0.06423 0.08634,-0.141247 0.08202,-0.172808 0.248518,-0.271553 0.548165,-0.325104 0.182325,-0.03256 0.250934,-0.03021 0.42713,0.01495 0.258492,0.06622 0.246368,0.06672 0.222273,-0.0092 -0.0426,-0.134207 0.186564,-0.222763 0.350038,-0.135272 0.138369,0.07405 0.03425,0.198238 -0.166172,0.198238 -0.05604,0 -0.10127,0.01121 -0.100507,0.02493 5.12e-4,0.01372 0.05164,0.0818 0.113056,0.151313 l 0.111669,0.126389 0.08484,-0.08485 c 0.09959,-0.09959 0.295468,-0.115298 0.41282,-0.03313 0.224059,0.15694 -0.129179,0.333136 -0.393671,0.196364 -0.09119,-0.04716 -0.100026,-0.04654 -0.116789,0.0083 -0.09649,0.315585 -0.297353,0.425129 -0.778306,0.424484 -0.344073,-4.61e-4 -0.498832,-0.05398 -0.662178,-0.228985 -0.1109,-0.118811 -0.135343,-0.108955 -0.136188,0.05493 -5.12e-4,0.147586 -0.08158,0.359004 -0.201761,0.527776 -0.03886,0.05456 -0.06457,0.105269 -0.05715,0.112688 0.0074,0.0074 0.0862,-0.0084 0.17508,-0.03512 0.209206,-0.06296 0.40021,-0.06161 0.593323,0.0041 0.155287,0.05291 0.322108,0.208463 0.322108,0.300343 0,0.372643 -0.802964,0.517311 -1.137375,0.20492 -0.08879,-0.08293 -0.09871,-0.110286 -0.0829,-0.228247 0.0099,-0.07371 0.0081,-0.129348 -0.0041,-0.123645 -0.38316,0.180667 -0.731806,0.372833 -0.717736,0.395597 0.01009,0.01633 0.05559,0.02965 0.101116,0.02965 0.04552,0 0.125841,0.02227 0.178476,0.04951 0.346177,0.179013 -0.116589,0.503507 -0.475306,0.333285 -0.156403,-0.07422 -0.183211,-0.162725 -0.08821,-0.291218 l 0.07413,-0.100267 -0.195315,0.02232 c -0.107424,0.01229 -0.261641,0.03128 -0.342702,0.04229 l -0.147386,0.01997 0.07521,0.0609 c 0.09554,0.07736 0.0789,0.168399 -0.03835,0.209626 -0.113845,0.04004 -0.268824,-0.0092 -0.284456,-0.09037 -0.0062,-0.0321 0.02335,-0.08635 0.06562,-0.120582 l 0.07685,-0.06223 -0.198878,-0.02084 c -0.746171,-0.07814 -1.378831,-0.37623 -1.649831,-0.777326 -0.132517,-0.196134 -0.124279,-0.186887 -0.146608,-0.164559 -0.01039,0.01039 -0.0031,0.105586 0.01669,0.211536 0.16933,0.915984 0.07653,2.159212 -0.231704,3.104125 -0.221268,0.678318 -0.23862,0.641178 0.127669,0.273288 0.477543,-0.479637 1.029742,-0.761486 1.780671,-0.908888 0.184947,-0.0363 0.369919,-0.07294 0.411049,-0.08142 0.09138,-0.01884 0.09731,-0.06899 0.01137,-0.09626 -0.08078,-0.02565 -0.114833,-0.11257 -0.06678,-0.170483 0.06297,-0.07586 0.253172,-0.09391 0.346352,-0.03287 0.09516,0.06235 0.105606,0.125564 0.03098,0.187497 -0.08378,0.06953 0.002,0.08592 0.345216,0.06605 l 0.309871,-0.01792 -0.102156,-0.09761 c -0.123542,-0.118043 -0.126173,-0.150734 -0.02017,-0.250335 0.156137,-0.146679 0.566218,-0.122769 0.652276,0.03804 0.05542,0.103559 4.3e-4,0.195761 -0.158727,0.266167 -0.08196,0.03625 -0.14241,0.07254 -0.134325,0.08062 0.0081,0.0081 0.147668,0.03666 0.310183,0.06348 0.162516,0.02683 0.377743,0.07113 0.478281,0.09845 0.258502,0.07024 0.291946,0.06636 0.209354,-0.02432 -0.1322,-0.145138 -0.150786,-0.214259 -0.09132,-0.339573 0.08279,-0.174476 0.29747,-0.265905 0.619425,-0.263806 l 0.255558,0.0015 -0.01864,-0.0931 c -0.01582,-0.07921 -0.0046,-0.09838 0.07425,-0.128416 0.110168,-0.04188 0.259177,-0.01551 0.318908,0.05646 0.03584,0.04321 0.03031,0.06163 -0.03461,0.114187 -0.04255,0.03446 -0.113112,0.06266 -0.156786,0.06266 -0.10512,0 -0.100712,0.01761 0.03692,0.147406 0.135088,0.127403 0.148871,0.234305 0.0469,0.363919 -0.104854,0.133301 -0.251083,0.193477 -0.527663,0.217142 l -0.250417,0.0214 0.208202,0.10768 c 0.30429,0.15738 0.533695,0.310107 0.727254,0.484168 0.09408,0.08459 0.180753,0.153825 0.192606,0.153825 0.01188,0 0.01172,-0.0522 -3.33e-4,-0.1161 -0.02867,-0.152885 -3.33e-4,-0.255 0.106175,-0.381496 0.177753,-0.211244 0.658635,-0.36439 1.012579,-0.322467 0.170882,0.02023 0.227536,-0.0099 0.145953,-0.07758 -0.06306,-0.05234 -0.0635,-0.146096 -10e-4,-0.198023 0.08358,-0.06938 0.296308,-0.07998 0.41133,-0.02048 0.173647,0.0898 0.12771,0.229256 -0.08985,0.272772 -0.09611,0.0192 -0.181209,0.07899 -0.112472,0.07899 0.01587,0 0.11577,0.05235 0.222016,0.116323 0.106247,0.06398 0.196969,0.116322 0.201608,0.116322 0.0046,0 0.01756,-0.04552 0.02867,-0.101177 0.04137,-0.206933 0.466904,-0.265967 0.643587,-0.08929 0.210045,0.210045 -0.172813,0.414894 -0.511187,0.273509 l -0.119415,-0.04992 0.02621,0.108059 c 0.08923,0.367778 -0.107076,0.609908 -0.598182,0.737788 -0.367825,0.0958 -0.719389,0.0521 -1.089764,-0.13547 -0.08683,-0.044 -0.157867,-0.0738 -0.157867,-0.0662 0,0.008 0.05609,0.13118 0.124633,0.27474 0.113767,0.23828 0.124627,0.28564 0.124627,0.54352 0,0.15537 -0.01347,0.34232 -0.0299,0.41544 l -0.0299,0.13293 0.151241,-0.13888 c 0.306718,-0.28167 0.678716,-0.39548 1.188131,-0.36352 0.173652,0.0109 0.356833,0.0292 0.407066,0.0406 0.08682,0.0198 0.09035,0.0159 0.07137,-0.079 -0.01823,-0.0911 -0.0098,-0.10321 0.09497,-0.1378 0.07965,-0.0263 0.141934,-0.0277 0.202826,-0.005 0.161697,0.0615 0.08102,0.23446 -0.109354,0.23446 -0.110772,0 -0.07921,0.0415 0.140218,0.18428 0.237341,0.15446 0.318919,0.28698 0.321294,0.52196 0.001,0.0868 0.0087,0.15787 0.01741,0.15787 0.0087,0 0.06429,-0.0295 0.123547,-0.0655 0.231862,-0.14101 0.60323,-0.10395 0.73564,0.0734 0.0558,0.0747 0.06078,0.1038 0.02954,0.17235 -0.05514,0.12101 -0.226686,0.19856 -0.439266,0.19856 -0.225748,0 -0.391208,-0.0812 -0.437775,-0.21475 -0.04142,-0.11877 -0.07022,-0.12217 -0.139507,-0.0164 -0.02923,0.0446 -0.12069,0.1276 -0.20323,0.18439 -0.08254,0.0568 -0.150064,0.11748 -0.150064,0.13488 0,0.0174 0.07276,0.0316 0.161691,0.0316 0.179889,0 0.336829,0.0929 0.336829,0.19941 0,0.22466 -0.58381,0.2797 -0.698274,0.0658 -0.0298,-0.0556 -0.02622,-0.0877 0.01725,-0.15402 0.03016,-0.0461 0.04905,-0.0895 0.04198,-0.0966 -0.01413,-0.0141 -0.531847,0.0852 -0.555409,0.10662 -0.008,0.007 0.01812,0.0362 0.05816,0.0642 0.04004,0.028 0.07277,0.072 0.07277,0.0978 0,0.11035 -0.285259,0.15795 -0.379827,0.0634 -0.06915,-0.0691 -0.06586,-0.10487 0.01423,-0.15489 0.09638,-0.0602 0.08247,-0.0864 -0.05816,-0.10946 -0.255987,-0.042 -0.562495,-0.1491 -0.71369,-0.24925 -0.194511,-0.12883 -0.293231,-0.28508 -0.32045,-0.50714 l -0.02104,-0.17193 -0.154826,0.21702 c -0.08515,0.11936 -0.217372,0.27353 -0.293825,0.34259 -0.154257,0.13937 -0.59855,0.43771 -0.699574,0.46978 -0.03569,0.0113 -0.06485,0.0354 -0.06485,0.0536 0,0.0207 0.08329,0.0249 0.224336,0.0112 0.630996,-0.0615 1.171526,0.23131 1.171526,0.63458 0,0.10301 0.0089,0.11776 0.05816,0.0968 0.183165,-0.0779 0.296001,-0.0911 0.388976,-0.0456 0.05231,0.0256 0.111439,0.0737 0.131407,0.10684 0.05591,0.0928 -0.08143,0.18902 -0.269781,0.18902 -0.123501,0 -0.165486,-0.0175 -0.244094,-0.10163 -0.09393,-0.10055 -0.09539,-0.10089 -0.137965,-0.0322 -0.02365,0.0382 -0.09885,0.10821 -0.167078,0.1556 -0.06822,0.0474 -0.115949,0.0993 -0.106052,0.1153 0.0099,0.016 0.08358,0.0291 0.163745,0.0291 0.191638,0 0.33604,0.11352 0.304454,0.23936 -0.06099,0.24303 -0.686769,0.21191 -0.686769,-0.0341 0,-0.0507 0.01771,-0.1099 0.03932,-0.13154 0.06049,-0.0605 0.02145,-0.073 -0.123348,-0.0394 -0.0726,0.0169 -0.195566,0.031 -0.273252,0.0314 -0.156659,0.001 -0.173709,0.0276 -0.07478,0.11712 0.103774,0.0939 0.08375,0.17896 -0.05586,0.23729 -0.137719,0.0575 -0.289846,0.0402 -0.382325,-0.0434 -0.08911,-0.0807 -0.07415,-0.1381 0.05593,-0.21485 0.06395,-0.0377 0.109067,-0.0803 0.100266,-0.0945 -0.0088,-0.0142 -0.07982,-0.042 -0.157816,-0.0618 -0.194506,-0.0493 -0.443198,-0.2137 -0.50556,-0.3343 -0.109313,-0.21139 -0.05237,-0.4236 0.164339,-0.61248 0.12687,-0.11058 0.08152,-0.11159 -0.299345,-0.007 -0.164385,0.0453 -0.44844,0.0991 -0.631232,0.11954 -0.182791,0.0205 -0.384691,0.0486 -0.448666,0.0625 -0.09914,0.0216 -0.106507,0.029 -0.04987,0.0506 0.246234,0.0938 0.358199,0.16736 0.405345,0.26623 0.04419,0.0926 0.04495,0.12076 0.0058,0.20228 -0.05885,0.12239 -0.228161,0.23525 -0.395274,0.26349 -0.14582,0.0246 -0.166945,0.062 -0.0657,0.11619 0.176048,0.0942 -0.02652,0.26628 -0.229978,0.19535 -0.13158,-0.0459 -0.149173,-0.11338 -0.04987,-0.19148 0.09379,-0.0738 0.08699,-0.0817 -0.116942,-0.13642 -0.18359,-0.0493 -0.36759,-0.2241 -0.36759,-0.34932 0,-0.11186 0.154979,-0.26321 0.325211,-0.31759 0.186391,-0.0595 0.196697,-0.0908 0.0361,-0.10945 -0.07989,-0.009 -0.317479,-0.0404 -0.52798,-0.0691 -0.503451,-0.0688 -0.494035,-0.0698 -0.384666,0.0443 0.16352,0.17068 0.01807,0.33547 -0.296124,0.33547 -0.251881,0 -0.420444,-0.12754 -0.363765,-0.27525 0.02688,-0.0701 0.217071,-0.1568 0.343859,-0.1568 0.05665,0 0.102995,-0.0123 0.102995,-0.0274 0,-0.0216 -0.61943,-0.2717 -0.673022,-0.2717 -0.0074,0 -0.0071,0.0432 5.12e-4,0.0961 0.01244,0.0847 5.12e-4,0.10049 -0.09911,0.13343 -0.210793,0.0696 -0.411367,-0.0637 -0.285428,-0.1896 0.02191,-0.0219 0.07801,-0.0401 0.124627,-0.0404 0.192489,-10e-4 0.171046,-0.0528 -0.09344,-0.22507 -0.324161,-0.21114 -0.637458,-0.54746 -0.778557,-0.83579 -0.100051,-0.20444 -0.106773,-0.24066 -0.106773,-0.57541 0,-0.19648 -0.0087,-0.35725 -0.01935,-0.35728 -0.01065,-2e-5 -0.105617,0.16074 -0.211075,0.35724 -0.814699,1.51802 -2.167772,2.88485 -4.02207,4.06297 -0.302092,0.19193 -0.536324,0.35333 -0.520521,0.35866 0.01581,0.005 0.181558,-0.0512 0.368335,-0.1256 0.971192,-0.38692 2.02923,-0.56154 3.154145,-0.52056 0.322206,0.0117 0.659736,0.0311 0.750069,0.0432 l 0.164241,0.0218 -0.07212,-0.0917 c -0.07745,-0.0985 -0.0597,-0.19023 0.04454,-0.23023 0.103619,-0.0398 0.274184,-0.0199 0.349029,0.0408 0.09536,0.0772 0.06794,0.16332 -0.0684,0.21479 -0.05479,0.0207 -0.09963,0.0482 -0.09963,0.0612 0,0.013 0.086,0.0411 0.191101,0.0624 0.105105,0.0214 0.280195,0.0592 0.389084,0.0841 0.108888,0.0249 0.204915,0.0383 0.213389,0.0299 0.0084,-0.008 -0.01889,-0.0519 -0.0608,-0.0965 -0.213205,-0.22695 0.191634,-0.45136 0.546654,-0.30302 0.263842,0.11024 0.149331,0.3601 -0.185383,0.40451 -0.09221,0.0122 -0.155486,0.0327 -0.140627,0.0455 0.01485,0.0128 0.146659,0.0657 0.292888,0.11755 0.146234,0.0518 0.360744,0.1365 0.476698,0.18817 0.282172,0.12571 0.321315,0.12339 0.237489,-0.0141 -0.09254,-0.15178 -0.08299,-0.21719 0.05007,-0.34265 0.08239,-0.0777 0.170888,-0.12091 0.304501,-0.14865 0.17806,-0.037 0.247212,-0.0343 0.499477,0.0193 0.09781,0.0208 0.104378,0.0168 0.08622,-0.0527 -0.03702,-0.14154 0.199488,-0.22256 0.341616,-0.11702 0.09816,0.0729 0.02493,0.16411 -0.148257,0.18474 l -0.139552,0.0166 0.08476,0.11447 c 0.102166,0.13797 0.106999,0.23051 0.01792,0.34372 -0.105069,0.13358 -0.315673,0.19723 -0.610025,0.18436 -0.139629,-0.006 -0.253837,-6e-5 -0.253796,0.0134 0,0.0135 0.06364,0.0638 0.141323,0.11173 0.32004,0.19763 0.506707,0.33801 0.749977,0.56401 l 0.25652,0.23832 -5.12e-4,-0.21537 c -5.12e-4,-0.21441 0,-0.21598 0.154524,-0.35585 0.196416,-0.17792 0.448886,-0.26113 0.825333,-0.272 0.215161,-0.006 0.279243,-0.0185 0.26886,-0.0518 -0.06139,-0.19623 0.04705,-0.30727 0.273785,-0.28035 0.1207,0.0143 0.254989,0.098 0.254989,0.15883 0,0.0585 -0.13625,0.16102 -0.214064,0.16102 -0.132113,0 -0.129635,0.0594 0.0052,0.12495 0.06917,0.0336 0.166745,0.0882 0.21683,0.12125 0.0881,0.0581 0.09169,0.0581 0.110409,-0.002 0.0558,-0.17807 0.204597,-0.25622 0.429993,-0.22586 0.277814,0.0374 0.370528,0.20613 0.191101,0.34773 -0.07587,0.0599 -0.122441,0.0695 -0.274185,0.0569 -0.100537,-0.008 -0.208012,-0.026 -0.238835,-0.0392 -0.05002,-0.0214 -0.054,-0.003 -0.03697,0.16986 0.0105,0.10662 0.02186,0.19743 0.02524,0.2018 0.0036,0.005 0.06875,-0.0166 0.145282,-0.0467 0.115647,-0.0454 0.16122,-0.048 0.269771,-0.0155 0.269448,0.0807 0.180195,0.30355 -0.121597,0.30355 -0.123398,0 -0.165501,-0.0175 -0.243776,-0.10129 l -0.09461,-0.10128 -0.05638,0.086 c -0.03103,0.0473 -0.12134,0.1241 -0.200747,0.17064 -0.408796,0.23958 -1.010178,0.23602 -1.433157,-0.009 -0.07769,-0.0449 -0.141247,-0.0739 -0.141247,-0.0644 0,0.009 0.07473,0.15706 0.166059,0.32801 0.200005,0.37431 0.298602,0.73479 0.300973,1.10033 0.0015,0.26347 0.0031,0.2672 0.05806,0.18578 0.12855,-0.18964 0.351697,-0.39629 0.530546,-0.49132 0.327776,-0.17416 0.564415,-0.22143 1.096748,-0.21911 0.440986,0.002 0.470529,-0.002 0.423747,-0.0535 -0.118197,-0.13061 0.002,-0.26636 0.235922,-0.26636 0.171302,0 0.297179,0.0891 0.265752,0.18812 -0.02156,0.0679 -0.147427,0.14423 -0.237796,0.14423 -0.104357,0 -0.03599,0.0555 0.22497,0.18279 0.149946,0.0731 0.284271,0.13788 0.2985,0.14392 0.01423,0.006 0.01654,-0.0357 0.0051,-0.0928 -0.05257,-0.26286 0.397368,-0.42546 0.743044,-0.26854 0.236849,0.10753 0.235814,0.32781 -0.002,0.43581 -0.156444,0.071 -0.360233,0.0817 -0.516978,0.027 -0.0585,-0.0204 -0.113922,-0.0295 -0.123168,-0.0203 -0.0093,0.009 0.03057,0.084 0.08843,0.16611 0.06722,0.0954 0.111479,0.20473 0.122528,0.30276 0.01879,0.1668 0.05203,0.19226 0.109872,0.0842 0.05992,-0.11197 0.286611,-0.19504 0.534493,-0.19586 0.254058,-0.001 0.425437,0.0598 0.524438,0.18571 0.194665,0.24748 -0.05802,0.49104 -0.512068,0.49358 -0.277584,0.002 -0.46057,-0.076 -0.57105,-0.24188 l -0.07341,-0.11024 -0.06663,0.13059 c -0.03666,0.0718 -0.142148,0.19851 -0.234453,0.2815 -0.09231,0.083 -0.16783,0.15704 -0.16783,0.16455 0,0.008 0.08919,0.007 0.198197,-5.1e-4 0.246378,-0.0178 0.334105,0.004 0.463934,0.11274 0.1228,0.10333 0.129466,0.18891 0.02299,0.29538 -0.172571,0.17256 -0.601889,0.18073 -0.779959,0.0148 -0.07781,-0.0725 -0.09485,-0.2265 -0.03205,-0.28932 0.07887,-0.0789 -0.0057,-0.0767 -0.270575,0.007 -0.148886,0.0471 -0.291485,0.0855 -0.31688,0.0855 -0.09886,0 -0.08024,0.0669 0.03164,0.11362 0.09052,0.0378 0.117659,0.0684 0.117659,0.13277 0,0.19045 -0.438657,0.22668 -0.536265,0.0443 -0.0321,-0.06 -0.02473,-0.0815 0.04987,-0.14571 0.04818,-0.0414 0.08756,-0.0835 0.08756,-0.0935 0,-0.01 -0.09036,-0.0182 -0.200814,-0.0182 -0.489493,0 -1.074306,-0.20986 -1.348261,-0.48382 -0.10256,-0.10256 -0.157959,-0.19551 -0.197414,-0.33122 -0.03016,-0.10376 -0.0656,-0.17595 -0.07875,-0.16041 -0.01316,0.0155 -0.06601,0.13843 -0.11746,0.27309 -0.05146,0.13466 -0.165495,0.3524 -0.253422,0.48386 -0.183882,0.27494 -0.621069,0.70803 -0.918826,0.91023 -0.183892,0.12488 -0.274011,0.20561 -0.229517,0.20561 0.0089,0 0.155598,-0.0381 0.325999,-0.0846 0.377139,-0.10302 0.933843,-0.13995 1.283748,-0.0852 0.133516,0.0209 0.377999,0.0815 0.543295,0.13465 0.282443,0.0908 0.299519,0.0928 0.283647,0.032 -0.02299,-0.0879 0.06061,-0.16311 0.181163,-0.16311 0.278731,0 0.301843,0.19227 0.02765,0.23003 l -0.139614,0.0192 0.207194,0.17503 0.207188,0.17504 0.05423,-0.10811 c 0.02985,-0.0594 0.09162,-0.12679 0.137315,-0.14962 0.210255,-0.10504 0.564994,0.003 0.564994,0.17228 0,0.1578 -0.284783,0.26007 -0.513773,0.18449 -0.06717,-0.0222 -0.130659,-0.0318 -0.141063,-0.0214 -0.01039,0.0104 0.013,0.0932 0.05208,0.18396 0.03907,0.0908 0.07099,0.21835 0.07099,0.28351 0,0.12775 0.03287,0.14914 0.101726,0.0662 0.09874,-0.11899 0.308058,-0.19295 0.546356,-0.19306 0.63644,-3e-4 0.804009,0.4961 0.224351,0.66461 -0.308355,0.0897 -0.68338,-0.0149 -0.789513,-0.22019 -0.02826,-0.0547 -0.05823,-0.0994 -0.06659,-0.0994 -0.0083,0 -0.05366,0.0759 -0.100665,0.16865 -0.047,0.0928 -0.168727,0.24802 -0.270488,0.34502 l -0.185029,0.17638 0.294854,-0.0165 c 0.473923,-0.0265 0.751124,0.0881 0.841687,0.34803 0.04762,0.13671 0.04685,0.14047 -0.05524,0.26752 l -0.103553,0.12885 0.168532,0.0305 c 0.308202,0.0558 0.308683,0.25481 5.12e-4,0.27307 -0.185731,0.011 -0.292315,-0.0554 -0.263812,-0.16443 0.01833,-0.0701 -0.02468,-0.076 -0.221273,-0.0304 -0.158246,0.0367 -0.187799,0.0643 -0.113415,0.10597 0.07226,0.0405 0.07554,0.14815 0.0053,0.1751 -0.208556,0.08 -0.428677,-0.0509 -0.271583,-0.16159 0.06356,-0.0448 0.06735,-0.0576 0.02504,-0.0846 -0.02744,-0.0175 -0.07977,-0.0324 -0.116323,-0.033 -0.116978,-0.002 -0.3322,-0.11982 -0.428416,-0.23417 -0.07558,-0.0898 -0.08981,-0.13256 -0.07482,-0.22488 0.01019,-0.0627 0.04398,-0.14212 0.0751,-0.17652 0.03113,-0.0344 0.04813,-0.071 0.03779,-0.0814 -0.01034,-0.0104 -0.143622,0.0207 -0.296139,0.069 -0.152511,0.0483 -0.400681,0.10449 -0.551487,0.1248 -0.150801,0.0203 -0.274184,0.0486 -0.274184,0.0628 0,0.0142 0.06218,0.0426 0.13819,0.0631 0.16654,0.0448 0.327095,0.19566 0.327095,0.30727 0,0.16184 -0.143976,0.27115 -0.498305,0.37835 -0.0382,0.0116 -0.03052,0.0295 0.03323,0.078 0.06769,0.0515 0.07617,0.0739 0.04628,0.12257 -0.05105,0.083 -0.254175,0.0964 -0.328964,0.0216 -0.0553,-0.0553 -0.05392,-0.0617 0.02888,-0.13289 0.09787,-0.0842 0.08975,-0.0957 -0.09118,-0.12967 -0.07054,-0.0133 -0.178859,-0.0685 -0.240694,-0.12278 -0.213041,-0.18705 -0.111884,-0.42841 0.221412,-0.52826 0.07229,-0.0217 0.131437,-0.0502 0.131437,-0.0635 0,-0.0133 -0.09521,-0.0343 -0.211571,-0.0467 -0.116364,-0.0125 -0.321438,-0.0509 -0.455717,-0.0855 -0.134273,-0.0346 -0.248911,-0.058 -0.254748,-0.0522 -0.0058,0.006 0.01567,0.0563 0.04772,0.11227 0.05603,0.0976 0.05586,0.1044 -0.0041,0.17082 -0.07762,0.0858 -0.291834,0.14635 -0.418832,0.11845 -0.125943,-0.0276 -0.264661,-0.13931 -0.264661,-0.21302 0,-0.10341 0.122774,-0.17921 0.316246,-0.19526 0.100256,-0.008 0.182279,-0.0259 0.182279,-0.039 7.2e-5,-0.0228 -0.444227,-0.30021 -0.48082,-0.30021 -0.0097,0 -0.01761,0.0281 -0.01761,0.0624 0,0.15624 -0.369904,0.16546 -0.392811,0.01 -0.01306,-0.0887 0.125293,-0.15164 0.265644,-0.12081 0.115765,0.0254 0.117275,0.003 0.0092,-0.1394 -0.129481,-0.16976 -0.181163,-0.32272 -0.180359,-0.53381 10e-4,-0.25552 0.08233,-0.42418 0.315191,-0.65335 0.104449,-0.10279 0.175193,-0.1869 0.157196,-0.1869 -0.01797,0 -0.235267,0.0813 -0.482832,0.18062 -0.681419,0.27343 -1.427427,0.44453 -2.249417,0.5159 -0.226522,0.0197 -0.417035,0.041 -0.423363,0.0473 -0.0063,0.006 0.122625,0.0428 0.286565,0.081 0.717075,0.16724 1.129813,0.54063 1.092672,0.98851 -0.01096,0.13206 -0.0036,0.18076 0.02734,0.18076 0.0233,0 0.05038,-0.013 0.06021,-0.0289 0.06281,-0.10163 0.432354,-0.05 0.469023,0.0656 0.06059,0.19089 -0.334657,0.28087 -0.501387,0.11414 l -0.08185,-0.0818 -0.217669,0.21447 -0.217664,0.21448 0.193011,-0.0189 c 0.235318,-0.023 0.428201,0.0378 0.523209,0.16511 0.06176,0.0827 0.06318,0.0974 0.01741,0.17995 -0.109001,0.19655 -0.450776,0.26351 -0.720326,0.14114 -0.158226,-0.0718 -0.208889,-0.18454 -0.145487,-0.32369 0.03594,-0.0789 0.03338,-0.0835 -0.03733,-0.0671 -0.04178,0.01 -0.210532,0.0503 -0.375045,0.0901 -0.164513,0.0399 -0.334929,0.0795 -0.3787,0.088 -0.0965,0.0188 -0.06129,0.0571 0.09962,0.10846 0.230234,0.0735 0.348681,0.30779 0.228677,0.45238 -0.05827,0.0702 -0.278367,0.18214 -0.358174,0.18214 -0.100486,0 -0.112114,0.0397 -0.03553,0.12119 0.101382,0.10791 0.03482,0.18499 -0.147872,0.17125 -0.178706,-0.0134 -0.232436,-0.0969 -0.120901,-0.18788 0.08882,-0.0724 0.09652,-0.0659 -0.157093,-0.1346 -0.148564,-0.0403 -0.309877,-0.19765 -0.309877,-0.30231 0,-0.10003 0.157115,-0.25692 0.319303,-0.31886 0.17186,-0.0656 0.150473,-0.0923 -0.103272,-0.12885 -0.0914,-0.0131 -0.275731,-0.0587 -0.409633,-0.1011 -0.213012,-0.0675 -0.240533,-0.0703 -0.220061,-0.0218 0.08149,0.19305 0.03158,0.30485 -0.175184,0.39236 -0.283078,0.11981 -0.707307,-0.0242 -0.707307,-0.24007 0,-0.17225 0.336433,-0.31746 0.614622,-0.26527 0.0641,0.012 0.116544,0.0149 0.116544,0.006 0,-0.008 -0.08999,-0.10546 -0.199984,-0.21545 l -0.19998,-0.19998 -0.081,0.081 c -0.06242,0.0624 -0.116152,0.081 -0.234255,0.081 -0.196448,0 -0.281822,-0.0462 -0.281822,-0.15242 0,-0.0644 0.02716,-0.095 0.118073,-0.13295 0.119217,-0.0498 0.329245,-0.0365 0.366162,0.0232 0.04857,0.0786 0.08076,0.0104 0.08076,-0.17126 0,-0.24528 0.07183,-0.39917 0.272792,-0.58441 0.183709,-0.16934 0.445327,-0.29362 0.792751,-0.3766 0.149562,-0.0357 0.278848,-0.0719 0.287307,-0.0803 0.0084,-0.008 -0.06441,-0.0233 -0.161907,-0.0331 -0.898715,-0.0896 -1.378344,-0.17382 -1.948976,-0.34219 -0.158876,-0.0469 -0.318776,-0.093 -0.355334,-0.10251 -0.04642,-0.0121 -0.02482,0.0236 0.0716,0.11829 0.172861,0.16972 0.23073,0.32737 0.178385,0.48597 -0.04975,0.15073 -0.250345,0.32783 -0.452599,0.39958 -0.317489,0.11262 -0.302886,0.0973 -0.168155,0.17676 0.194624,0.11483 0.151026,0.25655 -0.09101,0.29583 -0.248832,0.0404 -0.440714,-0.13654 -0.284912,-0.2627 0.10578,-0.0857 0.05741,-0.11357 -0.241259,-0.1392 l -0.256779,-0.022 0.05652,0.0985 c 0.05365,0.0935 0.05341,0.10191 -0.0048,0.16623 -0.08306,0.0918 -0.266396,0.14781 -0.401047,0.12254 -0.140996,-0.0265 -0.283703,-0.13779 -0.283703,-0.22134 0,-0.0927 0.188395,-0.19624 0.357274,-0.19639 0.07769,-6e-5 0.141248,-0.0123 0.141248,-0.0271 0,-0.0149 -0.0486,-0.0628 -0.108013,-0.10645 -0.05941,-0.0437 -0.136612,-0.11553 -0.171568,-0.1596 l -0.06356,-0.0801 -0.04411,0.0842 c -0.08881,0.1695 -0.454876,0.18838 -0.540768,0.0279 -0.09603,-0.17943 0.20906,-0.27467 0.499743,-0.15599 0.0435,0.0178 0.05685,-0.007 0.07067,-0.12927 0.01028,-0.0912 0.05155,-0.1964 0.103999,-0.26517 0.172927,-0.22672 0.650545,-0.37087 1.092658,-0.32978 0.123451,0.0115 0.224458,0.0119 0.224458,10e-4 0,-0.011 -0.160773,-0.10285 -0.357274,-0.20408 -0.196501,-0.10124 -0.481623,-0.27385 -0.633603,-0.38357 -0.151979,-0.10973 -0.286687,-0.19951 -0.299352,-0.19951 -0.01266,0 -0.01787,0.0649 -0.01156,0.14415 0.01013,0.12738 -6.14e-4,0.1543 -0.09219,0.23137 -0.203078,0.17088 -0.56017,0.20397 -0.865991,0.0802 -0.163511,-0.0661 -0.186121,-0.0874 -0.214374,-0.20164 -0.04126,-0.16682 0.02054,-0.28182 0.198223,-0.36889 0.217851,-0.10675 0.530122,-0.10739 0.788861,-0.002 0.09749,0.0398 0.06586,-0.0306 -0.0997,-0.22196 -0.08683,-0.10038 -0.207621,-0.25433 -0.268431,-0.34212 l -0.110569,-0.15961 -0.06214,0.10218 c -0.08263,0.13587 -0.160631,0.17289 -0.364274,0.17289 -0.271233,0 -0.439155,-0.12348 -0.379462,-0.27904 0.0549,-0.14308 0.447467,-0.20521 0.646457,-0.10231 0.121717,0.0629 0.122468,0.0452 0.01128,-0.26807 l -0.08678,-0.24445 -0.09796,0.0724 c -0.109293,0.0808 -0.325818,0.0935 -0.409553,0.024 -0.06967,-0.0578 -0.06255,-0.15736 0.0142,-0.19844 0.09363,-0.0501 0.308781,-0.0421 0.389625,0.0145 0.06967,0.0488 0.06993,0.0477 0.08484,-0.35727 0.01198,-0.32539 0.03197,-0.45424 0.100496,-0.64757 0.179438,-0.5063 0.559984,-0.98998 1.106102,-1.40589 0.173366,-0.13203 0.315212,-0.24559 0.315212,-0.25236 0,-0.0185 -0.161594,0.055 -0.764401,0.34762 -2.591018,1.25798 -5.794469,2.01288 -9.214361,2.1714 -0.488968,0.0227 -0.889032,0.0533 -0.889032,0.0682 0,0.0148 0.06356,0.027 0.141248,0.0271 0.225625,2.3e-4 1.207515,0.12431 1.570346,0.19842 0.79305,0.162 1.709146,0.49152 2.293145,0.82485 0.434153,0.24779 0.458963,0.25763 0.431518,0.17116 -0.03301,-0.10402 0.04099,-0.1643 0.201699,-0.1643 0.119964,0 0.247566,0.06 0.247566,0.11632 0,0.0579 -0.127874,0.11632 -0.254406,0.11632 -0.08247,0 -0.144967,0.0131 -0.138872,0.029 0.01544,0.0404 0.456202,0.36986 0.494744,0.36986 0.01731,0 0.03147,-0.0366 0.03147,-0.0812 0,-0.11604 0.117363,-0.18468 0.315732,-0.18468 0.197724,0 0.315731,0.0687 0.315731,0.18382 0,0.12146 -0.165467,0.19456 -0.38832,0.17156 -0.09717,-0.01 -0.176673,-0.0106 -0.176673,-10e-4 0,0.0306 0.508616,0.57645 0.537148,0.57645 0.01531,0 0.02784,-0.0348 0.02784,-0.0773 0,-0.1435 0.24203,-0.28829 0.481905,-0.28829 0.241019,0 0.481905,0.14486 0.481905,0.2898 0,0.25314 -0.485029,0.38699 -0.804213,0.22194 -0.05462,-0.0283 -0.106318,-0.0443 -0.114889,-0.0358 -0.0086,0.009 0.05102,0.14054 0.132424,0.29326 0.0814,0.15271 0.173206,0.35601 0.204005,0.45176 0.06907,0.21474 0.09805,0.23532 0.151076,0.10731 0.124601,-0.30082 0.614901,-0.43519 1.137838,-0.31183 0.08122,0.0191 0.0914,0.0122 0.0914,-0.0622 0,-0.11246 0.165397,-0.17661 0.295082,-0.11446 0.140903,0.0675 0.114458,0.16774 -0.05413,0.20511 -0.07769,0.0172 -0.14064,0.0396 -0.139898,0.0499 7.17e-4,0.0102 0.04534,0.07 0.09912,0.13291 l 0.09776,0.11436 0.08341,-0.0784 c 0.14726,-0.13834 0.482766,-0.0927 0.482766,0.0657 0,0.14649 -0.267102,0.21124 -0.44307,0.10742 l -0.113554,-0.067 -0.03958,0.12104 c -0.02177,0.0666 -0.04746,0.14013 -0.0571,0.16347 -0.01323,0.0321 0.01394,0.0374 0.111027,0.0219 0.09964,-0.0159 0.146799,-0.006 0.209702,0.0452 0.06969,0.0564 0.07486,0.0733 0.03662,0.11937 -0.09039,0.10892 -0.363632,0.0524 -0.409327,-0.0847 -0.0093,-0.0278 -0.06284,-0.0155 -0.177448,0.0408 -0.137861,0.0677 -0.212104,0.0804 -0.463283,0.0792 -0.333641,-0.002 -0.465843,-0.0441 -0.655691,-0.21079 l -0.1191,-0.10458 3.32e-4,0.42446 c 3.32e-4,0.32679 -0.01575,0.48494 -0.06958,0.68734 -0.09719,0.36542 -0.09231,0.3872 0.05471,0.24433 0.146948,-0.14279 0.417882,-0.27481 0.672633,-0.32776 0.182297,-0.0379 0.774993,-0.0242 0.92258,0.0213 0.06815,0.021 0.07301,0.0145 0.05533,-0.0739 -0.01634,-0.0817 -0.0056,-0.10321 0.06809,-0.1368 0.124065,-0.0565 0.198345,-0.0497 0.288388,0.0266 l 0.07846,0.0665 -0.07846,0.0665 c -0.04315,0.0366 -0.106713,0.0665 -0.141248,0.0665 -0.105042,0 -0.07133,0.051 0.111696,0.16905 0.228981,0.14765 0.217615,0.14466 0.230082,0.0605 0.03127,-0.21102 0.474786,-0.29592 0.646876,-0.12383 0.06201,0.062 0.07939,0.10511 0.06309,0.15645 -0.04646,0.14638 -0.367654,0.22101 -0.564734,0.13121 -0.105404,-0.048 -0.134976,-0.0224 -0.08404,0.0727 0.0215,0.0402 0.03852,0.14614 0.03783,0.23548 -7.17e-4,0.0893 0.0016,0.1624 0.0051,0.16232 0.0035,-7e-5 0.07998,-0.0375 0.169904,-0.0831 0.182512,-0.0926 0.3664,-0.10574 0.52719,-0.0377 0.24893,0.10536 0.285275,0.29478 0.08113,0.42278 -0.08712,0.0546 -0.151571,0.0652 -0.345137,0.0566 -0.253273,-0.0112 -0.354649,-0.0645 -0.413056,-0.21726 -0.0372,-0.0973 -0.07617,-0.0945 -0.144898,0.0104 -0.09863,0.15053 -0.415319,0.32803 -0.668492,0.37467 -0.126784,0.0233 -0.267906,0.0503 -0.313604,0.06 l -0.08309,0.0175 0.07478,0.0607 c 0.09178,0.0745 0.09592,0.1527 0.01049,0.19842 -0.09775,0.0523 -0.218955,0.0413 -0.304096,-0.0276 l -0.07663,-0.062 0.09285,-0.0861 0.09285,-0.086 -0.07806,-0.0153 c -0.371765,-0.0725 -0.472444,-0.10112 -0.64685,-0.18361 -0.120264,-0.0569 -0.247992,-0.15102 -0.321677,-0.23711 -0.108196,-0.1264 -0.136366,-0.19888 -0.16755,-0.43107 -0.0037,-0.0274 -0.09424,0.0847 -0.201227,0.24926 -0.345653,0.53148 -0.726527,0.90739 -1.327466,1.31018 -0.143149,0.0959 -0.254642,0.18007 -0.247763,0.18696 0.0069,0.007 0.146439,-0.0246 0.310125,-0.0699 0.725011,-0.20079 1.25274,-0.17396 2.121008,0.10782 0.05065,0.0164 0.05798,0.008 0.0402,-0.0484 -0.01563,-0.0492 -6.14e-4,-0.0833 0.05346,-0.12118 0.09988,-0.07 0.202134,-0.0665 0.296611,0.01 0.06634,0.0537 0.07103,0.0703 0.03285,0.11632 -0.02449,0.0295 -0.08383,0.0539 -0.131859,0.0542 -0.165985,0.001 -0.189027,0.0509 -0.06317,0.13685 0.331119,0.22617 0.523207,0.50716 0.523891,0.76634 3.99e-4,0.15167 0.03884,0.1797 0.120516,0.0879 0.222933,-0.25063 0.833873,-0.25502 1.047406,-0.008 0.111234,0.12892 0.108356,0.20603 -0.0122,0.32658 -0.137296,0.1373 -0.342844,0.19815 -0.593331,0.17566 -0.236695,-0.0213 -0.382507,-0.0972 -0.469359,-0.24437 l -0.06879,-0.11658 -0.09467,0.17681 c -0.05207,0.0972 -0.179551,0.25536 -0.283304,0.35137 -0.103749,0.096 -0.18202,0.18117 -0.173931,0.18926 0.0081,0.008 0.07411,0.001 0.146712,-0.0159 0.438773,-0.10173 0.943368,0.0935 0.999395,0.38676 0.01604,0.0839 4.99e-4,0.1251 -0.08318,0.22041 -0.05659,0.0645 -0.102898,0.12644 -0.102898,0.13773 0,0.0113 0.0673,0.0205 0.149557,0.0205 0.161966,0 0.296305,0.0915 0.262738,0.17899 -0.02848,0.0742 -0.19922,0.13008 -0.325316,0.10643 -0.137602,-0.0258 -0.199582,-0.0927 -0.170572,-0.18412 0.025,-0.0788 0.01252,-0.0806 -0.213886,-0.0321 -0.173728,0.0373 -0.206142,0.0722 -0.114544,0.12346 0.150498,0.0842 -0.0714,0.25397 -0.234718,0.17956 -0.09295,-0.0423 -0.113912,-0.15441 -0.03458,-0.18485 0.08825,-0.0338 0.05327,-0.0841 -0.07478,-0.10729 -0.164862,-0.0299 -0.338335,-0.11981 -0.438701,-0.22733 -0.105473,-0.113 -0.106284,-0.27084 -0.0022,-0.4171 0.07212,-0.10128 0.07347,-0.10947 0.01496,-0.0906 -0.377565,0.12165 -0.644082,0.19055 -0.844401,0.21831 -0.2624,0.0363 -0.321182,0.0631 -0.205461,0.0933 0.170361,0.0445 0.355031,0.16354 0.383732,0.24724 0.06823,0.19901 -0.03588,0.32457 -0.35549,0.42877 -0.161129,0.0525 -0.166762,0.0581 -0.0971,0.0953 0.17219,0.0922 0.0076,0.27544 -0.188647,0.21006 -0.113085,-0.0377 -0.127147,-0.12597 -0.03229,-0.20278 l 0.0759,-0.0615 -0.114837,-0.0248 c -0.164213,-0.0355 -0.356151,-0.13917 -0.396222,-0.21404 -0.09053,-0.16916 0.0236,-0.36124 0.259378,-0.43653 0.180505,-0.0576 0.195514,-0.0904 0.05127,-0.11186 -0.07093,-0.0105 -0.271193,-0.049 -0.445035,-0.0854 -0.391609,-0.082 -0.377587,-0.0827 -0.313398,0.0153 0.07274,0.11101 0.03354,0.21314 -0.103829,0.27054 -0.275719,0.1152 -0.627091,-0.0167 -0.565072,-0.21209 0.0272,-0.0857 0.145795,-0.14633 0.332914,-0.17018 l 0.167822,-0.0214 -0.216026,-0.13964 c -0.244423,-0.158 -0.284351,-0.16786 -0.308347,-0.0761 -0.03092,0.11822 -0.334016,0.13162 -0.378109,0.0167 -0.03303,-0.0861 0.05435,-0.14814 0.208618,-0.14814 0.08002,0 0.145489,-0.008 0.145489,-0.0188 0,-0.0103 -0.03692,-0.0673 -0.08206,-0.12642 -0.125116,-0.16403 -0.183895,-0.33312 -0.183087,-0.52668 9.73e-4,-0.235 0.0899,-0.41862 0.319078,-0.65891 0.103859,-0.10888 0.179172,-0.19797 0.167364,-0.19797 -0.01181,0 -0.174859,0.0691 -0.362333,0.15344 -0.934089,0.42046 -2.006365,0.67257 -3.240607,0.76194 -0.169082,0.0122 -0.307422,0.0339 -0.307422,0.0481 0,0.0142 0.123384,0.0433 0.274187,0.0646 0.836149,0.1181 1.540953,0.53481 1.791112,1.05898 0.09827,0.20589 0.102929,0.23318 0.08449,0.4945 -0.01074,0.15212 -0.01593,0.27659 -0.01155,0.27659 0.0044,0 0.06664,-0.0299 0.13835,-0.0665 0.186059,-0.0948 0.469742,-0.0904 0.618238,0.01 0.148876,0.10033 0.159145,0.26442 0.02291,0.36613 -0.212238,0.15846 -0.726152,0.0763 -0.776453,-0.12409 -0.0118,-0.047 -0.03352,-0.0855 -0.04826,-0.0855 -0.01475,0 -0.08248,0.0759 -0.150531,0.16855 -0.06805,0.0927 -0.203929,0.2291 -0.301945,0.30311 -0.174257,0.13156 -0.235569,0.22216 -0.120463,0.17799 0.03176,-0.0122 0.14854,-0.0306 0.259504,-0.041 0.385255,-0.036 0.784957,0.15882 0.832024,0.4055 0.01518,0.0795 -0.0026,0.12748 -0.08639,0.23265 l -0.105504,0.13246 0.172987,0.0179 c 0.176866,0.0183 0.27803,0.0935 0.2442,0.18171 -0.02713,0.0707 -0.200522,0.12557 -0.323787,0.10244 -0.137602,-0.0258 -0.199582,-0.0927 -0.170571,-0.18412 0.025,-0.0788 0.01252,-0.0806 -0.213886,-0.032 -0.173729,0.0373 -0.206143,0.0722 -0.114544,0.12345 0.150497,0.0842 -0.0714,0.25398 -0.234718,0.17956 -0.09295,-0.0423 -0.113912,-0.15441 -0.03458,-0.18484 0.08825,-0.0339 0.05327,-0.0841 -0.07478,-0.1073 -0.164862,-0.0299 -0.338334,-0.1198 -0.4387,-0.22733 -0.103889,-0.11131 -0.106235,-0.27091 -0.006,-0.41161 0.04146,-0.0582 0.06227,-0.10587 0.04624,-0.10587 -0.01602,0 -0.149809,0.044 -0.297296,0.0979 -0.255126,0.0931 -0.602896,0.17296 -0.949969,0.21812 -0.174419,0.0227 -0.181487,0.0649 -0.01692,0.10108 0.180038,0.0395 0.370325,0.13464 0.470139,0.23495 0.185648,0.18658 0.190103,0.34846 0.01562,0.56765 -0.06704,0.0842 -0.08568,0.12839 -0.0559,0.13245 0.237229,0.0324 0.296847,0.0536 0.331195,0.11774 0.03211,0.06 0.0264,0.0806 -0.03651,0.13151 -0.0926,0.075 -0.292557,0.0784 -0.394828,0.007 -0.05857,-0.041 -0.07161,-0.0732 -0.05556,-0.13714 0.0178,-0.0709 0.01192,-0.0799 -0.03888,-0.0593 -0.03292,0.0133 -0.145845,0.0411 -0.25095,0.0617 -0.204768,0.0401 -0.236525,0.0731 -0.114956,0.11931 0.191622,0.0729 0.194156,0.24228 0.0048,0.3214 -0.138551,0.0579 -0.233139,0.0575 -0.368585,-0.002 z m -3.153828,-1.47037 c -0.05285,-0.0529 -0.05176,-0.0599 0.01793,-0.11634 0.09167,-0.0742 0.194563,-0.0766 0.294174,-0.007 0.07225,0.0506 0.07317,0.0563 0.01886,0.11634 -0.07163,0.0791 -0.254875,0.0829 -0.330961,0.007 z m 6.352551,-0.007 c -0.05431,-0.06 -0.05339,-0.0657 0.01886,-0.11634 0.09961,-0.0698 0.202506,-0.0674 0.294171,0.007 0.06969,0.0564 0.07078,0.0635 0.01792,0.11634 -0.07609,0.0761 -0.259334,0.0723 -0.330962,-0.007 z m -5.961301,-1.75008 c -0.08606,-0.0603 -0.09579,-0.15458 -0.02224,-0.21562 0.07829,-0.065 0.333981,-0.054 0.413236,0.0177 0.09251,0.0837 0.08377,0.13951 -0.03116,0.19894 -0.12571,0.065 -0.26613,0.0646 -0.359838,-10e-4 z m 5.534515,-5.1e-4 c -0.108538,-0.0589 -0.115507,-0.11505 -0.0245,-0.19741 0.07926,-0.0717 0.334944,-0.0827 0.413235,-0.0177 0.194085,0.16107 -0.14375,0.34801 -0.388738,0.2151 z m -11.30981,-0.10372 c -0.05285,-0.0529 -0.05176,-0.0599 0.01793,-0.11632 0.09167,-0.0742 0.194563,-0.0766 0.294174,-0.007 0.07225,0.0506 0.07317,0.0563 0.01886,0.11632 -0.07163,0.0791 -0.254873,0.0829 -0.33096,0.007 z m 17.120641,-0.007 c -0.05431,-0.06 -0.05339,-0.0657 0.01886,-0.11632 0.09961,-0.0698 0.202507,-0.0674 0.294172,0.007 0.06969,0.0564 0.07078,0.0635 0.01792,0.11632 -0.07609,0.0761 -0.259335,0.0723 -0.330962,-0.007 z m -17.692288,-1.06719 c -0.08594,-0.0354 -0.100052,-0.14904 -0.0222,-0.17891 0.179578,-0.0689 0.413099,0.0281 0.310158,0.12886 -0.065,0.0636 -0.198572,0.0868 -0.287951,0.0501 z m 18.382269,5.2e-4 c -0.09743,-0.0393 -0.124962,-0.0934 -0.07697,-0.15124 0.04078,-0.0491 0.215983,-0.065 0.311803,-0.0282 0.08323,0.0319 0.06294,0.1437 -0.03268,0.18005 -0.09907,0.0377 -0.107371,0.0376 -0.202154,-5.1e-4 z m -17.206259,-0.86675 c -0.195945,-0.15414 -0.05161,-0.34418 0.261398,-0.34418 0.222409,0 0.348965,0.0775 0.348965,0.21356 0,0.075 -0.02308,0.11002 -0.09805,0.14879 -0.145241,0.0751 -0.405455,0.0659 -0.512309,-0.0182 z m 15.723909,0.0166 c -0.06779,-0.0368 -0.0914,-0.0749 -0.0914,-0.14746 0,-0.13589 0.126705,-0.21336 0.348966,-0.21336 0.313006,0 0.457341,0.19005 0.261396,0.34418 -0.105976,0.0834 -0.379792,0.0921 -0.518966,0.0166 z m 0.623153,-1.11746 c -0.144378,-0.0819 -0.156895,-0.22266 -0.02875,-0.32345 0.105268,-0.0828 0.261635,-0.0882 0.443818,-0.0153 0.29116,0.1165 0.168564,0.37948 -0.175968,0.37746 -0.09495,-5.1e-4 -0.20254,-0.018 -0.239099,-0.0387 z m -30.999801,-1.79086 c -0.07249,-0.0422 -0.07589,-0.1496 -0.0056,-0.17658 0.09259,-0.0355 0.231914,-0.0217 0.298352,0.0297 0.06331,0.049 0.06305,0.0511 -0.01395,0.11632 -0.08547,0.0724 -0.187746,0.0836 -0.278815,0.0306 z m 45.269542,-0.0306 c -0.077,-0.0652 -0.07726,-0.0674 -0.01393,-0.11632 0.117311,-0.0907 0.350919,-0.0559 0.350919,0.0522 0,0.13034 -0.2113,0.17054 -0.336972,0.0641 z M 12.294726,111.7695 c -0.09639,-0.11615 0.0949,-0.22066 0.270637,-0.14787 0.101184,0.0419 0.118988,0.0931 0.05471,0.15741 -0.0562,0.0562 -0.276145,0.0497 -0.32535,-0.01 z m 46.535076,0.01 c -0.06427,-0.0643 -0.04649,-0.1155 0.05472,-0.15741 0.175736,-0.0728 0.367027,0.0317 0.270631,0.14787 -0.0492,0.0593 -0.269151,0.0657 -0.325349,0.01 z M 26.3056,110.54595 c -0.09614,-0.0703 -0.05404,-0.17051 0.07691,-0.18305 0.168748,-0.0162 0.269317,0.0187 0.269317,0.0933 0,0.11986 -0.225207,0.17824 -0.346228,0.0897 z m 18.550614,0.008 c -0.08542,-0.0498 -0.07327,-0.15845 0.02033,-0.18195 0.14527,-0.0365 0.302145,-0.004 0.315366,0.0661 0.02334,0.12303 -0.194374,0.19818 -0.335692,0.11586 z m -34.112168,-1.65917 c -0.170434,-0.068 -0.112471,-0.19932 0.08799,-0.19932 0.150571,0 0.236767,0.0779 0.16332,0.14766 -0.06722,0.0638 -0.16864,0.0847 -0.251315,0.0517 z m 49.785796,0 c -0.170432,-0.068 -0.112467,-0.19932 0.088,-0.19932 0.150571,0 0.236762,0.0779 0.16332,0.14766 -0.06722,0.0638 -0.168639,0.0847 -0.251318,0.0517 z M 9.7624994,101.56516 c -0.1923731,-0.10445 -0.1354252,-0.28283 0.1115246,-0.34933 0.343185,-0.0924 0.682922,0.2246 0.377475,0.35222 -0.146157,0.0611 -0.3736841,0.0597 -0.4889996,-0.003 z m 51.4286396,10e-4 c -0.196257,-0.0853 -0.120132,-0.28134 0.136803,-0.35228 0.231555,-0.0639 0.519435,0.079 0.470375,0.23364 -0.04859,0.15307 -0.379294,0.21769 -0.607178,0.11864 z m -50.650816,-1.33158 c -0.222896,-0.15613 0.08566,-0.353713 0.368078,-0.235711 0.138045,0.05768 0.154727,0.122831 0.05658,0.220981 -0.08192,0.0819 -0.317088,0.0901 -0.424658,0.0148 z m 49.944575,-0.0147 c -0.09815,-0.0982 -0.08147,-0.1633 0.05658,-0.220975 0.199349,-0.08329 0.441943,-0.01551 0.441943,0.123455 0,0.15578 -0.36823,0.22782 -0.498525,0.0975 z M 13.543055,97.509324 c -0.06881,-0.06881 -0.06588,-0.104301 0.01206,-0.146014 0.09516,-0.05094 0.287086,-0.04173 0.33505,0.01608 0.107113,0.129062 -0.224026,0.253023 -0.347109,0.129942 z m 44.038947,-0.0085 c -0.06912,-0.07638 -0.06991,-0.1258 -0.0026,-0.151698 0.130136,-0.04992 0.379483,0.0015 0.379483,0.07833 0,0.126276 -0.279883,0.180738 -0.377051,0.07337 z M 12.851058,96.39567 c -0.03199,-0.01864 -0.05816,-0.06276 -0.05816,-0.09806 0,-0.07414 0.101031,-0.108924 0.269589,-0.09283 0.08742,0.0083 0.114987,0.0275 0.123225,0.08548 0.01628,0.114602 -0.201239,0.183114 -0.334653,0.105407 z m 45.479548,5.12e-4 c -0.124095,-0.04977 -0.0861,-0.177999 0.05679,-0.191649 0.169034,-0.01613 0.269587,0.01864 0.269587,0.09331 0,0.114223 -0.163725,0.163555 -0.326379,0.09834 z m -38.862132,-4.78183 c -0.06368,-0.05227 -0.07159,-0.07574 -0.04197,-0.124633 0.05956,-0.09833 0.259174,-0.131975 0.39597,-0.06674 0.133319,0.06358 0.141985,0.09675 0.04944,0.189289 -0.08783,0.08783 -0.297632,0.08892 -0.403445,0.002 z m 32.109487,-0.002 c -0.09254,-0.09254 -0.08387,-0.125713 0.04946,-0.189289 0.136798,-0.06524 0.336409,-0.03159 0.395971,0.06674 0.0929,0.153366 -0.305095,0.262869 -0.445415,0.122549 z"
         id="path29993"
         inkscape:connector-curvature="0" />
      <g
         style="fill:#fcfcfc;fill-opacity:1;stroke:#7f7f7f;stroke-width:0.26458332;stroke-miterlimit:4;stroke-dasharray:none;stroke-opacity:1"
         id="g33032">
        <path
           inkscape:connector-curvature="0"
           id="path30001"
           transform="scale(0.26458333)"
           d="m 135.17188,342.54297 c -2.66667,4.61333 -5.33336,9.22651 -8,13.83984 h 5.99804 v 12.15821 h -12.78515 v -5.99805 l -13.83985,8 13.83985,8 v -6.00195 h 12.78515 v 13.41406 h -5.99804 c 2.66665,4.61333 5.33333,9.22651 8,13.83984 2.66665,-4.61333 5.33333,-9.22651 8,-13.83984 h -6.00196 v -13.41406 h 12.78711 v 6.00195 l 13.83985,-8 -13.83985,-8 v 5.99805 h -12.78711 v -12.15821 h 6.00196 c -2.66667,-4.61333 -5.33336,-9.22651 -8,-13.83984 z"
           style="color:#000000;font-style:normal;font-variant:normal;font-weight:normal;font-stretch:normal;font-size:medium;line-height:normal;font-family:sans-serif;font-variant-ligatures:normal;font-variant-position:normal;font-variant-caps:normal;font-variant-numeric:normal;font-variant-alternates:normal;font-feature-settings:normal;text-indent:0;text-align:start;text-decoration:none;text-decoration-line:none;text-decoration-style:solid;text-decoration-color:#000000;letter-spacing:normal;word-spacing:normal;text-transform:none;writing-mode:lr-tb;direction:ltr;text-orientation:mixed;dominant-baseline:auto;baseline-shift:baseline;text-anchor:start;white-space:normal;shape-padding:0;clip-rule:nonzero;display:inline;overflow:visible;visibility:visible;opacity:1;isolation:auto;mix-blend-mode:normal;color-interpolation:sRGB;color-interpolation-filters:linearRGB;solid-color:#000000;solid-opacity:1;vector-effect:none;fill:#fcfcfc;fill-opacity:1;fill-rule:nonzero;stroke:#7f7f7f;stroke-width:1;stroke-linecap:butt;stroke-linejoin:miter;stroke-miterlimit:4;stroke-dasharray:none;stroke-dashoffset:0;stroke-opacity:1;color-rendering:auto;image-rendering:auto;shape-rendering:auto;text-rendering:auto;enable-background:accumulate" />
      </g>
    </g>
  </g>
</svg>
