<?xml version="1.0" encoding="UTF-8" standalone="no"?>
<!-- Created with Inkscape (http://www.inkscape.org/) -->

<svg
   xmlns:dc="http://purl.org/dc/elements/1.1/"
   xmlns:cc="http://creativecommons.org/ns#"
   xmlns:rdf="http://www.w3.org/1999/02/22-rdf-syntax-ns#"
   xmlns:svg="http://www.w3.org/2000/svg"
   xmlns="http://www.w3.org/2000/svg"
   xmlns:sodipodi="http://sodipodi.sourceforge.net/DTD/sodipodi-0.dtd"
   xmlns:inkscape="http://www.inkscape.org/namespaces/inkscape"
   width="241"
   height="155"
   viewBox="0 0 63.764581 41.010418"
   version="1.1"
   id="svg6201"
   inkscape:version="0.92.4 (f8dce91, 2019-08-02)"
   sodipodi:docname="i1.svg">
  <defs
     id="defs6195" />
  <sodipodi:namedview
     id="base"
     pagecolor="#ffffff"
     bordercolor="#666666"
     borderopacity="1.0"
     inkscape:pageopacity="0.0"
     inkscape:pageshadow="2"
     inkscape:zoom="3.3829629"
     inkscape:cx="61.198948"
     inkscape:cy="67.349357"
     inkscape:document-units="mm"
     inkscape:current-layer="layer1"
     showgrid="false"
     units="px"
     inkscape:window-width="1853"
     inkscape:window-height="1025"
     inkscape:window-x="67"
     inkscape:window-y="27"
     inkscape:window-maximized="1"
     inkscape:snap-global="false" />
  <metadata
     id="metadata6198">
    <rdf:RDF>
      <cc:Work
         rdf:about="">
        <dc:format>image/svg+xml</dc:format>
        <dc:type
           rdf:resource="http://purl.org/dc/dcmitype/StillImage" />
        <dc:title />
      </cc:Work>
    </rdf:RDF>
  </metadata>
  <g
     inkscape:label="Layer 1"
     inkscape:groupmode="layer"
     id="layer1"
     transform="translate(0,-255.98957)">
    <rect
       ry="2"
       rx="2"
       y="256.37363"
       x="0.38406667"
       height="40.242283"
       width="62.996449"
       id="rect5191"
       style="fill:#7f7f7f;fill-opacity:1;stroke:#7f7f7f;stroke-width:0.76813334;stroke-linejoin:miter;stroke-miterlimit:4;stroke-dasharray:none;stroke-opacity:1" />
    <rect
       style="fill:#7f7f7f;fill-opacity:1;stroke:#ffffff;stroke-width:0.25635684;stroke-linejoin:miter;stroke-miterlimit:4;stroke-dasharray:none;stroke-opacity:1"
       id="rect3744"
       width="62.979061"
       height="40.224892"
       x="0.39276037"
       y="256.38232"
       rx="2"
       ry="2" />
    <g
       transform="translate(-50.281981,149.47418)"
       id="g852">
      <path
         id="path29993"
         d="m 81.9766,143.89757 c -0.182507,-0.0794 -0.176126,-0.24845 0.01208,-0.32001 0.121569,-0.0462 0.08981,-0.0792 -0.114956,-0.1193 -0.105105,-0.0206 -0.218032,-0.0483 -0.25095,-0.0617 -0.05081,-0.0205 -0.05668,-0.0116 -0.03888,0.0593 0.01605,0.0639 0.003,0.0961 -0.05556,0.13714 -0.10227,0.0716 -0.302229,0.0682 -0.394828,-0.007 -0.06292,-0.051 -0.06862,-0.0715 -0.03651,-0.13151 0.03435,-0.0642 0.0935,-0.0852 0.331041,-0.11774 0.03143,-0.004 0.02317,-0.0305 -0.0281,-0.0892 -0.123613,-0.14143 -0.173362,-0.26599 -0.15191,-0.38034 0.03673,-0.19579 0.301359,-0.39774 0.610023,-0.46553 0.164569,-0.0362 0.157501,-0.0784 -0.01692,-0.10108 -0.347073,-0.0452 -0.694843,-0.12501 -0.949969,-0.21812 -0.147487,-0.0538 -0.281271,-0.0979 -0.297296,-0.0979 -0.01603,0 0.0048,0.0476 0.04624,0.10586 0.100189,0.1407 0.09784,0.30031 -0.006,0.41162 -0.100368,0.10752 -0.273837,0.19741 -0.4387,0.22733 -0.128049,0.0232 -0.163029,0.0734 -0.07478,0.10729 0.07934,0.0305 0.05838,0.1425 -0.03458,0.18485 -0.163318,0.0744 -0.385215,-0.0953 -0.234719,-0.17956 0.0916,-0.0513 0.05919,-0.0862 -0.114543,-0.12345 -0.226407,-0.0485 -0.238882,-0.0467 -0.213885,0.032 0.02901,0.0914 -0.03297,0.1583 -0.170573,0.18412 -0.123262,0.0231 -0.296652,-0.0317 -0.323785,-0.10244 -0.03383,-0.0882 0.06733,-0.16344 0.244199,-0.18172 l 0.172988,-0.0179 -0.105504,-0.13246 c -0.08375,-0.10516 -0.101563,-0.15312 -0.08639,-0.23265 0.04707,-0.24667 0.44677,-0.44148 0.832024,-0.4055 0.110965,0.0103 0.227743,0.0288 0.259506,0.041 0.115106,0.0442 0.05379,-0.0464 -0.120464,-0.17798 -0.09802,-0.074 -0.233892,-0.21041 -0.301943,-0.30311 -0.06805,-0.0927 -0.135791,-0.16855 -0.150531,-0.16855 -0.01474,0 -0.03646,0.0385 -0.04826,0.0855 -0.0503,0.20041 -0.564213,0.28255 -0.776451,0.12408 -0.136233,-0.10171 -0.125966,-0.2658 0.02291,-0.36613 0.148496,-0.10007 0.432178,-0.10449 0.618238,-0.01 0.07171,0.0366 0.133964,0.0665 0.138349,0.0665 0.0044,0 -8.19e-4,-0.12446 -0.01155,-0.27658 -0.01844,-0.26133 -0.01378,-0.28861 0.08449,-0.49451 0.250158,-0.52416 0.954963,-0.94087 1.79111,-1.05898 0.150804,-0.0213 0.274188,-0.0504 0.274188,-0.0646 0,-0.0142 -0.13834,-0.0359 -0.307423,-0.0481 -1.23606,-0.0895 -2.306332,-0.34141 -3.244283,-0.7636 -0.189499,-0.0853 -0.351251,-0.14838 -0.359449,-0.14018 -0.0082,0.008 0.06026,0.0852 0.15212,0.17113 0.387205,0.3622 0.444784,0.817 0.152026,1.20083 -0.04513,0.0592 -0.08206,0.11606 -0.08206,0.12642 0,0.0103 0.06547,0.0188 0.145487,0.0188 0.154274,0 0.241657,0.062 0.20862,0.14814 -0.04409,0.1149 -0.347194,0.1015 -0.378108,-0.0167 -0.024,-0.0918 -0.06393,-0.0819 -0.308347,0.0761 l -0.216027,0.13965 0.17895,0.0227 c 0.327984,0.0417 0.440485,0.27396 0.184498,0.38092 -0.213003,0.089 -0.51696,0.0252 -0.562411,-0.11795 -0.01382,-0.0436 -0.0019,-0.10271 0.0308,-0.15259 0.06419,-0.098 0.07821,-0.0973 -0.3134,-0.0153 -0.173839,0.0364 -0.374103,0.0748 -0.445031,0.0854 -0.144251,0.0214 -0.129241,0.0542 0.05126,0.11187 0.235775,0.0753 0.349907,0.26736 0.259376,0.43652 -0.04007,0.0749 -0.232007,0.17855 -0.396221,0.21404 l -0.114836,0.0248 0.0759,0.0615 c 0.09486,0.0768 0.08079,0.16511 -0.03229,0.20278 -0.196236,0.0654 -0.360836,-0.1179 -0.188647,-0.21006 0.06967,-0.0373 0.06403,-0.0428 -0.0971,-0.0953 -0.319612,-0.1042 -0.42372,-0.22976 -0.355488,-0.42877 0.0287,-0.0837 0.213371,-0.20269 0.383734,-0.24724 0.115718,-0.0303 0.05693,-0.057 -0.205465,-0.0933 -0.200319,-0.0278 -0.466836,-0.0967 -0.8444,-0.21831 -0.05851,-0.0188 -0.05716,-0.0106 0.01496,0.0906 0.104147,0.14626 0.103339,0.3041 -0.0022,0.4171 -0.100367,0.10752 -0.273837,0.19741 -0.438699,0.22733 -0.132809,0.0241 -0.15812,0.064 -0.07136,0.11258 0.150496,0.0842 -0.0714,0.25397 -0.23472,0.17956 -0.09295,-0.0423 -0.113913,-0.15441 -0.03458,-0.18485 0.09493,-0.0364 0.04911,-0.0823 -0.117958,-0.11817 -0.226406,-0.0485 -0.238882,-0.0467 -0.213884,0.0321 0.02901,0.0914 -0.03297,0.1583 -0.170574,0.18412 -0.123261,0.0231 -0.296651,-0.0318 -0.323784,-0.10244 -0.03383,-0.0882 0.06733,-0.16344 0.244199,-0.18172 l 0.172987,-0.0179 -0.105504,-0.13246 c -0.131125,-0.16462 -0.118391,-0.28518 0.04634,-0.43872 0.189727,-0.17684 0.550425,-0.25082 0.866063,-0.17765 0.0726,0.0169 0.138624,0.024 0.146711,0.0159 0.0081,-0.008 -0.07018,-0.0933 -0.173932,-0.18926 -0.103751,-0.096 -0.231238,-0.25412 -0.283305,-0.35137 l -0.09466,-0.17681 -0.06879,0.11659 c -0.08685,0.1472 -0.232664,0.22312 -0.469362,0.24437 -0.250485,0.0225 -0.456033,-0.0383 -0.593331,-0.17567 -0.120547,-0.12055 -0.123425,-0.19765 -0.01219,-0.32658 0.213533,-0.24749 0.824474,-0.2431 1.047408,0.008 0.08167,0.0918 0.120112,0.0638 0.120514,-0.0879 6.65e-4,-0.25919 0.192774,-0.54018 0.523893,-0.76635 0.125854,-0.086 0.102814,-0.13587 -0.06317,-0.13684 -0.04803,-2.7e-4 -0.107367,-0.0247 -0.131861,-0.0542 -0.03818,-0.046 -0.03349,-0.0626 0.03285,-0.11632 0.09447,-0.0765 0.196729,-0.0799 0.29661,-0.01 0.05407,0.0379 0.0691,0.0719 0.05346,0.12119 -0.01778,0.056 -0.01045,0.0648 0.0402,0.0484 0.868213,-0.28177 1.396146,-0.30861 2.121005,-0.10784 0.163687,0.0453 0.302397,0.0777 0.308243,0.0718 0.0058,-0.006 -0.105647,-0.0902 -0.247761,-0.18755 -0.61793,-0.42309 -0.982198,-0.78348 -1.325584,-1.31148 -0.106993,-0.16451 -0.197545,-0.27667 -0.201227,-0.24926 -0.03119,0.2322 -0.05936,0.30468 -0.16755,0.43108 -0.07369,0.0861 -0.201414,0.18023 -0.32168,0.23711 -0.174406,0.0825 -0.275085,0.11106 -0.646849,0.1836 l -0.07806,0.0153 0.09285,0.0861 0.09285,0.0861 -0.07663,0.062 c -0.08514,0.0689 -0.206347,0.08 -0.304096,0.0276 -0.08543,-0.0457 -0.08129,-0.12393 0.01049,-0.19841 l 0.07478,-0.0607 -0.08309,-0.0163 c -0.0457,-0.009 -0.162745,-0.0327 -0.260105,-0.0526 -0.262989,-0.054 -0.294809,-0.0505 -0.226951,0.0245 0.05776,0.0638 0.07082,0.16327 0.02957,0.22505 -0.08634,0.12931 -0.44247,0.15616 -0.584927,0.0441 -0.13773,-0.10834 -0.117618,-0.21984 0.05368,-0.2976 0.07769,-0.0353 0.200871,-0.0644 0.273743,-0.0648 l 0.132496,-5.1e-4 -0.170387,-0.11475 c -0.09371,-0.0631 -0.201341,-0.1541 -0.239175,-0.2022 -0.06718,-0.0854 -0.137924,-0.0868 -0.137924,-0.003 0,0.0232 -0.03833,0.0781 -0.08519,0.12214 -0.120965,0.11364 -0.511415,0.13346 -0.67001,0.034 -0.204147,-0.128 -0.1678,-0.31742 0.08113,-0.42278 0.160792,-0.0681 0.344681,-0.0549 0.527193,0.0377 0.08992,0.0456 0.165511,0.083 0.167972,0.0831 0.0025,7e-5 0.0045,-0.0724 0.0045,-0.16105 0,-0.0887 0.01789,-0.19463 0.03976,-0.2355 0.05157,-0.0964 0.02245,-0.12221 -0.08337,-0.074 -0.197078,0.0898 -0.518275,0.0152 -0.564734,-0.13121 -0.0163,-0.0513 0.0011,-0.0944 0.06309,-0.15645 0.172089,-0.17209 0.615604,-0.0872 0.646875,0.12383 0.01247,0.0841 0.0011,0.0871 0.230082,-0.0605 0.183019,-0.11802 0.216737,-0.16905 0.111695,-0.16905 -0.03453,0 -0.0981,-0.0299 -0.141248,-0.0665 l -0.07846,-0.0665 0.07846,-0.0665 c 0.09004,-0.0763 0.164324,-0.0831 0.288389,-0.0266 0.07372,0.0336 0.08443,0.0551 0.06809,0.13681 -0.01768,0.0884 -0.01281,0.0949 0.05533,0.0739 0.147588,-0.0455 0.740282,-0.0592 0.922582,-0.0213 0.254751,0.053 0.525683,0.18497 0.672632,0.32777 0.147046,0.14289 0.151932,0.12102 0.05459,-0.24434 -0.05361,-0.20123 -0.07015,-0.36224 -0.07053,-0.68651 l -4.98e-4,-0.42361 -0.118148,0.10373 c -0.188863,0.16583 -0.321499,0.20836 -0.654741,0.20996 -0.251178,10e-4 -0.325422,-0.0115 -0.463282,-0.0792 -0.114611,-0.0563 -0.168178,-0.0686 -0.17745,-0.0408 -0.04569,0.13707 -0.318933,0.19361 -0.409326,0.0847 -0.03824,-0.0461 -0.03307,-0.0629 0.03662,-0.11937 0.06291,-0.0509 0.110065,-0.0611 0.209704,-0.0452 0.09709,0.0155 0.12426,0.0102 0.111026,-0.0219 -0.0096,-0.0234 -0.03533,-0.0969 -0.0571,-0.16347 l -0.03958,-0.12104 -0.113553,0.067 c -0.175968,0.10382 -0.443069,0.0391 -0.443069,-0.10742 0,-0.15788 0.335462,-0.20404 0.482054,-0.0663 l 0.08269,0.0777 0.112961,-0.1303 0.11296,-0.13032 -0.135381,-0.0242 c -0.157514,-0.0282 -0.206806,-0.0669 -0.178647,-0.14024 0.05806,-0.1513 0.387465,-0.11846 0.387465,0.0386 0,0.0744 0.01017,0.0813 0.0914,0.0622 0.522937,-0.12336 1.013237,0.011 1.13784,0.31182 0.05302,0.12801 0.082,0.10743 0.151073,-0.1073 0.0308,-0.0957 0.1226,-0.29905 0.204005,-0.45177 0.0814,-0.15272 0.140995,-0.28468 0.132423,-0.29325 -0.0086,-0.009 -0.06027,0.008 -0.114887,0.0358 -0.226298,0.11702 -0.532338,0.0961 -0.716788,-0.0489 -0.224089,-0.17628 0.02013,-0.46278 0.394479,-0.46278 0.239876,0 0.481906,0.14479 0.481906,0.2883 0,0.0425 0.01253,0.0773 0.02784,0.0773 0.02853,0 0.537149,-0.54584 0.537149,-0.57646 0,-0.009 -0.0795,-0.009 -0.176672,0.001 -0.222853,0.023 -0.38832,-0.0501 -0.38832,-0.17157 0,-0.11512 0.118006,-0.18382 0.315731,-0.18382 0.198367,0 0.315731,0.0687 0.315731,0.18468 0,0.0446 0.01409,0.0812 0.03132,0.0812 0.04473,0 0.457799,-0.30752 0.479899,-0.35728 0.01321,-0.0297 -0.02309,-0.0415 -0.127685,-0.0415 -0.122866,0 -0.250592,-0.0593 -0.250592,-0.11632 0,-0.0503 0.125256,-0.11633 0.220585,-0.11633 0.171741,0 0.254893,0.0546 0.230601,0.15137 -0.02486,0.099 -0.01439,0.0952 0.429597,-0.15823 0.583999,-0.33332 1.500096,-0.66284 2.293144,-0.82484 0.362832,-0.0741 1.344722,-0.19818 1.570347,-0.19842 0.07769,-7e-5 0.141248,-0.0124 0.141248,-0.0273 0,-0.0149 -0.404689,-0.0457 -0.899309,-0.0683 -3.470772,-0.15874 -6.806896,-0.96252 -9.409014,-2.26691 -0.398451,-0.19974 -0.559471,-0.27182 -0.559471,-0.25044 0,0.006 0.141846,0.11906 0.315213,0.25109 0.546118,0.4159 0.926663,0.89959 1.106102,1.40589 0.06852,0.19333 0.08851,0.32218 0.100495,0.64757 0.01491,0.40498 0.01517,0.40607 0.08484,0.35727 0.08084,-0.0566 0.295992,-0.0647 0.389626,-0.0145 0.07675,0.0411 0.08387,0.14061 0.0142,0.19844 -0.08373,0.0695 -0.300258,0.0568 -0.409551,-0.024 l -0.09797,-0.0724 -0.08678,0.24445 c -0.111193,0.31322 -0.110444,0.33102 0.01128,0.26807 0.204644,-0.10582 0.600922,-0.0383 0.648128,0.11043 0.04956,0.15615 -0.111895,0.27092 -0.381133,0.27092 -0.203644,0 -0.281649,-0.037 -0.364274,-0.17289 l -0.06214,-0.10218 -0.110567,0.15961 c -0.06081,0.0878 -0.181606,0.24174 -0.268432,0.34212 -0.165559,0.1914 -0.197192,0.26182 -0.09971,0.22196 0.258739,-0.10578 0.571012,-0.10514 0.788861,0.002 0.177687,0.0871 0.239483,0.20207 0.198223,0.3689 -0.02825,0.11422 -0.05086,0.13549 -0.214374,0.20163 -0.30582,0.12373 -0.662912,0.0906 -0.86599,-0.0802 -0.09159,-0.0771 -0.102319,-0.10399 -0.09219,-0.23136 0.0063,-0.0793 0.0011,-0.14415 -0.01156,-0.14415 -0.01267,0 -0.147374,0.0898 -0.299353,0.1995 -0.15198,0.10973 -0.4371,0.28233 -0.633601,0.38356 -0.196502,0.10125 -0.357275,0.19309 -0.357275,0.20411 0,0.011 0.101006,0.0106 0.224459,-10e-4 0.442113,-0.0411 0.919729,0.10307 1.092658,0.32978 0.05245,0.0688 0.09372,0.174 0.103998,0.26518 0.01382,0.12259 0.02718,0.14703 0.07067,0.12926 0.151383,-0.0618 0.245335,-0.0736 0.351719,-0.0442 0.217088,0.0599 0.217516,0.22371 7.68e-4,0.29524 -0.1517,0.0501 -0.332476,-0.006 -0.393517,-0.12289 l -0.04411,-0.0842 -0.06355,0.0801 c -0.03496,0.0441 -0.112161,0.11589 -0.171569,0.1596 -0.05941,0.0437 -0.108013,0.0916 -0.108013,0.10644 0,0.0148 0.06356,0.027 0.141248,0.0271 0.168879,1.3e-4 0.357275,0.1037 0.357275,0.19638 0,0.0836 -0.142706,0.1949 -0.283702,0.22135 -0.134651,0.0252 -0.317988,-0.0308 -0.401049,-0.12254 -0.05822,-0.0643 -0.05846,-0.0728 -0.0048,-0.16624 l 0.05652,-0.0985 -0.256779,0.022 c -0.298667,0.0256 -0.347038,0.0535 -0.241259,0.13919 0.155802,0.12616 -0.03608,0.30308 -0.284912,0.2627 -0.242031,-0.0393 -0.285629,-0.181 -0.09101,-0.29582 0.134732,-0.0795 0.149337,-0.0641 -0.168153,-0.17677 -0.202253,-0.0717 -0.402854,-0.24885 -0.452598,-0.39957 -0.05234,-0.15861 0.0055,-0.31626 0.178384,-0.48598 0.09642,-0.0947 0.118018,-0.13035 0.0716,-0.11828 -0.03656,0.01 -0.196459,0.0556 -0.355334,0.1025 -0.570634,0.16837 -1.05026,0.25258 -1.948978,0.34219 -0.0975,0.01 -0.170362,0.0246 -0.161906,0.0331 0.0085,0.008 0.137743,0.0446 0.287304,0.0803 0.344193,0.0822 0.583146,0.19509 0.780251,0.36859 0.209375,0.1843 0.285295,0.34195 0.285295,0.59242 0,0.18161 0.03218,0.24986 0.08076,0.17127 0.03692,-0.0597 0.246944,-0.0731 0.366161,-0.0232 0.09091,0.038 0.118071,0.0686 0.118071,0.13295 0,0.10625 -0.08537,0.15243 -0.281822,0.15243 -0.118105,0 -0.17183,-0.0186 -0.234255,-0.081 l -0.081,-0.081 -0.199984,0.19998 c -0.10999,0.11 -0.199983,0.20694 -0.199983,0.21545 0,0.008 0.05244,0.006 0.116544,-0.006 0.278191,-0.0522 0.614623,0.093 0.614623,0.26527 0,0.2159 -0.424229,0.35989 -0.707308,0.24008 -0.206756,-0.0875 -0.256675,-0.19932 -0.175183,-0.39237 0.02047,-0.0485 -0.007,-0.0458 -0.220061,0.0218 -0.133902,0.0425 -0.318237,0.088 -0.409634,0.10111 -0.253745,0.0365 -0.275134,0.0632 -0.103275,0.12884 0.16219,0.0619 0.319302,0.21884 0.319302,0.31886 0,0.10466 -0.161309,0.26203 -0.309872,0.30231 -0.253622,0.0688 -0.245921,0.0622 -0.157092,0.1346 0.111533,0.091 0.0578,0.17446 -0.120904,0.18789 -0.182705,0.0137 -0.249255,-0.0633 -0.147873,-0.17126 0.07659,-0.0815 0.06496,-0.12119 -0.03552,-0.12119 -0.0798,0 -0.299904,-0.11192 -0.358174,-0.18213 -0.120001,-0.1446 -0.0015,-0.37891 0.228676,-0.45238 0.160915,-0.0514 0.196123,-0.0897 0.09962,-0.10846 -0.04377,-0.008 -0.214187,-0.0481 -0.378699,-0.088 -0.164513,-0.0399 -0.333283,-0.0805 -0.375045,-0.0902 -0.0707,-0.0164 -0.07327,-0.0118 -0.03733,0.0671 0.0634,0.13915 0.01274,0.25188 -0.145485,0.3237 -0.269554,0.12237 -0.611326,0.0554 -0.72033,-0.14114 -0.04577,-0.0825 -0.04434,-0.0972 0.01741,-0.17996 0.09501,-0.12725 0.287891,-0.18812 0.52321,-0.16511 l 0.193013,0.0189 -0.217668,-0.21448 -0.217669,-0.21448 -0.08185,0.0818 c -0.166914,0.16691 -0.56197,0.0767 -0.501295,-0.11444 0.04031,-0.127 0.280501,-0.15245 0.518986,-0.055 0.04532,0.0185 0.05059,-0.004 0.0376,-0.16068 -0.03727,-0.44944 0.374434,-0.82249 1.092549,-0.98997 0.163943,-0.0382 0.292953,-0.0746 0.28669,-0.0809 -0.0063,-0.006 -0.189917,-0.0268 -0.408118,-0.0457 -0.835931,-0.0722 -1.575024,-0.24049 -2.253747,-0.51305 -0.253636,-0.10185 -0.475878,-0.18518 -0.493871,-0.18518 -0.01799,0 0.05275,0.0841 0.157199,0.1869 0.232857,0.22917 0.314221,0.39782 0.315192,0.65334 8.19e-4,0.2111 -0.05088,0.36406 -0.180361,0.53382 -0.108131,0.14177 -0.106619,0.16482 0.0091,0.13939 0.140353,-0.0308 0.278704,0.0321 0.265648,0.12081 -0.02291,0.15568 -0.392814,0.14646 -0.392814,-0.01 0,-0.0344 -0.0079,-0.0624 -0.01763,-0.0624 -0.03659,0 -0.480889,0.27737 -0.480889,0.30021 0,0.0132 0.08203,0.0307 0.182277,0.039 0.193472,0.016 0.316246,0.0918 0.316246,0.19525 0,0.0737 -0.138715,0.18537 -0.264658,0.21302 -0.127002,0.0279 -0.341215,-0.0327 -0.418834,-0.11845 -0.0601,-0.0664 -0.06027,-0.0732 -0.0042,-0.17082 0.03209,-0.0559 0.05414,-0.1052 0.049,-0.10953 -0.0051,-0.004 -0.121514,0.0191 -0.258608,0.0521 -0.137094,0.033 -0.342735,0.0702 -0.456979,0.0827 -0.114245,0.0125 -0.207718,0.0336 -0.207718,0.0469 0,0.0133 0.05915,0.0418 0.131441,0.0635 0.333294,0.0999 0.434452,0.34121 0.221411,0.52826 -0.06184,0.0543 -0.170154,0.10955 -0.240699,0.12279 -0.18093,0.0339 -0.189046,0.0455 -0.09117,0.12967 0.08277,0.0712 0.08416,0.0776 0.02885,0.13289 -0.07479,0.0748 -0.277926,0.0614 -0.328961,-0.0216 -0.0299,-0.0486 -0.02142,-0.0711 0.04627,-0.12257 0.06428,-0.0489 0.07174,-0.0666 0.03323,-0.0792 -0.0273,-0.009 -0.106099,-0.0335 -0.17511,-0.0548 -0.187818,-0.0578 -0.323196,-0.18527 -0.323196,-0.3043 0,-0.13062 0.147081,-0.27695 0.327097,-0.32542 0.076,-0.0205 0.138191,-0.0488 0.138191,-0.0631 0,-0.0142 -0.123385,-0.0426 -0.274187,-0.0628 -0.150803,-0.0203 -0.398972,-0.0765 -0.551486,-0.1248 -0.152514,-0.0483 -0.285777,-0.0794 -0.29614,-0.069 -0.01036,0.0104 0.0066,0.047 0.03777,0.0814 0.03114,0.0344 0.06493,0.11384 0.0751,0.17652 0.01498,0.0923 7.68e-4,0.13505 -0.07482,0.22488 -0.09622,0.11435 -0.311438,0.23198 -0.428418,0.23417 -0.03656,5.1e-4 -0.0889,0.0156 -0.116322,0.033 -0.04231,0.027 -0.03852,0.0398 0.02504,0.0845 0.157091,0.11065 -0.06303,0.24162 -0.271586,0.16159 -0.07022,-0.0269 -0.06695,-0.13466 0.0053,-0.17509 0.07438,-0.0416 0.04483,-0.0692 -0.113412,-0.10598 -0.196597,-0.0456 -0.239611,-0.0397 -0.221276,0.0304 0.0285,0.10902 -0.07808,0.17545 -0.263812,0.16443 -0.308023,-0.0183 -0.307542,-0.21728 6.65e-4,-0.27306 l 0.168533,-0.0305 -0.103552,-0.12886 c -0.102094,-0.12704 -0.102872,-0.1308 -0.05524,-0.26752 0.09056,-0.25994 0.367763,-0.37456 0.841687,-0.34802 l 0.294853,0.0165 -0.185026,-0.17638 c -0.101765,-0.097 -0.223485,-0.25227 -0.270488,-0.34502 -0.047,-0.0928 -0.0923,-0.16865 -0.100665,-0.16865 -0.0084,0 -0.03833,0.0447 -0.06659,0.0994 -0.167745,0.32438 -0.930186,0.32989 -1.120277,0.008 -0.05061,-0.0857 -0.05082,-0.10228 -0.0025,-0.20204 0.149073,-0.30779 0.865269,-0.34505 1.103979,-0.0574 0.06884,0.0829 0.101721,0.0616 0.101721,-0.0662 0,-0.0652 0.03195,-0.19274 0.071,-0.28351 0.03905,-0.0908 0.06248,-0.17355 0.05208,-0.18396 -0.0104,-0.0104 -0.07388,-10e-4 -0.141064,0.0214 -0.353167,0.11655 -0.686548,-0.15881 -0.405757,-0.33515 0.217147,-0.13636 0.583596,-0.0367 0.598623,0.16276 0.003,0.0397 0.01574,0.0722 0.02833,0.0722 0.01259,0 0.115828,-0.0785 0.229424,-0.17448 l 0.206536,-0.17449 -0.139616,-0.0192 c -0.187402,-0.0258 -0.259609,-0.12956 -0.136151,-0.19563 0.162037,-0.0867 0.380029,-0.005 0.344964,0.12871 -0.01587,0.0607 0.0012,0.0588 0.283646,-0.032 0.422761,-0.13596 0.723249,-0.17598 1.151639,-0.1534 0.321336,0.017 0.755894,0.10493 1.030281,0.20861 0.08355,0.0316 -0.06808,-0.0974 -0.298079,-0.25353 -0.238065,-0.16161 -0.667721,-0.58163 -0.832114,-0.81345 -0.158802,-0.22394 -0.286022,-0.46677 -0.348236,-0.6647 -0.06408,-0.20387 -0.08907,-0.20494 -0.146814,-0.006 -0.03722,0.12804 -0.09647,0.22761 -0.196952,0.331 -0.269988,0.2778 -0.8541,0.48957 -1.350333,0.48957 -0.110446,0 -0.200811,0.008 -0.200811,0.0182 0,0.01 0.0394,0.0521 0.08756,0.0935 0.07459,0.0642 0.08198,0.0858 0.04989,0.14572 -0.09761,0.18238 -0.536267,0.14615 -0.536267,-0.0443 0,-0.0643 0.02714,-0.095 0.117661,-0.13278 0.111886,-0.0467 0.130513,-0.11362 0.03165,-0.11362 -0.0254,0 -0.167993,-0.0385 -0.316881,-0.0855 -0.264857,-0.0837 -0.349441,-0.0858 -0.270576,-0.007 0.02163,0.0216 0.03933,0.0786 0.03933,0.12659 0,0.28429 -0.609099,0.39011 -0.851309,0.1479 -0.106463,-0.10646 -0.0998,-0.19204 0.023,-0.29537 0.129832,-0.10925 0.217561,-0.13057 0.463938,-0.11274 0.109009,0.008 0.198198,0.008 0.198198,5.1e-4 0,-0.008 -0.07552,-0.0816 -0.167829,-0.16455 -0.09231,-0.083 -0.197811,-0.20967 -0.234455,-0.2815 l -0.06663,-0.1306 -0.0734,0.11024 c -0.110483,0.16593 -0.29347,0.24344 -0.571051,0.24188 -0.454049,-0.003 -0.706736,-0.2461 -0.51207,-0.49358 0.099,-0.12586 0.270382,-0.18654 0.524437,-0.1857 0.247885,10e-4 0.474572,0.0839 0.534495,0.19585 0.05756,0.10755 0.09105,0.0828 0.109499,-0.0809 0.0099,-0.0882 0.05628,-0.20791 0.112335,-0.29017 0.05248,-0.077 0.10709,-0.15849 0.121366,-0.18107 0.01896,-0.03 -0.01124,-0.028 -0.112192,0.008 -0.187027,0.066 -0.383886,0.0602 -0.552362,-0.0163 -0.236846,-0.10751 -0.235816,-0.3278 0.002,-0.4358 0.345708,-0.15697 0.79259,0.0115 0.739157,0.27867 -0.0104,0.052 -0.0073,0.0896 0.007,0.0836 0.01423,-0.006 0.14856,-0.0708 0.298505,-0.14392 0.260979,-0.12726 0.329324,-0.18279 0.224964,-0.18279 -0.09036,0 -0.216248,-0.0764 -0.237791,-0.14423 -0.03143,-0.099 0.09445,-0.18812 0.265749,-0.18812 0.233883,0 0.354122,0.13575 0.235924,0.26636 -0.04678,0.0517 -0.01724,0.0554 0.423744,0.0535 0.514816,-0.002 0.754654,0.0427 1.064573,0.19982 0.194114,0.0984 0.426844,0.30575 0.530913,0.47309 l 0.075,0.12061 0.02054,-0.34897 c 0.02405,-0.40867 0.119505,-0.72648 0.325518,-1.0838 0.07472,-0.12959 0.135849,-0.24598 0.135849,-0.25863 0,-0.0127 -0.06356,0.0137 -0.141249,0.0587 -0.422977,0.2445 -1.024356,0.24806 -1.433157,0.008 -0.07941,-0.0465 -0.169744,-0.12332 -0.200748,-0.17064 l -0.05637,-0.086 -0.09462,0.10129 c -0.07827,0.0838 -0.12038,0.10129 -0.243776,0.10129 -0.30179,0 -0.391048,-0.22282 -0.121597,-0.30355 0.10855,-0.0325 0.154125,-0.0299 0.269768,0.0155 0.07653,0.0301 0.141913,0.0511 0.145286,0.0467 0.0034,-0.005 0.01472,-0.0952 0.02522,-0.2018 0.01704,-0.17309 0.01309,-0.19128 -0.03696,-0.16986 -0.03082,0.0132 -0.1383,0.0308 -0.238835,0.0392 -0.151742,0.0126 -0.198316,0.003 -0.274187,-0.0569 -0.199552,-0.15748 -0.05874,-0.34742 0.25757,-0.34742 0.21044,0 0.348966,0.0785 0.348966,0.1978 0,0.0997 0.02068,0.10168 0.149556,0.0142 0.05484,-0.0372 0.149387,-0.0891 0.21011,-0.11541 0.121455,-0.0525 0.114545,-0.11559 -0.01266,-0.11559 -0.07782,0 -0.214064,-0.10249 -0.214064,-0.16102 0,-0.0608 0.134289,-0.1445 0.25499,-0.15883 0.226734,-0.0269 0.335171,0.0841 0.273786,0.28035 -0.01038,0.0332 0.0537,0.0456 0.26886,0.0518 0.376448,0.0109 0.628916,0.0941 0.825335,0.27202 0.154409,0.13987 0.15509,0.14143 0.154521,0.35584 l -5.63e-4,0.21537 0.256519,-0.23831 c 0.243269,-0.226 0.42994,-0.36639 0.749979,-0.56402 0.07769,-0.048 0.141248,-0.0986 0.141248,-0.11238 0,-0.0138 -0.113086,-0.0195 -0.251303,-0.0125 -0.291905,0.0147 -0.506486,-0.05 -0.612446,-0.18467 -0.08906,-0.11321 -0.08423,-0.20575 0.01794,-0.34372 l 0.08476,-0.11447 -0.139549,-0.0166 c -0.173213,-0.0206 -0.246419,-0.11185 -0.148258,-0.18474 0.139664,-0.10371 0.378672,-0.0247 0.342593,0.1133 -0.0217,0.083 -0.01693,0.0838 0.202609,0.0331 0.31996,-0.0738 0.730518,0.0778 0.783642,0.28945 0.01495,0.0596 6.14e-4,0.12371 -0.0448,0.20072 -0.07995,0.13551 -0.03802,0.14916 0.156645,0.051 0.06782,-0.0342 0.280341,-0.11907 0.472272,-0.18861 0.191931,-0.0695 0.361122,-0.13671 0.37598,-0.14928 0.01486,-0.0126 -0.04842,-0.0329 -0.14063,-0.0451 -0.334713,-0.0444 -0.449223,-0.29426 -0.185383,-0.4045 0.35502,-0.14834 0.759859,0.0761 0.546655,0.30301 -0.04191,0.0446 -0.06927,0.088 -0.0608,0.0965 0.0085,0.008 0.104497,-0.005 0.213387,-0.0299 0.10889,-0.0249 0.283977,-0.0628 0.389083,-0.0841 0.105105,-0.0213 0.1911,-0.0494 0.1911,-0.0624 0,-0.013 -0.04483,-0.0405 -0.09963,-0.0612 -0.136344,-0.0515 -0.163766,-0.13757 -0.06841,-0.21479 0.125963,-0.102 0.39787,-0.0702 0.444764,0.052 0.01027,0.0268 -0.01328,0.0893 -0.05232,0.13891 l -0.07099,0.0902 0.164243,-0.0218 c 0.09033,-0.012 0.427863,-0.0314 0.750065,-0.0432 1.124917,-0.041 2.182958,0.13363 3.154149,0.52055 0.186777,0.0744 0.352527,0.13093 0.368333,0.1256 0.01581,-0.005 -0.218428,-0.16673 -0.520519,-0.35866 -1.854298,-1.17811 -3.207373,-2.54494 -4.02207,-4.06297 -0.10546,-0.19649 -0.200444,-0.35727 -0.211078,-0.35727 -0.01063,0 -0.01933,0.16078 -0.01933,0.35727 0,0.3348 -0.0067,0.37101 -0.106769,0.57545 -0.141103,0.28833 -0.4544,0.62466 -0.778562,0.83579 -0.264478,0.17227 -0.28592,0.22392 -0.09343,0.22507 0.09836,5.2e-4 0.164513,0.0559 0.164513,0.13752 0,0.0851 -0.191609,0.13972 -0.326003,0.0929 -0.08731,-0.0304 -0.106051,-0.0545 -0.106051,-0.13619 0,-0.0546 -0.01123,-0.0942 -0.02497,-0.0881 -0.01373,0.006 -0.163288,0.0617 -0.332349,0.12363 -0.317961,0.11644 -0.382309,0.16994 -0.204392,0.16994 0.05664,0 0.153307,0.0239 0.214804,0.0531 0.274971,0.13048 0.12107,0.37899 -0.234708,0.37899 -0.314178,0 -0.459644,-0.16479 -0.296125,-0.33546 0.10937,-0.11416 0.118784,-0.11308 -0.384668,-0.0443 -0.210497,0.0288 -0.448088,0.0598 -0.527979,0.0691 -0.160627,0.0186 -0.150316,0.0499 0.03608,0.10944 0.170227,0.0544 0.325208,0.20573 0.325208,0.31759 0,0.12522 -0.183998,0.30007 -0.367591,0.34932 -0.203926,0.0547 -0.210733,0.0626 -0.11694,0.13642 0.09928,0.0781 0.08169,0.14562 -0.04989,0.19148 -0.203461,0.0709 -0.406024,-0.10114 -0.22998,-0.19535 0.10125,-0.0542 0.08012,-0.0916 -0.0657,-0.11619 -0.160453,-0.0271 -0.330589,-0.13673 -0.397652,-0.25621 -0.04441,-0.0791 -0.04389,-0.10042 0.0049,-0.20278 0.05066,-0.10622 0.156524,-0.17697 0.408579,-0.27301 0.05665,-0.0216 0.04929,-0.0291 -0.04985,-0.0506 -0.06398,-0.0139 -0.265878,-0.042 -0.44867,-0.0625 -0.182791,-0.0205 -0.466844,-0.0743 -0.631228,-0.11954 -0.380862,-0.10492 -0.426217,-0.10391 -0.299348,0.007 0.216711,0.18888 0.273652,0.4011 0.164342,0.61248 -0.06236,0.1206 -0.311057,0.28504 -0.505564,0.3343 -0.078,0.0198 -0.149014,0.0476 -0.157816,0.0618 -0.0088,0.0142 0.03632,0.0568 0.10027,0.0945 0.130084,0.0768 0.145042,0.13422 0.05593,0.21486 -0.09248,0.0837 -0.244607,0.10097 -0.382327,0.0434 -0.13961,-0.0583 -0.159628,-0.14339 -0.05585,-0.2373 0.09893,-0.0895 0.08188,-0.11623 -0.07478,-0.11711 -0.07769,-4.4e-4 -0.200652,-0.0145 -0.273255,-0.0314 -0.144771,-0.0336 -0.183831,-0.0211 -0.123348,0.0394 0.02163,0.0216 0.03933,0.0808 0.03933,0.13153 0,0.24607 -0.625771,0.27719 -0.686769,0.0341 -0.03158,-0.12584 0.112817,-0.23936 0.304461,-0.23936 0.08016,0 0.15384,-0.0131 0.163738,-0.0291 0.0099,-0.016 -0.03783,-0.0679 -0.106052,-0.1153 -0.06823,-0.0474 -0.143411,-0.11742 -0.167076,-0.1556 -0.04257,-0.0687 -0.04403,-0.0683 -0.137965,0.0322 -0.07861,0.0841 -0.120589,0.10163 -0.244095,0.10163 -0.188352,0 -0.325692,-0.0962 -0.269778,-0.18901 0.01996,-0.0331 0.0791,-0.0812 0.131401,-0.10685 0.09232,-0.0453 0.207336,-0.0321 0.384574,0.0439 0.04449,0.0191 0.05656,-0.006 0.07005,-0.14654 0.01228,-0.12783 0.03996,-0.19452 0.112421,-0.27084 0.213829,-0.22523 0.641542,-0.35224 1.051627,-0.31229 0.141041,0.0137 0.224336,0.01 0.224336,-0.0112 0,-0.0182 -0.02919,-0.0423 -0.06485,-0.0536 -0.101026,-0.032 -0.545316,-0.33041 -0.699572,-0.46977 -0.07645,-0.0691 -0.208674,-0.22324 -0.293828,-0.3426 l -0.154824,-0.21701 -0.02107,0.17192 c -0.02722,0.22207 -0.125939,0.37831 -0.320447,0.50715 -0.151195,0.10014 -0.457706,0.20719 -0.713689,0.24924 -0.140638,0.0231 -0.154539,0.0493 -0.05816,0.10946 0.08011,0.05 0.08339,0.0858 0.01424,0.15489 -0.09456,0.0946 -0.379826,0.047 -0.379826,-0.0634 0,-0.0258 0.03275,-0.0697 0.07277,-0.0978 0.04002,-0.0281 0.0662,-0.0569 0.05816,-0.0642 -0.02356,-0.0214 -0.541255,-0.12077 -0.555406,-0.10662 -0.0071,0.007 0.0118,0.0506 0.04198,0.0966 0.107246,0.16368 -0.042,0.28761 -0.346354,0.28761 -0.177696,0 -0.334667,-0.0935 -0.334667,-0.19941 0,-0.1065 0.15694,-0.19941 0.336831,-0.19941 0.08893,0 0.161692,-0.0142 0.161692,-0.0316 0,-0.0174 -0.06617,-0.0772 -0.147037,-0.13281 -0.08087,-0.0556 -0.176496,-0.13861 -0.212501,-0.18438 -0.08284,-0.10532 -0.09189,-0.10434 -0.133262,0.0143 -0.09729,0.27909 -0.751752,0.29117 -0.877042,0.0162 -0.03123,-0.0685 -0.02624,-0.0976 0.02955,-0.17234 0.132412,-0.17736 0.50378,-0.21442 0.735641,-0.0734 0.05925,0.0361 0.11485,0.0655 0.123548,0.0655 0.0087,0 0.01653,-0.071 0.01741,-0.15787 0.0024,-0.23499 0.08395,-0.36751 0.32129,-0.52196 0.219434,-0.1428 0.250994,-0.18428 0.140217,-0.18428 -0.190369,0 -0.271048,-0.17299 -0.10935,-0.23447 0.06089,-0.0231 0.123169,-0.0218 0.202822,0.005 0.104817,0.0346 0.113188,0.0468 0.09498,0.13781 -0.01899,0.0949 -0.01545,0.0988 0.07137,0.079 0.05024,-0.0115 0.233416,-0.0297 0.407068,-0.0406 0.50937,-0.0319 0.881206,0.0818 1.188269,0.36351 l 0.151379,0.13889 -0.02281,-0.0997 c -0.05061,-0.22121 -0.06122,-0.55074 -0.02268,-0.70464 0.02196,-0.0877 0.08374,-0.24591 0.13729,-0.35156 0.05355,-0.10566 0.09735,-0.19934 0.09735,-0.2082 0,-0.009 -0.086,0.0271 -0.1911,0.0799 -0.342706,0.1722 -0.698817,0.21238 -1.056533,0.11923 -0.491103,-0.12788 -0.687412,-0.37001 -0.598176,-0.73779 l 0.02622,-0.10806 -0.119418,0.0499 c -0.149419,0.0624 -0.290701,0.0634 -0.435148,0.003 -0.153539,-0.0642 -0.182635,-0.16999 -0.07604,-0.27659 0.17668,-0.17667 0.602198,-0.11764 0.643584,0.0893 0.01113,0.0557 0.02403,0.10118 0.02867,0.10118 0.0047,0 0.09536,-0.0523 0.201609,-0.11633 0.106244,-0.064 0.20615,-0.11631 0.222014,-0.11631 0.06874,0 -0.01636,-0.0598 -0.112469,-0.079 -0.217558,-0.0435 -0.263495,-0.18298 -0.08985,-0.27278 0.115017,-0.0595 0.327739,-0.0489 0.41133,0.0205 0.06299,0.0523 0.062,0.14579 -0.0021,0.199 -0.02786,0.0231 -0.04332,0.0494 -0.03435,0.0583 0.009,0.009 0.155147,0.0197 0.324843,0.0238 0.624993,0.0152 1.02942,0.29263 0.977621,0.67054 -0.01085,0.0792 -0.011,0.14396 -3.32e-4,0.14396 0.01067,0 0.09638,-0.0692 0.190464,-0.15383 0.193561,-0.17406 0.422965,-0.32678 0.727255,-0.48417 l 0.208204,-0.10768 -0.250416,-0.0214 c -0.276585,-0.0236 -0.422814,-0.0838 -0.527668,-0.21714 -0.101954,-0.12961 -0.08817,-0.23651 0.04692,-0.36392 0.137626,-0.12979 0.142035,-0.1474 0.03692,-0.1474 -0.04367,0 -0.114227,-0.0282 -0.156787,-0.0627 -0.06491,-0.0526 -0.07049,-0.071 -0.03462,-0.11419 0.05973,-0.072 0.208739,-0.0984 0.318905,-0.0565 0.07901,0.0301 0.09009,0.0492 0.07425,0.12842 l -0.01862,0.0931 0.25556,-0.002 c 0.544981,-0.004 0.812902,0.30143 0.530049,0.60337 -0.08475,0.0905 -0.05071,0.0945 0.207416,0.0243 0.100535,-0.0273 0.315761,-0.0716 0.478279,-0.0985 0.162517,-0.0268 0.3021,-0.0554 0.310184,-0.0635 0.0081,-0.008 -0.05236,-0.0443 -0.134326,-0.0806 -0.159165,-0.0704 -0.214149,-0.16261 -0.158725,-0.26617 0.08606,-0.1608 0.496141,-0.18471 0.652275,-0.038 0.106016,0.0996 0.103383,0.13229 -0.02016,0.25033 l -0.102159,0.0976 0.309877,0.0179 c 0.343325,0.0199 0.428993,0.004 0.345212,-0.0661 -0.07462,-0.0619 -0.06418,-0.12514 0.03099,-0.18749 0.09318,-0.0611 0.283383,-0.043 0.346346,0.0329 0.04806,0.0579 0.01401,0.14484 -0.06677,0.17048 -0.08593,0.0273 -0.08001,0.0774 0.01138,0.0963 0.04113,0.009 0.226101,0.0451 0.41105,0.0814 0.738838,0.14503 1.302101,0.42974 1.765833,0.89257 0.169082,0.16876 0.307422,0.29442 0.307422,0.27924 0,-0.0152 -0.05983,-0.20979 -0.132954,-0.43248 -0.342433,-1.04282 -0.441201,-2.24749 -0.263208,-3.21034 0.02998,-0.16216 0.02382,-0.26332 -0.01302,-0.2141 -0.0057,0.008 -0.06636,0.0918 -0.134804,0.18701 -0.06844,0.0952 -0.181783,0.21859 -0.251872,0.27409 -0.289884,0.2296 -0.864395,0.43178 -1.380494,0.48584 l -0.198881,0.0208 0.07686,0.0622 c 0.04227,0.0342 0.0718,0.0885 0.06562,0.12057 -0.01563,0.0812 -0.170614,0.13042 -0.284456,0.0904 -0.117228,-0.0412 -0.133875,-0.13225 -0.03833,-0.20962 l 0.07521,-0.0609 -0.147386,-0.02 c -0.08106,-0.011 -0.236088,-0.0301 -0.344502,-0.0425 l -0.197116,-0.0225 0.07249,0.0922 c 0.0931,0.11835 0.09124,0.15369 -0.01328,0.25187 -0.07232,0.0679 -0.119104,0.0806 -0.298359,0.0806 -0.185228,0 -0.223839,-0.0113 -0.299956,-0.0874 -0.06354,-0.0635 -0.08123,-0.10669 -0.06487,-0.15823 0.02629,-0.0828 0.178258,-0.16984 0.296667,-0.16984 0.04553,0 0.09103,-0.0134 0.101114,-0.0297 0.01407,-0.0228 -0.334578,-0.21493 -0.717734,-0.3956 -0.0121,-0.006 -0.01392,0.0499 -0.004,0.12365 0.01582,0.11796 0.0059,0.14531 -0.08289,0.22824 -0.337765,0.31553 -1.137373,0.16734 -1.137373,-0.21079 0,-0.0302 0.04931,-0.10413 0.109572,-0.16439 0.178543,-0.17854 0.487622,-0.23004 0.805862,-0.13427 0.08888,0.0268 0.167475,0.0427 0.174659,0.0356 0.0072,-0.007 -0.03087,-0.0777 -0.08457,-0.15664 -0.120837,-0.17771 -0.174649,-0.331 -0.174649,-0.49752 0,-0.15054 -0.02628,-0.15863 -0.135455,-0.0417 -0.163349,0.17501 -0.318109,0.22853 -0.662181,0.22899 -0.480953,5.1e-4 -0.681812,-0.1089 -0.778304,-0.42449 -0.01677,-0.0548 -0.0256,-0.0555 -0.11679,-0.008 -0.137075,0.0709 -0.343979,0.066 -0.412532,-0.01 -0.0737,-0.0814 -0.06931,-0.12484 0.01886,-0.1866 0.117348,-0.0822 0.313228,-0.0665 0.41282,0.0331 l 0.08484,0.0848 0.111671,-0.12638 c 0.06142,-0.0695 0.112294,-0.13761 0.113055,-0.15132 7.68e-4,-0.0137 -0.04447,-0.0249 -0.100506,-0.0249 -0.200445,0 -0.304545,-0.12419 -0.166174,-0.19824 0.163475,-0.0875 0.392633,10e-4 0.350039,0.13527 -0.02409,0.0759 -0.03622,0.0754 0.222274,0.009 0.395736,-0.10138 0.84827,0.0426 0.975291,0.31015 0.03656,0.077 0.07542,0.14058 0.08635,0.14124 0.01093,5.2e-4 0.04646,-0.0577 0.07895,-0.12979 0.06545,-0.14515 0.190766,-0.28803 0.416309,-0.47466 l 0.149557,-0.12376 -0.232643,0.0195 c -0.297739,0.025 -0.495071,-0.0277 -0.637764,-0.17047 -0.131527,-0.13153 -0.136879,-0.20075 -0.02793,-0.36129 l 0.08209,-0.12096 H 60.81656 c -0.05993,0 -0.137999,-0.0216 -0.173481,-0.0479 -0.135328,-0.10049 0.06063,-0.2231 0.271851,-0.17009 0.06053,0.0152 0.07907,0.0425 0.07907,0.11624 0,0.0951 0.0016,0.096 0.123119,0.0624 0.16982,-0.0469 0.499128,-0.0193 0.65262,0.0547 0.07996,0.0386 0.147968,0.10414 0.182014,0.17553 0.05178,0.10859 0.05098,0.12013 -0.01689,0.24404 -0.03918,0.0715 -0.06132,0.13005 -0.04919,0.13005 0.01213,0 0.134271,-0.0365 0.271426,-0.081 0.137157,-0.0445 0.336556,-0.0982 0.443111,-0.11922 0.106555,-0.021 0.186908,-0.0451 0.178562,-0.0534 -0.0083,-0.008 -0.08057,-0.0482 -0.160501,-0.0885 -0.307241,-0.15501 -0.146614,-0.40558 0.243937,-0.38054 0.313352,0.0201 0.432281,0.20951 0.226886,0.36136 -0.05412,0.04 -0.09063,0.0853 -0.08113,0.1007 0.0095,0.0154 0.159318,0.028 0.332928,0.028 h 0.315558 l -0.05106,-0.0729 c -0.04615,-0.0659 -0.04584,-0.0787 0.0033,-0.13294 0.06256,-0.0691 0.27481,-0.0818 0.336494,-0.0202 0.07188,0.0719 0.0442,0.15152 -0.06603,0.18995 -0.05852,0.0204 -0.09198,0.0486 -0.07478,0.063 0.01713,0.0143 0.160219,0.0668 0.317985,0.11666 0.342623,0.10822 0.621061,0.28072 0.83177,0.51532 0.150742,0.16782 0.260628,0.40397 0.260628,0.56009 0,0.12647 0.06117,0.0876 0.100906,-0.0641 0.161761,-0.61755 0.507251,-1.4098 0.892669,-2.04698 0.11434,-0.18903 0.201523,-0.35006 0.193739,-0.35784 -0.0078,-0.008 -0.102385,0.039 -0.210224,0.10391 -0.263207,0.1585 -0.467295,0.21617 -0.844448,0.23862 -0.257293,0.0153 -0.368109,0.006 -0.596246,-0.0521 -0.346792,-0.0877 -0.339578,-0.0879 -0.315131,0.01 0.01498,0.0597 0.0029,0.0896 -0.04703,0.11633 -0.140405,0.0751 -0.403921,0.0232 -0.403921,-0.0796 0,-0.0725 0.135565,-0.15028 0.262037,-0.15028 h 0.114307 l -0.19648,-0.1798 -0.196481,-0.17981 -0.04606,0.0935 c -0.06286,0.12763 -0.180438,0.18301 -0.38859,0.18301 -0.193171,0 -0.355329,-0.0887 -0.37268,-0.20396 -0.02914,-0.19349 0.384426,-0.31374 0.632845,-0.18402 l 0.12463,0.0651 v -0.17506 c 0,-0.0963 0.0096,-0.22294 0.02128,-0.28148 l 0.02128,-0.10642 -0.128806,0.069 c -0.222636,0.11932 -0.568206,0.0856 -0.736326,-0.0719 -0.200907,-0.1882 0.04088,-0.42405 0.434735,-0.42405 0.221555,0 0.392713,0.0882 0.438838,0.22623 0.04981,0.14902 0.05864,0.15063 0.20145,0.0368 0.07136,-0.0569 0.185824,-0.13217 0.254371,-0.16729 0.153278,-0.0785 0.159766,-0.12891 0.01662,-0.12908 -0.05941,-6e-5 -0.157577,-0.0304 -0.218156,-0.0673 -0.136336,-0.0831 -0.135141,-0.20765 0.003,-0.31032 0.175912,-0.13077 0.580707,-0.0685 0.645078,0.0993 0.01056,0.0275 -9.73e-4,0.0902 -0.02565,0.13931 -0.02466,0.0491 -0.05018,0.10011 -0.05671,0.11335 -0.01142,0.0232 0.527311,-0.005 0.555131,-0.0285 0.0075,-0.006 -0.0143,-0.0426 -0.04846,-0.0804 -0.04748,-0.0525 -0.05379,-0.0818 -0.0268,-0.12458 0.05053,-0.0801 0.209826,-0.11792 0.32003,-0.076 0.13806,0.0526 0.152247,0.13267 0.03943,0.22263 -0.104635,0.0834 -0.106426,0.0817 0.150266,0.14756 0.507755,0.13032 0.836527,0.47565 0.78915,0.82887 -0.0098,0.0733 -0.0064,0.13321 0.0075,0.13321 0.01396,0 0.150511,-0.1533 0.303454,-0.34065 0.152943,-0.18737 0.476603,-0.54401 0.719245,-0.79253 0.242642,-0.24853 0.441167,-0.46112 0.441167,-0.47242 0,-0.0113 -0.06936,0.009 -0.154142,0.0455 -0.449023,0.19248 -1.050239,0.11793 -1.333501,-0.16533 -0.138831,-0.13883 -0.161646,-0.23792 -0.09498,-0.41249 0.07169,-0.18772 0.07154,-0.18808 -0.06468,-0.15047 -0.06517,0.018 -0.166124,0.0226 -0.224335,0.0102 -0.343731,-0.073 -0.268925,-0.36405 0.09357,-0.36405 0.201007,0 0.315731,0.0753 0.315731,0.20734 0,0.0444 0.01127,0.0757 0.02506,0.0696 0.01378,-0.006 0.118472,-0.0484 0.232643,-0.094 0.114172,-0.0456 0.207585,-0.0912 0.207585,-0.10134 0,-0.0101 -0.05092,-0.0368 -0.113152,-0.0593 -0.141483,-0.0512 -0.170449,-0.12089 -0.0855,-0.20583 0.08661,-0.0866 0.297076,-0.0877 0.402692,-0.002 l 0.07846,0.0636 -0.07236,0.098 -0.07236,0.098 0.251644,0.019 c 0.563625,0.0427 0.944855,0.40175 0.77111,0.7264 -0.01976,0.0369 -0.02811,0.075 -0.01856,0.0845 0.0096,0.01 0.201449,-0.13033 0.426437,-0.31086 0.224987,-0.18053 0.53331,-0.4156 0.685161,-0.52237 0.151852,-0.10678 0.268945,-0.20129 0.260207,-0.21003 -0.0087,-0.009 -0.102153,0.002 -0.207586,0.0239 -0.356426,0.074 -0.734826,-0.0422 -0.837305,-0.25709 -0.0524,-0.10988 -0.05166,-0.12082 0.0164,-0.24507 l 0.07124,-0.13006 h -0.126496 c -0.07819,0 -0.156461,-0.0254 -0.204957,-0.0665 l -0.07846,-0.0665 0.07846,-0.0665 c 0.04315,-0.0366 0.121671,-0.0665 0.174483,-0.0665 0.111906,0 0.236166,0.10874 0.208035,0.18204 -0.02397,0.0625 -0.0041,0.0625 0.200692,4e-4 0.205107,-0.0622 0.364173,-0.0626 0.56725,-0.001 0.222527,0.067 0.349735,0.19614 0.349735,0.35511 0,0.0686 -0.01496,0.13401 -0.03324,0.14531 -0.04118,0.0254 -0.04375,0.0831 -0.0037,0.0831 0.0256,0 0.832777,-0.47435 1.067202,-0.62716 0.08114,-0.0529 0.07667,-0.0546 -0.190231,-0.072 -0.204928,-0.0133 -0.296405,-0.035 -0.365583,-0.0866 -0.17245,-0.12863 -0.143066,-0.3057 0.06766,-0.40772 0.178815,-0.0866 0.394263,-0.088 0.579517,-0.004 0.182812,0.083 0.233538,0.187 0.160283,0.32866 -0.03092,0.0598 -0.03919,0.10431 -0.01938,0.10431 0.04935,0 0.888707,-0.42382 0.911093,-0.46004 0.01024,-0.0166 -0.05502,-0.0372 -0.145039,-0.0459 -0.436854,-0.042 -0.45541,-0.38146 -0.02281,-0.41733 0.286374,-0.0238 0.479406,0.11935 0.388963,0.28834 -0.0655,0.12238 -0.07402,0.12426 0.50499,-0.11164 0.123385,-0.0503 0.224257,-0.10103 0.224161,-0.11279 -9.9e-5,-0.0118 -0.06998,-0.0438 -0.155297,-0.0712 -0.193366,-0.0622 -0.247295,-0.13647 -0.164998,-0.22741 0.163914,-0.18113 0.621068,-0.0614 0.515898,0.13514 -0.01905,0.0356 -0.02631,0.0731 -0.01613,0.0832 0.02153,0.0215 0.513512,-0.15007 0.580439,-0.20244 0.03543,-0.0277 0.01569,-0.0479 -0.0914,-0.0934 -0.215365,-0.0915 -0.156543,-0.23598 0.09606,-0.23598 0.164174,0 0.243715,0.0601 0.21753,0.16446 -0.01131,0.0451 -0.0045,0.0772 0.01642,0.0772 0.0197,0 0.276995,-0.0755 0.571777,-0.16769 1.746124,-0.54632 3.687232,-0.90547 5.77477,-1.06846 0.677008,-0.0529 3.118593,-0.0537 3.822007,-10e-4 2.063595,0.15373 4.049187,0.51944 5.808005,1.06973 0.294783,0.0922 0.552081,0.16769 0.571776,0.16769 0.02088,0 0.02773,-0.0322 0.01643,-0.0772 -0.02618,-0.10432 0.05335,-0.16446 0.217529,-0.16446 0.252598,0 0.31142,0.14451 0.09605,0.23598 -0.107083,0.0455 -0.126824,0.0656 -0.0914,0.0934 0.06693,0.0524 0.558914,0.22396 0.58044,0.20244 0.01018,-0.0102 0.0029,-0.0476 -0.01613,-0.0832 -0.103852,-0.19405 0.351482,-0.31682 0.513016,-0.13833 0.03083,0.0341 0.04698,0.0856 0.03587,0.11453 -0.02325,0.0606 -0.216784,0.1493 -0.325807,0.1493 -0.049,0 -0.06301,0.0112 -0.04125,0.0329 0.0402,0.0402 0.75463,0.33385 0.77141,0.31708 0.0066,-0.007 -0.005,-0.0437 -0.0258,-0.0825 -0.09308,-0.17393 0.09589,-0.31745 0.386273,-0.29337 0.432597,0.0359 0.414039,0.37535 -0.02282,0.41733 -0.09002,0.009 -0.155287,0.0293 -0.145041,0.0459 0.02238,0.0362 0.861743,0.46003 0.911094,0.46003 0.01981,0 0.01154,-0.0445 -0.01938,-0.10431 -0.07326,-0.14165 -0.02253,-0.24567 0.160285,-0.32865 0.450655,-0.20456 1.002616,0.14653 0.647173,0.41166 -0.06918,0.0516 -0.160654,0.0733 -0.365584,0.0866 -0.266902,0.0174 -0.271365,0.019 -0.190229,0.072 0.234425,0.1528 1.0416,0.62715 1.0672,0.62715 0.04006,0 0.0375,-0.0576 -0.0037,-0.0831 -0.01828,-0.0113 -0.03323,-0.0767 -0.03323,-0.1453 0,-0.30189 0.478797,-0.48651 0.916985,-0.35358 0.20477,0.0621 0.224665,0.0621 0.200692,-4e-4 -0.02813,-0.0733 0.09613,-0.18204 0.208034,-0.18204 0.05281,0 0.13133,0.0299 0.174483,0.0665 l 0.07846,0.0665 -0.07846,0.0665 c -0.0485,0.0411 -0.126771,0.0665 -0.204956,0.0665 h -0.126496 l 0.07124,0.13006 c 0.06806,0.12425 0.06879,0.13519 0.01639,0.24507 -0.102476,0.2149 -0.480879,0.33108 -0.837302,0.25709 -0.105434,-0.0219 -0.198848,-0.0327 -0.207588,-0.0239 -0.0087,0.009 0.108355,0.10325 0.260205,0.21002 0.151854,0.10678 0.460177,0.34185 0.685163,0.52238 0.224987,0.18052 0.416885,0.32041 0.426436,0.31086 0.0096,-0.01 0.0012,-0.0476 -0.01856,-0.0845 -0.173745,-0.32464 0.207485,-0.68377 0.771109,-0.7264 l 0.251646,-0.0191 -0.07236,-0.098 -0.07236,-0.098 0.07846,-0.0636 c 0.105611,-0.0856 0.316076,-0.0845 0.402687,0.002 0.08495,0.085 0.05598,0.15468 -0.0855,0.20584 -0.06223,0.0225 -0.113148,0.0492 -0.113148,0.0593 0,0.0101 0.09341,0.0557 0.207583,0.10134 0.114172,0.0456 0.218862,0.0879 0.232645,0.094 0.01377,0.006 0.02504,-0.0252 0.02504,-0.0696 0,-0.132 0.114726,-0.20733 0.315734,-0.20733 0.270508,0 0.40408,0.159 0.250402,0.29808 -0.07041,0.0637 -0.288669,0.0847 -0.439993,0.0423 l -0.08989,-0.0252 0.06423,0.1415 c 0.08035,0.17703 0.08126,0.25017 0.0046,0.36652 -0.151145,0.22922 -0.489719,0.36791 -0.888285,0.36387 -0.208335,-0.002 -0.387379,-0.0446 -0.66245,-0.15724 -0.03656,-0.0149 0.143199,0.18838 0.399458,0.45188 0.256259,0.26351 0.597696,0.63987 0.758742,0.83638 0.161046,0.1965 0.298812,0.35727 0.306144,0.35727 0.0073,0 0.0041,-0.0673 -0.0072,-0.14955 -0.05074,-0.37021 0.267697,-0.71255 0.786723,-0.84576 0.257001,-0.066 0.255025,-0.0639 0.147555,-0.15065 -0.0814,-0.0657 -0.09196,-0.0896 -0.06156,-0.1394 0.05105,-0.0837 0.208832,-0.12301 0.321427,-0.0801 0.11961,0.0455 0.146787,0.12178 0.07262,0.20373 -0.03256,0.036 -0.05308,0.0707 -0.04557,0.0772 0.0278,0.024 0.56655,0.0517 0.555128,0.0285 -0.0065,-0.0133 -0.03205,-0.0642 -0.05671,-0.11336 -0.02468,-0.0491 -0.0362,-0.11179 -0.02565,-0.13931 0.06438,-0.16775 0.469167,-0.23005 0.645078,-0.0993 0.13812,0.10268 0.13932,0.22721 0.003,0.31033 -0.0606,0.0369 -0.158748,0.0672 -0.218157,0.0673 -0.143146,1.6e-4 -0.136659,0.0506 0.01664,0.12908 0.06855,0.0351 0.183017,0.11039 0.254377,0.16728 0.14281,0.11386 0.15164,0.11225 0.20144,-0.0368 0.087,-0.26033 0.63012,-0.31334 0.87358,-0.0853 0.20111,0.18839 -0.0409,0.42404 -0.4355,0.42404 -0.10653,0 -0.22274,-0.025 -0.30078,-0.0648 l -0.12718,-0.0648 0.0204,0.10223 c 0.0113,0.0562 0.0204,0.181 0.0204,0.27728 v 0.17506 l 0.12463,-0.0651 c 0.24843,-0.12973 0.66198,-0.01 0.63285,0.18401 -0.0174,0.11522 -0.17951,0.20396 -0.37268,0.20396 -0.20816,0 -0.32573,-0.0554 -0.38859,-0.183 l -0.0461,-0.0935 -0.19648,0.1798 -0.196484,0.17981 h 0.114304 c 0.12648,0 0.26204,0.0777 0.26204,0.15027 0,0.10283 -0.26351,0.15478 -0.403921,0.0796 -0.04992,-0.0267 -0.06201,-0.0567 -0.04705,-0.11632 0.02447,-0.0974 0.03164,-0.0972 -0.315134,-0.01 -0.228135,0.0577 -0.338948,0.0674 -0.596242,0.052 -0.377154,-0.0225 -0.581245,-0.0801 -0.844452,-0.23862 -0.107833,-0.0649 -0.202437,-0.1117 -0.210224,-0.10392 -0.0078,0.008 0.0794,0.16881 0.193743,0.35785 0.385418,0.63718 0.730909,1.42942 0.892667,2.04697 0.03973,0.15172 0.100907,0.19056 0.100907,0.0641 0,-0.15612 0.109886,-0.39226 0.260626,-0.56009 0.210711,-0.23459 0.48915,-0.40709 0.83178,-0.51532 0.15776,-0.0498 0.30085,-0.10232 0.31798,-0.11665 0.0172,-0.0144 -0.0162,-0.0426 -0.0748,-0.063 -0.11024,-0.0384 -0.13792,-0.11806 -0.066,-0.18995 0.0617,-0.0617 0.27394,-0.0489 0.3365,0.0202 0.0491,0.0543 0.0494,0.067 0.003,0.13294 l -0.0511,0.0729 h 0.31565 c 0.17361,0 0.32343,-0.0126 0.33292,-0.028 0.01,-0.0154 -0.027,-0.0607 -0.0811,-0.1007 -0.20539,-0.15185 -0.0865,-0.34127 0.22689,-0.36136 0.39055,-0.025 0.55117,0.22554 0.24394,0.38054 -0.0799,0.0403 -0.15216,0.0801 -0.1605,0.0885 -0.008,0.008 0.072,0.0324 0.17856,0.0534 0.10655,0.021 0.30595,0.0747 0.44311,0.11923 0.13716,0.0445 0.26032,0.081 0.2737,0.081 0.0134,0 -0.005,-0.0486 -0.0415,-0.10802 -0.0903,-0.14816 -0.0829,-0.2357 0.0298,-0.3483 0.15757,-0.15757 0.51827,-0.22314 0.79341,-0.14423 0.10396,0.0298 0.10779,0.0275 0.10779,-0.0658 0,-0.0742 0.0184,-0.10138 0.0791,-0.11659 0.21121,-0.053 0.40717,0.0696 0.27185,0.17007 -0.0355,0.0264 -0.11355,0.0479 -0.17348,0.0479 h -0.109 l 0.0821,0.12097 c 0.10895,0.16053 0.1036,0.22976 -0.028,0.36128 -0.14269,0.1427 -0.34003,0.19544 -0.63776,0.17047 l -0.23265,-0.0195 0.14956,0.12376 c 0.22554,0.18664 0.35086,0.32951 0.41631,0.47466 0.0325,0.072 0.068,0.13046 0.079,0.1298 0.0109,-5.1e-4 0.0498,-0.0642 0.0863,-0.14125 0.082,-0.17281 0.24852,-0.27155 0.54817,-0.3251 0.18232,-0.0326 0.25093,-0.0302 0.42713,0.0149 0.25849,0.0662 0.24636,0.0667 0.22227,-0.009 -0.0426,-0.13421 0.18656,-0.22276 0.35004,-0.13527 0.13837,0.074 0.0343,0.19823 -0.16617,0.19823 -0.056,0 -0.10127,0.0112 -0.10051,0.0249 5.1e-4,0.0137 0.0516,0.0818 0.11305,0.15132 l 0.11167,0.12639 0.0848,-0.0848 c 0.0996,-0.0996 0.29547,-0.1153 0.41282,-0.0331 0.22406,0.15694 -0.12918,0.33313 -0.39367,0.19636 -0.0912,-0.0472 -0.10002,-0.0465 -0.11679,0.008 -0.0965,0.31559 -0.29735,0.42513 -0.7783,0.42448 -0.34408,-4.6e-4 -0.49883,-0.054 -0.66218,-0.22898 -0.1109,-0.11881 -0.13534,-0.10896 -0.13619,0.0549 -5.1e-4,0.14759 -0.0816,0.359 -0.20176,0.52778 -0.0389,0.0546 -0.0646,0.10526 -0.0571,0.11268 0.007,0.007 0.0862,-0.008 0.17508,-0.0351 0.20921,-0.063 0.40021,-0.0616 0.59332,0.004 0.15529,0.0529 0.32211,0.20847 0.32211,0.30035 0,0.37264 -0.80296,0.51731 -1.13737,0.20492 -0.0888,-0.0829 -0.0987,-0.11029 -0.0829,-0.22825 0.01,-0.0737 0.008,-0.12935 -0.004,-0.12365 -0.38316,0.18067 -0.73181,0.37284 -0.71774,0.3956 0.0101,0.0163 0.0556,0.0297 0.10112,0.0297 0.0455,0 0.12584,0.0223 0.17847,0.0495 0.34618,0.17901 -0.11659,0.50351 -0.4753,0.33329 -0.15641,-0.0742 -0.18321,-0.16273 -0.0882,-0.29122 l 0.0741,-0.10027 -0.19532,0.0223 c -0.10742,0.0123 -0.26164,0.0313 -0.3427,0.0423 l -0.14739,0.02 0.0752,0.0609 c 0.0955,0.0774 0.0789,0.1684 -0.0383,0.20963 -0.11384,0.04 -0.26882,-0.009 -0.28445,-0.0904 -0.006,-0.0321 0.0234,-0.0863 0.0656,-0.12058 l 0.0768,-0.0622 -0.19888,-0.0208 c -0.74617,-0.0781 -1.378835,-0.37623 -1.649835,-0.77733 -0.132517,-0.19613 -0.124279,-0.18689 -0.146608,-0.16456 -0.01039,0.0104 -0.0031,0.10559 0.01669,0.21154 0.16933,0.91598 0.07653,2.15921 -0.231704,3.10412 -0.221268,0.67832 -0.23862,0.64118 0.127669,0.27329 0.477543,-0.47964 1.029748,-0.76149 1.780678,-0.90889 0.18494,-0.0363 0.36992,-0.0729 0.41105,-0.0814 0.0914,-0.0188 0.0973,-0.069 0.0114,-0.0963 -0.0808,-0.0256 -0.11484,-0.11257 -0.0668,-0.17048 0.063,-0.0759 0.25317,-0.0939 0.34635,-0.0329 0.0952,0.0623 0.1056,0.12556 0.031,0.1875 -0.0838,0.0695 0.002,0.0859 0.34521,0.0661 l 0.30987,-0.0179 -0.10215,-0.0976 c -0.12354,-0.11805 -0.12617,-0.15074 -0.0202,-0.25034 0.15614,-0.14668 0.56622,-0.12277 0.65227,0.038 0.0554,0.10356 4.3e-4,0.19576 -0.15872,0.26617 -0.082,0.0362 -0.14241,0.0725 -0.13433,0.0806 0.008,0.008 0.14767,0.0367 0.31019,0.0635 0.16251,0.0268 0.37774,0.0711 0.47828,0.0985 0.2585,0.0702 0.29194,0.0664 0.20935,-0.0243 -0.1322,-0.14514 -0.15079,-0.21426 -0.0913,-0.33958 0.0828,-0.17447 0.29747,-0.2659 0.61943,-0.2638 l 0.25555,0.002 -0.0186,-0.0931 c -0.0158,-0.0792 -0.005,-0.0984 0.0742,-0.12842 0.11017,-0.0419 0.25918,-0.0155 0.31891,0.0565 0.0358,0.0432 0.0303,0.0616 -0.0346,0.11419 -0.0425,0.0345 -0.11311,0.0627 -0.15678,0.0627 -0.10512,0 -0.10072,0.0176 0.0369,0.14741 0.13508,0.1274 0.14887,0.2343 0.0469,0.36391 -0.10486,0.13331 -0.25109,0.19348 -0.52767,0.21715 l -0.25041,0.0214 0.2082,0.10768 c 0.30429,0.15738 0.53369,0.3101 0.72725,0.48416 0.0941,0.0846 0.18075,0.15383 0.19261,0.15383 0.0119,0 0.0117,-0.0522 -3.4e-4,-0.1161 -0.0287,-0.15289 -3.3e-4,-0.255 0.10618,-0.3815 0.17775,-0.21124 0.65863,-0.36439 1.01258,-0.32246 0.17088,0.0202 0.22753,-0.01 0.14595,-0.0776 -0.0631,-0.0523 -0.0635,-0.1461 -0.001,-0.19803 0.0836,-0.0694 0.29631,-0.08 0.41133,-0.0205 0.17365,0.0898 0.12771,0.22926 -0.0898,0.27278 -0.0961,0.0192 -0.18121,0.079 -0.11247,0.079 0.0159,0 0.11577,0.0523 0.22202,0.11632 0.10624,0.064 0.19696,0.11632 0.2016,0.11632 0.005,0 0.0176,-0.0455 0.0287,-0.10118 0.0414,-0.20693 0.46691,-0.26596 0.64359,-0.0893 0.21005,0.21005 -0.17281,0.4149 -0.51119,0.27351 l -0.11941,-0.0499 0.0262,0.10806 c 0.0892,0.36778 -0.10708,0.60991 -0.59818,0.73779 -0.36783,0.0958 -0.71939,0.0521 -1.08977,-0.13547 -0.0868,-0.044 -0.15786,-0.0738 -0.15786,-0.0662 0,0.008 0.0561,0.13118 0.12463,0.27474 0.11377,0.23828 0.12463,0.28564 0.12463,0.54352 0,0.15537 -0.0135,0.34232 -0.0299,0.41544 l -0.0299,0.13293 0.15124,-0.13888 c 0.30671,-0.28167 0.67871,-0.39548 1.18813,-0.36352 0.17365,0.0109 0.35683,0.0292 0.40706,0.0406 0.0868,0.0198 0.0904,0.0159 0.0714,-0.079 -0.0182,-0.0911 -0.01,-0.10321 0.095,-0.1378 0.0797,-0.0263 0.14194,-0.0277 0.20283,-0.005 0.1617,0.0615 0.081,0.23446 -0.10935,0.23446 -0.11078,0 -0.0792,0.0415 0.14021,0.18428 0.23734,0.15446 0.31892,0.28698 0.3213,0.52196 10e-4,0.0868 0.009,0.15787 0.0174,0.15787 0.009,0 0.0643,-0.0295 0.12354,-0.0655 0.23187,-0.14101 0.60323,-0.10395 0.73564,0.0734 0.0558,0.0747 0.0608,0.1038 0.0295,0.17235 -0.0551,0.12101 -0.22668,0.19856 -0.43926,0.19856 -0.22575,0 -0.39121,-0.0812 -0.43778,-0.21475 -0.0414,-0.11877 -0.0702,-0.12217 -0.1395,-0.0164 -0.0292,0.0446 -0.12069,0.1276 -0.20323,0.18439 -0.0825,0.0568 -0.15007,0.11748 -0.15007,0.13488 0,0.0174 0.0728,0.0316 0.16169,0.0316 0.17989,0 0.33683,0.0929 0.33683,0.19941 0,0.22466 -0.58381,0.2797 -0.69827,0.0658 -0.0298,-0.0556 -0.0262,-0.0877 0.0173,-0.15402 0.0302,-0.0461 0.049,-0.0895 0.042,-0.0966 -0.0141,-0.0141 -0.53185,0.0852 -0.55541,0.10662 -0.008,0.007 0.0181,0.0362 0.0582,0.0642 0.04,0.028 0.0728,0.072 0.0728,0.0978 0,0.11035 -0.28526,0.15795 -0.37983,0.0634 -0.0691,-0.0691 -0.0659,-0.10487 0.0142,-0.15489 0.0964,-0.0602 0.0825,-0.0864 -0.0582,-0.10946 -0.25598,-0.042 -0.56249,-0.1491 -0.71369,-0.24925 -0.19451,-0.12883 -0.29323,-0.28508 -0.32045,-0.50714 l -0.021,-0.17193 -0.15482,0.21702 c -0.0851,0.11936 -0.21738,0.27353 -0.29383,0.34259 -0.15426,0.13937 -0.59855,0.43771 -0.69957,0.46978 -0.0357,0.0113 -0.0649,0.0354 -0.0649,0.0536 0,0.0207 0.0833,0.0249 0.22433,0.0112 0.631,-0.0615 1.17153,0.23131 1.17153,0.63458 0,0.10301 0.009,0.11776 0.0582,0.0968 0.18316,-0.0779 0.296,-0.0911 0.38898,-0.0456 0.0523,0.0256 0.11143,0.0737 0.1314,0.10684 0.0559,0.0928 -0.0814,0.18902 -0.26978,0.18902 -0.1235,0 -0.16548,-0.0175 -0.24409,-0.10163 -0.0939,-0.10055 -0.0954,-0.10089 -0.13797,-0.0322 -0.0236,0.0382 -0.0988,0.10821 -0.16708,0.1556 -0.0682,0.0474 -0.11594,0.0993 -0.10605,0.1153 0.01,0.016 0.0836,0.0291 0.16375,0.0291 0.19164,0 0.33604,0.11352 0.30445,0.23936 -0.061,0.24303 -0.68677,0.21191 -0.68677,-0.0341 0,-0.0507 0.0177,-0.1099 0.0393,-0.13154 0.0605,-0.0605 0.0215,-0.073 -0.12335,-0.0394 -0.0726,0.0169 -0.19556,0.031 -0.27325,0.0314 -0.15666,10e-4 -0.17371,0.0276 -0.0748,0.11712 0.10378,0.0939 0.0838,0.17896 -0.0559,0.23729 -0.13772,0.0575 -0.28984,0.0402 -0.38232,-0.0434 -0.0891,-0.0807 -0.0742,-0.1381 0.0559,-0.21485 0.064,-0.0377 0.10906,-0.0803 0.10026,-0.0945 -0.009,-0.0142 -0.0798,-0.042 -0.15781,-0.0618 -0.19451,-0.0493 -0.4432,-0.2137 -0.50556,-0.3343 -0.10932,-0.21139 -0.0524,-0.4236 0.16434,-0.61248 0.12687,-0.11058 0.0815,-0.11159 -0.29935,-0.007 -0.16438,0.0453 -0.44844,0.0991 -0.63123,0.11954 -0.18279,0.0205 -0.38469,0.0486 -0.44867,0.0625 -0.0991,0.0216 -0.1065,0.029 -0.0499,0.0506 0.24624,0.0938 0.3582,0.16736 0.40535,0.26623 0.0442,0.0926 0.045,0.12076 0.006,0.20228 -0.0589,0.12239 -0.22816,0.23525 -0.39528,0.26349 -0.14582,0.0246 -0.16694,0.062 -0.0657,0.11619 0.17605,0.0942 -0.0265,0.26628 -0.22997,0.19535 -0.13158,-0.0459 -0.14918,-0.11338 -0.0499,-0.19148 0.0938,-0.0738 0.087,-0.0817 -0.11695,-0.13642 -0.18359,-0.0493 -0.36759,-0.2241 -0.36759,-0.34932 0,-0.11186 0.15498,-0.26321 0.32522,-0.31759 0.18639,-0.0595 0.19669,-0.0908 0.0361,-0.10945 -0.0799,-0.009 -0.31748,-0.0404 -0.52798,-0.0691 -0.50346,-0.0688 -0.49404,-0.0698 -0.38467,0.0443 0.16352,0.17068 0.0181,0.33547 -0.29612,0.33547 -0.25189,0 -0.42045,-0.12754 -0.36377,-0.27525 0.0269,-0.0701 0.21707,-0.1568 0.34386,-0.1568 0.0566,0 0.10299,-0.0123 0.10299,-0.0274 0,-0.0216 -0.619429,-0.2717 -0.673021,-0.2717 -0.0074,0 -0.0071,0.0432 5.12e-4,0.0961 0.01244,0.0847 5.12e-4,0.10049 -0.09911,0.13343 -0.210793,0.0696 -0.411367,-0.0637 -0.285428,-0.1896 0.02191,-0.0219 0.07801,-0.0401 0.124627,-0.0404 0.192489,-0.001 0.171046,-0.0528 -0.09344,-0.22507 -0.324161,-0.21114 -0.637458,-0.54746 -0.778557,-0.83579 -0.100051,-0.20444 -0.106773,-0.24066 -0.106773,-0.57541 0,-0.19648 -0.0087,-0.35725 -0.01935,-0.35728 -0.01065,-2e-5 -0.105617,0.16074 -0.211075,0.35724 -0.814699,1.51802 -2.167772,2.88485 -4.02207,4.06297 -0.302092,0.19193 -0.536324,0.35333 -0.520521,0.35866 0.01581,0.005 0.181558,-0.0512 0.368335,-0.1256 0.971192,-0.38692 2.02923,-0.56154 3.154145,-0.52056 0.322206,0.0117 0.659736,0.0311 0.750069,0.0432 l 0.164241,0.0218 -0.07212,-0.0917 c -0.07745,-0.0985 -0.0597,-0.19023 0.04454,-0.23023 0.103619,-0.0398 0.274184,-0.0199 0.349029,0.0408 0.09536,0.0772 0.06794,0.16332 -0.0684,0.21479 -0.05479,0.0207 -0.09963,0.0482 -0.09963,0.0612 0,0.013 0.086,0.0411 0.191101,0.0624 0.105105,0.0214 0.280195,0.0592 0.389084,0.0841 0.108888,0.0249 0.204915,0.0383 0.213389,0.0299 0.0084,-0.008 -0.01889,-0.0519 -0.0608,-0.0965 -0.213205,-0.22695 0.191634,-0.45136 0.546654,-0.30302 0.263842,0.11024 0.149331,0.3601 -0.185383,0.40451 -0.09221,0.0122 -0.155486,0.0327 -0.140627,0.0455 0.01485,0.0128 0.146659,0.0657 0.292888,0.11755 0.146234,0.0518 0.360751,0.1365 0.476701,0.18817 0.28217,0.12571 0.32132,0.12339 0.23749,-0.0141 -0.0925,-0.15178 -0.083,-0.21719 0.0501,-0.34265 0.0824,-0.0777 0.17089,-0.12091 0.3045,-0.14865 0.17806,-0.037 0.24721,-0.0343 0.49948,0.0193 0.0978,0.0208 0.10438,0.0168 0.0862,-0.0527 -0.037,-0.14154 0.19949,-0.22256 0.34161,-0.11702 0.0982,0.0729 0.0249,0.16411 -0.14825,0.18474 l -0.13956,0.0166 0.0848,0.11447 c 0.10217,0.13797 0.107,0.23051 0.0179,0.34372 -0.10506,0.13358 -0.31567,0.19723 -0.61002,0.18436 -0.13963,-0.006 -0.25384,-6e-5 -0.2538,0.0134 0,0.0135 0.0636,0.0638 0.14133,0.11173 0.32004,0.19763 0.5067,0.33801 0.74997,0.56401 l 0.25652,0.23832 -5.1e-4,-0.21537 c -5.1e-4,-0.21441 0,-0.21598 0.15453,-0.35585 0.19641,-0.17792 0.44888,-0.26113 0.82533,-0.272 0.21516,-0.006 0.27924,-0.0185 0.26886,-0.0518 -0.0614,-0.19623 0.047,-0.30727 0.27378,-0.28035 0.1207,0.0143 0.25499,0.098 0.25499,0.15883 0,0.0585 -0.13625,0.16102 -0.21406,0.16102 -0.13211,0 -0.12964,0.0594 0.005,0.12495 0.0692,0.0336 0.16674,0.0882 0.21683,0.12125 0.0881,0.0581 0.0917,0.0581 0.11041,-0.002 0.0558,-0.17807 0.20459,-0.25622 0.42999,-0.22586 0.27781,0.0374 0.37053,0.20613 0.1911,0.34773 -0.0759,0.0599 -0.12244,0.0695 -0.27418,0.0569 -0.10054,-0.008 -0.20802,-0.026 -0.23884,-0.0392 -0.05,-0.0214 -0.054,-0.003 -0.037,0.16986 0.0105,0.10662 0.0219,0.19743 0.0252,0.2018 0.004,0.005 0.0688,-0.0166 0.14528,-0.0467 0.11565,-0.0454 0.16122,-0.048 0.26977,-0.0155 0.26945,0.0807 0.1802,0.30355 -0.12159,0.30355 -0.1234,0 -0.1655,-0.0175 -0.24378,-0.10129 l -0.0946,-0.10128 -0.0564,0.086 c -0.031,0.0473 -0.12134,0.1241 -0.20075,0.17064 -0.40879,0.23958 -1.01017,0.23602 -1.43315,-0.009 -0.0777,-0.0449 -0.14125,-0.0739 -0.14125,-0.0644 0,0.009 0.0747,0.15706 0.16606,0.32801 0.2,0.37431 0.2986,0.73479 0.30097,1.10033 0.002,0.26347 0.003,0.2672 0.0581,0.18578 0.12855,-0.18964 0.3517,-0.39629 0.53055,-0.49132 0.32777,-0.17416 0.56441,-0.22143 1.09675,-0.21911 0.44098,0.002 0.47053,-0.002 0.42374,-0.0535 -0.11819,-0.13061 0.002,-0.26636 0.23593,-0.26636 0.1713,0 0.29717,0.0891 0.26575,0.18812 -0.0216,0.0679 -0.14743,0.14423 -0.2378,0.14423 -0.10436,0 -0.036,0.0555 0.22497,0.18279 0.14995,0.0731 0.28427,0.13788 0.2985,0.14392 0.0142,0.006 0.0165,-0.0357 0.005,-0.0928 -0.0526,-0.26286 0.39737,-0.42546 0.74304,-0.26854 0.23685,0.10753 0.23582,0.32781 -0.002,0.43581 -0.15644,0.071 -0.36023,0.0817 -0.51697,0.027 -0.0585,-0.0204 -0.11393,-0.0295 -0.12317,-0.0203 -0.009,0.009 0.0306,0.084 0.0884,0.16611 0.0672,0.0954 0.11148,0.20473 0.12253,0.30276 0.0188,0.1668 0.052,0.19226 0.10987,0.0842 0.0599,-0.11197 0.28661,-0.19504 0.53449,-0.19586 0.25406,-0.001 0.42544,0.0598 0.52444,0.18571 0.19467,0.24748 -0.058,0.49104 -0.51207,0.49358 -0.27758,0.002 -0.46057,-0.076 -0.57105,-0.24188 l -0.0734,-0.11024 -0.0666,0.13059 c -0.0367,0.0718 -0.14215,0.19851 -0.23445,0.2815 -0.0923,0.083 -0.16783,0.15704 -0.16783,0.16455 0,0.008 0.0892,0.007 0.1982,-5.1e-4 0.24637,-0.0178 0.3341,0.004 0.46393,0.11274 0.1228,0.10333 0.12947,0.18891 0.023,0.29538 -0.17257,0.17256 -0.60189,0.18073 -0.77996,0.0148 -0.0778,-0.0725 -0.0948,-0.2265 -0.032,-0.28932 0.0789,-0.0789 -0.006,-0.0767 -0.27057,0.007 -0.14889,0.0471 -0.29149,0.0855 -0.31688,0.0855 -0.0989,0 -0.0802,0.0669 0.0316,0.11362 0.0905,0.0378 0.11766,0.0684 0.11766,0.13277 0,0.19045 -0.43866,0.22668 -0.53627,0.0443 -0.0321,-0.06 -0.0247,-0.0815 0.0499,-0.14571 0.0482,-0.0414 0.0876,-0.0835 0.0876,-0.0935 0,-0.01 -0.0904,-0.0182 -0.20081,-0.0182 -0.4895,0 -1.07431,-0.20986 -1.34827,-0.48382 -0.10255,-0.10256 -0.15795,-0.19551 -0.19741,-0.33122 -0.0302,-0.10376 -0.0656,-0.17595 -0.0787,-0.16041 -0.0132,0.0155 -0.066,0.13843 -0.11746,0.27309 -0.0515,0.13466 -0.16549,0.3524 -0.25342,0.48386 -0.18388,0.27494 -0.62107,0.70803 -0.91883,0.91023 -0.18389,0.12488 -0.27401,0.20561 -0.22951,0.20561 0.009,0 0.15559,-0.0381 0.32599,-0.0846 0.37714,-0.10302 0.93385,-0.13995 1.28375,-0.0852 0.13352,0.0209 0.378,0.0815 0.5433,0.13465 0.28244,0.0908 0.29952,0.0928 0.28364,0.032 -0.023,-0.0879 0.0606,-0.16311 0.18117,-0.16311 0.27873,0 0.30184,0.19227 0.0276,0.23003 l -0.13962,0.0192 0.2072,0.17503 0.20719,0.17504 0.0542,-0.10811 c 0.0298,-0.0594 0.0916,-0.12679 0.13731,-0.14962 0.21026,-0.10504 0.565,0.003 0.565,0.17228 0,0.1578 -0.28479,0.26007 -0.51378,0.18449 -0.0672,-0.0222 -0.13066,-0.0318 -0.14106,-0.0214 -0.0104,0.0104 0.013,0.0932 0.0521,0.18396 0.0391,0.0908 0.071,0.21835 0.071,0.28351 0,0.12775 0.0329,0.14914 0.10172,0.0662 0.0987,-0.11899 0.30806,-0.19295 0.54636,-0.19306 0.63644,-3e-4 0.80401,0.4961 0.22435,0.66461 -0.30835,0.0897 -0.68338,-0.0149 -0.78951,-0.22019 -0.0283,-0.0547 -0.0582,-0.0994 -0.0666,-0.0994 -0.008,0 -0.0537,0.0759 -0.10067,0.16865 -0.047,0.0928 -0.16872,0.24802 -0.27048,0.34502 l -0.18503,0.17638 0.29485,-0.0165 c 0.47392,-0.0265 0.75113,0.0881 0.84169,0.34803 0.0476,0.13671 0.0468,0.14047 -0.0552,0.26752 l -0.10355,0.12885 0.16853,0.0305 c 0.3082,0.0558 0.30868,0.25481 5.1e-4,0.27307 -0.18573,0.011 -0.29232,-0.0554 -0.26381,-0.16443 0.0183,-0.0701 -0.0247,-0.076 -0.22128,-0.0304 -0.15824,0.0367 -0.18779,0.0643 -0.11341,0.10597 0.0723,0.0405 0.0755,0.14815 0.005,0.1751 -0.20856,0.08 -0.42868,-0.0509 -0.27158,-0.16159 0.0636,-0.0448 0.0673,-0.0576 0.025,-0.0846 -0.0274,-0.0175 -0.0798,-0.0324 -0.11633,-0.033 -0.11698,-0.002 -0.3322,-0.11982 -0.42841,-0.23417 -0.0756,-0.0898 -0.0898,-0.13256 -0.0748,-0.22488 0.0102,-0.0627 0.044,-0.14212 0.0751,-0.17652 0.0311,-0.0344 0.0481,-0.071 0.0378,-0.0814 -0.0103,-0.0104 -0.14363,0.0207 -0.29614,0.069 -0.15251,0.0483 -0.40068,0.10449 -0.55149,0.1248 -0.1508,0.0203 -0.27418,0.0486 -0.27418,0.0628 0,0.0142 0.0622,0.0426 0.13819,0.0631 0.16654,0.0448 0.32709,0.19566 0.32709,0.30727 0,0.16184 -0.14397,0.27115 -0.4983,0.37835 -0.0382,0.0116 -0.0305,0.0295 0.0332,0.078 0.0677,0.0515 0.0762,0.0739 0.0463,0.12257 -0.0511,0.083 -0.25418,0.0964 -0.32897,0.0216 -0.0553,-0.0553 -0.0539,-0.0617 0.0289,-0.13289 0.0979,-0.0842 0.0898,-0.0957 -0.0912,-0.12967 -0.0705,-0.0133 -0.17886,-0.0685 -0.24069,-0.12278 -0.21304,-0.18705 -0.11188,-0.42841 0.22141,-0.52826 0.0723,-0.0217 0.13144,-0.0502 0.13144,-0.0635 0,-0.0133 -0.0952,-0.0343 -0.21157,-0.0467 -0.11637,-0.0125 -0.32144,-0.0509 -0.45572,-0.0855 -0.13427,-0.0346 -0.24891,-0.058 -0.25475,-0.0522 -0.006,0.006 0.0157,0.0563 0.0477,0.11227 0.056,0.0976 0.0559,0.1044 -0.004,0.17082 -0.0776,0.0858 -0.29183,0.14635 -0.41883,0.11845 -0.12594,-0.0276 -0.26466,-0.13931 -0.26466,-0.21302 0,-0.10341 0.12277,-0.17921 0.31625,-0.19526 0.10025,-0.008 0.18227,-0.0259 0.18227,-0.039 8e-5,-0.0228 -0.44422,-0.30021 -0.48082,-0.30021 -0.01,0 -0.0176,0.0281 -0.0176,0.0624 0,0.15624 -0.369903,0.16546 -0.39281,0.01 -0.01306,-0.0887 0.1253,-0.15164 0.26565,-0.12081 0.11576,0.0254 0.11727,0.003 0.009,-0.1394 -0.12948,-0.16976 -0.181169,-0.32272 -0.180365,-0.53381 0.001,-0.25552 0.08237,-0.42418 0.315195,-0.65335 0.10445,-0.10279 0.17519,-0.1869 0.1572,-0.1869 -0.018,0 -0.23527,0.0813 -0.48284,0.18062 -0.681419,0.27343 -1.427427,0.44453 -2.249417,0.5159 -0.226522,0.0197 -0.417035,0.041 -0.423363,0.0473 -0.0063,0.006 0.122625,0.0428 0.286565,0.081 0.717075,0.16724 1.129813,0.54063 1.092672,0.98851 -0.01096,0.13206 -0.0036,0.18076 0.02734,0.18076 0.0233,0 0.05038,-0.013 0.06021,-0.0289 0.06281,-0.10163 0.432354,-0.05 0.469023,0.0656 0.06059,0.19089 -0.334657,0.28087 -0.501387,0.11414 l -0.08185,-0.0818 -0.217669,0.21447 -0.217664,0.21448 0.193011,-0.0189 c 0.235318,-0.023 0.428201,0.0378 0.523209,0.16511 0.06176,0.0827 0.06318,0.0974 0.01741,0.17995 -0.109001,0.19655 -0.450776,0.26351 -0.720326,0.14114 -0.158226,-0.0718 -0.208889,-0.18454 -0.145487,-0.32369 0.03594,-0.0789 0.03338,-0.0835 -0.03733,-0.0671 -0.04178,0.01 -0.210532,0.0503 -0.375045,0.0901 -0.164513,0.0399 -0.334929,0.0795 -0.3787,0.088 -0.0965,0.0188 -0.06129,0.0571 0.09962,0.10846 0.230234,0.0735 0.348681,0.30779 0.228677,0.45238 -0.05827,0.0702 -0.278367,0.18214 -0.358174,0.18214 -0.100486,0 -0.112114,0.0397 -0.03553,0.12119 0.101382,0.10791 0.03482,0.18499 -0.147872,0.17125 -0.178706,-0.0134 -0.232436,-0.0969 -0.120901,-0.18788 0.08882,-0.0724 0.09652,-0.0659 -0.157093,-0.1346 -0.148564,-0.0403 -0.309877,-0.19765 -0.309877,-0.30231 0,-0.10003 0.157115,-0.25692 0.319303,-0.31886 0.17186,-0.0656 0.150473,-0.0923 -0.103272,-0.12885 -0.0914,-0.0131 -0.275731,-0.0587 -0.409633,-0.1011 -0.213012,-0.0675 -0.240533,-0.0703 -0.220061,-0.0218 0.08149,0.19305 0.03158,0.30485 -0.175184,0.39236 -0.283078,0.11981 -0.707307,-0.0242 -0.707307,-0.24007 0,-0.17225 0.336433,-0.31746 0.614622,-0.26527 0.0641,0.012 0.116544,0.0149 0.116544,0.006 0,-0.008 -0.08999,-0.10546 -0.199984,-0.21545 l -0.19998,-0.19998 -0.081,0.081 c -0.06242,0.0624 -0.116152,0.081 -0.234255,0.081 -0.196448,0 -0.281822,-0.0462 -0.281822,-0.15242 0,-0.0644 0.02716,-0.095 0.118073,-0.13295 0.119217,-0.0498 0.329245,-0.0365 0.366162,0.0232 0.04857,0.0786 0.08076,0.0104 0.08076,-0.17126 0,-0.24528 0.07183,-0.39917 0.272792,-0.58441 0.183709,-0.16934 0.445327,-0.29362 0.792751,-0.3766 0.149562,-0.0357 0.278848,-0.0719 0.287307,-0.0803 0.0084,-0.008 -0.06441,-0.0233 -0.161907,-0.0331 -0.898715,-0.0896 -1.378344,-0.17382 -1.948976,-0.34219 -0.158876,-0.0469 -0.318776,-0.093 -0.355334,-0.10251 -0.04642,-0.0121 -0.02482,0.0236 0.0716,0.11829 0.172861,0.16972 0.23073,0.32737 0.178385,0.48597 -0.04975,0.15073 -0.250345,0.32783 -0.452599,0.39958 -0.317489,0.11262 -0.302886,0.0973 -0.168155,0.17676 0.194624,0.11483 0.151026,0.25655 -0.09101,0.29583 -0.248832,0.0404 -0.440714,-0.13654 -0.284912,-0.2627 0.10578,-0.0857 0.05741,-0.11357 -0.241259,-0.1392 l -0.256779,-0.022 0.05652,0.0985 c 0.05365,0.0935 0.05341,0.10191 -0.0048,0.16623 -0.08306,0.0918 -0.266396,0.14781 -0.401047,0.12254 -0.140996,-0.0265 -0.283703,-0.13779 -0.283703,-0.22134 0,-0.0927 0.188395,-0.19624 0.357274,-0.19639 0.07769,-6e-5 0.141248,-0.0123 0.141248,-0.0271 0,-0.0149 -0.0486,-0.0628 -0.108013,-0.10645 -0.05941,-0.0437 -0.136612,-0.11553 -0.171568,-0.1596 l -0.06356,-0.0801 -0.04411,0.0842 c -0.08881,0.1695 -0.454876,0.18838 -0.540768,0.0279 -0.09603,-0.17943 0.20906,-0.27467 0.499743,-0.15599 0.0435,0.0178 0.05685,-0.007 0.07067,-0.12927 0.01028,-0.0912 0.05155,-0.1964 0.103999,-0.26517 0.172927,-0.22672 0.650545,-0.37087 1.092658,-0.32978 0.123451,0.0115 0.224458,0.0119 0.224458,0.001 0,-0.011 -0.160773,-0.10285 -0.357274,-0.20408 -0.196501,-0.10124 -0.481623,-0.27385 -0.633603,-0.38357 -0.151979,-0.10973 -0.286687,-0.19951 -0.299352,-0.19951 -0.01266,0 -0.01787,0.0649 -0.01156,0.14415 0.01013,0.12738 -6.14e-4,0.1543 -0.09219,0.23137 -0.203078,0.17088 -0.56017,0.20397 -0.865991,0.0802 -0.163511,-0.0661 -0.186121,-0.0874 -0.214374,-0.20164 -0.04126,-0.16682 0.02054,-0.28182 0.198223,-0.36889 0.217851,-0.10675 0.530122,-0.10739 0.788861,-0.002 0.09749,0.0398 0.06586,-0.0306 -0.0997,-0.22196 -0.08683,-0.10038 -0.207621,-0.25433 -0.268431,-0.34212 l -0.110569,-0.15961 -0.06214,0.10218 c -0.08263,0.13587 -0.160631,0.17289 -0.364274,0.17289 -0.271233,0 -0.439155,-0.12348 -0.379462,-0.27904 0.0549,-0.14308 0.447467,-0.20521 0.646457,-0.10231 0.121717,0.0629 0.122468,0.0452 0.01128,-0.26807 l -0.08678,-0.24445 -0.09796,0.0724 c -0.109293,0.0808 -0.325818,0.0935 -0.409553,0.024 -0.06967,-0.0578 -0.06255,-0.15736 0.0142,-0.19844 0.09363,-0.0501 0.308781,-0.0421 0.389625,0.0145 0.06967,0.0488 0.06993,0.0477 0.08484,-0.35727 0.01198,-0.32539 0.03197,-0.45424 0.100496,-0.64757 0.179438,-0.5063 0.559984,-0.98998 1.106102,-1.40589 0.173366,-0.13203 0.315212,-0.24559 0.315212,-0.25236 0,-0.0185 -0.161594,0.055 -0.764401,0.34762 -2.591018,1.25798 -5.794469,2.01288 -9.214361,2.1714 -0.488968,0.0227 -0.889032,0.0533 -0.889032,0.0682 0,0.0148 0.06356,0.027 0.141248,0.0271 0.225625,2.3e-4 1.207515,0.12431 1.570346,0.19842 0.79305,0.162 1.709146,0.49152 2.293145,0.82485 0.434153,0.24779 0.458963,0.25763 0.431518,0.17116 -0.03301,-0.10402 0.04099,-0.1643 0.201699,-0.1643 0.119964,0 0.247566,0.06 0.247566,0.11632 0,0.0579 -0.127874,0.11632 -0.254406,0.11632 -0.08247,0 -0.144967,0.0131 -0.138872,0.029 0.01544,0.0404 0.456202,0.36986 0.494744,0.36986 0.01731,0 0.03147,-0.0366 0.03147,-0.0812 0,-0.11604 0.117363,-0.18468 0.315732,-0.18468 0.197724,0 0.315731,0.0687 0.315731,0.18382 0,0.12146 -0.165467,0.19456 -0.38832,0.17156 -0.09717,-0.01 -0.176673,-0.0106 -0.176673,-0.001 0,0.0306 0.508616,0.57645 0.537148,0.57645 0.01531,0 0.02784,-0.0348 0.02784,-0.0773 0,-0.1435 0.24203,-0.28829 0.481905,-0.28829 0.241019,0 0.481905,0.14486 0.481905,0.2898 0,0.25314 -0.485029,0.38699 -0.804213,0.22194 -0.05462,-0.0283 -0.106318,-0.0443 -0.114889,-0.0358 -0.0086,0.009 0.05102,0.14054 0.132424,0.29326 0.0814,0.15271 0.173206,0.35601 0.204005,0.45176 0.06907,0.21474 0.09805,0.23532 0.151076,0.10731 0.124601,-0.30082 0.614901,-0.43519 1.137838,-0.31183 0.08122,0.0191 0.0914,0.0122 0.0914,-0.0622 0,-0.11246 0.165397,-0.17661 0.295082,-0.11446 0.140903,0.0675 0.114458,0.16774 -0.05413,0.20511 -0.07769,0.0172 -0.14064,0.0396 -0.139898,0.0499 7.17e-4,0.0102 0.04534,0.07 0.09912,0.13291 l 0.09776,0.11436 0.08341,-0.0784 c 0.14726,-0.13834 0.482766,-0.0927 0.482766,0.0657 0,0.14649 -0.267102,0.21124 -0.44307,0.10742 l -0.113554,-0.067 -0.03958,0.12104 c -0.02177,0.0666 -0.04746,0.14013 -0.0571,0.16347 -0.01323,0.0321 0.01394,0.0374 0.111027,0.0219 0.09964,-0.0159 0.146799,-0.006 0.209702,0.0452 0.06969,0.0564 0.07486,0.0733 0.03662,0.11937 -0.09039,0.10892 -0.363632,0.0524 -0.409327,-0.0847 -0.0093,-0.0278 -0.06284,-0.0155 -0.177448,0.0408 -0.137861,0.0677 -0.212104,0.0804 -0.463283,0.0792 -0.333641,-0.002 -0.465843,-0.0441 -0.655691,-0.21079 l -0.1191,-0.10458 3.32e-4,0.42446 c 3.32e-4,0.32679 -0.01575,0.48494 -0.06958,0.68734 -0.09719,0.36542 -0.09231,0.3872 0.05471,0.24433 0.146948,-0.14279 0.417882,-0.27481 0.672633,-0.32776 0.182297,-0.0379 0.774993,-0.0242 0.92258,0.0213 0.06815,0.021 0.07301,0.0145 0.05533,-0.0739 -0.01634,-0.0817 -0.0056,-0.10321 0.06809,-0.1368 0.124065,-0.0565 0.198345,-0.0497 0.288388,0.0266 l 0.07846,0.0665 -0.07846,0.0665 c -0.04315,0.0366 -0.106713,0.0665 -0.141248,0.0665 -0.105042,0 -0.07133,0.051 0.111696,0.16905 0.228981,0.14765 0.217615,0.14466 0.230082,0.0605 0.03127,-0.21102 0.474786,-0.29592 0.646876,-0.12383 0.06201,0.062 0.07939,0.10511 0.06309,0.15645 -0.04646,0.14638 -0.367654,0.22101 -0.564734,0.13121 -0.105404,-0.048 -0.134976,-0.0224 -0.08404,0.0727 0.0215,0.0402 0.03852,0.14614 0.03783,0.23548 -7.17e-4,0.0893 0.0016,0.1624 0.0051,0.16232 0.0035,-7e-5 0.07998,-0.0375 0.169904,-0.0831 0.182512,-0.0926 0.3664,-0.10574 0.52719,-0.0377 0.24893,0.10536 0.285275,0.29478 0.08113,0.42278 -0.08712,0.0546 -0.151571,0.0652 -0.345137,0.0566 -0.253273,-0.0112 -0.354649,-0.0645 -0.413056,-0.21726 -0.0372,-0.0973 -0.07617,-0.0945 -0.144898,0.0104 -0.09863,0.15053 -0.415319,0.32803 -0.668492,0.37467 -0.126784,0.0233 -0.267906,0.0503 -0.313604,0.06 l -0.08309,0.0175 0.07478,0.0607 c 0.09178,0.0745 0.09592,0.1527 0.01049,0.19842 -0.09775,0.0523 -0.218955,0.0413 -0.304096,-0.0276 l -0.07663,-0.062 0.09285,-0.0861 0.09285,-0.086 -0.07806,-0.0153 c -0.371765,-0.0725 -0.472444,-0.10112 -0.64685,-0.18361 -0.120264,-0.0569 -0.247992,-0.15102 -0.321677,-0.23711 -0.108196,-0.1264 -0.136366,-0.19888 -0.16755,-0.43107 -0.0037,-0.0274 -0.09424,0.0847 -0.201227,0.24926 -0.345653,0.53148 -0.726527,0.90739 -1.327466,1.31018 -0.143149,0.0959 -0.254642,0.18007 -0.247763,0.18696 0.0069,0.007 0.146439,-0.0246 0.310125,-0.0699 0.725011,-0.20079 1.25274,-0.17396 2.121008,0.10782 0.05065,0.0164 0.05798,0.008 0.0402,-0.0484 -0.01563,-0.0492 -6.14e-4,-0.0833 0.05346,-0.12118 0.09988,-0.07 0.202134,-0.0665 0.296611,0.01 0.06634,0.0537 0.07103,0.0703 0.03285,0.11632 -0.02449,0.0295 -0.08383,0.0539 -0.131859,0.0542 -0.165985,0.001 -0.189027,0.0509 -0.06317,0.13685 0.331119,0.22617 0.523207,0.50716 0.523891,0.76634 3.99e-4,0.15167 0.03884,0.1797 0.120516,0.0879 0.222933,-0.25063 0.833873,-0.25502 1.047406,-0.008 0.111234,0.12892 0.108356,0.20603 -0.0122,0.32658 -0.137296,0.1373 -0.342844,0.19815 -0.593331,0.17566 -0.236695,-0.0213 -0.382507,-0.0972 -0.469359,-0.24437 l -0.06879,-0.11658 -0.09467,0.17681 c -0.05207,0.0972 -0.179551,0.25536 -0.283304,0.35137 -0.103749,0.096 -0.18202,0.18117 -0.173931,0.18926 0.0081,0.008 0.07411,0.001 0.146712,-0.0159 0.438773,-0.10173 0.943368,0.0935 0.999395,0.38676 0.01604,0.0839 4.99e-4,0.1251 -0.08318,0.22041 -0.05659,0.0645 -0.102898,0.12644 -0.102898,0.13773 0,0.0113 0.0673,0.0205 0.149557,0.0205 0.161966,0 0.296305,0.0915 0.262738,0.17899 -0.02848,0.0742 -0.19922,0.13008 -0.325316,0.10643 -0.137602,-0.0258 -0.199582,-0.0927 -0.170572,-0.18412 0.025,-0.0788 0.01252,-0.0806 -0.213886,-0.0321 -0.173728,0.0373 -0.206142,0.0722 -0.114544,0.12346 0.150498,0.0842 -0.0714,0.25397 -0.234718,0.17956 -0.09295,-0.0423 -0.113912,-0.15441 -0.03458,-0.18485 0.08825,-0.0338 0.05327,-0.0841 -0.07478,-0.10729 -0.164862,-0.0299 -0.338335,-0.11981 -0.438701,-0.22733 -0.105473,-0.113 -0.106284,-0.27084 -0.0022,-0.4171 0.07212,-0.10128 0.07347,-0.10947 0.01496,-0.0906 -0.377565,0.12165 -0.644082,0.19055 -0.844401,0.21831 -0.2624,0.0363 -0.321182,0.0631 -0.205461,0.0933 0.170361,0.0445 0.355031,0.16354 0.383732,0.24724 0.06823,0.19901 -0.03588,0.32457 -0.35549,0.42877 -0.161129,0.0525 -0.166762,0.0581 -0.0971,0.0953 0.17219,0.0922 0.0076,0.27544 -0.188647,0.21006 -0.113085,-0.0377 -0.127147,-0.12597 -0.03229,-0.20278 l 0.0759,-0.0615 -0.114837,-0.0248 c -0.164213,-0.0355 -0.356151,-0.13917 -0.396222,-0.21404 -0.09053,-0.16916 0.0236,-0.36124 0.259378,-0.43653 0.180505,-0.0576 0.195514,-0.0904 0.05127,-0.11186 -0.07093,-0.0105 -0.271193,-0.049 -0.445035,-0.0854 -0.391609,-0.082 -0.377587,-0.0827 -0.313398,0.0153 0.07274,0.11101 0.03354,0.21314 -0.103829,0.27054 -0.275719,0.1152 -0.627091,-0.0167 -0.565072,-0.21209 0.0272,-0.0857 0.145795,-0.14633 0.332914,-0.17018 l 0.167822,-0.0214 -0.216026,-0.13964 c -0.244423,-0.158 -0.284351,-0.16786 -0.308347,-0.0761 -0.03092,0.11822 -0.334016,0.13162 -0.378109,0.0167 -0.03303,-0.0861 0.05435,-0.14814 0.208618,-0.14814 0.08002,0 0.145489,-0.008 0.145489,-0.0188 0,-0.0103 -0.03692,-0.0673 -0.08206,-0.12642 -0.125116,-0.16403 -0.183895,-0.33312 -0.183087,-0.52668 9.73e-4,-0.235 0.0899,-0.41862 0.319078,-0.65891 0.103859,-0.10888 0.179172,-0.19797 0.167364,-0.19797 -0.01181,0 -0.174859,0.0691 -0.362333,0.15344 -0.934089,0.42046 -2.006365,0.67257 -3.240607,0.76194 -0.169082,0.0122 -0.307422,0.0339 -0.307422,0.0481 0,0.0142 0.123384,0.0433 0.274187,0.0646 0.836149,0.1181 1.540953,0.53481 1.791112,1.05898 0.09827,0.20589 0.102929,0.23318 0.08449,0.4945 -0.01074,0.15212 -0.01593,0.27659 -0.01155,0.27659 0.0044,0 0.06664,-0.0299 0.13835,-0.0665 0.186059,-0.0948 0.469742,-0.0904 0.618238,0.01 0.148876,0.10033 0.159145,0.26442 0.02291,0.36613 -0.212238,0.15846 -0.726152,0.0763 -0.776453,-0.12409 -0.0118,-0.047 -0.03352,-0.0855 -0.04826,-0.0855 -0.01475,0 -0.08248,0.0759 -0.150531,0.16855 -0.06805,0.0927 -0.203929,0.2291 -0.301945,0.30311 -0.174257,0.13156 -0.235569,0.22216 -0.120463,0.17799 0.03176,-0.0122 0.14854,-0.0306 0.259504,-0.041 0.385255,-0.036 0.784957,0.15882 0.832024,0.4055 0.01518,0.0795 -0.0026,0.12748 -0.08639,0.23265 l -0.105504,0.13246 0.172987,0.0179 c 0.176866,0.0183 0.27803,0.0935 0.2442,0.18171 -0.02713,0.0707 -0.200522,0.12557 -0.323787,0.10244 -0.137602,-0.0258 -0.199582,-0.0927 -0.170571,-0.18412 0.025,-0.0788 0.01252,-0.0806 -0.213886,-0.032 -0.173729,0.0373 -0.206143,0.0722 -0.114544,0.12345 0.150497,0.0842 -0.0714,0.25398 -0.234718,0.17956 -0.09295,-0.0423 -0.113912,-0.15441 -0.03458,-0.18484 0.08825,-0.0339 0.05327,-0.0841 -0.07478,-0.1073 -0.164862,-0.0299 -0.338334,-0.1198 -0.4387,-0.22733 -0.103889,-0.11131 -0.106235,-0.27091 -0.006,-0.41161 0.04146,-0.0582 0.06227,-0.10587 0.04624,-0.10587 -0.01602,0 -0.149809,0.044 -0.297296,0.0979 -0.255126,0.0931 -0.602896,0.17296 -0.949969,0.21812 -0.174419,0.0227 -0.181487,0.0649 -0.01692,0.10108 0.180038,0.0395 0.370325,0.13464 0.470139,0.23495 0.185648,0.18658 0.190103,0.34846 0.01562,0.56765 -0.06704,0.0842 -0.08568,0.12839 -0.0559,0.13245 0.237229,0.0324 0.296847,0.0536 0.331195,0.11774 0.03211,0.06 0.0264,0.0806 -0.03651,0.13151 -0.0926,0.075 -0.292557,0.0784 -0.394828,0.007 -0.05857,-0.041 -0.07161,-0.0732 -0.05556,-0.13714 0.0178,-0.0709 0.01192,-0.0799 -0.03888,-0.0593 -0.03292,0.0133 -0.145845,0.0411 -0.25095,0.0617 -0.204768,0.0401 -0.236525,0.0731 -0.114956,0.11931 0.191622,0.0729 0.194156,0.24228 0.0048,0.3214 -0.138551,0.0579 -0.233139,0.0575 -0.368585,-0.002 z m -3.153828,-1.47037 c -0.05285,-0.0529 -0.05176,-0.0599 0.01793,-0.11634 0.09167,-0.0742 0.194563,-0.0766 0.294174,-0.007 0.07225,0.0506 0.07317,0.0563 0.01886,0.11634 -0.07163,0.0791 -0.254875,0.0829 -0.330961,0.007 z m 6.352551,-0.007 c -0.05431,-0.06 -0.05339,-0.0657 0.01886,-0.11634 0.09961,-0.0698 0.202506,-0.0674 0.294171,0.007 0.06969,0.0564 0.07078,0.0635 0.01792,0.11634 -0.07609,0.0761 -0.259334,0.0723 -0.330962,-0.007 z m -5.961301,-1.75008 c -0.08606,-0.0603 -0.09579,-0.15458 -0.02224,-0.21562 0.07829,-0.065 0.333981,-0.054 0.413236,0.0177 0.09251,0.0837 0.08377,0.13951 -0.03116,0.19894 -0.12571,0.065 -0.26613,0.0646 -0.359838,-0.001 z m 5.534515,-5.1e-4 c -0.108538,-0.0589 -0.115507,-0.11505 -0.0245,-0.19741 0.07926,-0.0717 0.334944,-0.0827 0.413235,-0.0177 0.194085,0.16107 -0.14375,0.34801 -0.388738,0.2151 z m -11.30981,-0.10372 c -0.05285,-0.0529 -0.05176,-0.0599 0.01793,-0.11632 0.09167,-0.0742 0.194563,-0.0766 0.294174,-0.007 0.07225,0.0506 0.07317,0.0563 0.01886,0.11632 -0.07163,0.0791 -0.254873,0.0829 -0.33096,0.007 z m 17.120641,-0.007 c -0.05431,-0.06 -0.05339,-0.0657 0.01886,-0.11632 0.09961,-0.0698 0.202507,-0.0674 0.294172,0.007 0.06969,0.0564 0.07078,0.0635 0.01792,0.11632 -0.07609,0.0761 -0.259335,0.0723 -0.330962,-0.007 z M 72.86708,139.4917 c -0.08594,-0.0354 -0.100052,-0.14904 -0.0222,-0.17891 0.179578,-0.0689 0.413099,0.0281 0.310158,0.12886 -0.065,0.0636 -0.198572,0.0868 -0.287951,0.0501 z m 18.382269,5.2e-4 c -0.09743,-0.0393 -0.124962,-0.0934 -0.07697,-0.15124 0.04078,-0.0491 0.215983,-0.065 0.311803,-0.0282 0.08323,0.0319 0.06294,0.1437 -0.03268,0.18005 -0.09907,0.0377 -0.107371,0.0376 -0.202154,-5.1e-4 z M 74.04309,138.62547 c -0.195945,-0.15414 -0.05161,-0.34418 0.261398,-0.34418 0.222409,0 0.348965,0.0775 0.348965,0.21356 0,0.075 -0.02308,0.11002 -0.09805,0.14879 -0.145241,0.0751 -0.405455,0.0659 -0.512309,-0.0182 z m 15.723909,0.0166 c -0.06779,-0.0368 -0.0914,-0.0749 -0.0914,-0.14746 0,-0.13589 0.126705,-0.21336 0.348966,-0.21336 0.313006,0 0.457341,0.19005 0.261396,0.34418 -0.105976,0.0834 -0.379792,0.0921 -0.518966,0.0166 z m 0.623153,-1.11746 c -0.144378,-0.0819 -0.156895,-0.22266 -0.02875,-0.32345 0.105268,-0.0828 0.261635,-0.0882 0.443818,-0.0153 0.29116,0.1165 0.168564,0.37948 -0.175968,0.37746 -0.09495,-5.1e-4 -0.20254,-0.018 -0.239099,-0.0387 z m -30.999801,-1.79086 c -0.07249,-0.0422 -0.07589,-0.1496 -0.0056,-0.17658 0.09259,-0.0355 0.231914,-0.0217 0.298352,0.0297 0.06331,0.049 0.06305,0.0511 -0.01395,0.11632 -0.08547,0.0724 -0.187746,0.0836 -0.278815,0.0306 z m 45.269539,-0.0306 c -0.077,-0.0652 -0.0773,-0.0674 -0.0139,-0.11632 0.11731,-0.0907 0.35092,-0.0559 0.35092,0.0522 0,0.13034 -0.2113,0.17054 -0.33697,0.0641 z m -45.925576,-1.11296 c -0.09639,-0.11615 0.0949,-0.22066 0.270637,-0.14787 0.101184,0.0419 0.118988,0.0931 0.05471,0.15741 -0.0562,0.0562 -0.276145,0.0497 -0.32535,-0.01 z m 46.535076,0.01 c -0.0643,-0.0643 -0.0465,-0.1155 0.0547,-0.15741 0.17574,-0.0728 0.36703,0.0317 0.27063,0.14787 -0.0492,0.0593 -0.26915,0.0657 -0.32535,0.01 z m -32.524202,-1.23355 c -0.09614,-0.0703 -0.05404,-0.17051 0.07691,-0.18305 0.168748,-0.0162 0.269317,0.0187 0.269317,0.0933 0,0.11986 -0.225207,0.17824 -0.346228,0.0897 z m 18.550614,0.008 c -0.08542,-0.0498 -0.07327,-0.15845 0.02033,-0.18195 0.14527,-0.0365 0.302145,-0.004 0.315366,0.0661 0.02334,0.12303 -0.194374,0.19818 -0.335692,0.11586 z m -34.112168,-1.65917 c -0.170434,-0.068 -0.112471,-0.19932 0.08799,-0.19932 0.150571,0 0.236767,0.0779 0.16332,0.14766 -0.06722,0.0638 -0.16864,0.0847 -0.251315,0.0517 z m 49.785796,0 c -0.17043,-0.068 -0.11247,-0.19932 0.088,-0.19932 0.15057,0 0.23676,0.0779 0.16332,0.14766 -0.0672,0.0638 -0.16864,0.0847 -0.25132,0.0517 z m -50.767343,-7.32962 c -0.192373,-0.10445 -0.135425,-0.28283 0.111525,-0.34933 0.343185,-0.0924 0.682922,0.2246 0.377475,0.35222 -0.146157,0.0611 -0.373684,0.0597 -0.489,-0.003 z m 51.428643,10e-4 c -0.19626,-0.0853 -0.12014,-0.28134 0.1368,-0.35228 0.23156,-0.0639 0.51944,0.079 0.47037,0.23364 -0.0486,0.15307 -0.37929,0.21769 -0.60717,0.11864 z m -50.650819,-1.33158 c -0.222896,-0.15613 0.08566,-0.35371 0.368078,-0.23571 0.138045,0.0577 0.154727,0.12283 0.05658,0.22098 -0.08192,0.0819 -0.317088,0.0901 -0.424658,0.0148 z m 49.944579,-0.0147 c -0.0982,-0.0982 -0.0815,-0.1633 0.0566,-0.22098 0.19934,-0.0833 0.44194,-0.0155 0.44194,0.12346 0,0.15578 -0.36823,0.22782 -0.49853,0.0975 z m -46.941847,-2.71056 c -0.06881,-0.0688 -0.06588,-0.1043 0.01206,-0.14601 0.09516,-0.0509 0.287086,-0.0417 0.33505,0.0161 0.107113,0.12906 -0.224026,0.25302 -0.347109,0.12994 z m 44.038947,-0.008 c -0.0691,-0.0764 -0.0699,-0.1258 -0.003,-0.15169 0.13014,-0.0499 0.37948,10e-4 0.37948,0.0783 0,0.12627 -0.27988,0.18073 -0.37705,0.0734 z m -44.730944,-1.10565 c -0.03199,-0.0186 -0.05816,-0.0628 -0.05816,-0.0981 0,-0.0741 0.101031,-0.10892 0.269589,-0.0928 0.08742,0.008 0.114987,0.0275 0.123225,0.0855 0.01628,0.1146 -0.201239,0.18311 -0.334653,0.10541 z m 45.479544,5.1e-4 c -0.12409,-0.0498 -0.0861,-0.178 0.0568,-0.19165 0.16904,-0.0161 0.26959,0.0186 0.26959,0.0933 0,0.11423 -0.16372,0.16356 -0.32638,0.0983 z m -38.862128,-4.78183 c -0.06368,-0.0523 -0.07159,-0.0757 -0.04197,-0.12463 0.05956,-0.0983 0.259174,-0.13198 0.39597,-0.0667 0.133319,0.0636 0.141985,0.0968 0.04944,0.18929 -0.08783,0.0878 -0.297632,0.0889 -0.403445,0.002 z m 32.109487,-0.002 c -0.09254,-0.0925 -0.08387,-0.12571 0.04946,-0.18929 0.136798,-0.0652 0.336409,-0.0316 0.395971,0.0667 0.0929,0.15337 -0.305095,0.26287 -0.445415,0.12255 z"
         style="fill:#ffffff;fill-opacity:1;stroke-width:0.03323485"
         inkscape:connector-curvature="0" />
      <g
         id="g33032"
         style="fill:#000000;fill-opacity:1;stroke:none;stroke-width:0.26458332;stroke-miterlimit:4;stroke-dasharray:none;stroke-opacity:1"
         transform="translate(46.439588,22.82069)">
        <path
           style="color:#000000;font-style:normal;font-variant:normal;font-weight:normal;font-stretch:normal;font-size:medium;line-height:normal;font-family:sans-serif;font-variant-ligatures:normal;font-variant-position:normal;font-variant-caps:normal;font-variant-numeric:normal;font-variant-alternates:normal;font-feature-settings:normal;text-indent:0;text-align:start;text-decoration:none;text-decoration-line:none;text-decoration-style:solid;text-decoration-color:#000000;letter-spacing:normal;word-spacing:normal;text-transform:none;writing-mode:lr-tb;direction:ltr;text-orientation:mixed;dominant-baseline:auto;baseline-shift:baseline;text-anchor:start;white-space:normal;shape-padding:0;clip-rule:nonzero;display:inline;overflow:visible;visibility:visible;opacity:1;isolation:auto;mix-blend-mode:normal;color-interpolation:sRGB;color-interpolation-filters:linearRGB;solid-color:#000000;solid-opacity:1;vector-effect:none;fill:#000000;fill-opacity:1;fill-rule:nonzero;stroke:none;stroke-width:1;stroke-linecap:butt;stroke-linejoin:miter;stroke-miterlimit:4;stroke-dasharray:none;stroke-dashoffset:0;stroke-opacity:1;color-rendering:auto;image-rendering:auto;shape-rendering:auto;text-rendering:auto;enable-background:accumulate"
           d="m 135.17188,342.54297 c -2.66667,4.61333 -5.33336,9.22651 -8,13.83984 h 5.99804 v 12.15821 h -12.78515 v -5.99805 l -13.83985,8 13.83985,8 v -6.00195 h 12.78515 v 13.41406 h -5.99804 c 2.66665,4.61333 5.33333,9.22651 8,13.83984 2.66665,-4.61333 5.33333,-9.22651 8,-13.83984 h -6.00196 v -13.41406 h 12.78711 v 6.00195 l 13.83985,-8 -13.83985,-8 v 5.99805 h -12.78711 v -12.15821 h 6.00196 c -2.66667,-4.61333 -5.33336,-9.22651 -8,-13.83984 z"
           transform="scale(0.26458333)"
           id="path30001"
           inkscape:connector-curvature="0" />
      </g>
    </g>
  </g>
</svg>
