<?xml version="1.0" encoding="UTF-8" standalone="no"?>
<!-- Created with Inkscape (http://www.inkscape.org/) -->

<svg
   xmlns:dc="http://purl.org/dc/elements/1.1/"
   xmlns:cc="http://creativecommons.org/ns#"
   xmlns:rdf="http://www.w3.org/1999/02/22-rdf-syntax-ns#"
   xmlns:svg="http://www.w3.org/2000/svg"
   xmlns="http://www.w3.org/2000/svg"
   xmlns:sodipodi="http://sodipodi.sourceforge.net/DTD/sodipodi-0.dtd"
   xmlns:inkscape="http://www.inkscape.org/namespaces/inkscape"
   width="241"
   height="155"
   viewBox="0 0 63.764581 41.010418"
   version="1.1"
   id="svg6201"
   inkscape:version="0.92.4 (f8dce91, 2019-08-02)"
   sodipodi:docname="i2.svg">
  <defs
     id="defs6195" />
  <sodipodi:namedview
     id="base"
     pagecolor="#ffffff"
     bordercolor="#666666"
     borderopacity="1.0"
     inkscape:pageopacity="0.0"
     inkscape:pageshadow="2"
     inkscape:zoom="3.3829629"
     inkscape:cx="61.198948"
     inkscape:cy="67.349357"
     inkscape:document-units="mm"
     inkscape:current-layer="layer1"
     showgrid="false"
     units="px"
     inkscape:window-width="1853"
     inkscape:window-height="1025"
     inkscape:window-x="67"
     inkscape:window-y="27"
     inkscape:window-maximized="1"
     inkscape:snap-global="false" />
  <metadata
     id="metadata6198">
    <rdf:RDF>
      <cc:Work
         rdf:about="">
        <dc:format>image/svg+xml</dc:format>
        <dc:type
           rdf:resource="http://purl.org/dc/dcmitype/StillImage" />
        <dc:title />
      </cc:Work>
    </rdf:RDF>
  </metadata>
  <g
     inkscape:label="Layer 1"
     inkscape:groupmode="layer"
     id="layer1"
     transform="translate(0,-255.98957)">
    <rect
       ry="2"
       rx="2"
       y="256.37363"
       x="0.38406667"
       height="40.242283"
       width="62.996449"
       id="rect5191"
       style="fill:#7f7f7f;fill-opacity:1;stroke:#7f7f7f;stroke-width:0.76813334;stroke-linejoin:miter;stroke-miterlimit:4;stroke-dasharray:none;stroke-opacity:1" />
    <rect
       style="fill:#7f7f7f;fill-opacity:1;stroke:#ffffff;stroke-width:0.25635684;stroke-linejoin:miter;stroke-miterlimit:4;stroke-dasharray:none;stroke-opacity:1"
       id="rect3744"
       width="62.979061"
       height="40.224892"
       x="0.39276037"
       y="256.38232"
       rx="2"
       ry="2" />
    <g
       id="g903"
       transform="translate(3.4136538,1.8629948)">
      <path
         id="path30007"
         d="m 28.282098,291.50888 c -0.18251,-0.0794 -0.17613,-0.24845 0.0121,-0.32001 0.121561,-0.0462 0.0898,-0.0792 -0.114959,-0.1193 -0.10511,-0.0206 -0.21803,-0.0483 -0.25095,-0.0617 -0.0508,-0.0205 -0.0567,-0.0116 -0.0389,0.0593 0.0161,0.0639 0.003,0.0961 -0.0556,0.13714 -0.102269,0.0716 -0.302229,0.0682 -0.39483,-0.007 -0.0629,-0.051 -0.0686,-0.0715 -0.0365,-0.13151 0.0344,-0.0642 0.0935,-0.0852 0.331039,-0.11774 0.0314,-0.004 0.0232,-0.0305 -0.0281,-0.0892 -0.123611,-0.14143 -0.17336,-0.26599 -0.15191,-0.38034 0.0367,-0.19579 0.30136,-0.39774 0.61003,-0.46553 0.16456,-0.0362 0.157499,-0.0784 -0.0169,-0.10108 -0.347081,-0.0452 -0.69485,-0.12501 -0.94997,-0.21812 -0.147491,-0.0538 -0.28127,-0.0979 -0.297301,-0.0979 -0.016,0 0.005,0.0476 0.0462,0.10586 0.100189,0.1407 0.0978,0.30031 -0.006,0.41162 -0.10037,0.10752 -0.27384,0.19741 -0.4387,0.22733 -0.12805,0.0232 -0.16303,0.0734 -0.0748,0.10729 0.0793,0.0305 0.0584,0.1425 -0.0346,0.18485 -0.16332,0.0744 -0.38521,-0.0953 -0.23472,-0.17956 0.0916,-0.0513 0.0592,-0.0862 -0.11454,-0.12345 -0.22641,-0.0485 -0.23888,-0.0467 -0.21389,0.032 0.029,0.0914 -0.033,0.1583 -0.17057,0.18412 -0.12326,0.0231 -0.29665,-0.0317 -0.32378,-0.10244 -0.0338,-0.0882 0.0673,-0.16344 0.24419,-0.18172 l 0.17299,-0.0179 -0.1055,-0.13246 c -0.0837,-0.10516 -0.10156,-0.15312 -0.0864,-0.23265 0.0471,-0.24667 0.44677,-0.44148 0.83202,-0.4055 0.11097,0.0103 0.22775,0.0288 0.25951,0.041 0.1151,0.0442 0.0538,-0.0464 -0.12047,-0.17798 -0.098,-0.074 -0.23389,-0.21041 -0.30194,-0.30311 -0.068,-0.0927 -0.13579,-0.16855 -0.15053,-0.16855 -0.0147,0 -0.0365,0.0385 -0.0483,0.0855 -0.0503,0.20041 -0.56421,0.28255 -0.77645,0.12408 -0.13623,-0.10171 -0.12597,-0.2658 0.0229,-0.36613 0.1485,-0.10007 0.43218,-0.10449 0.61824,-0.01 0.0717,0.0366 0.13396,0.0665 0.13835,0.0665 0.004,0 -8.2e-4,-0.12446 -0.0115,-0.27658 -0.0184,-0.26133 -0.0138,-0.28861 0.0845,-0.49451 0.25015,-0.52416 0.95496,-0.94087 1.79111,-1.05898 0.1508,-0.0213 0.27418,-0.0504 0.27418,-0.0646 0,-0.0142 -0.13834,-0.0359 -0.30742,-0.0481 -1.23606,-0.0895 -2.30633,-0.34141 -3.24428,-0.7636 -0.1895,-0.0853 -0.35126,-0.14838 -0.35945,-0.14018 -0.008,0.008 0.0603,0.0852 0.15212,0.17113 0.3872,0.3622 0.44478,0.817 0.15203,1.20083 -0.0451,0.0592 -0.0821,0.11606 -0.0821,0.12642 0,0.0103 0.0655,0.0188 0.14548,0.0188 0.15428,0 0.24166,0.062 0.20862,0.14814 -0.0441,0.1149 -0.34719,0.1015 -0.3781,-0.0167 -0.024,-0.0918 -0.0639,-0.0819 -0.30835,0.0761 l -0.21603,0.13964 0.17895,0.0227 c 0.32799,0.0417 0.44049,0.27396 0.1845,0.38091 -0.213,0.089 -0.51696,0.0252 -0.56241,-0.11794 -0.0138,-0.0436 -0.002,-0.10272 0.0308,-0.15259 0.0642,-0.098 0.0782,-0.0973 -0.3134,-0.0153 -0.17384,0.0364 -0.3741,0.0748 -0.44503,0.0854 -0.14425,0.0214 -0.12924,0.0542 0.0513,0.11187 0.23577,0.0753 0.34991,0.26736 0.25937,0.43652 -0.0401,0.0749 -0.232,0.17855 -0.39622,0.21404 l -0.11483,0.0248 0.0759,0.0615 c 0.0949,0.0768 0.0808,0.16511 -0.0323,0.20279 -0.19624,0.0654 -0.36084,-0.1179 -0.18865,-0.21006 0.0697,-0.0373 0.064,-0.0428 -0.0971,-0.0953 -0.31961,-0.10421 -0.42372,-0.22976 -0.35549,-0.42878 0.0287,-0.0837 0.21337,-0.20268 0.38374,-0.24724 0.11571,-0.0303 0.0569,-0.057 -0.20547,-0.0933 -0.20032,-0.0278 -0.46683,-0.0967 -0.8444,-0.21831 -0.0585,-0.0188 -0.0572,-0.0106 0.015,0.0906 0.10415,0.14625 0.10334,0.30409 -0.002,0.4171 -0.10037,0.10751 -0.27384,0.19741 -0.4387,0.22733 -0.13281,0.0241 -0.15812,0.064 -0.0714,0.11258 0.1505,0.0842 -0.0714,0.25396 -0.23472,0.17956 -0.093,-0.0423 -0.11391,-0.15442 -0.0346,-0.18486 0.0949,-0.0364 0.0491,-0.0823 -0.11796,-0.11816 -0.2264,-0.0485 -0.23888,-0.0467 -0.21388,0.0321 0.029,0.0914 -0.033,0.1583 -0.17057,0.18412 -0.12326,0.0231 -0.29665,-0.0318 -0.32379,-0.10245 -0.0338,-0.0882 0.0673,-0.16343 0.2442,-0.18171 l 0.17299,-0.0179 -0.10551,-0.13245 c -0.13112,-0.16463 -0.11839,-0.28519 0.0463,-0.43873 0.18973,-0.17684 0.55043,-0.25082 0.86607,-0.17765 0.0726,0.0169 0.13862,0.024 0.14671,0.0159 0.008,-0.008 -0.0702,-0.0933 -0.17393,-0.18926 -0.10375,-0.096 -0.23124,-0.25412 -0.28331,-0.35137 l -0.0947,-0.17681 -0.0688,0.11659 c -0.0869,0.1472 -0.23266,0.22312 -0.46936,0.24437 -0.25049,0.0225 -0.45603,-0.0383 -0.59333,-0.17567 -0.12055,-0.12055 -0.12343,-0.19765 -0.0122,-0.32658 0.21353,-0.24749 0.82447,-0.2431 1.04741,0.008 0.0817,0.0918 0.12011,0.0638 0.12051,-0.0879 6.62e-4,-0.25919 0.19277,-0.54018 0.523891,-0.76635 0.125859,-0.086 0.10282,-0.13587 -0.0632,-0.13684 -0.048,-2.7e-4 -0.10736,-0.0247 -0.13186,-0.0542 -0.0382,-0.046 -0.0335,-0.0626 0.0328,-0.11632 0.0945,-0.0765 0.19673,-0.0799 0.29661,-0.01 0.0541,0.0379 0.0691,0.0719 0.0535,0.12119 -0.0178,0.056 -0.0104,0.0648 0.0402,0.0484 0.86822,-0.28177 1.39615,-0.30861 2.121011,-0.10784 0.163679,0.0453 0.302389,0.0777 0.308239,0.0718 0.006,-0.006 -0.10565,-0.0902 -0.24776,-0.18755 -0.61793,-0.42309 -0.9822,-0.78348 -1.32558,-1.31148 -0.107,-0.16451 -0.197549,-0.27667 -0.20123,-0.24926 -0.0312,0.2322 -0.0594,0.30468 -0.16755,0.43108 -0.0737,0.0861 -0.20142,0.18023 -0.32168,0.23711 -0.17441,0.0825 -0.27509,0.11106 -0.64685,0.1836 l -0.0781,0.0153 0.0928,0.0861 0.0928,0.0861 -0.0766,0.062 c -0.0851,0.0689 -0.20635,0.08 -0.3041,0.0276 -0.0854,-0.0457 -0.0813,-0.12393 0.0105,-0.19841 l 0.0748,-0.0607 -0.0831,-0.0163 c -0.0457,-0.009 -0.16274,-0.0327 -0.2601,-0.0526 -0.26299,-0.054 -0.29481,-0.0505 -0.22695,0.0245 0.0578,0.0638 0.0708,0.16327 0.0296,0.22505 -0.0863,0.12931 -0.44247,0.15616 -0.58493,0.0441 -0.13773,-0.10834 -0.11762,-0.21984 0.0537,-0.2976 0.0777,-0.0353 0.20087,-0.0644 0.27374,-0.0648 l 0.1325,-5.3e-4 -0.17039,-0.11475 c -0.0937,-0.0631 -0.20134,-0.1541 -0.23917,-0.2022 -0.0672,-0.0854 -0.13793,-0.0868 -0.13793,-0.003 0,0.0232 -0.0383,0.0781 -0.0852,0.12214 -0.12096,0.11364 -0.51141,0.13346 -0.67001,0.034 -0.20414,-0.128 -0.1678,-0.31742 0.0811,-0.42278 0.1608,-0.0681 0.34468,-0.0549 0.5272,0.0377 0.0899,0.0456 0.16551,0.083 0.16797,0.0831 0.002,7e-5 0.005,-0.0724 0.005,-0.16105 0,-0.0887 0.0179,-0.19463 0.0398,-0.2355 0.0516,-0.0964 0.0224,-0.12221 -0.0834,-0.074 -0.197081,0.0898 -0.51828,0.0152 -0.56474,-0.13121 -0.0163,-0.0513 0.001,-0.0944 0.0631,-0.15645 0.17209,-0.17209 0.61561,-0.0872 0.646881,0.12383 0.0125,0.0841 0.001,0.0871 0.23008,-0.0605 0.18302,-0.11802 0.21674,-0.16905 0.1117,-0.16905 -0.0345,0 -0.0981,-0.0299 -0.14125,-0.0665 l -0.0785,-0.0665 0.0785,-0.0665 c 0.09,-0.0763 0.16432,-0.0831 0.28839,-0.0266 0.0737,0.0336 0.0844,0.0551 0.0681,0.13681 -0.0177,0.0884 -0.0128,0.0949 0.0553,0.0739 0.14759,-0.0455 0.74028,-0.0592 0.92258,-0.0213 0.25475,0.053 0.52568,0.18497 0.67263,0.32777 0.14705,0.14289 0.151929,0.12102 0.0546,-0.24434 -0.0536,-0.20123 -0.0701,-0.36224 -0.0705,-0.68651 l -5.03e-4,-0.42361 -0.11814,0.10373 c -0.18887,0.16583 -0.3215,0.20836 -0.65475,0.20996 -0.25117,10e-4 -0.32542,-0.0115 -0.46328,-0.0792 -0.11461,-0.0563 -0.16818,-0.0686 -0.17745,-0.0408 -0.0457,0.13707 -0.31893,0.19361 -0.40932,0.0847 -0.0382,-0.0461 -0.0331,-0.0629 0.0366,-0.11937 0.0629,-0.0509 0.11006,-0.0611 0.2097,-0.0452 0.0971,0.0155 0.12426,0.0102 0.11103,-0.0219 -0.01,-0.0234 -0.0353,-0.0969 -0.0571,-0.16346 l -0.0396,-0.12104 -0.11356,0.067 c -0.17596,0.10383 -0.44307,0.0391 -0.44307,-0.10741 0,-0.15788 0.33547,-0.20404 0.48206,-0.0663 l 0.0827,0.0777 0.11296,-0.1303 0.11296,-0.13032 -0.13538,-0.0242 c -0.15752,-0.0282 -0.20681,-0.0669 -0.17865,-0.14024 0.0581,-0.1513 0.38747,-0.11846 0.38747,0.0386 0,0.0744 0.0102,0.0813 0.0914,0.0622 0.52293,-0.12336 1.01323,0.011 1.13784,0.31182 0.053,0.12801 0.082,0.10743 0.15107,-0.1073 0.0308,-0.0957 0.1226,-0.29905 0.204,-0.45177 0.0814,-0.15272 0.141,-0.28468 0.13243,-0.29325 -0.009,-0.009 -0.0603,0.008 -0.11489,0.0358 -0.2263,0.11702 -0.53234,0.0961 -0.71679,-0.0489 -0.22409,-0.17628 0.0201,-0.46278 0.39448,-0.46278 0.23988,0 0.48191,0.14479 0.48191,0.2883 0,0.0425 0.0125,0.0773 0.0278,0.0773 0.0285,0 0.53715,-0.54584 0.53715,-0.57646 0,-0.009 -0.0795,-0.009 -0.17668,0.001 -0.22285,0.023 -0.38832,-0.0501 -0.38832,-0.17157 0,-0.11512 0.11801,-0.18382 0.31574,-0.18382 0.19836,0 0.31573,0.0687 0.31573,0.18468 0,0.0446 0.0141,0.0812 0.0313,0.0812 0.0447,0 0.4578,-0.30752 0.4799,-0.35728 0.0132,-0.0297 -0.0231,-0.0415 -0.12769,-0.0415 -0.12287,0 -0.25059,-0.0593 -0.25059,-0.11632 0,-0.0503 0.12525,-0.11633 0.22058,-0.11633 0.17174,0 0.2549,0.0546 0.2306,0.15137 -0.0249,0.099 -0.0144,0.0952 0.4296,-0.15823 0.584,-0.33332 1.5001,-0.66284 2.29314,-0.82484 0.36284,-0.0741 1.34473,-0.19818 1.57035,-0.19842 0.0777,-7e-5 0.14125,-0.0124 0.14125,-0.0273 0,-0.0149 -0.40469,-0.0457 -0.89931,-0.0683 -3.470756,-0.15871 -6.806876,-0.96249 -9.408996,-2.26688 -0.39845,-0.19974 -0.55947,-0.27182 -0.55947,-0.25044 0,0.006 0.14184,0.11906 0.31521,0.25109 0.54612,0.4159 0.92666,0.89959 1.1061,1.40589 0.0685,0.19333 0.0885,0.32218 0.1005,0.64757 0.0149,0.40498 0.0152,0.40607 0.0848,0.35727 0.0808,-0.0566 0.29599,-0.0647 0.38962,-0.0145 0.0768,0.0411 0.0839,0.14061 0.0142,0.19844 -0.0837,0.0695 -0.30026,0.0568 -0.40955,-0.024 l -0.098,-0.0724 -0.0868,0.24445 c -0.11119,0.31322 -0.11044,0.33102 0.0113,0.26807 0.20465,-0.10582 0.60092,-0.0383 0.64813,0.11043 0.0496,0.15615 -0.1119,0.27092 -0.38113,0.27092 -0.20365,0 -0.28165,-0.037 -0.36428,-0.17289 l -0.0621,-0.10218 -0.11056,0.15961 c -0.0608,0.0878 -0.18161,0.24174 -0.26844,0.34212 -0.16556,0.1914 -0.19719,0.26182 -0.0997,0.22196 0.25874,-0.10578 0.57102,-0.10514 0.78886,0.002 0.17769,0.0871 0.23949,0.20207 0.19823,0.3689 -0.0282,0.11422 -0.0509,0.13549 -0.21438,0.20163 -0.30582,0.12373 -0.66291,0.0906 -0.86599,-0.0802 -0.0916,-0.0771 -0.10232,-0.10399 -0.0922,-0.23136 0.006,-0.0793 10e-4,-0.14415 -0.0116,-0.14415 -0.0127,0 -0.14737,0.0898 -0.299351,0.1995 -0.151979,0.10973 -0.437099,0.28233 -0.633599,0.38356 -0.1965,0.10125 -0.357281,0.19309 -0.357281,0.20411 0,0.011 0.10101,0.0106 0.224461,-0.001 0.44212,-0.0411 0.91973,0.10307 1.09266,0.32978 0.0525,0.0688 0.0937,0.174 0.103999,0.26518 0.0138,0.12259 0.0272,0.14703 0.0707,0.12926 0.15138,-0.0618 0.24533,-0.0736 0.351719,-0.0442 0.217091,0.0599 0.21751,0.22371 7.68e-4,0.29524 -0.1517,0.0501 -0.33248,-0.006 -0.39352,-0.12289 l -0.0441,-0.0842 -0.0636,0.0801 c -0.035,0.0441 -0.11216,0.11589 -0.17157,0.1596 -0.0594,0.0437 -0.10801,0.0916 -0.10801,0.10644 0,0.0148 0.0636,0.027 0.14125,0.0271 0.16887,1.3e-4 0.35727,0.1037 0.35727,0.19638 0,0.0836 -0.14271,0.1949 -0.2837,0.22135 -0.13465,0.0252 -0.31799,-0.0308 -0.40105,-0.12254 -0.0582,-0.0643 -0.0585,-0.0728 -0.005,-0.16624 l 0.0565,-0.0985 -0.25678,0.022 c -0.29867,0.0256 -0.34704,0.0535 -0.24126,0.13919 0.1558,0.12616 -0.0361,0.30308 -0.28491,0.2627 -0.24203,-0.0393 -0.28563,-0.181 -0.091,-0.29582 0.13473,-0.0795 0.14934,-0.0641 -0.16815,-0.17677 -0.20226,-0.0717 -0.40286,-0.24885 -0.4526,-0.39957 -0.0523,-0.15861 0.005,-0.31626 0.17838,-0.48598 0.0964,-0.0947 0.11802,-0.13035 0.0716,-0.11828 -0.0366,0.01 -0.19646,0.0556 -0.35533,0.1025 -0.57064,0.16837 -1.05026,0.25258 -1.94898,0.34219 -0.0975,0.01 -0.17036,0.0246 -0.16191,0.0331 0.009,0.008 0.13775,0.0446 0.28731,0.0803 0.34419,0.0822 0.58314,0.19509 0.78025,0.36859 0.20937,0.1843 0.28529,0.34195 0.28529,0.59242 0,0.18161 0.0322,0.24986 0.0808,0.17127 0.0369,-0.0597 0.24695,-0.0731 0.36617,-0.0232 0.0909,0.038 0.11807,0.0686 0.11807,0.13295 0,0.10625 -0.0854,0.15243 -0.28183,0.15243 -0.1181,0 -0.17183,-0.0186 -0.23425,-0.081 l -0.081,-0.081 -0.19998,0.19998 c -0.10999,0.11 -0.19999,0.20694 -0.19999,0.21545 0,0.008 0.0524,0.006 0.11655,-0.006 0.27819,-0.0522 0.61462,0.093 0.61462,0.26527 0,0.2159 -0.42423,0.35989 -0.70731,0.24008 -0.20675,-0.0875 -0.25667,-0.19932 -0.17518,-0.39237 0.0205,-0.0485 -0.007,-0.0458 -0.22006,0.0218 -0.1339,0.0425 -0.31824,0.088 -0.40964,0.10111 -0.25374,0.0365 -0.27513,0.0632 -0.10327,0.12884 0.16219,0.0619 0.3193,0.21884 0.3193,0.31885 0,0.10467 -0.16131,0.26203 -0.30987,0.30231 -0.25362,0.0688 -0.24592,0.0622 -0.15709,0.13461 0.11153,0.091 0.0578,0.17445 -0.12091,0.18788 -0.1827,0.0137 -0.24925,-0.0633 -0.14787,-0.17125 0.0766,-0.0815 0.065,-0.12119 -0.0355,-0.12119 -0.0798,0 -0.2999,-0.11192 -0.35817,-0.18213 -0.12001,-0.1446 -0.001,-0.37891 0.22867,-0.45238 0.16092,-0.0514 0.19612,-0.0897 0.0996,-0.10846 -0.0438,-0.008 -0.21419,-0.0481 -0.3787,-0.088 -0.16451,-0.0399 -0.33328,-0.0805 -0.37504,-0.0902 -0.0707,-0.0164 -0.0733,-0.0118 -0.0373,0.0671 0.0634,0.13915 0.0127,0.25188 -0.14549,0.3237 -0.26955,0.12237 -0.61132,0.0554 -0.72033,-0.14114 -0.0458,-0.0825 -0.0443,-0.0972 0.0174,-0.17996 0.095,-0.12725 0.287891,-0.18812 0.52321,-0.16511 l 0.19302,0.0189 -0.21767,-0.21448 -0.21767,-0.21448 -0.0819,0.0818 c -0.16692,0.16691 -0.56197,0.0767 -0.5013,-0.11444 0.0403,-0.127 0.2805,-0.15245 0.518991,-0.055 0.0453,0.0185 0.0506,-0.004 0.0376,-0.16067 -0.0373,-0.44944 0.374429,-0.8225 1.092549,-0.98997 0.16394,-0.0382 0.29295,-0.0746 0.28669,-0.0809 -0.006,-0.006 -0.18992,-0.0268 -0.40812,-0.0457 -0.83593,-0.0722 -1.57502,-0.2405 -2.25375,-0.51306 -0.253629,-0.10185 -0.47587,-0.18518 -0.49387,-0.18518 -0.018,0 0.0528,0.0841 0.157201,0.18691 0.232859,0.22916 0.314219,0.39782 0.315189,0.65333 8.21e-4,0.21111 -0.0509,0.36406 -0.18036,0.53383 -0.10813,0.14176 -0.10662,0.16482 0.009,0.13938 0.140361,-0.0308 0.27871,0.0321 0.265651,0.12082 -0.0229,0.15568 -0.392811,0.14646 -0.392811,-0.01 0,-0.0344 -0.008,-0.0624 -0.0176,-0.0624 -0.0366,0 -0.4808897,0.27737 -0.4808897,0.30021 0,0.0132 0.082,0.0307 0.1822697,0.039 0.19348,0.016 0.31625,0.0918 0.31625,0.19525 0,0.0737 -0.13871,0.18537 -0.26466,0.21302 -0.1269998,0.0279 -0.3412099,-0.0327 -0.4188299,-0.11845 -0.0601,-0.0664 -0.0603,-0.0732 -0.004,-0.17082 0.0321,-0.0559 0.0541,-0.1052 0.049,-0.10953 -0.005,-0.004 -0.1215199,0.0191 -0.2586098,0.0521 -0.1370902,0.033 -0.3427302,0.0702 -0.4569802,0.0827 -0.1142399,0.0125 -0.2077198,0.0336 -0.2077198,0.0469 0,0.0133 0.0592,0.0418 0.1314399,0.0635 0.3332999,0.0999 0.4344599,0.34121 0.22142,0.52826 -0.0618,0.0543 -0.1701601,0.10955 -0.2407002,0.12279 -0.18093,0.0339 -0.1890498,0.0455 -0.0912,0.12967 0.0828,0.0712 0.0842,0.0776 0.0289,0.13289 -0.0748,0.0748 -0.27793,0.0614 -0.3289602,-0.0216 -0.0299,-0.0486 -0.0214,-0.0711 0.0463,-0.12257 0.0643,-0.0489 0.0717,-0.0666 0.0332,-0.0792 -0.0273,-0.009 -0.1061001,-0.0335 -0.17511,-0.0548 -0.18782,-0.0578 -0.3232002,-0.18527 -0.3232002,-0.3043 0,-0.13062 0.14708,-0.27695 0.3271002,-0.32542 0.076,-0.0205 0.13819,-0.0488 0.13819,-0.0631 0,-0.0142 -0.12339,-0.0426 -0.2741901,-0.0628 -0.1508001,-0.0203 -0.39897,-0.0765 -0.5514898,-0.1248 -0.1525101,-0.0483 -0.2857701,-0.0794 -0.2961402,-0.069 -0.010401,0.0104 0.007,0.047 0.0378,0.0814 0.0311,0.0344 0.0649,0.11384 0.0751,0.17652 0.014999,0.0923 7.673e-4,0.13505 -0.0748,0.22488 -0.0962,0.11435 -0.31143,0.23198 -0.4284099,0.23417 -0.0366,5.1e-4 -0.0889,0.0156 -0.1163302,0.033 -0.0423,0.027 -0.0385,0.0398 0.025,0.0845 0.1570998,0.11065 -0.063,0.24162 -0.2715802,0.16159 -0.0702,-0.0269 -0.0669,-0.13466 0.005,-0.17509 0.0744,-0.0416 0.0448,-0.0692 -0.1134099,-0.10598 -0.1966,-0.0456 -0.2396101,-0.0397 -0.2212801,0.0304 0.0285,0.10902 -0.0781,0.17545 -0.2638099,0.16443 -0.30802,-0.0183 -0.3075401,-0.21728 6.614e-4,-0.27306 l 0.1685401,-0.0305 -0.10356,-0.12886 c -0.10209,-0.12704 -0.10287,-0.1308 -0.0552,-0.26752 0.0906,-0.25994 0.36777,-0.37456 0.8416901,-0.34802 l 0.2948498,0.0165 -0.1850199,-0.17638 c -0.1017699,-0.097 -0.2234899,-0.25227 -0.2704899,-0.34502 -0.047,-0.0928 -0.0923,-0.16865 -0.10066,-0.16865 -0.008,0 -0.0383,0.0447 -0.0666,0.0994 -0.1677501,0.32438 -0.9301901,0.32989 -1.1202799,0.008 -0.0506,-0.0857 -0.0508,-0.10228 -0.003,-0.20204 0.1490699,-0.30779 0.86527,-0.34505 1.10398,-0.0574 0.0688,0.0829 0.1017201,0.0616 0.1017201,-0.0662 0,-0.0652 0.0319,-0.19274 0.071,-0.28351 0.0391,-0.0908 0.0625,-0.17355 0.0521,-0.18396 -0.010401,-0.0104 -0.0739,-10e-4 -0.14107,0.0214 -0.35316,0.11655 -0.6865401,-0.15881 -0.4057502,-0.33515 0.2171401,-0.13636 0.5835901,-0.0367 0.59862,0.16276 0.003,0.0397 0.0157,0.0722 0.0283,0.0722 0.0126,0 0.1158299,-0.0785 0.22942,-0.17448 l 0.2065401,-0.17449 -0.1396201,-0.0192 c -0.1874002,-0.0258 -0.2595999,-0.12956 -0.1361501,-0.19563 0.1620401,-0.0867 0.38003,-0.005 0.3449701,0.12871 -0.015902,0.0607 0.00101,0.0588 0.28364,-0.032 0.4227599,-0.13596 0.7232499,-0.17598 1.1516399,-0.1534 0.3213402,0.017 0.7559001,0.10493 1.0302801,0.20861 0.0836,0.0316 -0.0681,-0.0974 -0.2980801,-0.25353 -0.2380599,-0.16161 -0.66772,-0.58163 -0.8321098,-0.81345 -0.1588,-0.22394 -0.2860202,-0.46677 -0.3482401,-0.6647 -0.0641,-0.20387 -0.0891,-0.20494 -0.1468102,-0.006 -0.0372,0.12804 -0.0965,0.22761 -0.1969497,0.331 -0.2699901,0.2778 -0.8541001,0.48957 -1.3503301,0.48957 -0.1104501,0 -0.2008201,0.008 -0.2008201,0.0182 0,0.01 0.0394,0.0521 0.0876,0.0935 0.0746,0.0642 0.082,0.0858 0.0499,0.14572 -0.0976,0.18238 -0.5362599,0.14615 -0.5362599,-0.0443 0,-0.0643 0.0271,-0.095 0.1176599,-0.13278 0.1118802,-0.0467 0.13051,-0.11362 0.0316,-0.11362 -0.0254,0 -0.16799,-0.0385 -0.3168801,-0.0855 -0.2648598,-0.0837 -0.3494399,-0.0858 -0.2705798,-0.007 0.021601,0.0216 0.0393,0.0786 0.0393,0.12659 0,0.28429 -0.6091,0.39011 -0.8513099,0.1479 -0.1064601,-0.10646 -0.0998,-0.19204 0.023,-0.29537 0.1298299,-0.10925 0.21756,-0.13057 0.46394,-0.11274 0.1090099,0.008 0.1981999,0.008 0.1981999,5e-4 0,-0.008 -0.0755,-0.0816 -0.16783,-0.16455 -0.0923,-0.083 -0.1978099,-0.20967 -0.23446,-0.2815 l -0.0666,-0.1306 -0.0734,0.11024 c -0.11048,0.16593 -0.29347,0.24344 -0.57105,0.24188 -0.45405,-0.003 -0.70673,-0.2461 -0.51207,-0.49358 0.099,-0.12586 0.27039,-0.18654 0.52444,-0.1857 0.24789,0.001 0.47457,0.0839 0.5344999,0.19585 0.0576,0.10755 0.091,0.0828 0.1094902,-0.0809 0.010001,-0.0882 0.0563,-0.20791 0.11234,-0.29017 0.0525,-0.077 0.1070898,-0.15849 0.1213699,-0.18107 0.019,-0.03 -0.0112,-0.028 -0.1122,0.008 -0.18702,0.066 -0.38388,0.0602 -0.55236,-0.0163 -0.23684,-0.10751 -0.23581,-0.3278 0.002,-0.4358 0.3457101,-0.15697 0.7925901,0.0115 0.7391601,0.27867 -0.010401,0.052 -0.007,0.0896 0.007,0.0836 0.0142,-0.006 0.1485598,-0.0708 0.2985,-0.14392 0.26098,-0.12726 0.3293298,-0.18279 0.2249699,-0.18279 -0.0904,0 -0.21625,-0.0764 -0.23779,-0.14423 -0.0314,-0.099 0.0944,-0.18812 0.2657498,-0.18812 0.2338801,0 0.3541202,0.13575 0.2359203,0.26636 -0.0468,0.0517 -0.017201,0.0554 0.42374,0.0535 0.5148199,-0.002 0.7546599,0.0427 1.0645798,0.19982 0.19411,0.0984 0.4268402,0.30575 0.5309101,0.47309 l 0.075,0.12061 0.0205,-0.34897 c 0.024101,-0.40867 0.1195001,-0.72648 0.32552,-1.0838 0.0747,-0.12959 0.1358501,-0.24598 0.1358501,-0.25863 0,-0.0127 -0.0636,0.0137 -0.1412502,0.0587 -0.4229799,0.2445 -1.0243598,0.24806 -1.4331598,0.008 -0.0794,-0.0465 -0.16974,-0.12332 -0.2007502,-0.17064 l -0.056401,-0.086 -0.0946,0.10129 c -0.0783,0.0838 -0.1203802,0.10129 -0.2437702,0.10129 -0.3017898,0 -0.3910499,-0.22282 -0.1215998,-0.30355 0.10855,-0.0325 0.15412,-0.0299 0.2697699,0.0155 0.0765,0.0301 0.1419101,0.0511 0.1452801,0.0467 0.003,-0.005 0.0147,-0.0952 0.025199,-0.2018 0.017,-0.17309 0.0131,-0.19128 -0.037,-0.16986 -0.0308,0.0132 -0.1382998,0.0308 -0.2388299,0.0392 -0.1517401,0.0126 -0.19832,0.003 -0.2741901,-0.0569 -0.19955,-0.15748 -0.0587,-0.34742 0.2575701,-0.34742 0.21044,0 0.34897,0.0785 0.34897,0.1978 0,0.0997 0.020701,0.10168 0.1495499,0.0142 0.0548,-0.0372 0.1493901,-0.0891 0.2101102,-0.11541 0.1214599,-0.0525 0.1145497,-0.11559 -0.0127,-0.11559 -0.0778,0 -0.2140601,-0.10249 -0.2140601,-0.16102 0,-0.0608 0.13429,-0.1445 0.2549901,-0.15883 0.2267299,-0.0269 0.3351699,0.0841 0.27379,0.28035 -0.010401,0.0332 0.0537,0.0456 0.2688598,0.0518 0.3764402,0.0109 0.6289101,0.0941 0.8253301,0.27202 0.1544101,0.13987 0.15509,0.14143 0.1545199,0.35584 l -5.557e-4,0.21537 0.2565199,-0.23831 c 0.2432701,-0.226 0.42994,-0.36639 0.74998,-0.56402 0.0777,-0.048 0.1412398,-0.0986 0.1412398,-0.11238 0,-0.0138 -0.1130797,-0.0195 -0.2512996,-0.0125 -0.2919,0.0147 -0.5064802,-0.05 -0.61244,-0.18467 -0.0891,-0.11321 -0.0842,-0.20575 0.017899,-0.34372 l 0.0848,-0.11447 -0.13955,-0.0166 c -0.1732201,-0.0206 -0.24642,-0.11185 -0.1482601,-0.18474 0.1396601,-0.10371 0.3786701,-0.0247 0.3425902,0.1133 -0.021701,0.083 -0.016899,0.0838 0.20261,0.0331 0.3199598,-0.0738 0.7305195,0.0778 0.7836405,0.28945 0.0149,0.0596 6.08e-4,0.12371 -0.0448,0.20072 -0.0799,0.13551 -0.038,0.14916 0.15665,0.051 0.0678,-0.0342 0.28034,-0.11907 0.47227,-0.18861 0.19193,-0.0695 0.36112,-0.13671 0.37598,-0.14928 0.0149,-0.0126 -0.0484,-0.0329 -0.14063,-0.0451 -0.33471,-0.0444 -0.44922,-0.29426 -0.18538,-0.4045 0.355019,-0.14834 0.75986,0.0761 0.54665,0.30301 -0.0419,0.0446 -0.0693,0.088 -0.0608,0.0965 0.009,0.008 0.1045,-0.005 0.213389,-0.0299 0.10889,-0.0249 0.283981,-0.0628 0.389081,-0.0841 0.105109,-0.0213 0.191099,-0.0494 0.191099,-0.0624 0,-0.013 -0.0448,-0.0405 -0.0996,-0.0612 -0.136339,-0.0515 -0.16376,-0.13757 -0.0684,-0.21479 0.12596,-0.102 0.39787,-0.0702 0.44477,0.052 0.0103,0.0268 -0.0133,0.0893 -0.0523,0.13891 l -0.071,0.0902 0.16424,-0.0218 c 0.0903,-0.012 0.42786,-0.0314 0.75006,-0.0432 1.12492,-0.041 2.18296,0.13363 3.15415,0.52055 0.18678,0.0744 0.35253,0.13093 0.36834,0.1256 0.0158,-0.005 -0.21843,-0.16673 -0.52052,-0.35866 -1.8543,-1.17811 -3.20738,-2.54494 -4.02207,-4.06297 -0.10546,-0.19649 -0.20045,-0.35727 -0.21108,-0.35727 -0.0106,0 -0.0193,0.16078 -0.0193,0.35727 0,0.3348 -0.007,0.37101 -0.10677,0.57545 -0.1411,0.28833 -0.4544,0.62466 -0.77856,0.83579 -0.26448,0.17227 -0.28592,0.22392 -0.0934,0.22507 0.0984,5.3e-4 0.16451,0.0559 0.16451,0.13752 0,0.0851 -0.19161,0.13972 -0.326,0.0929 -0.0873,-0.0304 -0.10605,-0.0545 -0.10605,-0.13619 0,-0.0546 -0.0112,-0.0942 -0.025,-0.0881 -0.0137,0.006 -0.16329,0.0617 -0.33235,0.12363 -0.31796,0.11644 -0.38231,0.16994 -0.20439,0.16994 0.0566,0 0.1533,0.0239 0.2148,0.0531 0.27497,0.13048 0.12107,0.37899 -0.23471,0.37899 -0.3141799,0 -0.4596398,-0.16479 -0.2961199,-0.33546 0.1093699,-0.11416 0.1187799,-0.11308 -0.3846698,-0.0443 -0.2105001,0.0288 -0.4480901,0.0598 -0.52798,0.0691 -0.1606301,0.0186 -0.1503201,0.0499 0.0361,0.10944 0.17023,0.0544 0.3252103,0.20573 0.3252103,0.31759 0,0.12522 -0.184,0.30007 -0.3675902,0.34932 -0.2039299,0.0547 -0.2107401,0.0626 -0.11694,0.13642 0.0993,0.0781 0.0817,0.14562 -0.0499,0.19148 -0.20346,0.0709 -0.4060301,-0.10114 -0.22998,-0.19535 0.1012499,-0.0542 0.0801,-0.0916 -0.0657,-0.11619 -0.16046,-0.0271 -0.33059,-0.13673 -0.3976601,-0.25621 -0.0444,-0.0791 -0.0439,-0.10042 0.005,-0.20278 0.0507,-0.10622 0.1565298,-0.17697 0.4085799,-0.27301 0.0567,-0.0216 0.0493,-0.0291 -0.0498,-0.0506 -0.064,-0.0139 -0.26587,-0.042 -0.4486701,-0.0625 -0.18279,-0.0205 -0.4668401,-0.0743 -0.6312199,-0.11954 -0.3808701,-0.10492 -0.4262202,-0.10391 -0.2993501,0.007 0.2167099,0.18888 0.2736501,0.4011 0.1643401,0.61248 -0.0624,0.1206 -0.31106,0.28504 -0.50556,0.3343 -0.078,0.0198 -0.1490202,0.0476 -0.15782,0.0618 -0.009,0.0142 0.0363,0.0568 0.1002699,0.0945 0.1300801,0.0768 0.1450399,0.13422 0.0559,0.21486 -0.0925,0.0837 -0.24461,0.10097 -0.3823298,0.0434 -0.1396101,-0.0583 -0.15963,-0.14339 -0.0558,-0.2373 0.0989,-0.0895 0.0819,-0.11623 -0.0748,-0.11711 -0.0777,-4.5e-4 -0.2006499,-0.0145 -0.27325,-0.0314 -0.14477,-0.0336 -0.1838299,-0.0211 -0.1233498,0.0394 0.021601,0.0216 0.0393,0.0808 0.0393,0.13153 0,0.24607 -0.6257701,0.27719 -0.68677,0.0341 -0.0316,-0.12584 0.1128199,-0.23936 0.30446,-0.23936 0.0802,0 0.1538399,-0.0131 0.16374,-0.0291 0.010001,-0.016 -0.0378,-0.0679 -0.10605,-0.1153 -0.0682,-0.0474 -0.14341,-0.11742 -0.1670801,-0.1556 -0.0426,-0.0687 -0.044,-0.0683 -0.1379599,0.0322 -0.0786,0.0841 -0.1205902,0.10163 -0.2441,0.10163 -0.18835,0 -0.32569,-0.0962 -0.2697801,-0.18901 0.02,-0.0331 0.0791,-0.0812 0.1314001,-0.10685 0.0923,-0.0453 0.2073399,-0.0321 0.38458,0.0439 0.0445,0.0191 0.0566,-0.006 0.07,-0.14654 0.0123,-0.12783 0.04,-0.19452 0.1124198,-0.27084 0.2138302,-0.22523 0.64154,-0.35224 1.0516301,-0.31229 0.1410399,0.0137 0.2243299,0.01 0.2243299,-0.0112 0,-0.0182 -0.0292,-0.0423 -0.0648,-0.0536 -0.10102,-0.032 -0.5453099,-0.33041 -0.6995699,-0.46977 -0.0765,-0.0691 -0.20867,-0.22324 -0.2938302,-0.3426 l -0.1548198,-0.21701 -0.021101,0.17192 c -0.0272,0.22207 -0.12594,0.37831 -0.3204501,0.50715 -0.15119,0.10014 -0.4577,0.20719 -0.71369,0.24924 -0.14064,0.0231 -0.15454,0.0493 -0.0582,0.10946 0.0801,0.05 0.0834,0.0858 0.0142,0.15489 -0.0946,0.0946 -0.37982,0.047 -0.37982,-0.0634 0,-0.0258 0.0328,-0.0697 0.0728,-0.0978 0.04,-0.0281 0.0662,-0.0569 0.0582,-0.0642 -0.0236,-0.0214 -0.54126,-0.12077 -0.55541,-0.10662 -0.007,0.007 0.0118,0.0506 0.042,0.0966 0.10725,0.16368 -0.042,0.28761 -0.34635,0.28761 -0.1777,0 -0.3346699,-0.0935 -0.3346699,-0.19941 0,-0.1065 0.1569399,-0.19941 0.3368299,-0.19941 0.0889,0 0.16169,-0.0142 0.16169,-0.0316 0,-0.0174 -0.0662,-0.0772 -0.14703,-0.13281 -0.0809,-0.0556 -0.1765004,-0.13862 -0.2125104,-0.18439 -0.0828,-0.10532 -0.0919,-0.10434 -0.13326,0.0143 -0.0973,0.27909 -0.75175,0.29117 -0.87704,0.0162 -0.0312,-0.0685 -0.0262,-0.0976 0.0296,-0.17234 0.13241,-0.17736 0.50378,-0.21442 0.73564,-0.0734 0.0592,0.0361 0.11485,0.0655 0.12355,0.0655 0.009,0 0.0165,-0.071 0.0174,-0.15787 0.002,-0.23499 0.084,-0.36751 0.3212899,-0.52196 0.21943,-0.1428 0.25099,-0.18428 0.14022,-0.18428 -0.19037,0 -0.27105,-0.17299 -0.10935,-0.23447 0.0609,-0.0231 0.12317,-0.0218 0.20282,0.005 0.10482,0.0346 0.11319,0.0468 0.095,0.13781 -0.019,0.0949 -0.0155,0.0988 0.0714,0.079 0.0502,-0.0115 0.23341,-0.0297 0.40707,-0.0406 0.50937,-0.0319 0.8811999,0.0818 1.1882701,0.36351 l 0.1513699,0.13889 -0.022799,-0.0997 c -0.0506,-0.22121 -0.0612,-0.55074 -0.022701,-0.70464 0.022,-0.0877 0.0837,-0.24591 0.1372902,-0.35156 0.0536,-0.10566 0.0973,-0.19934 0.0973,-0.2082 0,-0.009 -0.086,0.0271 -0.1911001,0.0799 -0.3426999,0.1722 -0.6988101,0.21238 -1.0565299,0.11923 -0.4911,-0.12788 -0.68741,-0.37001 -0.59817,-0.73779 l 0.0262,-0.10806 -0.11942,0.0499 c -0.1494199,0.0624 -0.2906999,0.0634 -0.4351499,0.003 -0.15354,-0.0641 -0.18263,-0.16999 -0.076,-0.27659 0.17668,-0.17667 0.6022,-0.11764 0.64358,0.0893 0.0111,0.0557 0.024,0.10118 0.0287,0.10118 0.005,0 0.0954,-0.0523 0.20161,-0.11633 0.10625,-0.064 0.20615,-0.11631 0.22202,-0.11631 0.0687,0 -0.0164,-0.0598 -0.11247,-0.079 -0.21756,-0.0435 -0.2635,-0.18298 -0.0898,-0.27278 0.11501,-0.0595 0.32774,-0.0489 0.41133,0.0205 0.063,0.0523 0.062,0.14579 -0.002,0.199 -0.0279,0.0231 -0.0433,0.0494 -0.0344,0.0584 0.009,0.009 0.15514,0.0197 0.3248401,0.0238 0.62499,0.0152 1.0294199,0.29263 0.9776198,0.67054 -0.010901,0.0792 -0.010999,0.14396 -3.175e-4,0.14396 0.0107,0 0.0964,-0.0692 0.1904601,-0.15383 0.1935599,-0.17406 0.42297,-0.32678 0.7272599,-0.48417 l 0.2082001,-0.10768 -0.2504101,-0.0214 c -0.2765899,-0.0236 -0.4228198,-0.0838 -0.5276699,-0.21714 -0.1019601,-0.12961 -0.0882,-0.23651 0.0469,-0.36392 0.1376201,-0.12979 0.1420299,-0.1474 0.0369,-0.1474 -0.0437,0 -0.1142298,-0.0282 -0.1567899,-0.0627 -0.0649,-0.0526 -0.0705,-0.071 -0.0346,-0.11419 0.0597,-0.072 0.2087398,-0.0984 0.3189099,-0.0565 0.079,0.03 0.0901,0.0492 0.0742,0.12842 l -0.0186,0.0931 0.25556,-0.002 c 0.54498,-0.004 0.8129,0.30143 0.5300499,0.60337 -0.0847,0.0905 -0.0507,0.0945 0.20741,0.0243 0.1005401,-0.0273 0.3157601,-0.0716 0.4782802,-0.0985 0.1625197,-0.0268 0.3020999,-0.0554 0.3101797,-0.0635 0.008,-0.008 -0.0524,-0.0443 -0.1343199,-0.0806 -0.1591699,-0.0704 -0.2141501,-0.16261 -0.1587299,-0.26617 0.0861,-0.1608 0.49614,-0.18471 0.6522799,-0.038 0.1060101,0.0996 0.1033801,0.13229 -0.020201,0.25033 l -0.1021602,0.0976 0.30988,0.0179 c 0.3433202,0.0199 0.4289902,0.004 0.3452101,-0.0661 -0.0746,-0.0619 -0.0642,-0.12514 0.031,-0.18749 0.0932,-0.0611 0.2833802,-0.043 0.3463401,0.0329 0.0481,0.0579 0.013999,0.14484 -0.0668,0.17048 -0.0859,0.0273 -0.08,0.0774 0.011401,0.0963 0.0411,0.009 0.22611,0.0451 0.41105,0.0814 0.7388405,0.14503 1.3021005,0.42974 1.7658405,0.89257 0.16908,0.16876 0.30742,0.29442 0.30742,0.27924 0,-0.0152 -0.0598,-0.20979 -0.13296,-0.43248 -0.34243,-1.04282 -0.4412,-2.24749 -0.2632,-3.21034 0.03,-0.16216 0.0238,-0.26332 -0.013,-0.2141 -0.006,0.008 -0.0664,0.0918 -0.13481,0.18701 -0.0684,0.0952 -0.18178,0.21859 -0.25187,0.27409 -0.289881,0.2296 -0.86439,0.43178 -1.3804905,0.48584 l -0.1988802,0.0208 0.0769,0.0622 c 0.0423,0.0343 0.0718,0.0885 0.0656,0.12057 -0.0156,0.0812 -0.17062,0.13042 -0.2844599,0.0904 -0.11723,-0.0412 -0.1338799,-0.13225 -0.0383,-0.20962 l 0.0752,-0.0609 -0.1473899,-0.02 c -0.0811,-0.011 -0.23608,-0.0301 -0.3445002,-0.0425 l -0.1971098,-0.0225 0.0725,0.0922 c 0.0931,0.11835 0.0912,0.15369 -0.013301,0.25187 -0.0723,0.0679 -0.1191101,0.0806 -0.29836,0.0806 -0.1852301,0 -0.2238402,-0.0113 -0.29996,-0.0874 -0.0635,-0.0635 -0.0812,-0.10669 -0.0649,-0.15823 0.0263,-0.0828 0.1782601,-0.16984 0.2966702,-0.16984 0.0455,0 0.091,-0.0134 0.1011099,-0.0297 0.0141,-0.0228 -0.3345799,-0.21493 -0.7177299,-0.3956 -0.012099,-0.006 -0.013901,0.0499 -0.004,0.12365 0.015801,0.11796 0.006,0.14531 -0.0829,0.22824 -0.33777,0.31553 -1.1373702,0.16734 -1.1373702,-0.21079 0,-0.0302 0.0493,-0.10413 0.10957,-0.16439 0.1785401,-0.17855 0.48762,-0.23004 0.80586,-0.13427 0.0889,0.0268 0.1674702,0.0428 0.1746602,0.0356 0.007,-0.007 -0.0309,-0.0777 -0.0846,-0.15664 -0.1208402,-0.17771 -0.1746501,-0.331 -0.1746501,-0.49752 0,-0.15054 -0.0263,-0.15863 -0.1354601,-0.0417 -0.16335,0.17501 -0.3181098,0.22853 -0.6621798,0.22899 -0.4809501,5e-4 -0.6818101,-0.1089 -0.7783002,-0.42449 -0.016801,-0.0548 -0.025601,-0.0555 -0.11679,-0.008 -0.1370798,0.0709 -0.34398,0.066 -0.4125299,-0.01 -0.0737,-0.0814 -0.0693,-0.12484 0.018899,-0.1866 0.1173401,-0.0822 0.3132201,-0.0665 0.4128199,0.0331 l 0.0848,0.0849 0.11167,-0.12638 c 0.0614,-0.0695 0.11229,-0.13761 0.1130501,-0.15132 7.673e-4,-0.0137 -0.0445,-0.0249 -0.1005001,-0.0249 -0.2004499,0 -0.30455,-0.12419 -0.16618,-0.19824 0.1634802,-0.0875 0.3926401,0.001 0.35004,0.13527 -0.024101,0.0759 -0.0362,0.0754 0.2222802,0.009 0.3957299,-0.10138 0.84827,0.0426 0.9752899,0.31015 0.0366,0.077 0.0754,0.14058 0.0863,0.14124 0.010901,5.3e-4 0.0465,-0.0577 0.0789,-0.12979 0.0654,-0.14515 0.1907601,-0.28803 0.4163099,-0.47466 l 0.1495502,-0.12458 -0.2326402,0.0195 c -0.2977398,0.025 -0.4950698,-0.0277 -0.6377598,-0.17047 -0.1315302,-0.13153 -0.1368801,-0.20075 -0.0279,-0.36129 l 0.0821,-0.12096 h -0.10897 c -0.0599,0 -0.1380001,-0.0216 -0.1734799,-0.0479 -0.1353301,-0.10049 0.0606,-0.2231 0.2718499,-0.17009 0.0605,0.0152 0.0791,0.0425 0.0791,0.11624 0,0.0951 0.00201,0.096 0.1231198,0.0624 0.1698202,-0.0469 0.4991201,-0.0193 0.6526202,0.0547 0.08,0.0386 0.1479598,0.10414 0.1820098,0.17553 0.0518,0.10859 0.051,0.12013 -0.016899,0.24404 -0.0392,0.0715 -0.0613,0.13005 -0.0492,0.13005 0.012099,0 0.1342699,-0.0365 0.2714299,-0.081 0.13715,-0.0445 0.33655,-0.0982 0.4431099,-0.11922 0.1065501,-0.021 0.1869001,-0.0451 0.1785602,-0.0534 -0.008,-0.008 -0.0806,-0.0482 -0.1605003,-0.0885 -0.3072399,-0.15501 -0.1466199,-0.40558 0.2439303,-0.38054 0.3133598,0.0201 0.43229,0.20951 0.22689,0.36136 -0.0541,0.04 -0.0906,0.0853 -0.0811,0.1007 0.01,0.0154 0.1593199,0.028 0.33293,0.028 h 0.31556 l -0.0511,-0.0729 c -0.0462,-0.0659 -0.0458,-0.0787 0.003,-0.13294 0.0626,-0.0691 0.2748105,-0.0818 0.3364905,-0.0202 0.0719,0.0719 0.0442,0.15152 -0.066,0.18995 -0.0585,0.0204 -0.092,0.0486 -0.0748,0.063 0.0171,0.0143 0.16022,0.0668 0.31799,0.11666 0.34262,0.10822 0.62106,0.28072 0.83177,0.51532 0.15074,0.16782 0.260619,0.40397 0.260619,0.56009 0,0.12647 0.0612,0.0876 0.100911,-0.0641 0.16176,-0.61755 0.50725,-1.4098 0.89267,-2.04698 0.11434,-0.18903 0.20152,-0.35006 0.19374,-0.35784 -0.008,-0.008 -0.10239,0.039 -0.21023,0.10391 -0.2632,0.1585 -0.46729,0.21617 -0.84444,0.23862 -0.2573,0.0153 -0.36811,0.006 -0.596251,-0.0521 -0.346789,-0.0877 -0.33958,-0.0879 -0.315129,0.01 0.015,0.0597 0.003,0.0896 -0.047,0.11633 -0.14041,0.0751 -0.40392,0.0232 -0.40392,-0.0796 0,-0.0725 0.13556,-0.15028 0.26203,-0.15028 h 0.11431 l -0.19648,-0.1798 -0.19648,-0.17981 -0.0461,0.0935 c -0.0629,0.12763 -0.18044,0.18301 -0.3885902,0.18301 -0.1931702,0 -0.3553301,-0.0888 -0.3726802,-0.20396 -0.0291,-0.19349 0.3844301,-0.31374 0.6328504,-0.18402 l 0.12463,0.0651 v -0.17506 c 0,-0.0963 0.01,-0.22294 0.0213,-0.28148 l 0.0213,-0.10642 -0.12881,0.069 c -0.2226402,0.11932 -0.5682101,0.0856 -0.7363304,-0.0719 -0.2008999,-0.1882 0.0409,-0.42405 0.4347401,-0.42405 0.2215503,0 0.3927103,0.0882 0.4388403,0.22623 0.0498,0.14902 0.0586,0.15063 0.20145,0.0368 0.0714,-0.0569 0.18582,-0.13217 0.25437,-0.16729 0.15328,-0.0785 0.15976,-0.12891 0.0166,-0.12908 -0.0594,-6e-5 -0.15758,-0.0304 -0.21816,-0.0673 -0.13633,-0.0831 -0.13514,-0.20765 0.003,-0.31032 0.17591,-0.13077 0.58071,-0.0685 0.64508,0.0993 0.0106,0.0276 -9.79e-4,0.0902 -0.0256,0.13931 -0.0247,0.0491 -0.0502,0.10011 -0.0567,0.11335 -0.0114,0.0232 0.52731,-0.005 0.55513,-0.0285 0.007,-0.006 -0.0143,-0.0426 -0.0485,-0.0804 -0.0475,-0.0525 -0.0538,-0.0818 -0.0268,-0.12458 0.0505,-0.0801 0.20983,-0.11792 0.32003,-0.076 0.13806,0.0526 0.15225,0.13267 0.0394,0.22263 -0.10463,0.0834 -0.10643,0.0817 0.15027,0.14756 0.50775,0.13032 0.83652,0.47565 0.78915,0.82887 -0.01,0.0733 -0.006,0.13321 0.007,0.13321 0.014,0 0.15051,-0.1533 0.30345,-0.34065 0.15294,-0.18737 0.4766,-0.54401 0.71925,-0.79253 0.24264,-0.24853 0.44116,-0.46112 0.44116,-0.47242 0,-0.0113 -0.0694,0.009 -0.15414,0.0455 -0.44902,0.19248 -1.05024,0.11793 -1.3335,-0.16533 -0.13883,-0.13883 -0.16165,-0.23792 -0.095,-0.41249 0.0717,-0.18772 0.0715,-0.18808 -0.0647,-0.15047 -0.0652,0.018 -0.16612,0.0226 -0.22434,0.0102 -0.34373,-0.073 -0.26892,-0.36405 0.0936,-0.36405 0.20101,0 0.31574,0.0753 0.31574,0.20734 0,0.0444 0.0113,0.0757 0.0251,0.0696 0.0138,-0.006 0.11847,-0.0484 0.23264,-0.094 0.11417,-0.0456 0.20758,-0.0912 0.20758,-0.10134 0,-0.0101 -0.0509,-0.0368 -0.11315,-0.0593 -0.14148,-0.0512 -0.17045,-0.12089 -0.0855,-0.20583 0.0866,-0.0866 0.29708,-0.0877 0.40269,-0.002 l 0.0785,0.0636 -0.0724,0.098 -0.0724,0.098 0.25165,0.019 c 0.56362,0.0426 0.94485,0.40175 0.77111,0.7264 -0.0198,0.0369 -0.0281,0.075 -0.0186,0.0845 0.01,0.01 0.20145,-0.13033 0.42643,-0.31086 0.22499,-0.18053 0.53331,-0.4156 0.68517,-0.52237 0.15185,-0.10678 0.26894,-0.20129 0.2602,-0.21003 -0.009,-0.009 -0.10215,0.002 -0.20758,0.0239 -0.35643,0.074 -0.73483,-0.0422 -0.83731,-0.25709 -0.0524,-0.10988 -0.0517,-0.12082 0.0164,-0.24507 l 0.0712,-0.13006 h -0.12649 c -0.0782,0 -0.156459,-0.0254 -0.204959,-0.0665 l -0.07851,-0.0665 0.0785,-0.0665 c 0.0431,-0.0366 0.12167,-0.0665 0.17448,-0.0665 0.11191,0 0.23617,0.10874 0.20804,0.18204 -0.024,0.0625 -0.004,0.0625 0.20069,4e-4 0.20511,-0.0622 0.36417,-0.0626 0.56725,-0.001 0.22253,0.067 0.34973,0.19614 0.34973,0.35511 0,0.0686 -0.015,0.13401 -0.0332,0.14531 -0.0412,0.0255 -0.0438,0.0831 -0.004,0.0831 0.0256,0 0.832781,-0.47435 1.06721,-0.62716 0.0811,-0.0529 0.0767,-0.0546 -0.19024,-0.072 -0.20492,-0.0133 -0.2964,-0.035 -0.36558,-0.0866 -0.17245,-0.12863 -0.14306,-0.3057 0.0677,-0.40772 0.17882,-0.0866 0.39426,-0.088 0.57952,-0.004 0.182811,0.083 0.23354,0.187 0.16028,0.32866 -0.0309,0.0598 -0.0392,0.10431 -0.0194,0.10431 0.0493,0 0.88871,-0.42382 0.91109,-0.46004 0.0102,-0.0166 -0.055,-0.0372 -0.14503,-0.0459 -0.43686,-0.042 -0.45541,-0.38145 -0.0228,-0.41733 0.28637,-0.0238 0.4794,0.11935 0.38896,0.28834 -0.0655,0.12239 -0.074,0.12427 0.504989,-0.11163 0.12338,-0.0503 0.22426,-0.10103 0.22416,-0.11279 -10e-5,-0.0118 -0.07,-0.0438 -0.1553,-0.0712 -0.19336,-0.0622 -0.24729,-0.13647 -0.165,-0.22741 0.16392,-0.18113 0.62107,-0.0614 0.5159,0.13514 -0.019,0.0356 -0.0263,0.073 -0.0161,0.0832 0.0215,0.0215 0.51351,-0.15007 0.58044,-0.20244 0.0354,-0.0278 0.0157,-0.0479 -0.0914,-0.0934 -0.21536,-0.0915 -0.15654,-0.23598 0.0961,-0.23598 0.16418,0 0.24372,0.0601 0.21753,0.16446 -0.0113,0.0451 -0.005,0.0772 0.0164,0.0772 0.0197,0 0.277,-0.0755 0.57178,-0.16769 1.74612,-0.54632 3.68723,-0.90547 5.77477,-1.06846 0.677,-0.0529 3.118591,-0.0537 3.822012,-0.001 2.063589,0.15373 4.049178,0.51944 5.807998,1.06973 0.294791,0.0922 0.552091,0.16769 0.571781,0.16769 0.0209,0 0.0277,-0.0322 0.0164,-0.0772 -0.02619,-0.10432 0.0534,-0.16446 0.21753,-0.16446 0.252598,0 0.31142,0.14451 0.096,0.23598 -0.10708,0.0455 -0.12682,0.0656 -0.0914,0.0934 0.0669,0.0524 0.558911,0.22396 0.580441,0.20244 0.01021,-0.0102 0.003,-0.0476 -0.01609,-0.0832 -0.103849,-0.19405 0.35148,-0.31682 0.513019,-0.13833 0.0308,0.0341 0.047,0.0856 0.0359,0.11454 -0.0232,0.0606 -0.216791,0.14929 -0.32581,0.14929 -0.049,0 -0.063,0.0112 -0.0413,0.0329 0.0402,0.0402 0.754629,0.33385 0.771409,0.31708 0.007,-0.007 -0.005,-0.0437 -0.0258,-0.0825 -0.0931,-0.17393 0.0959,-0.31745 0.38627,-0.29337 0.432599,0.0359 0.414039,0.37535 -0.02281,0.41733 -0.09,0.009 -0.155289,0.0293 -0.145039,0.0459 0.02241,0.0362 0.86174,0.46004 0.91109,0.46004 0.01979,0 0.01151,-0.0445 -0.01939,-0.10432 -0.0733,-0.14165 -0.02249,-0.24567 0.16029,-0.32865 0.450649,-0.20456 1.00262,0.14653 0.647179,0.41166 -0.0692,0.0516 -0.160658,0.0733 -0.365588,0.0866 -0.266901,0.0174 -0.27137,0.019 -0.190231,0.0719 0.234419,0.1528 1.041599,0.62715 1.0672,0.62715 0.0401,0 0.0375,-0.0576 -0.004,-0.0831 -0.01831,-0.0113 -0.0332,-0.0767 -0.0332,-0.1453 0,-0.30189 0.4788,-0.48651 0.91699,-0.35358 0.204769,0.0621 0.224661,0.0621 0.200689,-3.9e-4 -0.0281,-0.0733 0.0961,-0.18203 0.208032,-0.18203 0.0528,0 0.131328,0.0299 0.17449,0.0665 l 0.0785,0.0665 -0.0785,0.0665 c -0.0485,0.0411 -0.12677,0.0665 -0.20496,0.0665 h -0.1265 l 0.0712,0.13005 c 0.0681,0.12425 0.0688,0.1352 0.0164,0.24507 -0.102471,0.2149 -0.48087,0.33109 -0.837301,0.25709 -0.105428,-0.0219 -0.19885,-0.0327 -0.207589,-0.0239 -0.009,0.009 0.10836,0.10325 0.26021,0.21003 0.151849,0.10677 0.460182,0.34184 0.685159,0.52237 0.224991,0.18052 0.416891,0.32041 0.426443,0.31086 0.01,-0.01 0.0011,-0.0476 -0.0186,-0.0845 -0.173752,-0.32464 0.207479,-0.68377 0.77111,-0.7264 l 0.25164,-0.019 -0.0724,-0.098 -0.0724,-0.098 0.0785,-0.0636 c 0.105608,-0.0856 0.316079,-0.0845 0.402687,0.002 0.0849,0.0849 0.056,0.15468 -0.0855,0.20584 -0.0622,0.0225 -0.113149,0.0492 -0.113149,0.0593 0,0.0101 0.0934,0.0557 0.20759,0.10134 0.11417,0.0456 0.21886,0.0879 0.23264,0.094 0.01381,0.006 0.025,-0.0252 0.025,-0.0696 0,-0.132 0.114729,-0.20733 0.31573,-0.20733 0.27051,0 0.40408,0.159 0.25041,0.29808 -0.0704,0.0637 -0.288669,0.0847 -0.44,0.0423 l -0.0899,-0.0252 0.0642,0.1415 c 0.0804,0.17703 0.0813,0.25017 0.005,0.36652 -0.151138,0.22922 -0.48972,0.36791 -0.888281,0.36387 -0.208338,-0.002 -0.387379,-0.0446 -0.662447,-0.15724 -0.0366,-0.0149 0.143197,0.18838 0.39946,0.45189 0.256259,0.2635 0.597688,0.63987 0.75874,0.83637 0.161039,0.1965 0.29881,0.35727 0.306139,0.35727 0.007,0 0.004,-0.0673 -0.007,-0.14955 -0.0507,-0.37021 0.2677,-0.71254 0.786731,-0.84576 0.257,-0.066 0.255021,-0.0639 0.14755,-0.15065 -0.0814,-0.0657 -0.092,-0.0896 -0.0616,-0.1394 0.0511,-0.0837 0.20883,-0.12301 0.321429,-0.0801 0.11961,0.0455 0.14678,0.12178 0.0726,0.20373 -0.0326,0.036 -0.0531,0.0707 -0.0456,0.0772 0.0278,0.024 0.566549,0.0517 0.55513,0.0285 -0.007,-0.0133 -0.0321,-0.0642 -0.0567,-0.11335 -0.02469,-0.0491 -0.0362,-0.1118 -0.02559,-0.13932 0.0644,-0.16775 0.46917,-0.23005 0.645078,-0.0993 0.13811,0.10268 0.139311,0.22721 0.003,0.31033 -0.0606,0.0369 -0.15875,0.0672 -0.218159,0.0673 -0.143151,1.6e-4 -0.13666,0.0506 0.01659,0.12908 0.0685,0.0351 0.18301,0.11039 0.25437,0.16728 0.142809,0.11386 0.151641,0.11225 0.201449,-0.0368 0.087,-0.26033 0.63011,-0.31334 0.873572,-0.0853 0.20111,0.18839 -0.0409,0.42404 -0.435502,0.42404 -0.106529,0 -0.222728,-0.025 -0.30077,-0.0648 l -0.12718,-0.0648 0.0204,0.10223 c 0.0113,0.0562 0.0204,0.181 0.0204,0.27728 v 0.17506 l 0.124629,-0.0651 c 0.24842,-0.12973 0.66198,-0.01 0.632841,0.18401 -0.01741,0.11522 -0.179512,0.20396 -0.372681,0.20396 -0.208151,0 -0.325729,-0.0554 -0.388589,-0.183 l -0.0461,-0.0935 -0.196479,0.1798 -0.19648,0.17981 h 0.114308 c 0.126471,0 0.262041,0.0777 0.262041,0.15027 0,0.10283 -0.26352,0.15478 -0.403918,0.0796 -0.0499,-0.0267 -0.062,-0.0567 -0.047,-0.11632 0.0245,-0.0974 0.0316,-0.0972 -0.31514,-0.009 -0.228131,0.0577 -0.33895,0.0674 -0.596241,0.052 -0.377161,-0.0225 -0.58125,-0.0801 -0.84446,-0.23862 -0.107828,-0.0649 -0.20243,-0.1117 -0.210219,-0.10392 -0.008,0.008 0.0794,0.16881 0.193741,0.35785 0.385418,0.63718 0.730909,1.42942 0.89267,2.04697 0.0397,0.15172 0.100909,0.19056 0.100909,0.0641 0,-0.15612 0.109879,-0.39226 0.26063,-0.56009 0.210709,-0.23459 0.489149,-0.40709 0.831768,-0.51532 0.157771,-0.0498 0.300861,-0.10232 0.317982,-0.11665 0.0172,-0.0144 -0.01619,-0.0426 -0.0748,-0.063 -0.110231,-0.0384 -0.13792,-0.11806 -0.066,-0.18995 0.0617,-0.0617 0.273939,-0.049 0.3365,0.0202 0.0491,0.0543 0.0494,0.0671 0.003,0.13294 l -0.0511,0.0729 h 0.315648 c 0.173611,0 0.323432,-0.0126 0.33293,-0.028 0.01,-0.0154 -0.027,-0.0607 -0.0811,-0.1007 -0.205399,-0.15185 -0.0865,-0.34127 0.22688,-0.36136 0.390552,-0.025 0.55118,0.22554 0.243941,0.38054 -0.0799,0.0403 -0.152151,0.0801 -0.160499,0.0885 -0.008,0.008 0.072,0.0324 0.178559,0.0534 0.106559,0.021 0.305949,0.0747 0.443109,0.11923 0.13716,0.0445 0.260321,0.081 0.273701,0.081 0.01339,0 -0.005,-0.0486 -0.0415,-0.10802 -0.0903,-0.14816 -0.0829,-0.2357 0.0297,-0.3483 0.157581,-0.15757 0.518271,-0.22314 0.793411,-0.14423 0.103961,0.0298 0.107789,0.0275 0.107789,-0.0658 0,-0.0742 0.01839,-0.10138 0.0791,-0.11659 0.211222,-0.053 0.40718,0.0696 0.271851,0.17007 -0.0355,0.0264 -0.113551,0.0479 -0.173479,0.0479 h -0.10899 l 0.0821,0.12097 c 0.10895,0.16053 0.103592,0.22976 -0.028,0.36128 -0.1427,0.1427 -0.340029,0.19544 -0.63777,0.17048 l -0.23264,-0.0195 0.149551,0.12376 c 0.225549,0.18664 0.350858,0.32951 0.416308,0.47466 0.0325,0.0721 0.068,0.13046 0.0789,0.1298 0.0109,-5e-4 0.0498,-0.0642 0.0863,-0.14125 0.082,-0.17281 0.24852,-0.27155 0.548169,-0.3251 0.182322,-0.0326 0.250931,-0.0302 0.42713,0.0149 0.25849,0.0662 0.246372,0.0667 0.222271,-0.009 -0.0426,-0.13421 0.186571,-0.22276 0.350041,-0.13527 0.138369,0.074 0.0343,0.19823 -0.166171,0.19823 -0.056,0 -0.10127,0.0112 -0.10051,0.0249 5.29e-4,0.0137 0.0516,0.0818 0.113059,0.15132 l 0.11167,0.12639 0.0848,-0.0849 c 0.0996,-0.0996 0.295471,-0.1153 0.412819,-0.0331 0.22406,0.15694 -0.12918,0.33313 -0.393668,0.19636 -0.0912,-0.0472 -0.100031,-0.0465 -0.11679,0.008 -0.0965,0.31559 -0.297362,0.42513 -0.778311,0.42448 -0.34407,-4.5e-4 -0.49883,-0.054 -0.662181,-0.22898 -0.1109,-0.11881 -0.13534,-0.10895 -0.136189,0.0549 -5.29e-4,0.14759 -0.0816,0.359 -0.201761,0.52778 -0.0389,0.0546 -0.0646,0.10527 -0.0571,0.11268 0.007,0.007 0.0862,-0.008 0.17508,-0.0351 0.209211,-0.063 0.400211,-0.0616 0.593331,0.004 0.155278,0.0529 0.322098,0.20847 0.322098,0.30035 0,0.37264 -0.80296,0.51731 -1.13737,0.20492 -0.0888,-0.0829 -0.0987,-0.11029 -0.0829,-0.22825 0.01,-0.0737 0.008,-0.12935 -0.004,-0.12364 -0.383159,0.18066 -0.731809,0.37283 -0.717741,0.39559 0.01011,0.0163 0.0556,0.0297 0.101121,0.0297 0.0455,0 0.125839,0.0223 0.17848,0.0495 0.346171,0.17902 -0.116591,0.50351 -0.47531,0.33329 -0.156401,-0.0742 -0.183211,-0.16273 -0.0882,-0.29122 l 0.0741,-0.10027 -0.195321,0.0223 c -0.107418,0.0123 -0.261638,0.0313 -0.342699,0.0423 l -0.14738,0.02 0.0752,0.0609 c 0.0955,0.0774 0.0789,0.1684 -0.0383,0.20963 -0.11385,0.04 -0.26883,-0.009 -0.284461,-0.0904 -0.006,-0.0321 0.02331,-0.0864 0.0656,-0.12058 l 0.0768,-0.0622 -0.198882,-0.0208 c -0.74617,-0.0781 -1.378828,-0.37623 -1.649828,-0.77733 -0.132522,-0.19613 -0.12428,-0.18688 -0.146611,-0.16456 -0.0104,0.0104 -0.003,0.10559 0.01669,0.21154 0.169331,0.91598 0.0765,2.15921 -0.231701,3.10412 -0.221268,0.67832 -0.238619,0.64118 0.12767,0.27329 0.477541,-0.47963 1.02974,-0.76148 1.780672,-0.90889 0.184949,-0.0363 0.369919,-0.0729 0.411049,-0.0814 0.0914,-0.0188 0.0973,-0.069 0.0114,-0.0963 -0.0808,-0.0256 -0.114831,-0.11257 -0.0668,-0.17049 0.063,-0.0759 0.253172,-0.0939 0.346351,-0.0329 0.0952,0.0623 0.105611,0.12557 0.031,0.1875 -0.0838,0.0695 0.0021,0.0859 0.34522,0.0661 l 0.30987,-0.0179 -0.102161,-0.0976 c -0.12354,-0.11804 -0.12617,-0.15073 -0.02019,-0.25034 0.156139,-0.14668 0.566219,-0.12277 0.65228,0.038 0.0554,0.10356 5.29e-4,0.19576 -0.158732,0.26617 -0.082,0.0362 -0.142409,0.0725 -0.134318,0.0806 0.008,0.008 0.147659,0.0367 0.310179,0.0635 0.16251,0.0268 0.37774,0.0711 0.478279,0.0985 0.258501,0.0702 0.291952,0.0664 0.209352,-0.0243 -0.132202,-0.14514 -0.150781,-0.21426 -0.0913,-0.33957 0.0828,-0.17448 0.297469,-0.26591 0.619429,-0.26381 l 0.255561,0.002 -0.0186,-0.0931 c -0.0158,-0.0792 -0.005,-0.0984 0.0742,-0.12841 0.110159,-0.0419 0.25917,-0.0155 0.3189,0.0565 0.0358,0.0432 0.0303,0.0616 -0.0346,0.11418 -0.0425,0.0345 -0.113112,0.0627 -0.156781,0.0627 -0.105119,0 -0.100709,0.0176 0.0369,0.14741 0.135088,0.1274 0.148868,0.2343 0.0469,0.36392 -0.10486,0.1333 -0.251082,0.19347 -0.527661,0.21714 l -0.25042,0.0214 0.2082,0.10768 c 0.30429,0.15738 0.533699,0.31011 0.727261,0.48417 0.0941,0.0846 0.18075,0.15382 0.1926,0.15382 0.01191,0 0.01169,-0.0522 -2.64e-4,-0.1161 -0.0287,-0.15288 -2.65e-4,-0.255 0.10618,-0.38149 0.177749,-0.21125 0.65863,-0.36439 1.012568,-0.32247 0.170892,0.0202 0.227542,-0.01 0.14596,-0.0776 -0.0631,-0.0523 -0.0635,-0.1461 -0.0011,-0.19802 0.0836,-0.0694 0.296309,-0.08 0.411329,-0.0205 0.173641,0.0898 0.127709,0.22925 -0.0898,0.27277 -0.0961,0.0192 -0.18121,0.079 -0.112471,0.079 0.0159,0 0.115771,0.0523 0.222011,0.11632 0.106249,0.064 0.19697,0.11632 0.20161,0.11632 0.005,0 0.0176,-0.0455 0.0287,-0.10117 0.0414,-0.20694 0.466899,-0.26597 0.643591,-0.0893 0.210039,0.21004 -0.172821,0.41489 -0.511191,0.27351 l -0.11942,-0.0499 0.02619,0.10805 c 0.0892,0.36778 -0.107069,0.60991 -0.598181,0.7378 -0.367818,0.0958 -0.719389,0.0521 -1.089758,-0.13548 -0.0868,-0.044 -0.157871,-0.0738 -0.157871,-0.0662 0,0.008 0.0561,0.13118 0.124629,0.27475 0.113771,0.23827 0.124632,0.28563 0.124632,0.54351 0,0.15537 -0.01349,0.34232 -0.0299,0.41544 l -0.0299,0.13294 0.151241,-0.13889 c 0.306718,-0.28167 0.67872,-0.39548 1.18813,-0.36352 0.173659,0.0109 0.356838,0.0292 0.40707,0.0406 0.0868,0.0198 0.0904,0.0159 0.0714,-0.079 -0.0182,-0.0911 -0.01,-0.10321 0.095,-0.1378 0.0797,-0.0263 0.14193,-0.0277 0.202829,-0.005 0.161692,0.0615 0.081,0.23447 -0.10936,0.23447 -0.110768,0 -0.0792,0.0415 0.140221,0.18428 0.237339,0.15445 0.318921,0.28697 0.321289,0.52196 0.0011,0.0868 0.009,0.15786 0.01741,0.15786 0.009,0 0.0643,-0.0295 0.123549,-0.0655 0.23186,-0.141 0.603229,-0.10394 0.73564,0.0734 0.0558,0.0747 0.0608,0.10381 0.0295,0.17235 -0.0551,0.12102 -0.22669,0.19856 -0.439272,0.19856 -0.22574,0 -0.391199,-0.0812 -0.437769,-0.21475 -0.0414,-0.11877 -0.0702,-0.12216 -0.139509,-0.0164 -0.0292,0.0446 -0.12069,0.1276 -0.203232,0.18439 -0.0825,0.0568 -0.150058,0.11748 -0.150058,0.13489 0,0.0174 0.0728,0.0316 0.161689,0.0316 0.17989,0 0.336831,0.0929 0.336831,0.19941 0,0.22466 -0.583812,0.2797 -0.698281,0.0658 -0.0298,-0.0556 -0.02619,-0.0877 0.0173,-0.15403 0.0302,-0.0461 0.049,-0.0895 0.042,-0.0966 -0.0141,-0.0141 -0.531842,0.0852 -0.5554,0.10663 -0.008,0.007 0.0181,0.0362 0.0582,0.0642 0.04,0.028 0.0728,0.072 0.0728,0.0978 0,0.11034 -0.285258,0.15794 -0.379828,0.0634 -0.0691,-0.0692 -0.0659,-0.10487 0.01421,-0.1549 0.0964,-0.0602 0.0825,-0.0864 -0.0582,-0.10945 -0.255989,-0.042 -0.562501,-0.1491 -0.713689,-0.24925 -0.194511,-0.12884 -0.29323,-0.28508 -0.32045,-0.50715 l -0.02101,-0.17192 -0.154832,0.21701 c -0.0851,0.11936 -0.217368,0.27353 -0.29382,0.3426 -0.15426,0.13936 -0.598559,0.4377 -0.699579,0.46977 -0.0357,0.0113 -0.0648,0.0354 -0.0648,0.0536 0,0.0207 0.0833,0.0249 0.22434,0.0112 0.630999,-0.0615 1.17153,0.23132 1.17153,0.63458 0,0.10301 0.009,0.11776 0.0582,0.0968 0.18316,-0.0779 0.296,-0.0911 0.388972,-0.0456 0.0523,0.0256 0.111439,0.0737 0.131408,0.10685 0.0559,0.0928 -0.0814,0.18901 -0.26978,0.18901 -0.1235,0 -0.165489,-0.0175 -0.244099,-0.10162 -0.0939,-0.10056 -0.0954,-0.1009 -0.137959,-0.0322 -0.02371,0.0382 -0.0988,0.1082 -0.167082,0.1556 -0.0682,0.0474 -0.115949,0.0993 -0.106051,0.11529 0.01,0.016 0.0836,0.0291 0.163741,0.0291 0.19164,0 0.336042,0.11353 0.304461,0.23936 -0.061,0.24304 -0.686771,0.21192 -0.686771,-0.0341 0,-0.0507 0.0177,-0.1099 0.0393,-0.13153 0.0605,-0.0605 0.02151,-0.073 -0.123351,-0.0394 -0.0726,0.0169 -0.19557,0.031 -0.273249,0.0314 -0.15666,10e-4 -0.173709,0.0276 -0.0748,0.11711 0.103769,0.0939 0.0837,0.17896 -0.0559,0.23729 -0.137719,0.0575 -0.289849,0.0402 -0.382329,-0.0434 -0.0891,-0.0807 -0.0742,-0.1381 0.0559,-0.21485 0.0639,-0.0377 0.109072,-0.0803 0.100272,-0.0945 -0.009,-0.0142 -0.0798,-0.042 -0.157822,-0.0618 -0.194508,-0.0493 -0.4432,-0.2137 -0.50556,-0.3343 -0.10931,-0.21139 -0.0524,-0.4236 0.164341,-0.61248 0.12687,-0.11057 0.0815,-0.11158 -0.29935,-0.007 -0.16438,0.0453 -0.44844,0.0991 -0.63123,0.11954 -0.18279,0.0205 -0.384691,0.0486 -0.448662,0.0625 -0.0991,0.0216 -0.106508,0.029 -0.0499,0.0506 0.246229,0.0938 0.358198,0.16737 0.405339,0.26623 0.0442,0.0926 0.045,0.12077 0.006,0.20229 -0.0588,0.12238 -0.228161,0.23524 -0.395272,0.26348 -0.14582,0.0246 -0.166949,0.062 -0.0657,0.11619 0.176049,0.0942 -0.0265,0.26629 -0.229981,0.19536 -0.13158,-0.0459 -0.149169,-0.11339 -0.0499,-0.19149 0.0938,-0.0738 0.087,-0.0817 -0.116938,-0.13642 -0.183592,-0.0493 -0.367591,-0.2241 -0.367591,-0.34931 0,-0.11187 0.15498,-0.26322 0.32521,-0.3176 0.186391,-0.0595 0.196699,-0.0908 0.0361,-0.10944 -0.0799,-0.009 -0.317479,-0.0404 -0.527979,-0.0691 -0.503452,-0.0688 -0.494041,-0.0698 -0.38467,0.0443 0.163518,0.17068 0.0181,0.33546 -0.296121,0.33546 -0.251881,0 -0.42045,-0.12754 -0.363771,-0.27525 0.0269,-0.0701 0.21707,-0.1568 0.343861,-0.1568 0.0567,0 0.102999,-0.0123 0.102999,-0.0274 0,-0.0216 -0.619429,-0.27169 -0.67302,-0.27169 -0.007,0 -0.007,0.0432 5.29e-4,0.0961 0.01241,0.0847 5.29e-4,0.10048 -0.0991,0.13342 -0.210799,0.0696 -0.411369,-0.0637 -0.28543,-0.1896 0.02191,-0.0219 0.078,-0.0401 0.12463,-0.0404 0.192489,-10e-4 0.17104,-0.0528 -0.0934,-0.22507 -0.32417,-0.21113 -0.637461,-0.54746 -0.77856,-0.83579 -0.100053,-0.20444 -0.106781,-0.24065 -0.106781,-0.57541 0,-0.19648 -0.009,-0.35725 -0.01929,-0.35727 -0.01069,-2e-5 -0.105609,0.16073 -0.211069,0.35723 -0.8147,1.51802 -2.167771,2.88485 -4.022071,4.06297 -0.302099,0.19193 -0.536329,0.35333 -0.520528,0.35866 0.01579,0.005 0.181559,-0.0512 0.368339,-0.1256 0.971191,-0.38692 2.02923,-0.56154 3.154149,-0.52056 0.322201,0.0117 0.65973,0.0311 0.750069,0.0432 l 0.164241,0.0218 -0.0721,-0.0917 c -0.0774,-0.0985 -0.0597,-0.19023 0.0445,-0.23023 0.103619,-0.0398 0.27418,-0.0199 0.34903,0.0408 0.0954,0.0772 0.0679,0.16332 -0.0684,0.21479 -0.0548,0.0207 -0.0996,0.0482 -0.0996,0.0612 0,0.013 0.086,0.0411 0.191098,0.0624 0.105101,0.0214 0.280192,0.0592 0.389081,0.0841 0.108892,0.0249 0.20492,0.0383 0.213392,0.0299 0.008,-0.008 -0.01889,-0.0519 -0.0608,-0.0965 -0.213198,-0.22695 0.19163,-0.45135 0.546661,-0.30301 0.26384,0.11023 0.149331,0.36009 -0.185391,0.4045 -0.0922,0.0122 -0.155479,0.0327 -0.14062,0.0455 0.01479,0.0128 0.146661,0.0657 0.292891,0.11755 0.14623,0.0518 0.360741,0.1365 0.476689,0.18817 0.282181,0.12571 0.32132,0.12339 0.23749,-0.0141 -0.0925,-0.15178 -0.083,-0.21719 0.0501,-0.34265 0.0824,-0.0777 0.170889,-0.12091 0.304499,-0.14865 0.178062,-0.037 0.247221,-0.0343 0.49948,0.0193 0.0978,0.0208 0.104381,0.0168 0.0862,-0.0527 -0.037,-0.14154 0.199491,-0.22256 0.34162,-0.11702 0.0982,0.0729 0.0249,0.16411 -0.148259,0.18474 l -0.139552,0.0166 0.0848,0.11447 c 0.102159,0.13797 0.107,0.23051 0.01789,0.34372 -0.105069,0.13358 -0.31568,0.19723 -0.610028,0.18436 -0.139632,-0.006 -0.253831,-6e-5 -0.253791,0.0134 0,0.0135 0.0636,0.0638 0.141319,0.11173 0.32004,0.19764 0.506711,0.33802 0.74998,0.56402 l 0.256521,0.23832 -5.29e-4,-0.21537 c -5.29e-4,-0.21441 0,-0.21598 0.15453,-0.35585 0.196411,-0.17792 0.448881,-0.26114 0.825331,-0.27201 0.215159,-0.006 0.279241,-0.0185 0.268859,-0.0518 -0.0614,-0.19623 0.047,-0.30727 0.27379,-0.28035 0.120701,0.0143 0.25499,0.098 0.25499,0.15883 0,0.0585 -0.13625,0.16102 -0.214069,0.16102 -0.132109,0 -0.12963,0.0594 0.005,0.12496 0.0692,0.0336 0.166748,0.0882 0.216828,0.12125 0.0881,0.0581 0.0917,0.0581 0.110411,-0.002 0.0558,-0.17808 0.2046,-0.25623 0.42999,-0.22587 0.277821,0.0374 0.370531,0.20614 0.191101,0.34774 -0.0759,0.0599 -0.122441,0.0695 -0.274183,0.0569 -0.100539,-0.008 -0.208007,-0.026 -0.238839,-0.0392 -0.05,-0.0214 -0.054,-0.003 -0.037,0.16986 0.0105,0.10662 0.02191,0.19743 0.02519,0.2018 0.004,0.005 0.0687,-0.0166 0.145291,-0.0467 0.115641,-0.0454 0.161221,-0.048 0.269769,-0.0155 0.269451,0.0807 0.180192,0.30355 -0.1216,0.30355 -0.123399,0 -0.1655,-0.0175 -0.243779,-0.10129 l -0.0946,-0.10128 -0.0564,0.086 c -0.031,0.0473 -0.12134,0.1241 -0.200739,0.17064 -0.4088,0.23957 -1.010179,0.23601 -1.433161,-0.009 -0.0777,-0.0449 -0.14125,-0.0739 -0.14125,-0.0644 0,0.009 0.0747,0.15706 0.16606,0.328 0.200012,0.37431 0.298601,0.73479 0.30098,1.10033 0.0021,0.26347 0.003,0.2672 0.0581,0.18578 0.128548,-0.18964 0.35169,-0.39629 0.53054,-0.49132 0.327779,-0.17416 0.56442,-0.22143 1.096748,-0.21911 0.440992,0.002 0.47053,-0.002 0.423752,-0.0535 -0.1182,-0.13061 0.0021,-0.26636 0.235918,-0.26636 0.171302,0 0.29718,0.0891 0.26575,0.18812 -0.02159,0.0679 -0.14742,0.14423 -0.237789,0.14423 -0.104359,0 -0.036,0.0555 0.22497,0.18279 0.14994,0.0731 0.284271,0.13788 0.2985,0.14392 0.01421,0.006 0.01651,-0.0357 0.005,-0.0928 -0.0526,-0.26286 0.39737,-0.42546 0.74304,-0.26854 0.23685,0.10753 0.235818,0.32781 -0.0021,0.43581 -0.15644,0.071 -0.36023,0.0817 -0.51698,0.027 -0.0585,-0.0204 -0.113921,-0.0295 -0.12316,-0.0203 -0.009,0.009 0.0306,0.084 0.0884,0.16611 0.0672,0.0954 0.111469,0.20473 0.122521,0.30276 0.01881,0.1668 0.052,0.19226 0.109879,0.0842 0.0599,-0.11197 0.28661,-0.19504 0.53449,-0.19586 0.254061,-10e-4 0.425439,0.0598 0.524441,0.18571 0.194659,0.24748 -0.058,0.49104 -0.512069,0.49358 -0.27759,0.002 -0.460571,-0.076 -0.57105,-0.24188 l -0.0734,-0.11024 -0.0666,0.13059 c -0.0367,0.0718 -0.14215,0.19851 -0.23445,0.2815 -0.0923,0.083 -0.16783,0.15704 -0.16783,0.16455 0,0.008 0.0892,0.007 0.198191,-5e-4 0.24638,-0.0178 0.334111,0.004 0.463939,0.11274 0.122801,0.10333 0.129461,0.18891 0.02299,0.29538 -0.172569,0.17256 -0.60189,0.18073 -0.77996,0.0148 -0.0778,-0.0725 -0.0948,-0.2265 -0.032,-0.28932 0.0789,-0.0789 -0.006,-0.0767 -0.270582,0.007 -0.148889,0.0471 -0.291489,0.0855 -0.316878,0.0855 -0.0989,0 -0.0802,0.0669 0.0316,0.11362 0.0905,0.0378 0.11766,0.0684 0.11766,0.13277 0,0.19045 -0.43866,0.22668 -0.53627,0.0443 -0.0321,-0.06 -0.02469,-0.0815 0.0499,-0.14571 0.0482,-0.0414 0.0876,-0.0835 0.0876,-0.0935 0,-0.01 -0.0904,-0.0182 -0.200811,-0.0182 -0.48949,0 -1.074311,-0.20985 -1.348261,-0.48381 -0.10256,-0.10256 -0.157959,-0.19551 -0.197419,-0.33122 -0.0302,-0.10376 -0.0656,-0.17595 -0.0787,-0.16041 -0.0132,0.0155 -0.066,0.13843 -0.117459,0.27309 -0.0515,0.13466 -0.165492,0.3524 -0.253421,0.48386 -0.18388,0.27493 -0.621069,0.70802 -0.918821,0.91022 -0.183899,0.12488 -0.27401,0.20561 -0.229518,0.20561 0.009,0 0.155599,-0.0381 0.325998,-0.0846 0.37714,-0.10302 0.933842,-0.13995 1.283751,-0.0852 0.133508,0.0209 0.377999,0.0815 0.54329,0.13465 0.28244,0.0908 0.299519,0.0928 0.283649,0.032 -0.02299,-0.0879 0.0606,-0.16311 0.18116,-0.16311 0.278731,0 0.30184,0.19227 0.0276,0.23003 l -0.13961,0.0192 0.207189,0.17504 0.20719,0.17504 0.0542,-0.10811 c 0.0298,-0.0594 0.0916,-0.12679 0.137308,-0.14962 0.210262,-0.10505 0.565002,0.003 0.565002,0.17228 0,0.1578 -0.284781,0.26007 -0.51377,0.18449 -0.0672,-0.0222 -0.130659,-0.0318 -0.141071,-0.0214 -0.0104,0.0104 0.01299,0.0932 0.0521,0.18396 0.0391,0.0908 0.071,0.21835 0.071,0.28351 0,0.12775 0.0329,0.14914 0.10173,0.0662 0.0987,-0.11899 0.30806,-0.19295 0.546351,-0.19306 0.63645,-2.9e-4 0.804019,0.4961 0.224359,0.66461 -0.308359,0.0897 -0.683379,-0.0149 -0.789519,-0.22019 -0.0283,-0.0547 -0.0582,-0.0994 -0.0666,-0.0994 -0.008,0 -0.0537,0.0759 -0.100658,0.16865 -0.047,0.0928 -0.16873,0.24802 -0.270492,0.34502 l -0.185028,0.17638 0.294849,-0.0165 c 0.473929,-0.0265 0.751131,0.0881 0.84169,0.34803 0.0476,0.13671 0.0468,0.14047 -0.0552,0.26752 l -0.10355,0.12885 0.168529,0.0305 c 0.30821,0.0558 0.308692,0.25481 5.29e-4,0.27307 -0.18573,0.011 -0.292309,-0.0554 -0.263811,-0.16443 0.01831,-0.0701 -0.02469,-0.076 -0.221268,-0.0304 -0.15825,0.0367 -0.187802,0.0643 -0.113422,0.10597 0.0723,0.0405 0.0755,0.14815 0.005,0.1751 -0.20855,0.08 -0.42867,-0.0509 -0.271579,-0.16159 0.0636,-0.0448 0.0673,-0.0576 0.025,-0.0846 -0.0274,-0.0175 -0.0798,-0.0324 -0.116322,-0.033 -0.11698,-0.002 -0.3322,-0.11982 -0.428418,-0.23417 -0.0756,-0.0898 -0.0898,-0.13256 -0.0748,-0.22488 0.01021,-0.0627 0.044,-0.14212 0.0751,-0.17652 0.0311,-0.0344 0.0481,-0.071 0.0378,-0.0814 -0.01029,-0.0104 -0.143621,0.0207 -0.29614,0.069 -0.152511,0.0483 -0.40068,0.10449 -0.55149,0.1248 -0.150802,0.0203 -0.274182,0.0486 -0.274182,0.0628 0,0.0142 0.0622,0.0426 0.138192,0.0631 0.166539,0.0448 0.327099,0.19566 0.327099,0.30727 0,0.16184 -0.143981,0.27115 -0.498311,0.37835 -0.0382,0.0116 -0.0305,0.0295 0.0332,0.078 0.0677,0.0515 0.0762,0.0739 0.0463,0.12257 -0.0511,0.083 -0.254172,0.0964 -0.328962,0.0216 -0.0553,-0.0553 -0.0539,-0.0617 0.0289,-0.13289 0.0979,-0.0842 0.0898,-0.0957 -0.0912,-0.12967 -0.0705,-0.0133 -0.178861,-0.0685 -0.240699,-0.12278 -0.21304,-0.18705 -0.111882,-0.42841 0.221408,-0.52826 0.0723,-0.0217 0.13144,-0.0502 0.13144,-0.0635 0,-0.0133 -0.0952,-0.0343 -0.211569,-0.0467 -0.116361,-0.0125 -0.321439,-0.0509 -0.455721,-0.0855 -0.13427,-0.0346 -0.248909,-0.058 -0.254741,-0.0522 -0.006,0.006 0.01569,0.0563 0.0477,0.11227 0.056,0.0976 0.0559,0.1044 -0.004,0.17082 -0.0776,0.0858 -0.291841,0.14635 -0.418841,0.11845 -0.125939,-0.0276 -0.26466,-0.13931 -0.26466,-0.21302 0,-0.10341 0.12278,-0.17921 0.316251,-0.19526 0.100251,-0.008 0.18228,-0.0259 0.18228,-0.039 7.1e-5,-0.0228 -0.44423,-0.30021 -0.48082,-0.30021 -0.01,0 -0.01759,0.0281 -0.01759,0.0624 0,0.15624 -0.369912,0.16546 -0.392811,0.01 -0.0131,-0.0887 0.12529,-0.15164 0.265641,-0.12081 0.115769,0.0254 0.11728,0.003 0.009,-0.1394 -0.129479,-0.16976 -0.18116,-0.32272 -0.180358,-0.53381 0.0011,-0.25552 0.0823,-0.42418 0.31519,-0.65335 0.104449,-0.10279 0.175199,-0.1869 0.157199,-0.1869 -0.01799,0 -0.23527,0.0813 -0.48283,0.18062 -0.681432,0.27343 -1.42743,0.44453 -2.249421,0.5159 -0.226528,0.0197 -0.417039,0.041 -0.423371,0.0473 -0.006,0.006 0.122632,0.0428 0.286571,0.081 0.717071,0.16724 1.12981,0.54063 1.092671,0.98851 -0.01101,0.13206 -0.004,0.18076 0.0273,0.18076 0.02331,0 0.0504,-0.013 0.0602,-0.0289 0.0628,-0.10163 0.43235,-0.05 0.469019,0.0656 0.0606,0.19089 -0.33465,0.28087 -0.50138,0.11414 l -0.0818,-0.0818 -0.21767,0.21447 -0.21767,0.21448 0.193011,-0.0189 c 0.235318,-0.023 0.42821,0.0378 0.523208,0.16511 0.0618,0.0827 0.0632,0.0974 0.01741,0.17995 -0.109001,0.19655 -0.450771,0.26351 -0.72032,0.14114 -0.158232,-0.0718 -0.208892,-0.18454 -0.145492,-0.32369 0.0359,-0.0789 0.0334,-0.0835 -0.0373,-0.0671 -0.0418,0.01 -0.210532,0.0503 -0.375042,0.0901 -0.164521,0.0399 -0.334928,0.0795 -0.378698,0.088 -0.0965,0.0188 -0.0613,0.0571 0.0996,0.10846 0.230229,0.0735 0.348678,0.3078 0.228668,0.45239 -0.0583,0.0702 -0.27836,0.18213 -0.358169,0.18213 -0.100491,0 -0.11212,0.0397 -0.0355,0.12119 0.10138,0.10791 0.0348,0.185 -0.147868,0.17126 -0.17871,-0.0134 -0.232442,-0.0969 -0.120902,-0.18789 0.0888,-0.0724 0.0965,-0.0659 -0.157099,-0.13459 -0.14856,-0.0403 -0.309872,-0.19766 -0.309872,-0.30231 0,-0.10004 0.157113,-0.25693 0.319302,-0.31887 0.17186,-0.0656 0.150469,-0.0923 -0.103269,-0.12885 -0.0914,-0.0131 -0.275731,-0.0587 -0.409641,-0.1011 -0.213011,-0.0675 -0.240531,-0.0703 -0.22006,-0.0218 0.0815,0.19305 0.0316,0.30485 -0.17518,0.39237 -0.283081,0.1198 -0.707311,-0.0242 -0.707311,-0.24008 0,-0.17225 0.336431,-0.31745 0.614622,-0.26527 0.0641,0.012 0.116549,0.0149 0.116549,0.006 0,-0.008 -0.09,-0.10546 -0.199991,-0.21545 l -0.19998,-0.19998 -0.081,0.081 c -0.0624,0.0624 -0.11615,0.081 -0.234249,0.081 -0.196451,0 -0.281821,-0.0462 -0.281821,-0.15242 0,-0.0644 0.0272,-0.095 0.11807,-0.13295 0.119219,-0.0498 0.32924,-0.0365 0.36616,0.0232 0.0486,0.0786 0.0808,0.0104 0.0808,-0.17126 0,-0.24528 0.0718,-0.39917 0.272788,-0.58441 0.183711,-0.16934 0.445331,-0.29362 0.79275,-0.3766 0.149571,-0.0357 0.278849,-0.0719 0.287311,-0.0803 0.008,-0.008 -0.0644,-0.0233 -0.161909,-0.0331 -0.898711,-0.0896 -1.378342,-0.17382 -1.948971,-0.34219 -0.15888,-0.0469 -0.318781,-0.093 -0.355341,-0.10251 -0.0464,-0.0121 -0.02479,0.0236 0.0716,0.11829 0.172869,0.16972 0.23073,0.32737 0.17839,0.48597 -0.0498,0.15073 -0.250351,0.32783 -0.452601,0.39958 -0.31749,0.11262 -0.30289,0.0973 -0.168159,0.17676 0.19463,0.11483 0.15103,0.25655 -0.091,0.29583 -0.24883,0.0404 -0.440711,-0.13654 -0.284908,-0.2627 0.105778,-0.0857 0.0574,-0.11357 -0.24126,-0.1392 l -0.256781,-0.022 0.0565,0.0985 c 0.0536,0.0935 0.0534,0.10191 -0.005,0.16623 -0.0831,0.0918 -0.26639,0.14781 -0.401042,0.12254 -0.140999,-0.0265 -0.28371,-0.13779 -0.28371,-0.22134 0,-0.0927 0.188402,-0.19624 0.35728,-0.19639 0.0777,-6e-5 0.14124,-0.0123 0.14124,-0.0271 0,-0.0149 -0.0486,-0.0628 -0.108008,-0.10645 -0.0594,-0.0437 -0.13661,-0.11553 -0.171572,-0.1596 l -0.0636,-0.0801 -0.0441,0.0842 c -0.0888,0.1695 -0.454871,0.18838 -0.54076,0.0279 -0.096,-0.17943 0.20906,-0.27467 0.499739,-0.15599 0.0435,0.0178 0.0568,-0.007 0.0707,-0.12927 0.01029,-0.0912 0.0515,-0.1964 0.104002,-0.26517 0.172919,-0.22672 0.650539,-0.37087 1.092658,-0.32978 0.123452,0.0115 0.224462,0.0119 0.224462,10e-4 0,-0.011 -0.160782,-0.10285 -0.35728,-0.20409 -0.196501,-0.10124 -0.481621,-0.27385 -0.633601,-0.38357 -0.151979,-0.10973 -0.286689,-0.19951 -0.29936,-0.19951 -0.0127,0 -0.01789,0.0649 -0.01159,0.14415 0.01011,0.12738 -5.29e-4,0.1543 -0.0922,0.23137 -0.203067,0.17088 -0.560167,0.20397 -0.865989,0.0802 -0.16351,-0.0661 -0.186118,-0.0874 -0.21437,-0.20164 -0.0413,-0.16682 0.0205,-0.28182 0.19822,-0.36889 0.21785,-0.10675 0.530119,-0.10739 0.788861,-0.002 0.0975,0.0398 0.0659,-0.0306 -0.0997,-0.22196 -0.0868,-0.10038 -0.207618,-0.25433 -0.26843,-0.34212 l -0.110569,-0.15961 -0.0621,0.10218 c -0.0826,0.13587 -0.160628,0.17289 -0.36427,0.17289 -0.27123,0 -0.439158,-0.12348 -0.37946,-0.27904 0.0549,-0.14308 0.44746,-0.20521 0.646451,-0.10231 0.121719,0.0629 0.12247,0.0452 0.0113,-0.26807 l -0.0868,-0.24445 -0.098,0.0724 c -0.109289,0.0808 -0.325811,0.0935 -0.409549,0.024 -0.0697,-0.0578 -0.0625,-0.15736 0.01421,-0.19844 0.0936,-0.0501 0.308782,-0.0421 0.389631,0.0145 0.0697,0.0488 0.0699,0.0477 0.0848,-0.35727 0.01198,-0.32539 0.032,-0.45424 0.100488,-0.64757 0.179441,-0.5063 0.559991,-0.98998 1.106102,-1.40589 0.173368,-0.13203 0.315219,-0.24559 0.315219,-0.25236 0,-0.0185 -0.1616,0.055 -0.7644,0.34762 -2.59102,1.25798 -5.794481,2.01288 -9.214371,2.1714 -0.488969,0.0227 -0.889029,0.0533 -0.889029,0.0682 0,0.0148 0.0636,0.027 0.14124,0.0271 0.225628,2.3e-4 1.207518,0.12431 1.570349,0.19842 0.793049,0.162 1.70915,0.49152 2.293149,0.82485 0.434152,0.24779 0.458962,0.25763 0.431523,0.17116 -0.033,-0.10402 0.041,-0.1643 0.201699,-0.1643 0.11996,0 0.24756,0.06 0.24756,0.11632 0,0.0579 -0.12787,0.11632 -0.254402,0.11632 -0.0825,0 -0.144968,0.0131 -0.13888,0.029 0.0154,0.0404 0.456211,0.36986 0.494753,0.36986 0.0173,0 0.0315,-0.0366 0.0315,-0.0812 0,-0.11604 0.117362,-0.18468 0.31573,-0.18468 0.197721,0 0.31573,0.0687 0.31573,0.18382 0,0.12146 -0.16547,0.19456 -0.388321,0.17156 -0.0972,-0.01 -0.176667,-0.0106 -0.176667,-0.001 0,0.0306 0.508608,0.57646 0.537149,0.57646 0.01529,0 0.0278,-0.0348 0.0278,-0.0773 0,-0.14351 0.24203,-0.2883 0.481898,-0.2883 0.241023,0 0.481912,0.14486 0.481912,0.28981 0,0.25314 -0.485031,0.38699 -0.804222,0.22194 -0.0546,-0.0283 -0.10632,-0.0443 -0.11489,-0.0358 -0.009,0.009 0.051,0.14054 0.132432,0.29326 0.0814,0.15271 0.173199,0.35601 0.203999,0.45176 0.0691,0.21474 0.098,0.23532 0.15108,0.10731 0.1246,-0.30082 0.6149,-0.43519 1.137841,-0.31183 0.0812,0.0191 0.0914,0.0122 0.0914,-0.0622 0,-0.11246 0.165399,-0.17661 0.295079,-0.11446 0.140901,0.0675 0.114461,0.16774 -0.0541,0.20511 -0.0777,0.0172 -0.14064,0.0396 -0.139901,0.0499 7.93e-4,0.0102 0.0453,0.07 0.0991,0.13291 l 0.0978,0.11436 0.0834,-0.0784 c 0.147262,-0.13834 0.482772,-0.0927 0.482772,0.0657 0,0.14649 -0.267099,0.21124 -0.443071,0.10742 l -0.113549,-0.067 -0.0396,0.12104 c -0.0218,0.0666 -0.0475,0.14013 -0.0571,0.16347 -0.0132,0.0321 0.01389,0.0374 0.11102,0.0219 0.0996,-0.0159 0.146798,-0.006 0.2097,0.0452 0.0697,0.0564 0.0749,0.0733 0.0366,0.11937 -0.0904,0.10892 -0.36363,0.0524 -0.409321,-0.0847 -0.009,-0.0278 -0.0628,-0.0155 -0.177451,0.0408 -0.137858,0.0677 -0.212097,0.0804 -0.46328,0.0792 -0.333639,-0.002 -0.465849,-0.0441 -0.655687,-0.21079 l -0.119111,-0.10458 2.65e-4,0.42446 c 2.65e-4,0.32679 -0.01569,0.48494 -0.0696,0.68734 -0.0972,0.36542 -0.0923,0.3872 0.0547,0.24433 0.146961,-0.14279 0.417891,-0.27481 0.67264,-0.32776 0.182301,-0.0379 0.774991,-0.0242 0.922581,0.0213 0.0682,0.021 0.073,0.0145 0.0553,-0.0739 -0.0163,-0.0817 -0.006,-0.10321 0.0681,-0.1368 0.124071,-0.0565 0.19835,-0.0497 0.28839,0.0266 l 0.0785,0.0665 -0.0785,0.0665 c -0.0432,0.0366 -0.106711,0.0665 -0.14125,0.0665 -0.10504,0 -0.0713,0.051 0.111699,0.16905 0.228981,0.14765 0.217612,0.14466 0.230082,0.0605 0.0313,-0.21102 0.474779,-0.29592 0.646869,-0.12383 0.062,0.062 0.0794,0.10511 0.0631,0.15645 -0.0465,0.14638 -0.367652,0.22101 -0.56473,0.13121 -0.105402,-0.048 -0.134982,-0.0224 -0.084,0.0727 0.02151,0.0402 0.0385,0.14614 0.0378,0.23548 -7.94e-4,0.0893 0.0021,0.16241 0.005,0.16232 0.004,-7e-5 0.08,-0.0375 0.1699,-0.0831 0.18252,-0.0926 0.3664,-0.10574 0.52719,-0.0377 0.248931,0.10537 0.285279,0.29479 0.0811,0.42278 -0.0871,0.0546 -0.151569,0.0652 -0.34513,0.0566 -0.253281,-0.0112 -0.35465,-0.0645 -0.41306,-0.21726 -0.0372,-0.0973 -0.0762,-0.0945 -0.144899,0.0104 -0.0986,0.15054 -0.415322,0.32803 -0.668491,0.37467 -0.12678,0.0233 -0.267901,0.0503 -0.3136,0.06 l -0.0831,0.0175 0.0748,0.0607 c 0.0918,0.0745 0.0959,0.1527 0.0105,0.19842 -0.0977,0.0523 -0.218959,0.0413 -0.304099,-0.0276 l -0.0766,-0.062 0.0928,-0.0861 0.0928,-0.086 -0.0781,-0.0153 c -0.371761,-0.0725 -0.47244,-0.10112 -0.646851,-0.18361 -0.120261,-0.0569 -0.247988,-0.15102 -0.32168,-0.23711 -0.108191,-0.1264 -0.136359,-0.19888 -0.16755,-0.43107 -0.004,-0.0274 -0.0942,0.0847 -0.201229,0.24926 -0.345652,0.53148 -0.726519,0.90739 -1.32746,1.31018 -0.14315,0.0959 -0.25464,0.18007 -0.247761,0.18696 0.007,0.007 0.146431,-0.0246 0.310121,-0.0699 0.725009,-0.20079 1.252739,-0.17396 2.121008,0.10782 0.0506,0.0164 0.058,0.008 0.0402,-0.0484 -0.01561,-0.0492 -5.29e-4,-0.0833 0.0535,-0.12118 0.0999,-0.07 0.202142,-0.0665 0.296611,0.01 0.0663,0.0537 0.071,0.0703 0.0329,0.11632 -0.0245,0.0295 -0.0838,0.0539 -0.13186,0.0542 -0.165981,0.001 -0.189021,0.0509 -0.0632,0.13685 0.33112,0.22617 0.523211,0.50716 0.523891,0.76634 5.29e-4,0.15167 0.0388,0.1797 0.12052,0.0879 0.22293,-0.25063 0.833869,-0.25502 1.047409,-0.008 0.11123,0.12892 0.108349,0.20603 -0.0122,0.32658 -0.1373,0.1373 -0.342849,0.19815 -0.593328,0.17566 -0.236701,-0.0213 -0.382511,-0.0972 -0.46936,-0.24437 l -0.0688,-0.11658 -0.0947,0.17681 c -0.0521,0.0972 -0.179549,0.25536 -0.283308,0.35137 -0.103751,0.096 -0.18202,0.18117 -0.173932,0.18926 0.008,0.008 0.0741,10e-4 0.146712,-0.0159 0.438779,-0.10173 0.943369,0.0935 0.9994,0.38676 0.01601,0.0839 5.29e-4,0.1251 -0.0832,0.22041 -0.0566,0.0645 -0.102899,0.12644 -0.102899,0.13773 0,0.0113 0.0673,0.0205 0.149558,0.0205 0.16196,0 0.296302,0.0915 0.262742,0.179 -0.0285,0.0742 -0.199221,0.13008 -0.325321,0.10642 -0.137599,-0.0258 -0.199581,-0.0927 -0.170569,-0.18411 0.025,-0.0788 0.01249,-0.0806 -0.213892,-0.0321 -0.173728,0.0373 -0.206139,0.0722 -0.114538,0.12346 0.150498,0.0842 -0.0714,0.25397 -0.234722,0.17957 -0.0929,-0.0423 -0.113909,-0.15441 -0.0346,-0.18486 0.0883,-0.0338 0.0533,-0.0841 -0.0748,-0.10729 -0.16486,-0.0299 -0.338339,-0.1198 -0.438698,-0.22733 -0.105471,-0.11299 -0.106291,-0.27083 -0.0021,-0.4171 0.0721,-0.10128 0.0735,-0.10946 0.015,-0.0906 -0.377571,0.12165 -0.644091,0.19055 -0.84441,0.21831 -0.2624,0.0363 -0.32118,0.0631 -0.205459,0.0933 0.17036,0.0445 0.355028,0.16353 0.383738,0.24724 0.0682,0.199 -0.0359,0.32457 -0.355489,0.42877 -0.161131,0.0525 -0.166769,0.0581 -0.0971,0.0953 0.172188,0.0922 0.008,0.27545 -0.188651,0.21006 -0.11309,-0.0377 -0.12715,-0.12596 -0.0323,-0.20277 l 0.0759,-0.0615 -0.114842,-0.0248 c -0.164209,-0.0355 -0.356148,-0.13917 -0.396219,-0.21404 -0.0905,-0.16916 0.0236,-0.36124 0.259379,-0.43653 0.180501,-0.0576 0.195511,-0.0904 0.0513,-0.11186 -0.0709,-0.0105 -0.271198,-0.049 -0.44504,-0.0854 -0.39161,-0.082 -0.377579,-0.0827 -0.313399,0.0153 0.0727,0.111 0.0335,0.21313 -0.10382,0.27054 -0.275719,0.11519 -0.627099,-0.0167 -0.565081,-0.21209 0.0272,-0.0857 0.145801,-0.14634 0.33292,-0.17018 l 0.16782,-0.0214 -0.21603,-0.13964 c -0.244419,-0.158 -0.28435,-0.16786 -0.30834,-0.0761 -0.0309,0.11822 -0.334018,0.13162 -0.378108,0.0167 -0.033,-0.0861 0.0543,-0.14814 0.208619,-0.14814 0.08,0 0.145481,-0.008 0.145481,-0.0188 0,-0.0103 -0.0369,-0.0673 -0.0821,-0.12642 -0.125111,-0.16403 -0.183891,-0.33312 -0.183081,-0.52668 0.0011,-0.235 0.0899,-0.41862 0.319079,-0.65891 0.103852,-0.10888 0.179171,-0.19797 0.16736,-0.19797 -0.0118,0 -0.174858,0.0691 -0.362329,0.15344 -0.93409,0.42046 -2.006369,0.67257 -3.240611,0.76194 -0.16909,0.0122 -0.30743,0.0339 -0.30743,0.0481 0,0.0142 0.123391,0.0433 0.27419,0.0646 0.83615,0.1181 1.54096,0.53481 1.791121,1.05898 0.0983,0.20589 0.102931,0.23318 0.0845,0.4945 -0.01069,0.15212 -0.0159,0.27659 -0.01151,0.27659 0.004,0 0.0666,-0.0299 0.138348,-0.0665 0.18606,-0.0948 0.469741,-0.0904 0.61823,0.01 0.148881,0.10033 0.15915,0.26442 0.02291,0.36613 -0.21223,0.15846 -0.726149,0.0763 -0.776449,-0.12409 -0.0118,-0.047 -0.0335,-0.0855 -0.0483,-0.0855 -0.01479,0 -0.0825,0.0759 -0.150532,0.16855 -0.068,0.0927 -0.203931,0.2291 -0.30194,0.30311 -0.17426,0.13156 -0.235569,0.22216 -0.12047,0.17799 0.0318,-0.0122 0.14854,-0.0306 0.259511,-0.041 0.385249,-0.036 0.78495,0.15882 0.832019,0.4055 0.01521,0.0795 -0.003,0.12748 -0.0864,0.23265 l -0.1055,0.13246 0.172979,0.0179 c 0.176871,0.0183 0.278029,0.0935 0.2442,0.18171 -0.0271,0.0707 -0.20052,0.12557 -0.323779,0.10244 -0.137609,-0.0258 -0.199591,-0.0927 -0.170571,-0.18412 0.025,-0.0788 0.01249,-0.0806 -0.213889,-0.032 -0.173731,0.0373 -0.20614,0.0722 -0.114541,0.12345 0.150489,0.0842 -0.0714,0.25398 -0.23472,0.17956 -0.093,-0.0423 -0.113908,-0.15441 -0.0346,-0.18484 0.0883,-0.0339 0.0533,-0.0841 -0.0748,-0.1073 -0.164859,-0.0299 -0.338339,-0.1198 -0.4387,-0.22733 -0.103889,-0.11131 -0.106238,-0.27091 -0.006,-0.41161 0.0415,-0.0582 0.0623,-0.10587 0.0462,-0.10587 -0.01601,0 -0.14981,0.044 -0.297299,0.0979 -0.25513,0.0931 -0.602901,0.17296 -0.949971,0.21812 -0.174421,0.0227 -0.181491,0.0649 -0.01691,0.10108 0.180038,0.0395 0.370319,0.13464 0.470138,0.23495 0.18565,0.18658 0.190101,0.34846 0.01561,0.56765 -0.067,0.0842 -0.0857,0.12839 -0.0559,0.13245 0.237228,0.0324 0.296849,0.0536 0.33119,0.11774 0.0321,0.06 0.02641,0.0806 -0.0365,0.13151 -0.0926,0.075 -0.292549,0.0784 -0.394821,0.007 -0.0586,-0.041 -0.0716,-0.0732 -0.0556,-0.13714 0.01781,-0.0709 0.01191,-0.0799 -0.0389,-0.0593 -0.0329,0.0133 -0.145852,0.0411 -0.250949,0.0617 -0.204772,0.0401 -0.236532,0.0731 -0.114962,0.11931 0.191619,0.0729 0.194159,0.24228 0.005,0.3214 -0.138551,0.0579 -0.233141,0.0575 -0.368591,-0.002 z m -3.15383,-1.47037 c -0.0529,-0.0529 -0.0518,-0.0599 0.0179,-0.11634 0.0917,-0.0742 0.19456,-0.0766 0.29417,-0.007 0.0722,0.0506 0.0732,0.0563 0.0189,0.11634 -0.0716,0.0791 -0.254869,0.0829 -0.33096,0.007 z m 6.352549,-0.007 c -0.0543,-0.06 -0.0534,-0.0657 0.01889,-0.11634 0.0996,-0.0698 0.20251,-0.0674 0.294169,0.007 0.0697,0.0564 0.0708,0.0635 0.01791,0.11634 -0.0761,0.0761 -0.259329,0.0723 -0.33096,-0.007 z m -5.961299,-1.75008 c -0.0861,-0.0603 -0.0958,-0.15458 -0.0222,-0.21562 0.0783,-0.065 0.33398,-0.054 0.41323,0.0177 0.0925,0.0837 0.0838,0.13951 -0.0312,0.19894 -0.12571,0.065 -0.26613,0.0646 -0.35983,-10e-4 z m 5.534521,-5.3e-4 c -0.10854,-0.0589 -0.115512,-0.11505 -0.0245,-0.19741 0.0793,-0.0717 0.334939,-0.0827 0.413229,-0.0177 0.194091,0.16107 -0.143748,0.34801 -0.388739,0.2151 z m -11.309821,-0.1037 c -0.0529,-0.0529 -0.0518,-0.0599 0.0179,-0.11632 0.0917,-0.0742 0.19456,-0.0766 0.29417,-0.007 0.0722,0.0506 0.0732,0.0563 0.0189,0.11632 -0.0716,0.0791 -0.25487,0.0829 -0.33096,0.007 z m 17.12065,-0.007 c -0.0543,-0.06 -0.0534,-0.0657 0.01889,-0.11632 0.0996,-0.0698 0.202509,-0.0674 0.294171,0.007 0.0697,0.0564 0.0708,0.0635 0.01791,0.11632 -0.0761,0.0761 -0.259332,0.0723 -0.33096,-0.007 z m -17.6923,-1.06719 c -0.0859,-0.0354 -0.10005,-0.14904 -0.0222,-0.17891 0.17958,-0.0689 0.4131,0.0281 0.31016,0.12886 -0.065,0.0636 -0.19857,0.0868 -0.28795,0.0501 z m 18.382281,5.3e-4 c -0.0974,-0.0393 -0.12496,-0.0934 -0.077,-0.15124 0.0408,-0.0491 0.215982,-0.065 0.311801,-0.0282 0.0832,0.0319 0.0629,0.14369 -0.0327,0.18005 -0.0991,0.0377 -0.10737,0.0376 -0.20215,-5.3e-4 z m -17.206271,-0.86676 c -0.19594,-0.15415 -0.0516,-0.34419 0.2614,-0.34419 0.22241,0 0.34897,0.0775 0.34897,0.21357 0,0.075 -0.0231,0.11001 -0.0981,0.14878 -0.14524,0.0751 -0.40546,0.0659 -0.51231,-0.0182 z m 15.723919,0.0166 c -0.0678,-0.0368 -0.0914,-0.0749 -0.0914,-0.14746 0,-0.13589 0.126709,-0.21336 0.34897,-0.21336 0.312999,0 0.45734,0.19005 0.261389,0.34419 -0.10597,0.0834 -0.37979,0.0921 -0.518961,0.0166 z m 0.623152,-1.11746 c -0.14437,-0.0819 -0.15689,-0.22266 -0.0287,-0.32345 0.10527,-0.0828 0.261639,-0.0882 0.44382,-0.0153 0.291159,0.1165 0.168569,0.37948 -0.175971,0.37746 -0.0949,-5.3e-4 -0.202539,-0.018 -0.239099,-0.0387 z M 5.695848,283.34506 c -0.0725,-0.0422 -0.0759,-0.1496 -0.006,-0.17658 0.0926,-0.0355 0.2319099,-0.0217 0.29835,0.0297 0.0633,0.049 0.0631,0.0511 -0.013999,0.11632 -0.0855,0.0724 -0.18775,0.0836 -0.2788198,0.0306 z m 45.26955,-0.0306 c -0.077,-0.0652 -0.0773,-0.0674 -0.01389,-0.11632 0.117309,-0.0907 0.35092,-0.0559 0.35092,0.0522 0,0.13034 -0.211302,0.17054 -0.336971,0.0641 z M 5.0398081,282.2015 c -0.0964,-0.11615 0.0949,-0.22066 0.2706298,-0.14787 0.1011902,0.0419 0.1189901,0.0931 0.0547,0.15741 -0.0562,0.0562 -0.2761398,0.0497 -0.3253499,-0.01 z m 46.5350889,0.01 c -0.0643,-0.0643 -0.0465,-0.1155 0.0547,-0.15741 0.175742,-0.0728 0.36703,0.0317 0.270632,0.14787 -0.0492,0.0593 -0.26915,0.0657 -0.32535,0.01 z m -32.524219,-1.23355 c -0.0961,-0.0703 -0.054,-0.17051 0.0769,-0.18305 0.16875,-0.0162 0.26932,0.0187 0.26932,0.0933 0,0.11986 -0.22521,0.17824 -0.34623,0.0897 z m 18.550621,0.008 c -0.0854,-0.0498 -0.0733,-0.15845 0.02029,-0.18195 0.145269,-0.0365 0.302151,-0.004 0.31537,0.0661 0.02331,0.12303 -0.194371,0.19818 -0.33569,0.11586 z M 3.489128,279.32678 c -0.17044,-0.068 -0.11247,-0.19932 0.088,-0.19932 0.15057,0 0.23676,0.0779 0.16332,0.14766 -0.0672,0.0638 -0.16864,0.0847 -0.25132,0.0517 z m 49.78581,0 c -0.170429,-0.068 -0.112469,-0.19932 0.088,-0.19932 0.150569,0 0.23676,0.0779 0.16332,0.14766 -0.0672,0.0638 -0.168641,0.0847 -0.25132,0.0517 z m -50.76736,-7.32962 c -0.19237,-0.10445 -0.13542,-0.28283 0.11153,-0.34933 0.34318,-0.0924 0.68292,0.2246 0.37747,0.35222 -0.14616,0.0611 -0.37368,0.0597 -0.489,-0.003 z m 51.428659,10e-4 c -0.19626,-0.0853 -0.120128,-0.28134 0.136801,-0.35228 0.23156,-0.0639 0.51944,0.079 0.470381,0.23364 -0.0486,0.15307 -0.379301,0.21769 -0.607182,0.11864 z M 3.285398,270.66658 c -0.22289,-0.15613 0.0857,-0.35371 0.36808,-0.23571 0.13805,0.0577 0.15473,0.12283 0.0566,0.22098 -0.0819,0.0819 -0.31708,0.0901 -0.42466,0.0148 z m 49.9446,-0.0147 c -0.0981,-0.0982 -0.0815,-0.1633 0.0566,-0.22098 0.19935,-0.0833 0.441942,-0.0155 0.441942,0.12346 0,0.15578 -0.368232,0.22782 -0.498531,0.0975 z M 6.2881379,267.94132 c -0.0688,-0.0688 -0.0659,-0.1043 0.012099,-0.14601 0.0952,-0.0509 0.2870798,-0.0417 0.3350498,0.0161 0.1071102,0.12906 -0.2240298,0.25302 -0.3471098,0.12994 z m 44.0389611,-0.008 c -0.0691,-0.0764 -0.0699,-0.1258 -0.003,-0.15169 0.13013,-0.0499 0.379481,0.002 0.379481,0.0783 0,0.12627 -0.279882,0.18073 -0.377052,0.0734 z M 5.5961379,266.82767 c -0.032,-0.0186 -0.0582,-0.0628 -0.0582,-0.0981 0,-0.0741 0.1010298,-0.10892 0.26959,-0.0928 0.0874,0.008 0.1149898,0.0275 0.1232199,0.0855 0.016301,0.1146 -0.2012299,0.18311 -0.33465,0.10541 z m 45.4795591,5.1e-4 c -0.124089,-0.0498 -0.0861,-0.178 0.0568,-0.19165 0.16904,-0.0161 0.269589,0.0186 0.269589,0.0933 0,0.11423 -0.163719,0.16356 -0.326379,0.0983 z m -38.862139,-4.78183 c -0.0637,-0.0523 -0.0716,-0.0757 -0.042,-0.12463 0.0596,-0.0983 0.25917,-0.13198 0.39597,-0.0667 0.13331,0.0636 0.14198,0.0967 0.0494,0.18929 -0.0878,0.0878 -0.29764,0.0889 -0.40345,0.002 z m 32.109491,-0.002 c -0.0925,-0.0925 -0.0839,-0.12571 0.0495,-0.18929 0.136801,-0.0652 0.33641,-0.0316 0.395971,0.0667 0.0929,0.15337 -0.305089,0.26287 -0.445411,0.12255 z"
         style="fill:#ffffff;fill-opacity:1;stroke-width:0.03323485"
         inkscape:connector-curvature="0" />
      <path
         id="path7484"
         d="m 12.456218,277.24196 1.5043,3.93413 1.03767,-1.27899 c 3.40892,2.26268 8.36392,3.28665 13.33251,3.30127 4.97081,0.0146 9.95267,-1.11891 13.405901,-3.36395 l 1.022678,1.28984 1.548231,-3.91759 -4.167191,0.61392 0.937932,1.18287 c -3.194211,2.02988 -7.96917,3.1558 -12.743411,3.14175 -4.77023,-0.014 -9.51897,-1.03023 -12.669,-3.07183 l 0.95033,-1.17151 z"
         style="color:#000000;font-style:normal;font-variant:normal;font-weight:normal;font-stretch:normal;font-size:medium;line-height:normal;font-family:sans-serif;font-variant-ligatures:normal;font-variant-position:normal;font-variant-caps:normal;font-variant-numeric:normal;font-variant-alternates:normal;font-feature-settings:normal;text-indent:0;text-align:start;text-decoration:none;text-decoration-line:none;text-decoration-style:solid;text-decoration-color:#000000;letter-spacing:normal;word-spacing:normal;text-transform:none;writing-mode:lr-tb;direction:ltr;text-orientation:mixed;dominant-baseline:auto;baseline-shift:baseline;text-anchor:start;white-space:normal;shape-padding:0;clip-rule:nonzero;display:inline;overflow:visible;visibility:visible;opacity:1;isolation:auto;mix-blend-mode:normal;color-interpolation:sRGB;color-interpolation-filters:linearRGB;solid-color:#000000;solid-opacity:1;vector-effect:none;fill:#000000;fill-opacity:1;fill-rule:nonzero;stroke:none;stroke-width:0.26458332;stroke-linecap:butt;stroke-linejoin:miter;stroke-miterlimit:4;stroke-dasharray:none;stroke-dashoffset:0;stroke-opacity:1;color-rendering:auto;image-rendering:auto;shape-rendering:auto;text-rendering:auto;enable-background:accumulate"
         inkscape:connector-curvature="0" />
    </g>
  </g>
</svg>
