<?xml version="1.0" encoding="UTF-8" standalone="no"?>
<!-- Created with Inkscape (http://www.inkscape.org/) -->

<svg
   xmlns:dc="http://purl.org/dc/elements/1.1/"
   xmlns:cc="http://creativecommons.org/ns#"
   xmlns:rdf="http://www.w3.org/1999/02/22-rdf-syntax-ns#"
   xmlns:svg="http://www.w3.org/2000/svg"
   xmlns="http://www.w3.org/2000/svg"
   xmlns:sodipodi="http://sodipodi.sourceforge.net/DTD/sodipodi-0.dtd"
   xmlns:inkscape="http://www.inkscape.org/namespaces/inkscape"
   width="240"
   height="217"
   viewBox="0 0 63.499999 57.414585"
   version="1.1"
   id="svg3595"
   inkscape:version="0.92.4 (f8dce91, 2019-08-02)"
   sodipodi:docname="i3.svg">
  <defs
     id="defs3589" />
  <sodipodi:namedview
     id="base"
     pagecolor="#ffffff"
     bordercolor="#666666"
     borderopacity="1.0"
     inkscape:pageopacity="0.0"
     inkscape:pageshadow="2"
     inkscape:zoom="3.2840467"
     inkscape:cx="70.016588"
     inkscape:cy="101.5"
     inkscape:document-units="px"
     inkscape:current-layer="layer1"
     showgrid="false"
     units="px"
     inkscape:window-width="1853"
     inkscape:window-height="1025"
     inkscape:window-x="67"
     inkscape:window-y="27"
     inkscape:window-maximized="1" />
  <metadata
     id="metadata3592">
    <rdf:RDF>
      <cc:Work
         rdf:about="">
        <dc:format>image/svg+xml</dc:format>
        <dc:type
           rdf:resource="http://purl.org/dc/dcmitype/StillImage" />
        <dc:title></dc:title>
      </cc:Work>
    </rdf:RDF>
  </metadata>
  <g
     inkscape:label="Layer 1"
     inkscape:groupmode="layer"
     id="layer1"
     transform="translate(0,-239.58541)">
    <rect
       style="fill:#7f7f7f;fill-opacity:1;stroke:#7f7f7f;stroke-width:0.2655288;stroke-linejoin:miter;stroke-miterlimit:4;stroke-dasharray:none;stroke-opacity:1"
       id="rect821"
       width="63.234467"
       height="57.149055"
       x="0.1327644"
       y="239.71817"
       rx="2.6668329"
       ry="2.6650703" />
    <rect
       rx="2.6446171"
       ry="2.640502"
       y="239.98163"
       x="0.39651766"
       height="56.622219"
       width="62.707695"
       id="rect3549"
       style="fill:#7f7f7f;fill-opacity:1;stroke:#ffff96;stroke-width:0.26313758;stroke-miterlimit:4;stroke-dasharray:none;stroke-opacity:1" />
    <path
       id="path3551"
       d="m 0.26458334,281.93365 v 2.64583 6.89881 2.38125 c 0,1.46579 1.17949796,2.64583 2.64461466,2.64583 h 57.681604 c 1.465116,0 2.644614,-1.18004 2.644614,-2.64583 v -2.38125 -6.89881 -2.64583 H 60.590802 2.909198 Z"
       style="fill:#ffff96;fill-opacity:1;stroke:none;stroke-width:0.24492864;stroke-miterlimit:4;stroke-dasharray:none;stroke-opacity:1"
       inkscape:connector-curvature="0" />
    <text
       id="text3557"
       y="287.86121"
       x="31.622562"
       style="font-style:normal;font-variant:normal;font-weight:bold;font-stretch:normal;font-size:4.2813673px;line-height:1.25;font-family:sans-serif;-inkscape-font-specification:'sans-serif Bold';text-align:center;letter-spacing:0px;word-spacing:0px;text-anchor:middle;fill:#7f7f7f;fill-opacity:1;stroke:none;stroke-width:0.10703417"
       xml:space="preserve"><tspan
         id="tspan3553"
         style="font-style:normal;font-variant:normal;font-weight:bold;font-stretch:normal;font-family:sans-serif;-inkscape-font-specification:'sans-serif Bold';text-align:center;text-anchor:middle;fill:#7f7f7f;fill-opacity:1;stroke-width:0.10703417"
         y="287.86121"
         x="31.622562"
         sodipodi:role="line">drag ovals in or out</tspan><tspan
         id="tspan3555"
         style="font-style:normal;font-variant:normal;font-weight:bold;font-stretch:normal;font-family:sans-serif;-inkscape-font-specification:'sans-serif Bold';text-align:center;text-anchor:middle;fill:#7f7f7f;fill-opacity:1;stroke-width:0.10703417"
         y="293.21292"
         x="31.622561"
         sodipodi:role="line">to navigate vertically</tspan></text>
    <g
       transform="translate(-141.79242,157.39913)"
       id="g3587">
      <path
         style="fill:#ffff96;fill-opacity:1;stroke-width:0.03323485"
         d="m 173.1204,121.07688 c -0.18251,-0.0794 -0.17613,-0.24845 0.0121,-0.32001 0.12156,-0.0462 0.0898,-0.0792 -0.11496,-0.1193 -0.10511,-0.0206 -0.21803,-0.0483 -0.25095,-0.0617 -0.0508,-0.0205 -0.0567,-0.0116 -0.0389,0.0593 0.0161,0.0639 0.003,0.0961 -0.0556,0.13714 -0.10227,0.0716 -0.30223,0.0682 -0.39483,-0.007 -0.0629,-0.051 -0.0686,-0.0715 -0.0365,-0.13151 0.0344,-0.0642 0.0935,-0.0852 0.33104,-0.11774 0.0314,-0.004 0.0232,-0.0305 -0.0281,-0.0892 -0.12361,-0.14143 -0.17336,-0.26599 -0.15191,-0.38034 0.0367,-0.19579 0.30136,-0.39774 0.61003,-0.46553 0.16456,-0.0362 0.1575,-0.0784 -0.0169,-0.10108 -0.34708,-0.0452 -0.69485,-0.12501 -0.94997,-0.21812 -0.14749,-0.0538 -0.28127,-0.0979 -0.2973,-0.0979 -0.016,0 0.005,0.0476 0.0462,0.10586 0.10019,0.1407 0.0978,0.30031 -0.006,0.41162 -0.10037,0.10752 -0.27384,0.19741 -0.4387,0.22733 -0.12805,0.0232 -0.16303,0.0734 -0.0748,0.10729 0.0793,0.0305 0.0584,0.1425 -0.0346,0.18485 -0.16332,0.0744 -0.38521,-0.0953 -0.23472,-0.17956 0.0916,-0.0513 0.0592,-0.0862 -0.11454,-0.12345 -0.22641,-0.0485 -0.23888,-0.0467 -0.21389,0.032 0.029,0.0914 -0.033,0.1583 -0.17057,0.18412 -0.12326,0.0231 -0.29665,-0.0317 -0.32378,-0.10244 -0.0338,-0.0882 0.0673,-0.16344 0.24419,-0.18172 l 0.17299,-0.0179 -0.1055,-0.13246 c -0.0837,-0.10516 -0.10156,-0.15312 -0.0864,-0.23265 0.0471,-0.24667 0.44677,-0.44148 0.83202,-0.4055 0.11097,0.0103 0.22775,0.0288 0.25951,0.041 0.1151,0.0442 0.0538,-0.0464 -0.12047,-0.17798 -0.098,-0.074 -0.23389,-0.21041 -0.30194,-0.30311 -0.068,-0.0927 -0.13579,-0.16855 -0.15053,-0.16855 -0.0147,0 -0.0365,0.0385 -0.0483,0.0855 -0.0503,0.20041 -0.56421,0.28255 -0.77645,0.12408 -0.13623,-0.10171 -0.12597,-0.2658 0.0229,-0.36613 0.1485,-0.10007 0.43218,-0.10449 0.61824,-0.01 0.0717,0.0366 0.13396,0.0665 0.13835,0.0665 0.004,0 -8.2e-4,-0.12446 -0.0115,-0.27658 -0.0184,-0.26133 -0.0138,-0.28861 0.0845,-0.49451 0.25015,-0.52416 0.95496,-0.94087 1.79111,-1.05898 0.1508,-0.0213 0.27418,-0.0504 0.27418,-0.0646 0,-0.0142 -0.13834,-0.0359 -0.30742,-0.0481 -1.23606,-0.0895 -2.30633,-0.34141 -3.24428,-0.7636 -0.1895,-0.0853 -0.35126,-0.14838 -0.35945,-0.14018 -0.008,0.008 0.0603,0.0852 0.15212,0.17113 0.3872,0.3622 0.44478,0.817 0.15203,1.20083 -0.0451,0.0592 -0.0821,0.11606 -0.0821,0.12642 0,0.0103 0.0655,0.0188 0.14548,0.0188 0.15428,0 0.24166,0.062 0.20862,0.14814 -0.0441,0.1149 -0.34719,0.1015 -0.3781,-0.0167 -0.024,-0.0918 -0.0639,-0.0819 -0.30835,0.0761 l -0.21603,0.13965 0.17895,0.0227 c 0.32799,0.0417 0.44049,0.27396 0.1845,0.38092 -0.213,0.089 -0.51696,0.0252 -0.56241,-0.11795 -0.0138,-0.0436 -0.002,-0.10271 0.0308,-0.15259 0.0642,-0.098 0.0782,-0.0973 -0.3134,-0.0153 -0.17384,0.0364 -0.3741,0.0748 -0.44503,0.0854 -0.14425,0.0214 -0.12924,0.0542 0.0513,0.11187 0.23577,0.0753 0.3499,0.26736 0.25937,0.43652 -0.0401,0.0749 -0.232,0.17855 -0.39622,0.21404 l -0.11483,0.0248 0.0759,0.0615 c 0.0949,0.0768 0.0808,0.16511 -0.0323,0.20278 -0.19624,0.0654 -0.36084,-0.1179 -0.18865,-0.21006 0.0697,-0.0373 0.064,-0.0428 -0.0971,-0.0953 -0.31961,-0.1042 -0.42372,-0.22976 -0.35549,-0.42877 0.0287,-0.0837 0.21337,-0.20269 0.38374,-0.24724 0.11571,-0.0303 0.0569,-0.057 -0.20547,-0.0933 -0.20032,-0.0278 -0.46684,-0.0967 -0.8444,-0.21831 -0.0585,-0.0188 -0.0572,-0.0106 0.015,0.0906 0.10415,0.14626 0.10334,0.3041 -0.002,0.4171 -0.10037,0.10752 -0.27384,0.19741 -0.4387,0.22733 -0.13281,0.0241 -0.15812,0.064 -0.0714,0.11258 0.1505,0.0842 -0.0714,0.25397 -0.23472,0.17956 -0.093,-0.0423 -0.11391,-0.15441 -0.0346,-0.18485 0.0949,-0.0364 0.0491,-0.0823 -0.11796,-0.11817 -0.2264,-0.0485 -0.23888,-0.0467 -0.21388,0.0321 0.029,0.0914 -0.033,0.1583 -0.17057,0.18412 -0.12327,0.0231 -0.29666,-0.0318 -0.32379,-0.10244 -0.0338,-0.0882 0.0673,-0.16344 0.2442,-0.18172 l 0.17299,-0.0179 -0.10551,-0.13246 c -0.13112,-0.16462 -0.11839,-0.28518 0.0463,-0.43872 0.18973,-0.17684 0.55043,-0.25082 0.86607,-0.17765 0.0726,0.0169 0.13862,0.024 0.14671,0.0159 0.008,-0.008 -0.0702,-0.0933 -0.17393,-0.18926 -0.10376,-0.096 -0.23124,-0.25412 -0.28331,-0.35137 l -0.0947,-0.17681 -0.0688,0.11659 c -0.0868,0.1472 -0.23266,0.22312 -0.46936,0.24437 -0.25049,0.0225 -0.45603,-0.0383 -0.59333,-0.17567 -0.12055,-0.12055 -0.12343,-0.19765 -0.0122,-0.32658 0.21353,-0.24749 0.82447,-0.2431 1.04741,0.008 0.0817,0.0918 0.12011,0.0638 0.12051,-0.0879 6.6e-4,-0.25919 0.19277,-0.54018 0.52389,-0.76635 0.12586,-0.086 0.10282,-0.13587 -0.0632,-0.13684 -0.048,-2.7e-4 -0.10736,-0.0247 -0.13186,-0.0542 -0.0382,-0.046 -0.0335,-0.0626 0.0328,-0.11632 0.0945,-0.0765 0.19673,-0.0799 0.29661,-0.01 0.0541,0.0379 0.0691,0.0719 0.0535,0.12119 -0.0178,0.056 -0.0105,0.0648 0.0402,0.0484 0.86821,-0.28177 1.39615,-0.30861 2.12101,-0.10784 0.16368,0.0453 0.30239,0.0777 0.30824,0.0718 0.006,-0.006 -0.10565,-0.0902 -0.24776,-0.18755 -0.61793,-0.42309 -0.9822,-0.78348 -1.32559,-1.31148 -0.10699,-0.16451 -0.19754,-0.27667 -0.20122,-0.24926 -0.0312,0.2322 -0.0594,0.30468 -0.16755,0.43108 -0.0737,0.0861 -0.20142,0.18023 -0.32168,0.23711 -0.17441,0.0825 -0.27509,0.11106 -0.64685,0.1836 l -0.0781,0.0153 0.0928,0.0861 0.0928,0.0861 -0.0766,0.062 c -0.0851,0.0689 -0.20635,0.08 -0.3041,0.0276 -0.0854,-0.0457 -0.0813,-0.12393 0.0105,-0.19841 l 0.0748,-0.0607 -0.0831,-0.0163 c -0.0457,-0.009 -0.16274,-0.0327 -0.2601,-0.0526 -0.26299,-0.054 -0.29481,-0.0505 -0.22695,0.0245 0.0578,0.0638 0.0708,0.16327 0.0296,0.22505 -0.0863,0.12931 -0.44247,0.15616 -0.58493,0.0441 -0.13773,-0.10834 -0.11762,-0.21984 0.0537,-0.2976 0.0777,-0.0353 0.20087,-0.0644 0.27374,-0.0648 l 0.1325,-5.1e-4 -0.17039,-0.11475 c -0.0937,-0.0631 -0.20134,-0.1541 -0.23917,-0.2022 -0.0672,-0.0854 -0.13793,-0.0868 -0.13793,-0.003 0,0.0232 -0.0383,0.0781 -0.0852,0.12214 -0.12096,0.11364 -0.51142,0.13346 -0.67001,0.034 -0.20415,-0.128 -0.1678,-0.31742 0.0811,-0.42278 0.16079,-0.0681 0.34468,-0.0549 0.5272,0.0377 0.0899,0.0456 0.16551,0.083 0.16797,0.0831 0.002,7e-5 0.005,-0.0724 0.005,-0.16105 0,-0.0887 0.0179,-0.19463 0.0398,-0.2355 0.0516,-0.0964 0.0224,-0.12221 -0.0834,-0.074 -0.19708,0.0898 -0.51828,0.0152 -0.56474,-0.13121 -0.0163,-0.0513 0.001,-0.0944 0.0631,-0.15645 0.17209,-0.17209 0.61561,-0.0872 0.64688,0.12383 0.0125,0.0841 0.001,0.0871 0.23008,-0.0605 0.18302,-0.11802 0.21674,-0.16905 0.1117,-0.16905 -0.0345,0 -0.0981,-0.0299 -0.14125,-0.0665 l -0.0785,-0.0665 0.0785,-0.0665 c 0.09,-0.0763 0.16432,-0.0831 0.28839,-0.0266 0.0737,0.0336 0.0844,0.0551 0.0681,0.13681 -0.0177,0.0884 -0.0128,0.0949 0.0553,0.0739 0.14758,-0.0455 0.74028,-0.0592 0.92258,-0.0213 0.25475,0.053 0.52568,0.18497 0.67263,0.32777 0.14705,0.14289 0.15193,0.12102 0.0546,-0.24434 -0.0536,-0.20123 -0.0701,-0.36224 -0.0705,-0.68651 l -5e-4,-0.42361 -0.11815,0.10373 c -0.18886,0.16583 -0.32149,0.20836 -0.65474,0.20996 -0.25117,0.001 -0.32542,-0.0115 -0.46328,-0.0792 -0.11461,-0.0563 -0.16818,-0.0686 -0.17745,-0.0408 -0.0457,0.13707 -0.31893,0.19361 -0.40932,0.0847 -0.0382,-0.0461 -0.0331,-0.0629 0.0366,-0.11937 0.0629,-0.0509 0.11006,-0.0611 0.2097,-0.0452 0.0971,0.0155 0.12426,0.0102 0.11103,-0.0219 -0.01,-0.0234 -0.0353,-0.0969 -0.0571,-0.16347 l -0.0396,-0.12104 -0.11356,0.067 c -0.17597,0.10382 -0.44307,0.0391 -0.44307,-0.10742 0,-0.15788 0.33547,-0.20404 0.48206,-0.0663 l 0.0827,0.0777 0.11296,-0.1303 0.11296,-0.13032 -0.13538,-0.0242 c -0.15752,-0.0282 -0.20681,-0.0669 -0.17865,-0.14024 0.0581,-0.1513 0.38747,-0.11846 0.38747,0.0386 0,0.0744 0.0102,0.0813 0.0914,0.0622 0.52293,-0.12336 1.01323,0.011 1.13784,0.31182 0.053,0.12801 0.082,0.10743 0.15107,-0.1073 0.0308,-0.0957 0.1226,-0.29905 0.204,-0.45177 0.0814,-0.15272 0.141,-0.28468 0.13243,-0.29325 -0.009,-0.009 -0.0603,0.008 -0.11489,0.0358 -0.2263,0.11702 -0.53234,0.0961 -0.71679,-0.0489 -0.22409,-0.17628 0.0201,-0.46278 0.39448,-0.46278 0.23988,0 0.48191,0.14479 0.48191,0.2883 0,0.0425 0.0125,0.0773 0.0278,0.0773 0.0285,0 0.53715,-0.54584 0.53715,-0.57646 0,-0.009 -0.0795,-0.009 -0.17668,10e-4 -0.22285,0.023 -0.38832,-0.0501 -0.38832,-0.17157 0,-0.11512 0.11801,-0.18382 0.31573,-0.18382 0.19837,0 0.31574,0.0687 0.31574,0.18468 0,0.0446 0.0141,0.0812 0.0313,0.0812 0.0447,0 0.45779,-0.30752 0.47989,-0.35728 0.0132,-0.0297 -0.0231,-0.0415 -0.12768,-0.0415 -0.12287,0 -0.25059,-0.0593 -0.25059,-0.11632 0,-0.0503 0.12525,-0.11633 0.22058,-0.11633 0.17174,0 0.2549,0.0546 0.2306,0.15137 -0.0249,0.099 -0.0144,0.0952 0.4296,-0.15823 0.584,-0.33332 1.5001,-0.66284 2.29314,-0.82484 0.36284,-0.0741 1.34473,-0.19818 1.57035,-0.19842 0.0777,-7e-5 0.14125,-0.0124 0.14125,-0.0273 0,-0.0149 -0.40469,-0.0457 -0.89931,-0.0683 -3.47077,-0.15874 -6.8069,-0.96252 -9.40902,-2.26691 -0.39845,-0.19974 -0.55947,-0.27182 -0.55947,-0.25044 0,0.006 0.14185,0.11906 0.31522,0.25109 0.54611,0.4159 0.92666,0.89959 1.1061,1.40589 0.0685,0.19333 0.0885,0.32218 0.10049,0.64757 0.0149,0.40498 0.0152,0.40607 0.0848,0.35727 0.0808,-0.0566 0.29599,-0.0647 0.38963,-0.0145 0.0768,0.0411 0.0839,0.14061 0.0142,0.19844 -0.0837,0.0695 -0.30026,0.0568 -0.40955,-0.024 l -0.098,-0.0724 -0.0868,0.24445 c -0.1112,0.31322 -0.11045,0.33102 0.0113,0.26807 0.20464,-0.10582 0.60092,-0.0383 0.64813,0.11043 0.0496,0.15615 -0.1119,0.27092 -0.38114,0.27092 -0.20364,0 -0.28165,-0.037 -0.36427,-0.17289 l -0.0621,-0.10218 -0.11057,0.15961 c -0.0608,0.0878 -0.1816,0.24174 -0.26843,0.34212 -0.16556,0.1914 -0.19719,0.26182 -0.0997,0.22196 0.25874,-0.10578 0.57101,-0.10514 0.78886,0.002 0.17769,0.0871 0.23948,0.20207 0.19822,0.3689 -0.0282,0.11422 -0.0509,0.13549 -0.21437,0.20163 -0.30582,0.12373 -0.66291,0.0906 -0.86599,-0.0802 -0.0916,-0.0771 -0.10232,-0.10399 -0.0922,-0.23136 0.006,-0.0793 0.001,-0.14415 -0.0116,-0.14415 -0.0127,0 -0.14737,0.0898 -0.29935,0.1995 -0.15198,0.10973 -0.4371,0.28233 -0.6336,0.38356 -0.19651,0.10125 -0.35728,0.19309 -0.35728,0.20411 0,0.011 0.10101,0.0106 0.22446,-0.001 0.44211,-0.0411 0.91973,0.10307 1.09266,0.32978 0.0524,0.0688 0.0937,0.174 0.104,0.26518 0.0138,0.12259 0.0272,0.14703 0.0707,0.12926 0.15138,-0.0618 0.24533,-0.0736 0.35171,-0.0442 0.21709,0.0599 0.21752,0.22371 7.7e-4,0.29524 -0.1517,0.0501 -0.33247,-0.006 -0.39351,-0.12289 l -0.0441,-0.0842 -0.0636,0.0801 c -0.035,0.0441 -0.11217,0.11589 -0.17157,0.1596 -0.0594,0.0437 -0.10802,0.0916 -0.10802,0.10644 0,0.0148 0.0636,0.027 0.14125,0.0271 0.16888,1.3e-4 0.35728,0.1037 0.35728,0.19638 0,0.0836 -0.14271,0.1949 -0.28371,0.22135 -0.13465,0.0252 -0.31798,-0.0308 -0.40104,-0.12254 -0.0582,-0.0643 -0.0585,-0.0728 -0.005,-0.16624 l 0.0565,-0.0985 -0.25678,0.022 c -0.29867,0.0256 -0.34704,0.0535 -0.24126,0.13919 0.1558,0.12616 -0.0361,0.30308 -0.28491,0.2627 -0.24204,-0.0393 -0.28563,-0.181 -0.091,-0.29582 0.13473,-0.0795 0.14933,-0.0641 -0.16816,-0.17677 -0.20225,-0.0717 -0.40285,-0.24885 -0.4526,-0.39957 -0.0523,-0.15861 0.005,-0.31626 0.17839,-0.48598 0.0964,-0.0947 0.11802,-0.13035 0.0716,-0.11828 -0.0366,0.01 -0.19646,0.0556 -0.35534,0.1025 -0.57063,0.16837 -1.05026,0.25258 -1.94897,0.34219 -0.0975,0.01 -0.17037,0.0246 -0.16191,0.0331 0.008,0.008 0.13774,0.0446 0.2873,0.0803 0.3442,0.0822 0.58315,0.19509 0.78026,0.36859 0.20937,0.1843 0.28529,0.34195 0.28529,0.59242 0,0.18161 0.0322,0.24986 0.0808,0.17127 0.0369,-0.0597 0.24694,-0.0731 0.36616,-0.0232 0.0909,0.038 0.11807,0.0686 0.11807,0.13295 0,0.10625 -0.0854,0.15243 -0.28182,0.15243 -0.1181,0 -0.17183,-0.0186 -0.23425,-0.081 l -0.081,-0.081 -0.19999,0.19998 c -0.10999,0.11 -0.19998,0.20694 -0.19998,0.21545 0,0.008 0.0524,0.006 0.11654,-0.006 0.27819,-0.0522 0.61463,0.093 0.61463,0.26527 0,0.2159 -0.42423,0.35989 -0.70731,0.24008 -0.20676,-0.0875 -0.25668,-0.19932 -0.17519,-0.39237 0.0205,-0.0485 -0.007,-0.0458 -0.22006,0.0218 -0.1339,0.0425 -0.31823,0.088 -0.40963,0.10111 -0.25375,0.0365 -0.27514,0.0632 -0.10328,0.12884 0.16219,0.0619 0.31931,0.21884 0.31931,0.31886 0,0.10466 -0.16131,0.26203 -0.30988,0.30231 -0.25362,0.0688 -0.24592,0.0622 -0.15709,0.1346 0.11153,0.091 0.0578,0.17446 -0.1209,0.18789 -0.18271,0.0137 -0.24926,-0.0633 -0.14788,-0.17126 0.0766,-0.0815 0.065,-0.12119 -0.0355,-0.12119 -0.0798,0 -0.2999,-0.11192 -0.35817,-0.18213 -0.12,-0.1446 -0.001,-0.37891 0.22867,-0.45238 0.16092,-0.0514 0.19613,-0.0897 0.0996,-0.10846 -0.0438,-0.008 -0.21418,-0.0481 -0.37869,-0.088 -0.16452,-0.0399 -0.33329,-0.0805 -0.37505,-0.0902 -0.0707,-0.0164 -0.0733,-0.0118 -0.0373,0.0671 0.0634,0.13915 0.0127,0.25188 -0.14548,0.3237 -0.26956,0.12237 -0.61133,0.0554 -0.72033,-0.14114 -0.0458,-0.0825 -0.0443,-0.0972 0.0174,-0.17996 0.095,-0.12725 0.28789,-0.18812 0.52321,-0.16511 l 0.19301,0.0189 -0.21767,-0.21448 -0.21767,-0.21448 -0.0819,0.0818 c -0.16691,0.16691 -0.56197,0.0767 -0.50129,-0.11444 0.0403,-0.127 0.2805,-0.15245 0.51898,-0.055 0.0453,0.0185 0.0506,-0.004 0.0376,-0.16068 -0.0373,-0.44944 0.37444,-0.82249 1.09255,-0.98997 0.16394,-0.0382 0.29295,-0.0746 0.28669,-0.0809 -0.006,-0.006 -0.18992,-0.0268 -0.40812,-0.0457 -0.83593,-0.0722 -1.57502,-0.24049 -2.25374,-0.51305 -0.25364,-0.10185 -0.47588,-0.18518 -0.49387,-0.18518 -0.018,0 0.0528,0.0841 0.15719,0.1869 0.23286,0.22917 0.31423,0.39782 0.3152,0.65334 8.2e-4,0.2111 -0.0509,0.36406 -0.18036,0.53382 -0.10814,0.14177 -0.10662,0.16482 0.009,0.13939 0.14035,-0.0308 0.2787,0.0321 0.26564,0.12081 -0.0229,0.15568 -0.39281,0.14646 -0.39281,-0.01 0,-0.0344 -0.008,-0.0624 -0.0176,-0.0624 -0.0366,0 -0.48089,0.27737 -0.48089,0.30021 0,0.0132 0.082,0.0307 0.18228,0.039 0.19347,0.016 0.31624,0.0918 0.31624,0.19525 0,0.0737 -0.13871,0.18537 -0.26465,0.21302 -0.12701,0.0279 -0.34122,-0.0327 -0.41884,-0.11845 -0.0601,-0.0664 -0.0603,-0.0732 -0.004,-0.17082 0.0321,-0.0559 0.0541,-0.1052 0.049,-0.10953 -0.005,-0.004 -0.12151,0.0191 -0.25861,0.0521 -0.13709,0.033 -0.34273,0.0702 -0.45698,0.0827 -0.11424,0.0125 -0.20771,0.0336 -0.20771,0.0469 0,0.0133 0.0592,0.0418 0.13144,0.0635 0.33329,0.0999 0.43445,0.34121 0.22141,0.52826 -0.0618,0.0543 -0.17016,0.10955 -0.2407,0.12279 -0.18093,0.0339 -0.18905,0.0455 -0.0912,0.12967 0.0828,0.0712 0.0842,0.0776 0.0288,0.13289 -0.0748,0.0748 -0.27793,0.0614 -0.32896,-0.0216 -0.0299,-0.0486 -0.0214,-0.0711 0.0463,-0.12257 0.0643,-0.0489 0.0717,-0.0666 0.0332,-0.0792 -0.0273,-0.009 -0.1061,-0.0335 -0.17511,-0.0548 -0.18782,-0.0578 -0.3232,-0.18527 -0.3232,-0.3043 0,-0.13062 0.14708,-0.27695 0.3271,-0.32542 0.076,-0.0205 0.13819,-0.0488 0.13819,-0.0631 0,-0.0142 -0.12339,-0.0426 -0.27419,-0.0628 -0.1508,-0.0203 -0.39897,-0.0765 -0.55149,-0.1248 -0.15251,-0.0483 -0.28577,-0.0794 -0.29614,-0.069 -0.0104,0.0104 0.007,0.047 0.0378,0.0814 0.0311,0.0344 0.0649,0.11384 0.0751,0.17652 0.015,0.0923 7.7e-4,0.13505 -0.0748,0.22488 -0.0962,0.11435 -0.31143,0.23198 -0.42841,0.23417 -0.0366,5.1e-4 -0.0889,0.0156 -0.11633,0.033 -0.0423,0.027 -0.0385,0.0398 0.025,0.0845 0.1571,0.11065 -0.063,0.24162 -0.27158,0.16159 -0.0702,-0.0269 -0.067,-0.13466 0.005,-0.17509 0.0744,-0.0416 0.0448,-0.0692 -0.11341,-0.10598 -0.1966,-0.0456 -0.23961,-0.0397 -0.22128,0.0304 0.0285,0.10902 -0.0781,0.17545 -0.26381,0.16443 -0.30802,-0.0183 -0.30754,-0.21728 6.6e-4,-0.27306 l 0.16854,-0.0305 -0.10356,-0.12886 c -0.10209,-0.12704 -0.10287,-0.1308 -0.0552,-0.26752 0.0906,-0.25994 0.36777,-0.37456 0.84169,-0.34802 l 0.29485,0.0165 -0.18502,-0.17638 c -0.10177,-0.097 -0.22349,-0.25227 -0.27049,-0.34502 -0.047,-0.0928 -0.0923,-0.16865 -0.10066,-0.16865 -0.008,0 -0.0383,0.0447 -0.0666,0.0994 -0.16775,0.32438 -0.93019,0.32989 -1.12028,0.008 -0.0506,-0.0857 -0.0508,-0.10228 -0.002,-0.20204 0.14907,-0.30779 0.86527,-0.34505 1.10398,-0.0574 0.0688,0.0829 0.10172,0.0616 0.10172,-0.0662 0,-0.0652 0.032,-0.19274 0.071,-0.28351 0.0391,-0.0908 0.0625,-0.17355 0.0521,-0.18396 -0.0104,-0.0104 -0.0739,-0.001 -0.14107,0.0214 -0.35316,0.11655 -0.68654,-0.15881 -0.40575,-0.33515 0.21714,-0.13636 0.58359,-0.0367 0.59862,0.16276 0.003,0.0397 0.0157,0.0722 0.0283,0.0722 0.0126,0 0.11583,-0.0785 0.22942,-0.17448 l 0.20654,-0.17449 -0.13962,-0.0192 c -0.1874,-0.0258 -0.2596,-0.12956 -0.13615,-0.19563 0.16204,-0.0867 0.38003,-0.005 0.34497,0.12871 -0.0159,0.0607 0.001,0.0588 0.28364,-0.032 0.42276,-0.13596 0.72325,-0.17598 1.15165,-0.1534 0.32133,0.017 0.75589,0.10493 1.03028,0.20861 0.0836,0.0316 -0.0681,-0.0974 -0.29808,-0.25353 -0.23807,-0.16161 -0.66772,-0.58163 -0.83212,-0.81345 -0.1588,-0.22394 -0.28602,-0.46677 -0.34824,-0.6647 -0.0641,-0.20387 -0.0891,-0.20494 -0.14681,-0.006 -0.0372,0.12804 -0.0965,0.22761 -0.19695,0.331 -0.26999,0.2778 -0.8541,0.48957 -1.35033,0.48957 -0.11045,0 -0.20082,0.008 -0.20082,0.0182 0,0.01 0.0394,0.0521 0.0876,0.0935 0.0746,0.0642 0.082,0.0858 0.0499,0.14572 -0.0976,0.18238 -0.53626,0.14615 -0.53626,-0.0443 0,-0.0643 0.0271,-0.095 0.11766,-0.13278 0.11188,-0.0467 0.13051,-0.11362 0.0316,-0.11362 -0.0254,0 -0.16799,-0.0385 -0.31688,-0.0855 -0.26486,-0.0837 -0.34944,-0.0858 -0.27058,-0.007 0.0216,0.0216 0.0393,0.0786 0.0393,0.12659 0,0.28429 -0.6091,0.39011 -0.85131,0.1479 -0.10646,-0.10646 -0.0998,-0.19204 0.023,-0.29537 0.12983,-0.10925 0.21756,-0.13057 0.46394,-0.11274 0.10901,0.008 0.1982,0.008 0.1982,5.1e-4 0,-0.008 -0.0755,-0.0816 -0.16783,-0.16455 -0.0923,-0.083 -0.19781,-0.20967 -0.23446,-0.2815 l -0.0666,-0.1306 -0.0734,0.11024 c -0.11048,0.16593 -0.29347,0.24344 -0.57105,0.24188 -0.45405,-0.003 -0.70673,-0.2461 -0.51207,-0.49358 0.099,-0.12586 0.27039,-0.18654 0.52444,-0.1857 0.24789,0.001 0.47457,0.0839 0.5345,0.19585 0.0576,0.10755 0.091,0.0828 0.10949,-0.0809 0.01,-0.0882 0.0563,-0.20791 0.11234,-0.29017 0.0525,-0.077 0.10709,-0.15849 0.12137,-0.18107 0.019,-0.03 -0.0112,-0.028 -0.1122,0.008 -0.18702,0.066 -0.38388,0.0602 -0.55236,-0.0163 -0.23684,-0.10751 -0.23581,-0.3278 0.002,-0.4358 0.34571,-0.15697 0.79259,0.0115 0.73916,0.27867 -0.0104,0.052 -0.007,0.0896 0.007,0.0836 0.0142,-0.006 0.14856,-0.0708 0.2985,-0.14392 0.26098,-0.12726 0.32933,-0.18279 0.22497,-0.18279 -0.0904,0 -0.21625,-0.0764 -0.23779,-0.14423 -0.0314,-0.099 0.0944,-0.18812 0.26575,-0.18812 0.23388,0 0.35412,0.13575 0.23592,0.26636 -0.0468,0.0517 -0.0172,0.0554 0.42374,0.0535 0.51482,-0.002 0.75466,0.0427 1.06458,0.19982 0.19411,0.0984 0.42684,0.30575 0.53091,0.47309 l 0.075,0.12061 0.0205,-0.34897 c 0.0241,-0.40867 0.1195,-0.72648 0.32552,-1.0838 0.0747,-0.12959 0.13585,-0.24598 0.13585,-0.25863 0,-0.0127 -0.0636,0.0137 -0.14125,0.0587 -0.42298,0.2445 -1.02436,0.24806 -1.43316,0.008 -0.0794,-0.0465 -0.16974,-0.12332 -0.20075,-0.17064 l -0.0564,-0.086 -0.0946,0.10129 c -0.0783,0.0838 -0.12038,0.10129 -0.24377,0.10129 -0.30179,0 -0.39105,-0.22282 -0.1216,-0.30355 0.10855,-0.0325 0.15412,-0.0299 0.26977,0.0155 0.0765,0.0301 0.14191,0.0511 0.14528,0.0467 0.003,-0.005 0.0147,-0.0952 0.0252,-0.2018 0.017,-0.17309 0.0131,-0.19128 -0.037,-0.16986 -0.0308,0.0132 -0.1383,0.0308 -0.23883,0.0392 -0.15174,0.0126 -0.19832,0.003 -0.27419,-0.0569 -0.19955,-0.15748 -0.0587,-0.34742 0.25757,-0.34742 0.21044,0 0.34897,0.0785 0.34897,0.1978 0,0.0997 0.0207,0.10168 0.14955,0.0142 0.0548,-0.0372 0.14939,-0.0891 0.21011,-0.11541 0.12146,-0.0525 0.11455,-0.11559 -0.0127,-0.11559 -0.0778,0 -0.21406,-0.10249 -0.21406,-0.16102 0,-0.0608 0.13429,-0.1445 0.25499,-0.15883 0.22673,-0.0269 0.33517,0.0841 0.27379,0.28035 -0.0104,0.0332 0.0537,0.0456 0.26886,0.0518 0.37644,0.0109 0.62891,0.0941 0.82533,0.27202 0.15441,0.13987 0.15509,0.14143 0.15452,0.35584 l -5.6e-4,0.21537 0.25652,-0.23831 c 0.24327,-0.226 0.42994,-0.36639 0.74998,-0.56402 0.0777,-0.048 0.14125,-0.0986 0.14125,-0.11238 0,-0.0138 -0.11309,-0.0195 -0.25131,-0.0125 -0.2919,0.0147 -0.50648,-0.05 -0.61244,-0.18467 -0.0891,-0.11321 -0.0842,-0.20575 0.0179,-0.34372 l 0.0848,-0.11447 -0.13955,-0.0166 c -0.17321,-0.0206 -0.24642,-0.11185 -0.14826,-0.18474 0.13967,-0.10371 0.37867,-0.0247 0.34259,0.1133 -0.0217,0.083 -0.0169,0.0838 0.20261,0.0331 0.31996,-0.0738 0.73052,0.0778 0.78365,0.28945 0.0149,0.0596 6.1e-4,0.12371 -0.0448,0.20072 -0.0799,0.13551 -0.038,0.14916 0.15664,0.051 0.0678,-0.0342 0.28034,-0.11907 0.47227,-0.18861 0.19193,-0.0695 0.36112,-0.13671 0.37598,-0.14928 0.0149,-0.0126 -0.0484,-0.0329 -0.14063,-0.0451 -0.33471,-0.0444 -0.44922,-0.29426 -0.18538,-0.4045 0.35502,-0.14834 0.75986,0.0761 0.54665,0.30301 -0.0419,0.0446 -0.0693,0.088 -0.0608,0.0965 0.008,0.008 0.1045,-0.005 0.21339,-0.0299 0.10889,-0.0249 0.28398,-0.0628 0.38908,-0.0841 0.10511,-0.0213 0.1911,-0.0494 0.1911,-0.0624 0,-0.013 -0.0448,-0.0405 -0.0996,-0.0612 -0.13634,-0.0515 -0.16376,-0.13757 -0.0684,-0.21479 0.12597,-0.102 0.39787,-0.0702 0.44477,0.052 0.0103,0.0268 -0.0133,0.0893 -0.0523,0.13891 l -0.071,0.0902 0.16424,-0.0218 c 0.0903,-0.012 0.42786,-0.0314 0.75007,-0.0432 1.12492,-0.041 2.18296,0.13363 3.15415,0.52055 0.18678,0.0744 0.35253,0.13093 0.36833,0.1256 0.0158,-0.005 -0.21843,-0.16673 -0.52052,-0.35866 -1.8543,-1.17811 -3.20737,-2.54494 -4.02207,-4.06297 -0.10546,-0.19649 -0.20044,-0.35727 -0.21108,-0.35727 -0.0106,0 -0.0193,0.16078 -0.0193,0.35727 0,0.3348 -0.007,0.37101 -0.10677,0.57545 -0.1411,0.28833 -0.4544,0.62466 -0.77856,0.83579 -0.26448,0.17227 -0.28592,0.22392 -0.0934,0.22507 0.0984,5.2e-4 0.16451,0.0559 0.16451,0.13752 0,0.0851 -0.19161,0.13972 -0.326,0.0929 -0.0873,-0.0304 -0.10605,-0.0545 -0.10605,-0.13619 0,-0.0546 -0.0112,-0.0942 -0.025,-0.0881 -0.0137,0.006 -0.16329,0.0617 -0.33235,0.12363 -0.31796,0.11644 -0.38231,0.16994 -0.20439,0.16994 0.0566,0 0.15331,0.0239 0.2148,0.0531 0.27497,0.13048 0.12107,0.37899 -0.23471,0.37899 -0.31417,0 -0.45964,-0.16479 -0.29612,-0.33546 0.10937,-0.11416 0.11878,-0.11308 -0.38467,-0.0443 -0.2105,0.0288 -0.44809,0.0598 -0.52798,0.0691 -0.16062,0.0186 -0.15031,0.0499 0.0361,0.10944 0.17023,0.0544 0.32521,0.20573 0.32521,0.31759 0,0.12522 -0.184,0.30007 -0.36759,0.34932 -0.20393,0.0547 -0.21073,0.0626 -0.11694,0.13642 0.0993,0.0781 0.0817,0.14562 -0.0499,0.19148 -0.20346,0.0709 -0.40603,-0.10114 -0.22998,-0.19535 0.10125,-0.0542 0.0801,-0.0916 -0.0657,-0.11619 -0.16046,-0.0271 -0.33059,-0.13673 -0.39766,-0.25621 -0.0444,-0.0791 -0.0439,-0.10042 0.005,-0.20278 0.0507,-0.10622 0.15653,-0.17697 0.40858,-0.27301 0.0566,-0.0216 0.0493,-0.0291 -0.0499,-0.0506 -0.064,-0.0139 -0.26587,-0.042 -0.44867,-0.0625 -0.18279,-0.0205 -0.46684,-0.0743 -0.63122,-0.11954 -0.38087,-0.10492 -0.42622,-0.10391 -0.29935,0.007 0.21671,0.18888 0.27365,0.4011 0.16434,0.61248 -0.0624,0.1206 -0.31106,0.28504 -0.50556,0.3343 -0.078,0.0198 -0.14902,0.0476 -0.15782,0.0618 -0.009,0.0142 0.0363,0.0568 0.10027,0.0945 0.13008,0.0768 0.14504,0.13422 0.0559,0.21486 -0.0925,0.0837 -0.24461,0.10097 -0.38233,0.0434 -0.13961,-0.0583 -0.15963,-0.14339 -0.0558,-0.2373 0.0989,-0.0895 0.0819,-0.11623 -0.0748,-0.11711 -0.0777,-4.4e-4 -0.20065,-0.0145 -0.27325,-0.0314 -0.14477,-0.0336 -0.18383,-0.0211 -0.12335,0.0394 0.0216,0.0216 0.0393,0.0808 0.0393,0.13153 0,0.24607 -0.62577,0.27719 -0.68677,0.0341 -0.0316,-0.12584 0.11282,-0.23936 0.30446,-0.23936 0.0802,0 0.15384,-0.0131 0.16374,-0.0291 0.01,-0.016 -0.0378,-0.0679 -0.10605,-0.1153 -0.0682,-0.0474 -0.14341,-0.11742 -0.16708,-0.1556 -0.0426,-0.0687 -0.044,-0.0683 -0.13796,0.0322 -0.0786,0.0841 -0.12059,0.10163 -0.2441,0.10163 -0.18835,0 -0.32569,-0.0962 -0.26978,-0.18901 0.02,-0.0331 0.0791,-0.0812 0.1314,-0.10685 0.0923,-0.0453 0.20734,-0.0321 0.38458,0.0439 0.0445,0.0191 0.0566,-0.006 0.0701,-0.14654 0.0123,-0.12783 0.04,-0.19452 0.11242,-0.27084 0.21383,-0.22523 0.64154,-0.35224 1.05163,-0.31229 0.14104,0.0137 0.22433,0.01 0.22433,-0.0112 0,-0.0182 -0.0292,-0.0423 -0.0649,-0.0536 -0.10102,-0.032 -0.54531,-0.33041 -0.69957,-0.46977 -0.0765,-0.0691 -0.20867,-0.22324 -0.29383,-0.3426 l -0.15482,-0.21701 -0.0211,0.17192 c -0.0272,0.22207 -0.12594,0.37831 -0.32045,0.50715 -0.15119,0.10014 -0.4577,0.20719 -0.71369,0.24924 -0.14064,0.0231 -0.15454,0.0493 -0.0582,0.10946 0.0801,0.05 0.0834,0.0858 0.0142,0.15489 -0.0946,0.0946 -0.37982,0.047 -0.37982,-0.0634 0,-0.0258 0.0327,-0.0697 0.0728,-0.0978 0.04,-0.0281 0.0662,-0.0569 0.0582,-0.0642 -0.0236,-0.0214 -0.54126,-0.12077 -0.55541,-0.10662 -0.007,0.007 0.0118,0.0506 0.042,0.0966 0.10725,0.16368 -0.042,0.28761 -0.34636,0.28761 -0.17769,0 -0.33466,-0.0935 -0.33466,-0.19941 0,-0.1065 0.15694,-0.19941 0.33683,-0.19941 0.0889,0 0.16169,-0.0142 0.16169,-0.0316 0,-0.0174 -0.0662,-0.0772 -0.14703,-0.13281 -0.0809,-0.0556 -0.1765,-0.13861 -0.21251,-0.18438 -0.0828,-0.10532 -0.0919,-0.10434 -0.13326,0.0143 -0.0973,0.27909 -0.75175,0.29117 -0.87704,0.0162 -0.0312,-0.0685 -0.0262,-0.0976 0.0296,-0.17234 0.13241,-0.17736 0.50378,-0.21442 0.73564,-0.0734 0.0593,0.0361 0.11485,0.0655 0.12355,0.0655 0.009,0 0.0165,-0.071 0.0174,-0.15787 0.002,-0.23499 0.084,-0.36751 0.32129,-0.52196 0.21943,-0.1428 0.25099,-0.18428 0.14022,-0.18428 -0.19038,0 -0.27105,-0.17299 -0.10935,-0.23447 0.0609,-0.0231 0.12317,-0.0218 0.20282,0.005 0.10482,0.0346 0.11319,0.0468 0.095,0.13781 -0.019,0.0949 -0.0155,0.0988 0.0714,0.079 0.0502,-0.0115 0.23341,-0.0297 0.40707,-0.0406 0.50937,-0.0319 0.8812,0.0818 1.18827,0.36351 l 0.15137,0.13889 -0.0228,-0.0997 c -0.0506,-0.22121 -0.0612,-0.55074 -0.0227,-0.70464 0.022,-0.0877 0.0837,-0.24591 0.13729,-0.35156 0.0536,-0.10566 0.0973,-0.19934 0.0973,-0.2082 0,-0.009 -0.086,0.0271 -0.1911,0.0799 -0.3427,0.1722 -0.69881,0.21238 -1.05653,0.11923 -0.4911,-0.12788 -0.68741,-0.37001 -0.59817,-0.737786 l 0.0262,-0.108059 -0.11942,0.04992 c -0.14942,0.06243 -0.2907,0.06343 -0.43515,0.0031 -0.15354,-0.06415 -0.18264,-0.169992 -0.076,-0.276591 0.17668,-0.176678 0.6022,-0.117644 0.64358,0.08929 0.0111,0.05565 0.024,0.101172 0.0287,0.101172 0.005,0 0.0954,-0.05234 0.20161,-0.116323 0.10625,-0.06397 0.20615,-0.116317 0.22202,-0.116317 0.0687,0 -0.0164,-0.05977 -0.11247,-0.07899 -0.21756,-0.04352 -0.2635,-0.182976 -0.0898,-0.272772 0.11501,-0.05948 0.32774,-0.0489 0.41133,0.02048 0.063,0.05228 0.062,0.145789 -0.002,0.198992 -0.0279,0.02314 -0.0433,0.04936 -0.0344,0.05835 0.009,0.009 0.15514,0.01971 0.32484,0.02381 0.62499,0.01521 1.02942,0.292632 0.97762,0.670549 -0.0108,0.07916 -0.011,0.143955 -3.3e-4,0.143955 0.0107,0 0.0964,-0.0692 0.19046,-0.153826 0.19356,-0.174062 0.42297,-0.326788 0.72726,-0.484169 l 0.2082,-0.10768 -0.25041,-0.0214 c -0.27659,-0.02365 -0.42282,-0.08384 -0.52767,-0.217142 -0.10196,-0.129614 -0.0882,-0.236511 0.0469,-0.363918 0.13762,-0.129799 0.14203,-0.147407 0.0369,-0.147407 -0.0437,0 -0.11423,-0.02821 -0.15679,-0.06266 -0.0649,-0.05256 -0.0705,-0.07097 -0.0346,-0.114183 0.0597,-0.07197 0.20874,-0.09836 0.31891,-0.05647 0.079,0.03005 0.0901,0.0492 0.0742,0.128416 l -0.0186,0.0931 0.25556,-0.0015 c 0.54498,-0.0036 0.8129,0.301428 0.53004,0.603373 -0.0847,0.09047 -0.0507,0.09447 0.20742,0.02432 0.10054,-0.02734 0.31576,-0.07163 0.47828,-0.09845 0.16252,-0.02683 0.3021,-0.05539 0.31018,-0.06348 0.008,-0.0081 -0.0524,-0.04434 -0.13432,-0.08062 -0.15917,-0.07041 -0.21415,-0.162613 -0.15873,-0.266171 0.0861,-0.160801 0.49614,-0.184712 0.65228,-0.03804 0.10602,0.09959 0.10338,0.132287 -0.0202,0.25033 l -0.10216,0.09761 0.30988,0.01792 c 0.34332,0.01987 0.42899,0.0036 0.34521,-0.06605 -0.0746,-0.06193 -0.0642,-0.125139 0.031,-0.187497 0.0932,-0.06105 0.28338,-0.04301 0.34635,0.03287 0.0481,0.05791 0.014,0.144842 -0.0668,0.170483 -0.0859,0.02729 -0.08,0.07743 0.0114,0.09626 0.0411,0.0085 0.2261,0.04511 0.41105,0.08142 0.73883,0.145026 1.3021,0.429737 1.76583,0.892571 0.16908,0.16876 0.30742,0.29442 0.30742,0.27924 0,-0.0152 -0.0598,-0.20979 -0.13295,-0.432479 -0.34244,-1.042818 -0.4412,-2.247492 -0.26321,-3.21034 0.03,-0.162158 0.0238,-0.263325 -0.013,-0.214106 -0.006,0.0076 -0.0664,0.09177 -0.1348,0.187015 -0.0684,0.09524 -0.18179,0.218586 -0.25188,0.274093 -0.28988,0.229594 -0.86439,0.43178 -1.38049,0.485832 l -0.19888,0.02084 0.0769,0.06223 c 0.0423,0.03425 0.0718,0.08849 0.0656,0.120578 -0.0156,0.08117 -0.17062,0.130413 -0.28446,0.09037 -0.11723,-0.04122 -0.13387,-0.132256 -0.0383,-0.209626 l 0.0752,-0.0609 -0.14738,-0.01997 c -0.0811,-0.01101 -0.23609,-0.03011 -0.34451,-0.0425 l -0.19711,-0.02253 0.0725,0.09215 c 0.0931,0.118355 0.0912,0.153689 -0.0133,0.251876 -0.0723,0.06794 -0.11911,0.08057 -0.29836,0.08057 -0.18523,0 -0.22384,-0.01126 -0.29996,-0.08736 -0.0635,-0.06354 -0.0812,-0.106692 -0.0649,-0.15823 0.0263,-0.08284 0.17826,-0.169843 0.29667,-0.169843 0.0455,0 0.091,-0.01336 0.10111,-0.0297 0.0141,-0.02279 -0.33458,-0.21493 -0.71773,-0.395597 -0.0121,-0.0057 -0.0139,0.04992 -0.004,0.123645 0.0158,0.117961 0.006,0.145312 -0.0829,0.228247 -0.33777,0.315529 -1.13738,0.167334 -1.13738,-0.210793 0,-0.03016 0.0493,-0.104132 0.10958,-0.164395 0.17854,-0.178542 0.48762,-0.230039 0.80586,-0.134263 0.0889,0.02678 0.16747,0.04275 0.17466,0.03558 0.007,-0.0072 -0.0309,-0.07768 -0.0846,-0.156648 -0.12084,-0.177702 -0.17465,-0.330992 -0.17465,-0.497512 0,-0.150545 -0.0263,-0.158629 -0.13546,-0.04168 -0.16335,0.175004 -0.31811,0.228524 -0.66218,0.228985 -0.48095,5.12e-4 -0.68181,-0.108899 -0.7783,-0.424484 -0.0168,-0.05484 -0.0256,-0.05546 -0.11679,-0.0083 -0.13708,0.07088 -0.34398,0.06599 -0.41253,-0.0098 -0.0737,-0.08143 -0.0693,-0.124843 0.0189,-0.186601 0.11734,-0.08219 0.31322,-0.06648 0.41282,0.03313 l 0.0848,0.08485 0.11167,-0.126384 c 0.0614,-0.06951 0.11229,-0.137607 0.11305,-0.151318 7.7e-4,-0.01372 -0.0445,-0.02493 -0.1005,-0.02493 -0.20045,0 -0.30455,-0.124187 -0.16618,-0.198239 0.16348,-0.08749 0.39264,10e-4 0.35004,0.135272 -0.0241,0.07592 -0.0362,0.07541 0.22228,0.0092 0.39573,-0.101382 0.84827,0.04255 0.97529,0.310143 0.0366,0.07702 0.0754,0.140587 0.0863,0.141247 0.0109,5.12e-4 0.0465,-0.05774 0.0789,-0.129799 0.0655,-0.145143 0.19076,-0.288024 0.41631,-0.474659 l 0.14955,-0.123757 -0.23264,0.01951 c -0.29774,0.02499 -0.49507,-0.02775 -0.63776,-0.170467 -0.13153,-0.131529 -0.13688,-0.200753 -0.0279,-0.361292 l 0.0821,-0.120962 h -0.10913 c -0.0599,0 -0.138,-0.02156 -0.17348,-0.04792 -0.13533,-0.100492 0.0606,-0.223097 0.27185,-0.170084 0.0605,0.01521 0.0791,0.04245 0.0791,0.116236 0,0.09514 0.002,0.09595 0.12312,0.0624 0.16982,-0.0469 0.49912,-0.0193 0.65262,0.05472 0.08,0.03855 0.14796,0.104137 0.18201,0.175531 0.0518,0.108592 0.051,0.120127 -0.0169,0.244038 -0.0392,0.07153 -0.0613,0.130055 -0.0492,0.130055 0.0121,0 0.13427,-0.03645 0.27143,-0.08096 0.13715,-0.04454 0.33655,-0.09818 0.44311,-0.119226 0.10655,-0.02104 0.18691,-0.04511 0.17856,-0.05344 -0.008,-0.0083 -0.0806,-0.04818 -0.1605,-0.08849 -0.30724,-0.155005 -0.14661,-0.40558 0.24394,-0.380543 0.31335,0.02007 0.43228,0.209513 0.22688,0.361369 -0.0541,0.03999 -0.0906,0.08532 -0.0811,0.100696 0.01,0.01536 0.15932,0.02795 0.33293,0.02795 h 0.31556 l -0.0511,-0.0729 c -0.0461,-0.06589 -0.0458,-0.07868 0.003,-0.132937 0.0626,-0.06913 0.27481,-0.08184 0.33649,-0.02017 0.0719,0.07189 0.0442,0.151518 -0.066,0.189945 -0.0585,0.02043 -0.092,0.04859 -0.0748,0.06298 0.0171,0.01434 0.16022,0.06683 0.31799,0.116661 0.34262,0.108218 0.62106,0.280723 0.83177,0.515318 0.15074,0.167825 0.26063,0.403973 0.26063,0.560089 0,0.126475 0.0612,0.08764 0.1009,-0.06408 0.16176,-0.617551 0.50725,-1.409793 0.89267,-2.046974 0.11434,-0.189033 0.20152,-0.350059 0.19374,-0.357847 -0.008,-0.0078 -0.10238,0.03896 -0.21022,0.103917 -0.26321,0.158497 -0.4673,0.216169 -0.84445,0.238621 -0.25729,0.01531 -0.36811,0.0056 -0.59625,-0.05205 -0.34679,-0.0877 -0.33958,-0.08792 -0.31513,0.0095 0.015,0.05966 0.003,0.08962 -0.047,0.116323 -0.1404,0.07514 -0.40392,0.02319 -0.40392,-0.07964 0,-0.07253 0.13557,-0.150274 0.26204,-0.150274 h 0.1143 l -0.19648,-0.179807 -0.19648,-0.179806 -0.0461,0.09352 c -0.0629,0.127633 -0.18043,0.183006 -0.38859,0.183006 -0.19317,0 -0.35533,-0.08875 -0.37268,-0.203957 -0.0291,-0.193488 0.38443,-0.313742 0.63285,-0.184021 l 0.12463,0.06508 v -0.175055 c 0,-0.09628 0.01,-0.222943 0.0213,-0.281481 l 0.0213,-0.106426 -0.12881,0.06904 c -0.22263,0.119323 -0.5682,0.08558 -0.73632,-0.07191 -0.20091,-0.188198 0.0409,-0.424043 0.43473,-0.424043 0.22156,0 0.39271,0.08823 0.43884,0.226224 0.0498,0.149025 0.0586,0.150638 0.20145,0.03676 0.0714,-0.05689 0.18582,-0.132169 0.25437,-0.167282 0.15328,-0.07851 0.15977,-0.128918 0.0166,-0.129082 -0.0594,-6.7e-5 -0.15758,-0.03036 -0.21816,-0.06728 -0.13633,-0.08312 -0.13514,-0.207654 0.003,-0.310322 0.17592,-0.130766 0.58071,-0.06847 0.64508,0.09928 0.0106,0.02755 -9.7e-4,0.09021 -0.0256,0.139311 -0.0247,0.0491 -0.0502,0.100113 -0.0567,0.113353 -0.0114,0.02319 0.52731,-0.0046 0.55513,-0.02852 0.008,-0.0065 -0.0143,-0.04265 -0.0485,-0.0804 -0.0475,-0.05247 -0.0538,-0.08179 -0.0268,-0.124586 0.0505,-0.0801 0.20983,-0.117915 0.32003,-0.07596 0.13806,0.05256 0.15225,0.132671 0.0394,0.22263 -0.10463,0.08343 -0.10642,0.08167 0.15027,0.14756 0.50775,0.130326 0.83653,0.475649 0.78915,0.828872 -0.01,0.07327 -0.006,0.133214 0.008,0.133214 0.014,0 0.15051,-0.1533 0.30345,-0.340659 0.15295,-0.187363 0.47661,-0.544001 0.71925,-0.792529 0.24264,-0.248528 0.44117,-0.461113 0.44117,-0.472413 0,-0.01131 -0.0694,0.0092 -0.15414,0.04552 -0.44903,0.192473 -1.05025,0.11793 -1.33351,-0.165332 -0.13883,-0.138831 -0.16164,-0.237919 -0.095,-0.412488 0.0717,-0.187722 0.0715,-0.188085 -0.0647,-0.150473 -0.0652,0.01797 -0.16612,0.02263 -0.22433,0.01024 -0.34373,-0.07301 -0.26893,-0.364047 0.0936,-0.364047 0.201,0 0.31573,0.07534 0.31573,0.207332 0,0.04439 0.0113,0.07572 0.0251,0.06962 0.0138,-0.0061 0.11847,-0.04838 0.23264,-0.09399 0.11417,-0.04562 0.20759,-0.0912 0.20759,-0.101336 0,-0.01014 -0.0509,-0.03681 -0.11316,-0.05934 -0.14148,-0.05115 -0.17044,-0.12089 -0.0855,-0.205832 0.0866,-0.08662 0.29708,-0.08773 0.4027,-0.002 l 0.0785,0.06359 -0.0724,0.09797 -0.0724,0.09797 0.25164,0.01905 c 0.56363,0.04265 0.94486,0.401751 0.77111,0.726399 -0.0198,0.03692 -0.0281,0.07495 -0.0186,0.0845 0.01,0.0096 0.20145,-0.130331 0.42644,-0.310859 0.22499,-0.180528 0.53331,-0.415595 0.68516,-0.522369 0.15185,-0.106779 0.26895,-0.20129 0.26021,-0.21003 -0.009,-0.0088 -0.10215,0.002 -0.20759,0.02391 -0.35642,0.074 -0.73482,-0.04219 -0.8373,-0.257088 -0.0524,-0.109877 -0.0517,-0.120818 0.0164,-0.245072 l 0.0712,-0.130055 h -0.1265 c -0.0782,0 -0.15646,-0.0254 -0.20496,-0.06647 l -0.0785,-0.06647 0.0785,-0.06647 c 0.0432,-0.03656 0.12168,-0.06647 0.17449,-0.06647 0.1119,0 0.23616,0.108734 0.20803,0.182038 -0.024,0.06248 -0.004,0.06252 0.20069,3.95e-4 0.20511,-0.06222 0.36418,-0.06265 0.56725,-0.0015 0.22253,0.06697 0.34974,0.196139 0.34974,0.355117 0,0.06862 -0.015,0.134007 -0.0332,0.145302 -0.0412,0.02545 -0.0437,0.08309 -0.004,0.08309 0.0256,0 0.83278,-0.474348 1.0672,-0.627156 0.0811,-0.05289 0.0767,-0.05457 -0.19023,-0.07195 -0.20493,-0.01331 -0.2964,-0.03502 -0.36558,-0.08661 -0.17245,-0.128631 -0.14307,-0.305704 0.0677,-0.407716 0.17881,-0.08657 0.39426,-0.08802 0.57951,-0.0041 0.18282,0.08298 0.23354,0.186995 0.16029,0.328652 -0.0309,0.05979 -0.0392,0.104311 -0.0194,0.104311 0.0494,0 0.8887,-0.423813 0.91109,-0.460038 0.0102,-0.01659 -0.055,-0.03722 -0.14504,-0.04588 -0.43685,-0.04198 -0.45541,-0.381454 -0.0228,-0.417331 0.28638,-0.02376 0.47941,0.119349 0.38896,0.288342 -0.0655,0.122379 -0.074,0.124264 0.50499,-0.111638 0.12339,-0.05028 0.22426,-0.101029 0.22417,-0.112795 -1e-4,-0.01178 -0.07,-0.04383 -0.1553,-0.07124 -0.19337,-0.06215 -0.2473,-0.13647 -0.165,-0.227407 0.16391,-0.181127 0.62107,-0.06137 0.5159,0.135139 -0.0191,0.03558 -0.0263,0.07305 -0.0161,0.08324 0.0215,0.0215 0.51351,-0.150069 0.58044,-0.202443 0.0354,-0.02775 0.0157,-0.04787 -0.0914,-0.09337 -0.21536,-0.09147 -0.15654,-0.235974 0.0961,-0.235974 0.16417,0 0.24372,0.06014 0.21753,0.164462 -0.0113,0.04506 -0.005,0.07725 0.0164,0.07725 0.0197,0 0.277,-0.07546 0.57178,-0.167692 1.74612,-0.546321 3.68723,-0.905468 5.77477,-1.06846 0.677,-0.05286 3.11859,-0.05367 3.82201,-10e-4 2.06359,0.153725 4.04918,0.519436 5.808,1.06973 0.29479,0.09223 0.55209,0.167692 0.57178,0.167692 0.0209,0 0.0277,-0.03221 0.0164,-0.07725 -0.0262,-0.104327 0.0534,-0.164462 0.21753,-0.164462 0.2526,0 0.31142,0.144504 0.096,0.235974 -0.10708,0.04547 -0.12682,0.06564 -0.0914,0.09337 0.0669,0.05237 0.55891,0.223967 0.58044,0.202442 0.0102,-0.01019 0.003,-0.04762 -0.0161,-0.08324 -0.10385,-0.194051 0.35148,-0.31682 0.51302,-0.138324 0.0308,0.03405 0.047,0.08561 0.0359,0.114531 -0.0232,0.06062 -0.21679,0.149295 -0.32581,0.149295 -0.049,0 -0.063,0.01116 -0.0413,0.03292 0.0402,0.04019 0.75463,0.333854 0.77141,0.317076 0.007,-0.0066 -0.005,-0.04373 -0.0258,-0.08254 -0.0931,-0.173928 0.0959,-0.317449 0.38627,-0.293369 0.4326,0.03589 0.41404,0.375357 -0.0228,0.417331 -0.09,0.0087 -0.15529,0.02929 -0.14504,0.04588 0.0224,0.03625 0.86174,0.460037 0.91109,0.460037 0.0198,0 0.0115,-0.04449 -0.0194,-0.104311 -0.0733,-0.141656 -0.0225,-0.24567 0.16029,-0.328651 0.45065,-0.204562 1.00262,0.146526 0.64718,0.411653 -0.0692,0.0516 -0.16066,0.07327 -0.36559,0.08661 -0.2669,0.01736 -0.27137,0.01905 -0.19023,0.07195 0.23442,0.152808 1.0416,0.627156 1.0672,0.627156 0.0401,0 0.0375,-0.05763 -0.004,-0.08309 -0.0183,-0.01131 -0.0332,-0.07668 -0.0332,-0.145302 0,-0.30189 0.4788,-0.486509 0.91699,-0.353582 0.20477,0.06212 0.22466,0.06208 0.20069,-3.94e-4 -0.0281,-0.07331 0.0961,-0.182039 0.20803,-0.182039 0.0528,0 0.13133,0.0299 0.17449,0.06647 l 0.0785,0.06647 -0.0785,0.06647 c -0.0485,0.04106 -0.12677,0.06647 -0.20496,0.06647 h -0.1265 l 0.0712,0.130055 c 0.0681,0.124248 0.0688,0.135195 0.0164,0.245072 -0.10247,0.214894 -0.48087,0.331083 -0.8373,0.257088 -0.10543,-0.02191 -0.19885,-0.03267 -0.20759,-0.02391 -0.009,0.0088 0.10836,0.103252 0.26021,0.210025 0.15185,0.106779 0.46018,0.341847 0.68516,0.522375 0.22499,0.180523 0.41689,0.320413 0.42644,0.310859 0.01,-0.0096 0.001,-0.04756 -0.0186,-0.0845 -0.17375,-0.324643 0.20748,-0.683764 0.77111,-0.726394 l 0.25164,-0.01905 -0.0724,-0.09797 -0.0724,-0.09797 0.0785,-0.06359 c 0.10561,-0.0856 0.31608,-0.08449 0.40269,0.002 0.0849,0.08495 0.056,0.154677 -0.0855,0.205837 -0.0622,0.02248 -0.11315,0.0492 -0.11315,0.05934 0,0.01014 0.0934,0.05573 0.20759,0.101336 0.11417,0.04562 0.21886,0.0879 0.23264,0.09399 0.0138,0.0061 0.025,-0.02524 0.025,-0.06963 0,-0.131996 0.11473,-0.207327 0.31573,-0.207327 0.27051,0 0.40408,0.159003 0.25041,0.29808 -0.0704,0.06372 -0.28867,0.08471 -0.44,0.04234 l -0.0899,-0.02519 0.0642,0.141503 c 0.0804,0.177026 0.0813,0.250166 0.005,0.366515 -0.15114,0.229225 -0.48972,0.367912 -0.88828,0.363867 -0.20834,-0.002 -0.38738,-0.0446 -0.66245,-0.157232 -0.0366,-0.01495 0.1432,0.188377 0.39946,0.451881 0.25626,0.263504 0.59769,0.63987 0.75874,0.836373 0.16104,0.196503 0.29881,0.357273 0.30614,0.357273 0.007,0 0.004,-0.0673 -0.007,-0.149552 -0.0507,-0.370206 0.2677,-0.712544 0.78673,-0.845763 0.257,-0.06597 0.25502,-0.06394 0.14755,-0.150642 -0.0814,-0.06566 -0.092,-0.08958 -0.0616,-0.139404 0.0511,-0.08367 0.20883,-0.12301 0.32143,-0.08014 0.11961,0.04552 0.14678,0.121776 0.0726,0.203728 -0.0326,0.03599 -0.0531,0.07074 -0.0456,0.07722 0.0278,0.02401 0.56655,0.05169 0.55513,0.02852 -0.007,-0.01326 -0.0321,-0.06425 -0.0567,-0.113353 -0.0247,-0.0491 -0.0362,-0.111791 -0.0256,-0.139312 0.0644,-0.167748 0.46917,-0.230049 0.64508,-0.09929 0.13811,0.102673 0.13931,0.227208 0.003,0.310327 -0.0606,0.03692 -0.15875,0.06721 -0.21816,0.06728 -0.14315,1.64e-4 -0.13666,0.05059 0.0166,0.129082 0.0685,0.03512 0.18301,0.110388 0.25437,0.167277 0.14281,0.11386 0.15164,0.112252 0.20145,-0.03676 0.087,-0.260324 0.63011,-0.313343 0.87357,-0.08528 0.20111,0.188393 -0.0409,0.424044 -0.4355,0.424044 -0.10653,0 -0.22273,-0.02504 -0.30077,-0.06484 l -0.12718,-0.06484 0.0204,0.102227 c 0.0113,0.05622 0.0204,0.181005 0.0204,0.277282 v 0.175055 l 0.12463,-0.06508 c 0.24842,-0.129722 0.66198,-0.0095 0.63284,0.184015 -0.0174,0.115217 -0.17951,0.203963 -0.37268,0.203963 -0.20815,0 -0.32573,-0.05537 -0.38859,-0.183006 l -0.0461,-0.09352 -0.19648,0.179806 -0.19648,0.179806 h 0.11431 c 0.12647,0 0.26204,0.07774 0.26204,0.150269 0,0.102826 -0.26352,0.154785 -0.40392,0.07964 -0.0499,-0.02673 -0.062,-0.05666 -0.047,-0.116323 0.0245,-0.09741 0.0316,-0.09719 -0.31514,-0.0095 -0.22813,0.05769 -0.33895,0.06737 -0.59624,0.05205 -0.37716,-0.02248 -0.58125,-0.08012 -0.84446,-0.23862 -0.10783,-0.06494 -0.20243,-0.111699 -0.21022,-0.103917 -0.008,0.0078 0.0794,0.168814 0.19374,0.357846 0.38542,0.637182 0.73091,1.429423 0.89267,2.046975 0.0397,0.151717 0.10091,0.190558 0.10091,0.06408 0,-0.156116 0.10988,-0.392258 0.26063,-0.560088 0.21071,-0.23459 0.48915,-0.407096 0.83177,-0.515318 0.15777,-0.04982 0.30086,-0.102325 0.31798,-0.116656 0.0172,-0.01439 -0.0162,-0.0426 -0.0748,-0.06298 -0.11023,-0.03845 -0.13792,-0.118063 -0.066,-0.189949 0.0617,-0.06168 0.27394,-0.04895 0.3365,0.02017 0.0491,0.05426 0.0494,0.06705 0.003,0.132943 l -0.0511,0.0729 h 0.31565 c 0.17361,0 0.32343,-0.0126 0.33293,-0.02796 0.01,-0.01536 -0.027,-0.06069 -0.0811,-0.100702 -0.2054,-0.151851 -0.0865,-0.341272 0.22688,-0.361363 0.39055,-0.02504 0.55118,0.225538 0.24394,0.380543 -0.0799,0.0403 -0.15215,0.08014 -0.1605,0.08849 -0.008,0.0083 0.072,0.03241 0.17856,0.05344 0.10656,0.02104 0.30595,0.07469 0.44311,0.119226 0.13716,0.04454 0.26032,0.08096 0.2737,0.08096 0.0134,0 -0.005,-0.04859 -0.0415,-0.108012 -0.0903,-0.148165 -0.0829,-0.235702 0.0297,-0.348303 0.15758,-0.15757 0.51827,-0.223142 0.79341,-0.144232 0.10396,0.0298 0.10779,0.0275 0.10779,-0.06584 0,-0.07417 0.0184,-0.101382 0.0791,-0.116594 0.21122,-0.05301 0.40718,0.06959 0.27185,0.170078 -0.0355,0.02637 -0.11355,0.04792 -0.17348,0.04792 h -0.10899 l 0.0821,0.120962 c 0.10895,0.160534 0.10359,0.229762 -0.028,0.361287 -0.1427,0.142696 -0.34003,0.195437 -0.63777,0.170472 l -0.23264,-0.01951 0.14955,0.123757 c 0.22555,0.186635 0.35086,0.32951 0.41631,0.474659 0.0325,0.07205 0.068,0.130459 0.0789,0.129799 0.0109,-5.12e-4 0.0498,-0.06423 0.0863,-0.141247 0.082,-0.172808 0.24852,-0.271553 0.54817,-0.325104 0.18232,-0.03256 0.25093,-0.03021 0.42713,0.01495 0.25849,0.06622 0.24637,0.06672 0.22227,-0.0092 -0.0426,-0.134207 0.18657,-0.222763 0.35004,-0.135272 0.13837,0.07405 0.0343,0.198238 -0.16617,0.198238 -0.056,0 -0.10127,0.01121 -0.10051,0.02493 5.1e-4,0.01372 0.0516,0.0818 0.11306,0.151313 l 0.11167,0.126389 0.0848,-0.08485 c 0.0996,-0.09959 0.29547,-0.115298 0.41282,-0.03313 0.22406,0.15694 -0.12918,0.333136 -0.39367,0.196364 -0.0912,-0.04716 -0.10003,-0.04654 -0.11679,0.0083 -0.0965,0.315585 -0.29736,0.425129 -0.77831,0.424484 -0.34407,-4.61e-4 -0.49883,-0.05398 -0.66218,-0.228985 -0.1109,-0.118811 -0.13534,-0.108955 -0.13619,0.05493 -5.1e-4,0.147586 -0.0816,0.359004 -0.20176,0.527776 -0.0389,0.05456 -0.0646,0.105269 -0.0571,0.112688 0.007,0.0074 0.0862,-0.0084 0.17508,-0.03512 0.20921,-0.06296 0.40021,-0.06161 0.59333,0.0041 0.15528,0.05291 0.3221,0.208463 0.3221,0.300343 0,0.372643 -0.80296,0.517311 -1.13737,0.20492 -0.0888,-0.08293 -0.0987,-0.110286 -0.0829,-0.228247 0.01,-0.07371 0.008,-0.129348 -0.004,-0.123645 -0.38316,0.180667 -0.73181,0.372833 -0.71774,0.395597 0.0101,0.01633 0.0556,0.02965 0.10112,0.02965 0.0455,0 0.12584,0.02227 0.17848,0.04951 0.34617,0.179013 -0.11659,0.503507 -0.47531,0.333285 -0.1564,-0.07422 -0.18321,-0.162725 -0.0882,-0.291218 l 0.0741,-0.100267 -0.19532,0.02232 c -0.10742,0.01229 -0.26164,0.03128 -0.3427,0.04229 l -0.14738,0.01997 0.0752,0.0609 c 0.0955,0.07736 0.0789,0.168399 -0.0383,0.209626 -0.11385,0.04004 -0.26883,-0.0092 -0.28446,-0.09037 -0.006,-0.0321 0.0233,-0.08635 0.0656,-0.120582 l 0.0768,-0.06223 -0.19888,-0.02084 c -0.74617,-0.07814 -1.37883,-0.376227 -1.64983,-0.777323 -0.13252,-0.196134 -0.12428,-0.186887 -0.14661,-0.164559 -0.0104,0.01039 -0.003,0.105586 0.0167,0.211536 0.16933,0.915984 0.0765,2.159212 -0.2317,3.104125 -0.22127,0.678315 -0.23862,0.641175 0.12767,0.273285 0.47754,-0.479634 1.02974,-0.761483 1.78067,-0.908885 0.18495,-0.0363 0.36992,-0.07294 0.41105,-0.08142 0.0914,-0.01884 0.0973,-0.06899 0.0114,-0.09626 -0.0808,-0.02565 -0.11483,-0.11257 -0.0668,-0.170483 0.063,-0.07586 0.25317,-0.09391 0.34635,-0.03287 0.0952,0.06235 0.10561,0.125564 0.031,0.187497 -0.0838,0.06953 0.002,0.08592 0.34522,0.06605 l 0.30987,-0.01792 -0.10216,-0.09761 c -0.12354,-0.118043 -0.12617,-0.150734 -0.0202,-0.250335 0.15614,-0.146679 0.56622,-0.122769 0.65228,0.03804 0.0554,0.103559 4.3e-4,0.195761 -0.15873,0.266167 -0.082,0.03625 -0.14241,0.07254 -0.13432,0.08062 0.008,0.0081 0.14766,0.03666 0.31018,0.06348 0.16251,0.02683 0.37774,0.07113 0.47828,0.09845 0.2585,0.07024 0.29195,0.06636 0.20935,-0.02432 -0.1322,-0.145138 -0.15078,-0.214259 -0.0913,-0.339573 0.0828,-0.174476 0.29747,-0.265905 0.61943,-0.263806 l 0.25556,0.0015 -0.0186,-0.0931 c -0.0158,-0.07921 -0.005,-0.09838 0.0742,-0.128416 0.11016,-0.04188 0.25917,-0.01551 0.3189,0.05646 0.0358,0.04321 0.0303,0.06163 -0.0346,0.114187 -0.0425,0.03446 -0.11311,0.06266 -0.15678,0.06266 -0.10512,0 -0.10071,0.01761 0.0369,0.147406 0.13509,0.127403 0.14887,0.234305 0.0469,0.363919 -0.10486,0.133301 -0.25108,0.193477 -0.52766,0.217142 l -0.25042,0.0214 0.2082,0.10768 c 0.30429,0.15738 0.5337,0.310107 0.72726,0.484168 0.0941,0.0846 0.18075,0.153822 0.1926,0.153822 0.0119,0 0.0117,-0.0522 -3.3e-4,-0.1161 -0.0287,-0.152882 -3.3e-4,-0.254997 0.10618,-0.381493 0.17775,-0.211244 0.65863,-0.36439 1.01257,-0.322467 0.17089,0.02023 0.22754,-0.0099 0.14596,-0.07758 -0.0631,-0.05234 -0.0635,-0.146096 -0.001,-0.198023 0.0836,-0.06938 0.29631,-0.07998 0.41133,-0.02048 0.17364,0.0898 0.12771,0.229256 -0.0898,0.272772 -0.0961,0.0192 -0.18121,0.07899 -0.11247,0.07899 0.0159,0 0.11577,0.05235 0.22201,0.116323 0.10625,0.06398 0.19697,0.116322 0.20161,0.116322 0.005,0 0.0176,-0.04552 0.0287,-0.101177 0.0414,-0.206933 0.4669,-0.265967 0.64359,-0.08929 0.21004,0.210045 -0.17282,0.414894 -0.51119,0.273509 l -0.11942,-0.04992 0.0262,0.108059 c 0.0892,0.367775 -0.10707,0.609905 -0.59818,0.737795 -0.36782,0.0958 -0.71939,0.0521 -1.08976,-0.13548 -0.0868,-0.044 -0.15787,-0.0738 -0.15787,-0.0662 0,0.008 0.0561,0.13118 0.12463,0.27475 0.11377,0.23827 0.12463,0.28563 0.12463,0.54351 0,0.15537 -0.0135,0.34232 -0.0299,0.41544 l -0.0299,0.13294 0.15124,-0.13889 c 0.30672,-0.28167 0.67872,-0.39548 1.18813,-0.36352 0.17366,0.0109 0.35684,0.0292 0.40707,0.0406 0.0868,0.0198 0.0904,0.0159 0.0714,-0.079 -0.0182,-0.0911 -0.01,-0.10321 0.095,-0.1378 0.0797,-0.0263 0.14193,-0.0277 0.20283,-0.005 0.16169,0.0615 0.081,0.23447 -0.10936,0.23447 -0.11077,0 -0.0792,0.0415 0.14022,0.18428 0.23734,0.15445 0.31892,0.28697 0.32129,0.52196 0.001,0.0868 0.009,0.15786 0.0174,0.15786 0.009,0 0.0643,-0.0295 0.12355,-0.0655 0.23186,-0.141 0.60323,-0.10394 0.73564,0.0734 0.0558,0.0747 0.0608,0.10381 0.0295,0.17235 -0.0551,0.12102 -0.22669,0.19856 -0.43927,0.19856 -0.22574,0 -0.3912,-0.0812 -0.43777,-0.21475 -0.0414,-0.11877 -0.0702,-0.12216 -0.13951,-0.0164 -0.0292,0.0446 -0.12069,0.1276 -0.20323,0.18439 -0.0825,0.0568 -0.15006,0.11748 -0.15006,0.13489 0,0.0174 0.0728,0.0316 0.16169,0.0316 0.17989,0 0.33683,0.0929 0.33683,0.19941 0,0.22466 -0.58381,0.2797 -0.69828,0.0658 -0.0298,-0.0556 -0.0262,-0.0877 0.0173,-0.15403 0.0302,-0.0461 0.049,-0.0895 0.042,-0.0966 -0.0141,-0.0141 -0.53184,0.0852 -0.5554,0.10663 -0.008,0.007 0.0181,0.0362 0.0582,0.0642 0.04,0.028 0.0728,0.072 0.0728,0.0978 0,0.11034 -0.28526,0.15794 -0.37983,0.0634 -0.0691,-0.0692 -0.0659,-0.10487 0.0142,-0.1549 0.0964,-0.0602 0.0825,-0.0864 -0.0582,-0.10945 -0.25599,-0.042 -0.5625,-0.1491 -0.71369,-0.24925 -0.19451,-0.12884 -0.29323,-0.28508 -0.32045,-0.50715 l -0.021,-0.17192 -0.15483,0.21701 c -0.0851,0.11936 -0.21737,0.27353 -0.29382,0.3426 -0.15426,0.13936 -0.59856,0.4377 -0.69958,0.46977 -0.0357,0.0113 -0.0648,0.0354 -0.0648,0.0536 0,0.0207 0.0833,0.0249 0.22434,0.0112 0.631,-0.0615 1.17153,0.23132 1.17153,0.63458 0,0.10301 0.009,0.11776 0.0582,0.0968 0.18316,-0.0779 0.296,-0.0911 0.38897,-0.0456 0.0523,0.0256 0.11144,0.0737 0.13141,0.10685 0.0559,0.0928 -0.0814,0.18901 -0.26978,0.18901 -0.1235,0 -0.16549,-0.0175 -0.2441,-0.10162 -0.0939,-0.10056 -0.0954,-0.1009 -0.13796,-0.0322 -0.0237,0.0382 -0.0988,0.1082 -0.16708,0.1556 -0.0682,0.0474 -0.11595,0.0993 -0.10605,0.11529 0.01,0.016 0.0836,0.0291 0.16374,0.0291 0.19164,0 0.33604,0.11353 0.30446,0.23936 -0.061,0.24304 -0.68677,0.21192 -0.68677,-0.0341 0,-0.0507 0.0177,-0.1099 0.0393,-0.13153 0.0605,-0.0605 0.0215,-0.073 -0.12335,-0.0394 -0.0726,0.0169 -0.19557,0.031 -0.27325,0.0314 -0.15666,0.001 -0.17371,0.0276 -0.0748,0.11711 0.10377,0.0939 0.0837,0.17896 -0.0559,0.23729 -0.13772,0.0575 -0.28985,0.0402 -0.38233,-0.0434 -0.0891,-0.0807 -0.0742,-0.1381 0.0559,-0.21485 0.0639,-0.0377 0.10907,-0.0803 0.10027,-0.0945 -0.009,-0.0142 -0.0798,-0.042 -0.15782,-0.0618 -0.19451,-0.0493 -0.4432,-0.2137 -0.50556,-0.3343 -0.10931,-0.21139 -0.0524,-0.4236 0.16434,-0.61248 0.12687,-0.11057 0.0815,-0.11158 -0.29935,-0.007 -0.16438,0.0453 -0.44844,0.0991 -0.63123,0.11954 -0.18279,0.0205 -0.38469,0.0486 -0.44866,0.0625 -0.0991,0.0216 -0.10651,0.029 -0.0499,0.0506 0.24623,0.0938 0.3582,0.16737 0.40534,0.26623 0.0442,0.0926 0.045,0.12077 0.006,0.20229 -0.0588,0.12238 -0.22816,0.23524 -0.39527,0.26348 -0.14582,0.0246 -0.16695,0.062 -0.0657,0.11619 0.17605,0.0942 -0.0265,0.26629 -0.22998,0.19536 -0.13158,-0.0459 -0.14917,-0.11339 -0.0499,-0.19149 0.0938,-0.0738 0.087,-0.0817 -0.11694,-0.13642 -0.18359,-0.0493 -0.36759,-0.2241 -0.36759,-0.34931 0,-0.11187 0.15498,-0.26322 0.32521,-0.3176 0.18639,-0.0595 0.1967,-0.0908 0.0361,-0.10944 -0.0799,-0.009 -0.31748,-0.0404 -0.52798,-0.0691 -0.50345,-0.0688 -0.49404,-0.0698 -0.38467,0.0443 0.16352,0.17068 0.0181,0.33546 -0.29612,0.33546 -0.25188,0 -0.42045,-0.12754 -0.36377,-0.27525 0.0269,-0.0701 0.21707,-0.1568 0.34386,-0.1568 0.0567,0 0.103,-0.0123 0.103,-0.0274 0,-0.0216 -0.61943,-0.27169 -0.67302,-0.27169 -0.007,0 -0.007,0.0432 5.1e-4,0.0961 0.0124,0.0847 5.1e-4,0.10048 -0.0991,0.13342 -0.2108,0.0696 -0.41137,-0.0637 -0.28543,-0.1896 0.0219,-0.0219 0.078,-0.0401 0.12463,-0.0404 0.19249,-10e-4 0.17104,-0.0528 -0.0934,-0.22507 -0.32417,-0.21113 -0.63746,-0.54746 -0.77856,-0.83579 -0.10005,-0.20444 -0.10678,-0.24065 -0.10678,-0.57541 0,-0.19648 -0.009,-0.35725 -0.0193,-0.35727 -0.0107,-2e-5 -0.10561,0.16073 -0.21107,0.35723 -0.8147,1.51802 -2.16777,2.88485 -4.02207,4.06297 -0.3021,0.19193 -0.53633,0.35333 -0.52053,0.35866 0.0158,0.005 0.18156,-0.0512 0.36834,-0.1256 0.97119,-0.38692 2.02923,-0.56154 3.15415,-0.52056 0.3222,0.0117 0.65973,0.0311 0.75007,0.0432 l 0.16424,0.0218 -0.0721,-0.0917 c -0.0774,-0.0985 -0.0597,-0.19023 0.0445,-0.23023 0.10362,-0.0398 0.27418,-0.0199 0.34903,0.0408 0.0954,0.0772 0.0679,0.16332 -0.0684,0.21479 -0.0548,0.0207 -0.0996,0.0482 -0.0996,0.0612 0,0.013 0.086,0.0411 0.1911,0.0624 0.1051,0.0214 0.28019,0.0592 0.38908,0.0841 0.10889,0.0249 0.20492,0.0383 0.21339,0.0299 0.008,-0.008 -0.0189,-0.0519 -0.0608,-0.0965 -0.2132,-0.22695 0.19163,-0.45135 0.54666,-0.30301 0.26384,0.11023 0.14933,0.36009 -0.18539,0.4045 -0.0922,0.0122 -0.15548,0.0327 -0.14062,0.0455 0.0148,0.0128 0.14666,0.0657 0.29289,0.11755 0.14623,0.0518 0.36074,0.1365 0.47669,0.18817 0.28218,0.12571 0.32132,0.12339 0.23749,-0.0141 -0.0925,-0.15178 -0.083,-0.21719 0.0501,-0.34265 0.0824,-0.0777 0.17089,-0.12091 0.3045,-0.14865 0.17806,-0.037 0.24722,-0.0343 0.49948,0.0193 0.0978,0.0208 0.10438,0.0168 0.0862,-0.0527 -0.037,-0.14154 0.19949,-0.22256 0.34162,-0.11702 0.0982,0.0729 0.0249,0.16411 -0.14826,0.18474 l -0.13955,0.0166 0.0848,0.11447 c 0.10216,0.13797 0.107,0.23051 0.0179,0.34372 -0.10507,0.13358 -0.31568,0.19723 -0.61003,0.18436 -0.13963,-0.006 -0.25383,-6e-5 -0.25379,0.0134 0,0.0135 0.0636,0.0638 0.14132,0.11173 0.32004,0.19764 0.50671,0.33802 0.74998,0.56402 l 0.25652,0.23832 -5.2e-4,-0.21537 c -5.1e-4,-0.21441 0,-0.21598 0.15453,-0.35585 0.19641,-0.17792 0.44888,-0.26114 0.82533,-0.27201 0.21516,-0.006 0.27924,-0.0185 0.26886,-0.0518 -0.0614,-0.19623 0.047,-0.30727 0.27379,-0.28035 0.1207,0.0143 0.25499,0.098 0.25499,0.15883 0,0.0585 -0.13625,0.16102 -0.21407,0.16102 -0.13211,0 -0.12963,0.0594 0.005,0.12496 0.0692,0.0336 0.16675,0.0882 0.21683,0.12125 0.0881,0.0581 0.0917,0.0581 0.11041,-0.002 0.0558,-0.17808 0.2046,-0.25623 0.42999,-0.22587 0.27782,0.0374 0.37053,0.20614 0.1911,0.34774 -0.0759,0.0599 -0.12244,0.0695 -0.27418,0.0569 -0.10054,-0.008 -0.20801,-0.026 -0.23884,-0.0392 -0.05,-0.0214 -0.054,-0.003 -0.037,0.16986 0.0105,0.10662 0.0219,0.19743 0.0252,0.2018 0.004,0.005 0.0687,-0.0166 0.14529,-0.0467 0.11564,-0.0454 0.16122,-0.048 0.26977,-0.0155 0.26945,0.0807 0.18019,0.30355 -0.1216,0.30355 -0.1234,0 -0.1655,-0.0175 -0.24378,-0.10129 l -0.0946,-0.10128 -0.0564,0.086 c -0.031,0.0473 -0.12134,0.1241 -0.20074,0.17064 -0.4088,0.23957 -1.01018,0.23601 -1.43316,-0.009 -0.0777,-0.0449 -0.14125,-0.0739 -0.14125,-0.0644 0,0.009 0.0747,0.15706 0.16606,0.328 0.20001,0.37431 0.2986,0.73479 0.30098,1.10033 0.002,0.26347 0.003,0.2672 0.0581,0.18578 0.12855,-0.18964 0.35169,-0.39629 0.53054,-0.49132 0.32778,-0.17416 0.56442,-0.22143 1.09675,-0.21911 0.44099,0.002 0.47053,-0.002 0.42375,-0.0535 -0.1182,-0.13061 0.002,-0.26636 0.23592,-0.26636 0.1713,0 0.29718,0.0891 0.26575,0.18812 -0.0216,0.0679 -0.14742,0.14423 -0.23779,0.14423 -0.10436,0 -0.036,0.0555 0.22497,0.18279 0.14994,0.0731 0.28427,0.13788 0.2985,0.14392 0.0142,0.006 0.0165,-0.0357 0.005,-0.0928 -0.0526,-0.26286 0.39737,-0.42546 0.74304,-0.26854 0.23685,0.10753 0.23582,0.32781 -0.002,0.43581 -0.15644,0.071 -0.36023,0.0817 -0.51698,0.027 -0.0585,-0.0204 -0.11392,-0.0295 -0.12316,-0.0203 -0.009,0.009 0.0306,0.084 0.0884,0.16611 0.0672,0.0954 0.11147,0.20473 0.12252,0.30276 0.0188,0.1668 0.052,0.19226 0.10988,0.0842 0.0599,-0.11197 0.28661,-0.19504 0.53449,-0.19586 0.25406,-0.001 0.42544,0.0598 0.52444,0.18571 0.19466,0.24748 -0.058,0.49104 -0.51207,0.49358 -0.27759,0.002 -0.46057,-0.076 -0.57105,-0.24188 l -0.0734,-0.11024 -0.0666,0.13059 c -0.0367,0.0718 -0.14215,0.19851 -0.23445,0.2815 -0.0923,0.083 -0.16783,0.15704 -0.16783,0.16455 0,0.008 0.0892,0.007 0.19819,-5.1e-4 0.24638,-0.0178 0.33411,0.004 0.46394,0.11274 0.1228,0.10333 0.12946,0.18891 0.023,0.29538 -0.17257,0.17256 -0.60189,0.18073 -0.77996,0.0148 -0.0778,-0.0725 -0.0948,-0.2265 -0.032,-0.28932 0.0789,-0.0789 -0.006,-0.0767 -0.27058,0.007 -0.14889,0.0471 -0.29149,0.0855 -0.31688,0.0855 -0.0989,0 -0.0802,0.0669 0.0316,0.11362 0.0905,0.0378 0.11766,0.0684 0.11766,0.13277 0,0.19045 -0.43866,0.22668 -0.53627,0.0443 -0.0321,-0.06 -0.0247,-0.0815 0.0499,-0.14571 0.0482,-0.0414 0.0876,-0.0835 0.0876,-0.0935 0,-0.01 -0.0904,-0.0182 -0.20081,-0.0182 -0.48949,0 -1.07431,-0.20985 -1.34826,-0.48381 -0.10256,-0.10256 -0.15796,-0.19551 -0.19742,-0.33122 -0.0302,-0.10376 -0.0656,-0.17595 -0.0787,-0.16041 -0.0132,0.0155 -0.066,0.13843 -0.11746,0.27309 -0.0515,0.13466 -0.16549,0.3524 -0.25342,0.48386 -0.18388,0.27493 -0.62107,0.70802 -0.91882,0.91022 -0.1839,0.12488 -0.27401,0.20561 -0.22952,0.20561 0.009,0 0.1556,-0.0381 0.326,-0.0846 0.37714,-0.10302 0.93384,-0.13995 1.28375,-0.0852 0.13351,0.0209 0.378,0.0815 0.54329,0.13465 0.28244,0.0908 0.29952,0.0928 0.28365,0.032 -0.023,-0.0879 0.0606,-0.16311 0.18116,-0.16311 0.27873,0 0.30184,0.19227 0.0276,0.23003 l -0.13961,0.0192 0.20719,0.17504 0.20719,0.17504 0.0542,-0.10811 c 0.0298,-0.0594 0.0916,-0.12679 0.13731,-0.14962 0.21026,-0.10505 0.565,0.003 0.565,0.17228 0,0.1578 -0.28478,0.26007 -0.51377,0.18449 -0.0672,-0.0222 -0.13066,-0.0318 -0.14107,-0.0214 -0.0104,0.0104 0.013,0.0932 0.0521,0.18396 0.0391,0.0908 0.071,0.21835 0.071,0.28351 0,0.12775 0.0329,0.14914 0.10173,0.0662 0.0987,-0.11899 0.30806,-0.19295 0.54635,-0.19306 0.63645,-3e-4 0.80402,0.4961 0.22436,0.66461 -0.30836,0.0897 -0.68338,-0.0149 -0.78952,-0.22019 -0.0283,-0.0547 -0.0582,-0.0994 -0.0666,-0.0994 -0.008,0 -0.0537,0.0759 -0.10066,0.16865 -0.047,0.0928 -0.16873,0.24802 -0.27049,0.34502 l -0.18503,0.17638 0.29485,-0.0165 c 0.47393,-0.0265 0.75113,0.0881 0.84169,0.34803 0.0476,0.13671 0.0468,0.14047 -0.0552,0.26752 l -0.10355,0.12885 0.16853,0.0305 c 0.30821,0.0558 0.30869,0.25481 5.1e-4,0.27307 -0.18573,0.011 -0.29231,-0.0554 -0.26381,-0.16443 0.0183,-0.0701 -0.0247,-0.076 -0.22127,-0.0304 -0.15825,0.0367 -0.1878,0.0643 -0.11342,0.10597 0.0723,0.0405 0.0755,0.14815 0.005,0.1751 -0.20855,0.08 -0.42867,-0.0509 -0.27158,-0.16159 0.0636,-0.0448 0.0673,-0.0576 0.025,-0.0846 -0.0274,-0.0175 -0.0798,-0.0324 -0.11632,-0.033 -0.11698,-0.002 -0.3322,-0.11982 -0.42842,-0.23417 -0.0756,-0.0898 -0.0898,-0.13256 -0.0748,-0.22488 0.0102,-0.0627 0.044,-0.14212 0.0751,-0.17652 0.0311,-0.0344 0.0481,-0.071 0.0378,-0.0814 -0.0103,-0.0104 -0.14362,0.0207 -0.29614,0.069 -0.15251,0.0483 -0.40068,0.10449 -0.55149,0.1248 -0.1508,0.0203 -0.27418,0.0486 -0.27418,0.0628 0,0.0142 0.0622,0.0426 0.13819,0.0631 0.16654,0.0448 0.3271,0.19566 0.3271,0.30727 0,0.16184 -0.14398,0.27115 -0.49831,0.37835 -0.0382,0.0116 -0.0305,0.0295 0.0332,0.078 0.0677,0.0515 0.0762,0.0739 0.0463,0.12257 -0.0511,0.083 -0.25417,0.0964 -0.32896,0.0216 -0.0553,-0.0553 -0.0539,-0.0617 0.0289,-0.13289 0.0979,-0.0842 0.0898,-0.0957 -0.0912,-0.12967 -0.0705,-0.0133 -0.17886,-0.0685 -0.2407,-0.12278 -0.21304,-0.18705 -0.11188,-0.42841 0.22141,-0.52826 0.0723,-0.0217 0.13144,-0.0502 0.13144,-0.0635 0,-0.0133 -0.0952,-0.0343 -0.21157,-0.0467 -0.11636,-0.0125 -0.32144,-0.0509 -0.45572,-0.0855 -0.13427,-0.0346 -0.24891,-0.058 -0.25474,-0.0522 -0.006,0.006 0.0157,0.0563 0.0477,0.11227 0.056,0.0976 0.0559,0.1044 -0.004,0.17082 -0.0776,0.0858 -0.29184,0.14635 -0.41884,0.11845 -0.12594,-0.0276 -0.26466,-0.13931 -0.26466,-0.21302 0,-0.10341 0.12278,-0.17921 0.31625,-0.19526 0.10025,-0.008 0.18228,-0.0259 0.18228,-0.039 7e-5,-0.0228 -0.44423,-0.30021 -0.48082,-0.30021 -0.01,0 -0.0176,0.0281 -0.0176,0.0624 0,0.15624 -0.36991,0.16546 -0.39281,0.01 -0.0131,-0.0887 0.12529,-0.15164 0.26564,-0.12081 0.11577,0.0254 0.11728,0.003 0.009,-0.1394 -0.12948,-0.16976 -0.18116,-0.32272 -0.18036,-0.53381 0.001,-0.25552 0.0823,-0.42418 0.31519,-0.65335 0.10445,-0.10279 0.1752,-0.1869 0.1572,-0.1869 -0.018,0 -0.23527,0.0813 -0.48283,0.18062 -0.68143,0.27343 -1.42743,0.44453 -2.24942,0.5159 -0.22653,0.0197 -0.41704,0.041 -0.42337,0.0473 -0.006,0.006 0.12263,0.0428 0.28657,0.081 0.71707,0.16724 1.12981,0.54063 1.09267,0.98851 -0.011,0.13206 -0.004,0.18076 0.0273,0.18076 0.0233,0 0.0504,-0.013 0.0602,-0.0289 0.0628,-0.10163 0.43235,-0.05 0.46902,0.0656 0.0606,0.19089 -0.33465,0.28087 -0.50138,0.11414 l -0.0818,-0.0818 -0.21767,0.21447 -0.21767,0.21448 0.19301,-0.0189 c 0.23532,-0.023 0.42821,0.0378 0.52321,0.16511 0.0618,0.0827 0.0632,0.0974 0.0174,0.17995 -0.109,0.19655 -0.45077,0.26351 -0.72032,0.14114 -0.15823,-0.0718 -0.20889,-0.18454 -0.14549,-0.32369 0.0359,-0.0789 0.0334,-0.0835 -0.0373,-0.0671 -0.0418,0.01 -0.21053,0.0503 -0.37504,0.0901 -0.16452,0.0399 -0.33493,0.0795 -0.3787,0.088 -0.0965,0.0188 -0.0613,0.0571 0.0996,0.10846 0.23023,0.0735 0.34868,0.30779 0.22867,0.45238 -0.0583,0.0702 -0.27836,0.18214 -0.35817,0.18214 -0.10049,0 -0.11212,0.0397 -0.0355,0.12119 0.10138,0.10791 0.0348,0.18499 -0.14787,0.17125 -0.17871,-0.0134 -0.23244,-0.0969 -0.1209,-0.18788 0.0888,-0.0724 0.0965,-0.0659 -0.1571,-0.1346 -0.14856,-0.0403 -0.30987,-0.19765 -0.30987,-0.30231 0,-0.10003 0.15711,-0.25692 0.3193,-0.31886 0.17186,-0.0656 0.15047,-0.0923 -0.10327,-0.12885 -0.0914,-0.0131 -0.27573,-0.0587 -0.40964,-0.1011 -0.21301,-0.0675 -0.24053,-0.0703 -0.22006,-0.0218 0.0815,0.19305 0.0316,0.30485 -0.17518,0.39236 -0.28308,0.11981 -0.70731,-0.0242 -0.70731,-0.24007 0,-0.17225 0.33643,-0.31746 0.61462,-0.26527 0.0641,0.012 0.11655,0.0149 0.11655,0.006 0,-0.008 -0.09,-0.10546 -0.19999,-0.21545 l -0.19998,-0.19998 -0.081,0.081 c -0.0624,0.0624 -0.11615,0.081 -0.23425,0.081 -0.19645,0 -0.28182,-0.0462 -0.28182,-0.15242 0,-0.0644 0.0272,-0.095 0.11807,-0.13295 0.11922,-0.0498 0.32924,-0.0365 0.36616,0.0232 0.0486,0.0786 0.0808,0.0104 0.0808,-0.17126 0,-0.24528 0.0718,-0.39917 0.27279,-0.58441 0.18371,-0.16934 0.44533,-0.29362 0.79275,-0.3766 0.14957,-0.0357 0.27885,-0.0719 0.28731,-0.0803 0.008,-0.008 -0.0644,-0.0233 -0.16191,-0.0331 -0.89871,-0.0896 -1.37834,-0.17382 -1.94897,-0.34219 -0.15888,-0.0469 -0.31878,-0.093 -0.35534,-0.10251 -0.0464,-0.0121 -0.0248,0.0236 0.0716,0.11829 0.17287,0.16972 0.23073,0.32737 0.17839,0.48597 -0.0498,0.15073 -0.25035,0.32783 -0.4526,0.39958 -0.31749,0.11262 -0.30289,0.0973 -0.16816,0.17676 0.19463,0.11483 0.15103,0.25655 -0.091,0.29583 -0.24883,0.0404 -0.44071,-0.13654 -0.28491,-0.2627 0.10578,-0.0857 0.0574,-0.11357 -0.24126,-0.1392 l -0.25678,-0.022 0.0565,0.0985 c 0.0536,0.0935 0.0534,0.10191 -0.005,0.16623 -0.0831,0.0918 -0.26639,0.14781 -0.40104,0.12254 -0.141,-0.0265 -0.28371,-0.13779 -0.28371,-0.22134 0,-0.0927 0.1884,-0.19624 0.35728,-0.19639 0.0777,-6e-5 0.14124,-0.0123 0.14124,-0.0271 0,-0.0149 -0.0486,-0.0628 -0.10801,-0.10645 -0.0594,-0.0437 -0.13661,-0.11553 -0.17157,-0.1596 l -0.0636,-0.0801 -0.0441,0.0842 c -0.0888,0.1695 -0.45487,0.18838 -0.54076,0.0279 -0.096,-0.17943 0.20906,-0.27467 0.49974,-0.15599 0.0435,0.0178 0.0568,-0.007 0.0707,-0.12927 0.0103,-0.0912 0.0515,-0.1964 0.104,-0.26517 0.17292,-0.22672 0.65054,-0.37087 1.09266,-0.32978 0.12345,0.0115 0.22446,0.0119 0.22446,0.001 0,-0.011 -0.16078,-0.10285 -0.35728,-0.20409 -0.1965,-0.10124 -0.48162,-0.27385 -0.6336,-0.38357 -0.15198,-0.10973 -0.28669,-0.19951 -0.29936,-0.19951 -0.0127,0 -0.0179,0.0649 -0.0116,0.14415 0.0101,0.12738 -6.1e-4,0.1543 -0.0922,0.23137 -0.20307,0.17088 -0.56017,0.20397 -0.86599,0.0802 -0.16351,-0.0661 -0.18612,-0.0874 -0.21437,-0.20164 -0.0413,-0.16682 0.0205,-0.28182 0.19822,-0.36889 0.21785,-0.10675 0.53012,-0.10739 0.78886,-0.002 0.0975,0.0398 0.0659,-0.0306 -0.0997,-0.22196 -0.0868,-0.10038 -0.20762,-0.25433 -0.26843,-0.34212 l -0.11057,-0.15961 -0.0621,0.10218 c -0.0826,0.13587 -0.16063,0.17289 -0.36427,0.17289 -0.27123,0 -0.43916,-0.12348 -0.37946,-0.27904 0.0549,-0.14308 0.44746,-0.20521 0.64645,-0.10231 0.12172,0.0629 0.12247,0.0452 0.0113,-0.26807 l -0.0868,-0.24445 -0.098,0.0724 c -0.10929,0.0808 -0.32581,0.0935 -0.40955,0.024 -0.0697,-0.0578 -0.0625,-0.15736 0.0142,-0.19844 0.0936,-0.0501 0.30878,-0.0421 0.38963,0.0145 0.0697,0.0488 0.0699,0.0477 0.0848,-0.35727 0.012,-0.32539 0.032,-0.45424 0.10049,-0.64757 0.17944,-0.5063 0.55999,-0.98998 1.1061,-1.40589 0.17337,-0.13203 0.31522,-0.24559 0.31522,-0.25236 0,-0.0185 -0.1616,0.055 -0.7644,0.34762 -2.59102,1.25798 -5.79448,2.01288 -9.21437,2.1714 -0.48897,0.0227 -0.88903,0.0533 -0.88903,0.0682 0,0.0148 0.0636,0.027 0.14124,0.0271 0.22563,2.3e-4 1.20752,0.12431 1.57035,0.19842 0.79305,0.162 1.70915,0.49152 2.29315,0.82485 0.43415,0.24779 0.45896,0.25763 0.43152,0.17116 -0.033,-0.10402 0.041,-0.1643 0.2017,-0.1643 0.11996,0 0.24756,0.06 0.24756,0.11632 0,0.0579 -0.12787,0.11632 -0.2544,0.11632 -0.0825,0 -0.14497,0.0131 -0.13888,0.029 0.0154,0.0404 0.45621,0.36986 0.49475,0.36986 0.0173,0 0.0315,-0.0366 0.0315,-0.0812 0,-0.11604 0.11736,-0.18468 0.31573,-0.18468 0.19772,0 0.31573,0.0687 0.31573,0.18382 0,0.12146 -0.16547,0.19456 -0.38832,0.17156 -0.0972,-0.01 -0.17667,-0.0106 -0.17667,-10e-4 0,0.0306 0.50861,0.57646 0.53715,0.57646 0.0153,0 0.0278,-0.0348 0.0278,-0.0773 0,-0.14351 0.24203,-0.2883 0.4819,-0.2883 0.24102,0 0.48191,0.14486 0.48191,0.28981 0,0.25314 -0.48503,0.38699 -0.80422,0.22194 -0.0546,-0.0283 -0.10632,-0.0443 -0.11489,-0.0358 -0.009,0.009 0.051,0.14054 0.13243,0.29326 0.0814,0.15271 0.1732,0.35601 0.204,0.45176 0.0691,0.21474 0.098,0.23532 0.15108,0.10731 0.1246,-0.30082 0.6149,-0.43519 1.13784,-0.31183 0.0812,0.0191 0.0914,0.0122 0.0914,-0.0622 0,-0.11246 0.1654,-0.17661 0.29508,-0.11446 0.1409,0.0675 0.11446,0.16774 -0.0541,0.20511 -0.0777,0.0172 -0.14064,0.0396 -0.1399,0.0499 7.2e-4,0.0102 0.0453,0.07 0.0991,0.13291 l 0.0978,0.11436 0.0834,-0.0784 c 0.14726,-0.13834 0.48277,-0.0927 0.48277,0.0657 0,0.14649 -0.2671,0.21124 -0.44307,0.10742 l -0.11355,-0.067 -0.0396,0.12104 c -0.0218,0.0666 -0.0475,0.14013 -0.0571,0.16347 -0.0132,0.0321 0.0139,0.0374 0.11102,0.0219 0.0996,-0.0159 0.1468,-0.006 0.2097,0.0452 0.0697,0.0564 0.0749,0.0733 0.0366,0.11937 -0.0904,0.10892 -0.36363,0.0524 -0.40932,-0.0847 -0.009,-0.0278 -0.0628,-0.0155 -0.17745,0.0408 -0.13786,0.0677 -0.2121,0.0804 -0.46328,0.0792 -0.33364,-0.002 -0.46585,-0.0441 -0.65569,-0.21079 l -0.11911,-0.10458 3.3e-4,0.42446 c 3.4e-4,0.32679 -0.0157,0.48494 -0.0696,0.68734 -0.0972,0.36542 -0.0923,0.3872 0.0547,0.24433 0.14696,-0.14279 0.41789,-0.27481 0.67264,-0.32776 0.1823,-0.0379 0.77499,-0.0242 0.92258,0.0213 0.0682,0.021 0.073,0.0145 0.0553,-0.0739 -0.0163,-0.0817 -0.006,-0.10321 0.0681,-0.1368 0.12407,-0.0565 0.19835,-0.0497 0.28839,0.0266 l 0.0785,0.0665 -0.0785,0.0665 c -0.0432,0.0366 -0.10671,0.0665 -0.14125,0.0665 -0.10504,0 -0.0713,0.051 0.1117,0.16905 0.22898,0.14765 0.21761,0.14466 0.23008,0.0605 0.0313,-0.21102 0.47478,-0.29592 0.64687,-0.12383 0.062,0.062 0.0794,0.10511 0.0631,0.15645 -0.0465,0.14638 -0.36765,0.22101 -0.56473,0.13121 -0.1054,-0.048 -0.13498,-0.0224 -0.084,0.0727 0.0215,0.0402 0.0385,0.14614 0.0378,0.23548 -7.2e-4,0.0893 0.002,0.1624 0.005,0.16232 0.004,-7e-5 0.08,-0.0375 0.1699,-0.0831 0.18252,-0.0926 0.3664,-0.10574 0.52719,-0.0377 0.24893,0.10536 0.28528,0.29478 0.0811,0.42278 -0.0871,0.0546 -0.15157,0.0652 -0.34513,0.0566 -0.25328,-0.0112 -0.35465,-0.0645 -0.41306,-0.21726 -0.0372,-0.0973 -0.0762,-0.0945 -0.1449,0.0104 -0.0986,0.15053 -0.41532,0.32803 -0.66849,0.37467 -0.12678,0.0233 -0.2679,0.0503 -0.3136,0.06 l -0.0831,0.0175 0.0748,0.0607 c 0.0918,0.0745 0.0959,0.1527 0.0105,0.19842 -0.0977,0.0523 -0.21896,0.0413 -0.3041,-0.0276 l -0.0766,-0.062 0.0928,-0.0861 0.0928,-0.086 -0.0781,-0.0153 c -0.37176,-0.0725 -0.47244,-0.10112 -0.64685,-0.18361 -0.12026,-0.0569 -0.24799,-0.15102 -0.32168,-0.23711 -0.10819,-0.1264 -0.13636,-0.19888 -0.16755,-0.43107 -0.004,-0.0274 -0.0942,0.0847 -0.20123,0.24926 -0.34565,0.53148 -0.72652,0.90739 -1.32746,1.31018 -0.14315,0.0959 -0.25464,0.18007 -0.24776,0.18696 0.007,0.007 0.14643,-0.0246 0.31012,-0.0699 0.72501,-0.20079 1.25274,-0.17396 2.12101,0.10782 0.0506,0.0164 0.058,0.008 0.0402,-0.0484 -0.0156,-0.0492 -6.1e-4,-0.0833 0.0535,-0.12118 0.0999,-0.07 0.20214,-0.0665 0.29661,0.01 0.0663,0.0537 0.071,0.0703 0.0329,0.11632 -0.0245,0.0295 -0.0838,0.0539 -0.13186,0.0542 -0.16598,10e-4 -0.18902,0.0509 -0.0632,0.13685 0.33112,0.22617 0.52321,0.50716 0.52389,0.76634 4e-4,0.15167 0.0388,0.1797 0.12052,0.0879 0.22293,-0.25063 0.83387,-0.25502 1.04741,-0.008 0.11123,0.12892 0.10835,0.20603 -0.0122,0.32658 -0.1373,0.1373 -0.34285,0.19815 -0.59333,0.17566 -0.2367,-0.0213 -0.38251,-0.0972 -0.46936,-0.24437 l -0.0688,-0.11658 -0.0947,0.17681 c -0.0521,0.0972 -0.17955,0.25536 -0.28331,0.35137 -0.10375,0.096 -0.18202,0.18117 -0.17393,0.18926 0.008,0.008 0.0741,0.001 0.14671,-0.0159 0.43878,-0.10173 0.94337,0.0935 0.9994,0.38676 0.016,0.0839 5e-4,0.1251 -0.0832,0.22041 -0.0566,0.0645 -0.1029,0.12644 -0.1029,0.13773 0,0.0113 0.0673,0.0205 0.14956,0.0205 0.16196,0 0.2963,0.0915 0.26274,0.17899 -0.0285,0.0742 -0.19922,0.13008 -0.32532,0.10643 -0.1376,-0.0258 -0.19958,-0.0927 -0.17057,-0.18412 0.025,-0.0788 0.0125,-0.0806 -0.21389,-0.0321 -0.17373,0.0373 -0.20614,0.0722 -0.11454,0.12346 0.1505,0.0842 -0.0714,0.25397 -0.23472,0.17956 -0.0929,-0.0423 -0.11391,-0.15441 -0.0346,-0.18485 0.0883,-0.0338 0.0533,-0.0841 -0.0748,-0.10729 -0.16486,-0.0299 -0.33834,-0.11981 -0.4387,-0.22733 -0.10547,-0.113 -0.10629,-0.27084 -0.002,-0.4171 0.0721,-0.10128 0.0735,-0.10947 0.015,-0.0906 -0.37757,0.12165 -0.64409,0.19055 -0.84441,0.21831 -0.2624,0.0363 -0.32118,0.0631 -0.20546,0.0933 0.17036,0.0445 0.35503,0.16354 0.38374,0.24724 0.0682,0.19901 -0.0359,0.32457 -0.35549,0.42877 -0.16113,0.0525 -0.16677,0.0581 -0.0971,0.0953 0.17219,0.0922 0.008,0.27544 -0.18865,0.21006 -0.11309,-0.0377 -0.12715,-0.12597 -0.0323,-0.20278 l 0.0759,-0.0615 -0.11484,-0.0248 c -0.16421,-0.0355 -0.35615,-0.13917 -0.39622,-0.21404 -0.0905,-0.16916 0.0236,-0.36124 0.25938,-0.43653 0.1805,-0.0576 0.19551,-0.0904 0.0513,-0.11186 -0.0709,-0.0105 -0.2712,-0.049 -0.44504,-0.0854 -0.39161,-0.082 -0.37758,-0.0827 -0.3134,0.0153 0.0727,0.11101 0.0335,0.21314 -0.10382,0.27054 -0.27572,0.1152 -0.6271,-0.0167 -0.56508,-0.21209 0.0272,-0.0857 0.1458,-0.14633 0.33292,-0.17018 l 0.16782,-0.0214 -0.21603,-0.13964 c -0.24442,-0.158 -0.28435,-0.16786 -0.30834,-0.0761 -0.0309,0.11822 -0.33402,0.13162 -0.37811,0.0167 -0.033,-0.0861 0.0543,-0.14814 0.20862,-0.14814 0.08,0 0.14548,-0.008 0.14548,-0.0188 0,-0.0103 -0.0369,-0.0673 -0.0821,-0.12642 -0.12511,-0.16403 -0.18389,-0.33312 -0.18308,-0.52668 9.7e-4,-0.235 0.0899,-0.41862 0.31908,-0.65891 0.10385,-0.10888 0.17917,-0.19797 0.16736,-0.19797 -0.0118,0 -0.17486,0.0691 -0.36233,0.15344 -0.93409,0.42046 -2.00637,0.67257 -3.24061,0.76194 -0.16909,0.0122 -0.30743,0.0339 -0.30743,0.0481 0,0.0142 0.12339,0.0433 0.27419,0.0646 0.83615,0.1181 1.54096,0.53481 1.79112,1.05898 0.0983,0.20589 0.10293,0.23318 0.0845,0.4945 -0.0107,0.15212 -0.0159,0.27659 -0.0115,0.27659 0.004,0 0.0666,-0.0299 0.13835,-0.0665 0.18606,-0.0948 0.46974,-0.0904 0.61823,0.01 0.14888,0.10033 0.15915,0.26442 0.0229,0.36613 -0.21223,0.15846 -0.72615,0.0763 -0.77645,-0.12409 -0.0118,-0.047 -0.0335,-0.0855 -0.0483,-0.0855 -0.0148,0 -0.0825,0.0759 -0.15053,0.16855 -0.068,0.0927 -0.20393,0.2291 -0.30194,0.30311 -0.17426,0.13156 -0.23557,0.22216 -0.12047,0.17799 0.0318,-0.0122 0.14854,-0.0306 0.25951,-0.041 0.38525,-0.036 0.78495,0.15882 0.83202,0.4055 0.0152,0.0795 -0.003,0.12748 -0.0864,0.23265 l -0.1055,0.13246 0.17298,0.0179 c 0.17687,0.0183 0.27803,0.0935 0.2442,0.18171 -0.0271,0.0707 -0.20052,0.12557 -0.32378,0.10244 -0.13761,-0.0258 -0.19959,-0.0927 -0.17057,-0.18412 0.025,-0.0788 0.0125,-0.0806 -0.21389,-0.032 -0.17373,0.0373 -0.20614,0.0722 -0.11454,0.12345 0.15049,0.0842 -0.0714,0.25398 -0.23472,0.17956 -0.093,-0.0423 -0.11391,-0.15441 -0.0346,-0.18484 0.0883,-0.0339 0.0533,-0.0841 -0.0748,-0.1073 -0.16486,-0.0299 -0.33834,-0.1198 -0.4387,-0.22733 -0.10389,-0.11131 -0.10624,-0.27091 -0.006,-0.41161 0.0415,-0.0582 0.0623,-0.10587 0.0462,-0.10587 -0.016,0 -0.14981,0.044 -0.2973,0.0979 -0.25513,0.0931 -0.6029,0.17296 -0.94997,0.21812 -0.17442,0.0227 -0.18149,0.0649 -0.0169,0.10108 0.18004,0.0395 0.37032,0.13464 0.47014,0.23495 0.18565,0.18658 0.1901,0.34846 0.0156,0.56765 -0.067,0.0842 -0.0857,0.12839 -0.0559,0.13245 0.23723,0.0324 0.29685,0.0536 0.33119,0.11774 0.0321,0.06 0.0264,0.0806 -0.0365,0.13151 -0.0926,0.075 -0.29255,0.0784 -0.39482,0.007 -0.0586,-0.041 -0.0716,-0.0732 -0.0556,-0.13714 0.0178,-0.0709 0.0119,-0.0799 -0.0389,-0.0593 -0.0329,0.0133 -0.14585,0.0411 -0.25095,0.0617 -0.20477,0.0401 -0.23653,0.0731 -0.11496,0.11931 0.19162,0.0729 0.19416,0.24228 0.005,0.3214 -0.13855,0.0579 -0.23314,0.0575 -0.36859,-0.002 z m -3.15383,-1.47037 c -0.0529,-0.0529 -0.0518,-0.0599 0.0179,-0.11634 0.0917,-0.0742 0.19456,-0.0766 0.29417,-0.007 0.0722,0.0506 0.0732,0.0563 0.0189,0.11634 -0.0716,0.0791 -0.25487,0.0829 -0.33096,0.007 z m 6.35255,-0.007 c -0.0543,-0.06 -0.0534,-0.0657 0.0189,-0.11634 0.0996,-0.0698 0.20251,-0.0674 0.29417,0.007 0.0697,0.0564 0.0708,0.0635 0.0179,0.11634 -0.0761,0.0761 -0.25933,0.0723 -0.33096,-0.007 z m -5.9613,-1.75008 c -0.0861,-0.0603 -0.0958,-0.15458 -0.0222,-0.21562 0.0783,-0.065 0.33398,-0.054 0.41323,0.0177 0.0925,0.0837 0.0838,0.13951 -0.0312,0.19894 -0.12571,0.065 -0.26613,0.0646 -0.35983,-10e-4 z m 5.53452,-5.1e-4 c -0.10854,-0.0589 -0.11551,-0.11505 -0.0245,-0.19741 0.0793,-0.0717 0.33494,-0.0827 0.41323,-0.0177 0.19409,0.16107 -0.14375,0.34801 -0.38874,0.2151 z m -11.30982,-0.10372 c -0.0528,-0.0529 -0.0518,-0.0599 0.0179,-0.11632 0.0917,-0.0742 0.19456,-0.0766 0.29417,-0.007 0.0722,0.0506 0.0732,0.0563 0.0189,0.11632 -0.0716,0.0791 -0.25487,0.0829 -0.33096,0.007 z m 17.12065,-0.007 c -0.0543,-0.06 -0.0534,-0.0657 0.0189,-0.11632 0.0996,-0.0698 0.20251,-0.0674 0.29417,0.007 0.0697,0.0564 0.0708,0.0635 0.0179,0.11632 -0.0761,0.0761 -0.25933,0.0723 -0.33096,-0.007 z m -17.6923,-1.06719 c -0.0859,-0.0354 -0.10005,-0.14904 -0.0222,-0.17891 0.17958,-0.0689 0.4131,0.0281 0.31016,0.12886 -0.065,0.0636 -0.19857,0.0868 -0.28795,0.0501 z m 18.38228,5.2e-4 c -0.0974,-0.0393 -0.12496,-0.0934 -0.077,-0.15124 0.0408,-0.0491 0.21598,-0.065 0.3118,-0.0282 0.0832,0.0319 0.0629,0.1437 -0.0327,0.18005 -0.0991,0.0377 -0.10737,0.0376 -0.20215,-5.1e-4 z m -17.20627,-0.86675 c -0.19594,-0.15414 -0.0516,-0.34418 0.2614,-0.34418 0.22241,0 0.34897,0.0775 0.34897,0.21356 0,0.075 -0.0231,0.11002 -0.0981,0.14879 -0.14525,0.0751 -0.40546,0.0659 -0.51231,-0.0182 z m 15.72392,0.0166 c -0.0678,-0.0368 -0.0914,-0.0749 -0.0914,-0.14746 0,-0.13589 0.12671,-0.21336 0.34897,-0.21336 0.313,0 0.45734,0.19005 0.26139,0.34418 -0.10597,0.0834 -0.37979,0.0921 -0.51896,0.0166 z m 0.62315,-1.11746 c -0.14437,-0.0819 -0.15689,-0.22266 -0.0287,-0.32345 0.10527,-0.0828 0.26164,-0.0882 0.44382,-0.0153 0.29116,0.1165 0.16857,0.37948 -0.17597,0.37746 -0.0949,-5.1e-4 -0.20254,-0.018 -0.2391,-0.0387 z m -30.99982,-1.79086 c -0.0725,-0.0422 -0.0759,-0.1496 -0.006,-0.17658 0.0926,-0.0355 0.23192,-0.0217 0.29836,0.0297 0.0633,0.049 0.0631,0.0511 -0.014,0.11632 -0.0855,0.0724 -0.18775,0.0836 -0.27882,0.0306 z m 45.26957,-0.0306 c -0.077,-0.0652 -0.0773,-0.0674 -0.0139,-0.11632 0.11731,-0.0907 0.35092,-0.0559 0.35092,0.0522 0,0.13034 -0.2113,0.17054 -0.33697,0.0641 z m -45.9256,-1.11296 c -0.0964,-0.11615 0.0949,-0.22066 0.27063,-0.14787 0.10119,0.0419 0.11899,0.0931 0.0547,0.15741 -0.0562,0.0562 -0.27614,0.0497 -0.32535,-0.01 z m 46.5351,0.01 c -0.0643,-0.0643 -0.0465,-0.1155 0.0547,-0.15741 0.17574,-0.0728 0.36703,0.0317 0.27063,0.14787 -0.0492,0.0593 -0.26915,0.0657 -0.32535,0.01 z m -32.52422,-1.23355 c -0.0961,-0.0703 -0.054,-0.17051 0.0769,-0.18305 0.16875,-0.0162 0.26932,0.0187 0.26932,0.0933 0,0.11986 -0.22521,0.17824 -0.34623,0.0897 z m 18.55062,0.008 c -0.0854,-0.0498 -0.0733,-0.15845 0.0203,-0.18195 0.14527,-0.0365 0.30215,-0.004 0.31537,0.0661 0.0233,0.12303 -0.19437,0.19818 -0.33569,0.11586 z m -34.11218,-1.65917 c -0.17044,-0.068 -0.11247,-0.19932 0.088,-0.19932 0.15057,0 0.23676,0.0779 0.16332,0.14766 -0.0672,0.0638 -0.16864,0.0847 -0.25132,0.0517 z m 49.78582,0 c -0.17043,-0.068 -0.11247,-0.19932 0.088,-0.19932 0.15057,0 0.23676,0.0779 0.16332,0.14766 -0.0672,0.0638 -0.16864,0.0847 -0.25132,0.0517 z m -50.76737,-7.32962 c -0.19238,-0.10445 -0.13543,-0.28283 0.11152,-0.34933 0.34319,-0.0924 0.68292,0.2246 0.37748,0.35222 -0.14616,0.0611 -0.37369,0.0597 -0.489,-0.003 z m 51.42867,10e-4 c -0.19626,-0.0853 -0.12013,-0.28134 0.1368,-0.35228 0.23156,-0.0639 0.51944,0.079 0.47038,0.23364 -0.0486,0.15307 -0.3793,0.21769 -0.60718,0.11864 z m -50.65085,-1.33158 c -0.22289,-0.15613 0.0857,-0.353713 0.36808,-0.235711 0.13805,0.05768 0.15473,0.122831 0.0566,0.220981 -0.0819,0.0819 -0.31709,0.0901 -0.42466,0.0148 z m 49.94461,-0.0147 c -0.0981,-0.0982 -0.0815,-0.1633 0.0566,-0.220975 0.19935,-0.08329 0.44194,-0.01551 0.44194,0.123455 0,0.15578 -0.36823,0.22782 -0.49853,0.0975 z m -46.94187,-2.711006 c -0.0688,-0.06881 -0.0659,-0.104301 0.0121,-0.146014 0.0952,-0.05094 0.28708,-0.04173 0.33505,0.01608 0.10711,0.129062 -0.22403,0.253023 -0.34711,0.129942 z m 44.03897,-0.0085 c -0.0691,-0.07638 -0.0699,-0.1258 -0.003,-0.151698 0.13013,-0.04992 0.37948,0.0015 0.37948,0.07833 0,0.126276 -0.27988,0.180738 -0.37705,0.07337 z M 150.43443,96.39567 c -0.032,-0.01864 -0.0582,-0.06276 -0.0582,-0.09806 0,-0.07414 0.10103,-0.108924 0.26959,-0.09283 0.0874,0.0083 0.11499,0.0275 0.12322,0.08548 0.0163,0.114602 -0.20124,0.183114 -0.33465,0.105407 z m 45.47957,5.12e-4 c -0.12409,-0.04977 -0.0861,-0.177999 0.0568,-0.191649 0.16904,-0.01613 0.26959,0.01864 0.26959,0.09331 0,0.114223 -0.16372,0.163555 -0.32638,0.09834 z m -38.86215,-4.78183 c -0.0637,-0.05227 -0.0716,-0.07574 -0.042,-0.124633 0.0596,-0.09833 0.25917,-0.131975 0.39597,-0.06674 0.13332,0.06358 0.14198,0.09675 0.0494,0.189289 -0.0878,0.08783 -0.29763,0.08892 -0.40345,0.002 z m 32.1095,-0.002 c -0.0925,-0.09254 -0.0839,-0.125713 0.0495,-0.189289 0.1368,-0.06524 0.33641,-0.03159 0.39597,0.06674 0.0929,0.153366 -0.30509,0.262869 -0.44541,0.122549 z"
         id="path30019"
         inkscape:connector-curvature="0" />
      <g
         style="fill:#fcfcfc;fill-opacity:1;stroke:#7f7f7f;stroke-width:0.26458332;stroke-miterlimit:4;stroke-dasharray:none;stroke-opacity:1"
         id="g34075">
        <path
           inkscape:connector-curvature="0"
           id="path30027"
           transform="scale(0.26458333)"
           d="m 655.17188,386.57227 -8,13.83984 h 6 v 18.61719 h -6 l 8,13.83984 8,-13.83984 h -6 v -18.61719 h 6 z"
           style="color:#000000;font-style:normal;font-variant:normal;font-weight:normal;font-stretch:normal;font-size:medium;line-height:normal;font-family:sans-serif;font-variant-ligatures:normal;font-variant-position:normal;font-variant-caps:normal;font-variant-numeric:normal;font-variant-alternates:normal;font-feature-settings:normal;text-indent:0;text-align:start;text-decoration:none;text-decoration-line:none;text-decoration-style:solid;text-decoration-color:#000000;letter-spacing:normal;word-spacing:normal;text-transform:none;writing-mode:lr-tb;direction:ltr;text-orientation:mixed;dominant-baseline:auto;baseline-shift:baseline;text-anchor:start;white-space:normal;shape-padding:0;clip-rule:nonzero;display:inline;overflow:visible;visibility:visible;opacity:1;isolation:auto;mix-blend-mode:normal;color-interpolation:sRGB;color-interpolation-filters:linearRGB;solid-color:#000000;solid-opacity:1;vector-effect:none;fill:#fcfcfc;fill-opacity:1;fill-rule:nonzero;stroke:#7f7f7f;stroke-width:1;stroke-linecap:butt;stroke-linejoin:miter;stroke-miterlimit:4;stroke-dasharray:none;stroke-dashoffset:0;stroke-opacity:1;color-rendering:auto;image-rendering:auto;shape-rendering:auto;text-rendering:auto;enable-background:accumulate" />
      </g>
    </g>
  </g>
</svg>
