<?xml version="1.0" encoding="UTF-8" standalone="no"?>
<svg
   xmlns:dc="http://purl.org/dc/elements/1.1/"
   xmlns:cc="http://creativecommons.org/ns#"
   xmlns:rdf="http://www.w3.org/1999/02/22-rdf-syntax-ns#"
   xmlns:svg="http://www.w3.org/2000/svg"
   xmlns="http://www.w3.org/2000/svg"
   xmlns:sodipodi="http://sodipodi.sourceforge.net/DTD/sodipodi-0.dtd"
   xmlns:inkscape="http://www.inkscape.org/namespaces/inkscape"
   width="241"
   height="241"
   viewBox="0 0 63.764581 63.764585"
   version="1.1"
   id="svg6201"
   inkscape:version="1.0 (6e3e5246a0, 2020-05-07)"
   sodipodi:docname="i1d.svg">
  <defs
     id="defs6195">
    <marker
       inkscape:isstock="true"
       style="overflow:visible"
       id="marker9466"
       refX="0"
       refY="0"
       orient="auto"
       inkscape:stockid="TriangleOutM">
      <path
         inkscape:connector-curvature="0"
         transform="scale(0.4)"
         style="fill:#000000;fill-opacity:1;fill-rule:evenodd;stroke:#000000;stroke-width:1.00000003pt;stroke-opacity:1"
         d="M 5.77,0 -2.88,5 V -5 Z"
         id="path9464" />
    </marker>
    <marker
       inkscape:isstock="true"
       style="overflow:visible"
       id="marker9348"
       refX="0"
       refY="0"
       orient="auto"
       inkscape:stockid="TriangleInM">
      <path
         inkscape:connector-curvature="0"
         transform="scale(-0.4)"
         style="fill:#000000;fill-opacity:1;fill-rule:evenodd;stroke:#000000;stroke-width:1.00000003pt;stroke-opacity:1"
         d="M 5.77,0 -2.88,5 V -5 Z"
         id="path9346" />
    </marker>
    <marker
       inkscape:stockid="TriangleOutM"
       orient="auto"
       refY="0"
       refX="0"
       id="marker9212"
       style="overflow:visible"
       inkscape:isstock="true">
      <path
         inkscape:connector-curvature="0"
         id="path9210"
         d="M 5.77,0 -2.88,5 V -5 Z"
         style="fill:#000000;fill-opacity:1;fill-rule:evenodd;stroke:#000000;stroke-width:1.00000003pt;stroke-opacity:1"
         transform="scale(0.4)" />
    </marker>
    <marker
       inkscape:stockid="TriangleInM"
       orient="auto"
       refY="0"
       refX="0"
       id="marker9106"
       style="overflow:visible"
       inkscape:isstock="true">
      <path
         inkscape:connector-curvature="0"
         id="path9104"
         d="M 5.77,0 -2.88,5 V -5 Z"
         style="fill:#000000;fill-opacity:1;fill-rule:evenodd;stroke:#000000;stroke-width:1.00000003pt;stroke-opacity:1"
         transform="scale(-0.4)" />
    </marker>
    <marker
       inkscape:isstock="true"
       style="overflow:visible"
       id="marker8509"
       refX="0"
       refY="0"
       orient="auto"
       inkscape:stockid="TriangleOutM">
      <path
         inkscape:connector-curvature="0"
         transform="scale(0.4)"
         style="fill:#000000;fill-opacity:1;fill-rule:evenodd;stroke:#000000;stroke-width:1.00000003pt;stroke-opacity:1"
         d="M 5.77,0 -2.88,5 V -5 Z"
         id="path8507" />
    </marker>
    <marker
       inkscape:stockid="TriangleInM"
       orient="auto"
       refY="0"
       refX="0"
       id="marker8403"
       style="overflow:visible"
       inkscape:isstock="true">
      <path
         inkscape:connector-curvature="0"
         id="path8401"
         d="M 5.77,0 -2.88,5 V -5 Z"
         style="fill:#000000;fill-opacity:1;fill-rule:evenodd;stroke:#000000;stroke-width:1.00000003pt;stroke-opacity:1"
         transform="scale(-0.4)" />
    </marker>
    <marker
       inkscape:stockid="TriangleOutM"
       orient="auto"
       refY="0"
       refX="0"
       id="marker6105"
       style="overflow:visible"
       inkscape:isstock="true">
      <path
         id="path6103"
         d="M 5.77,0 -2.88,5 V -5 Z"
         style="fill:#000000;fill-opacity:1;fill-rule:evenodd;stroke:#000000;stroke-width:1.00000003pt;stroke-opacity:1"
         transform="scale(0.4)"
         inkscape:connector-curvature="0" />
    </marker>
    <marker
       inkscape:stockid="TriangleOutS"
       orient="auto"
       refY="0"
       refX="0"
       id="TriangleOutS"
       style="overflow:visible"
       inkscape:isstock="true">
      <path
         id="path981"
         d="M 5.77,0 -2.88,5 V -5 Z"
         style="fill:#000000;fill-opacity:1;fill-rule:evenodd;stroke:#000000;stroke-width:1.00000003pt;stroke-opacity:1"
         transform="scale(0.2)"
         inkscape:connector-curvature="0" />
    </marker>
    <marker
       inkscape:stockid="TriangleInS"
       orient="auto"
       refY="0"
       refX="0"
       id="TriangleInS"
       style="overflow:visible"
       inkscape:isstock="true">
      <path
         id="path972"
         d="M 5.77,0 -2.88,5 V -5 Z"
         style="fill:#000000;fill-opacity:1;fill-rule:evenodd;stroke:#000000;stroke-width:1.00000003pt;stroke-opacity:1"
         transform="scale(-0.2)"
         inkscape:connector-curvature="0" />
    </marker>
    <marker
       inkscape:isstock="true"
       style="overflow:visible"
       id="marker1261"
       refX="0"
       refY="0"
       orient="auto"
       inkscape:stockid="TriangleOutL">
      <path
         transform="scale(0.8)"
         style="fill:#000000;fill-opacity:1;fill-rule:evenodd;stroke:#000000;stroke-width:1.00000003pt;stroke-opacity:1"
         d="M 5.77,0 -2.88,5 V -5 Z"
         id="path1259"
         inkscape:connector-curvature="0" />
    </marker>
    <marker
       inkscape:isstock="true"
       style="overflow:visible"
       id="marker1215"
       refX="0"
       refY="0"
       orient="auto"
       inkscape:stockid="TriangleInL">
      <path
         transform="scale(-0.8)"
         style="fill:#000000;fill-opacity:1;fill-rule:evenodd;stroke:#000000;stroke-width:1.00000003pt;stroke-opacity:1"
         d="M 5.77,0 -2.88,5 V -5 Z"
         id="path1213"
         inkscape:connector-curvature="0" />
    </marker>
    <marker
       inkscape:isstock="true"
       style="overflow:visible"
       id="marker2215-3"
       refX="0"
       refY="0"
       orient="auto"
       inkscape:stockid="TriangleInM">
      <path
         inkscape:connector-curvature="0"
         transform="scale(-0.4)"
         style="fill:#000000;fill-opacity:1;fill-rule:evenodd;stroke:#000000;stroke-width:1.00000003pt;stroke-opacity:1"
         d="M 5.77,0 -2.88,5 V -5 Z"
         id="path2213-6" />
    </marker>
    <marker
       inkscape:isstock="true"
       style="overflow:visible"
       id="marker2351-7"
       refX="0"
       refY="0"
       orient="auto"
       inkscape:stockid="TriangleOutM">
      <path
         inkscape:connector-curvature="0"
         transform="scale(0.4)"
         style="fill:#000000;fill-opacity:1;fill-rule:evenodd;stroke:#000000;stroke-width:1.00000003pt;stroke-opacity:1"
         d="M 5.77,0 -2.88,5 V -5 Z"
         id="path2349-5" />
    </marker>
  </defs>
  <sodipodi:namedview
     id="base"
     pagecolor="#ffffff"
     bordercolor="#666666"
     borderopacity="1.0"
     inkscape:pageopacity="0.0"
     inkscape:pageshadow="2"
     inkscape:zoom="0.83972969"
     inkscape:cx="115.33545"
     inkscape:cy="116.78635"
     inkscape:document-units="mm"
     inkscape:current-layer="layer1"
     showgrid="false"
     units="px"
     inkscape:window-width="1853"
     inkscape:window-height="1025"
     inkscape:window-x="67"
     inkscape:window-y="27"
     inkscape:window-maximized="1"
     inkscape:snap-global="false"
     showguides="true"
     inkscape:guide-bbox="true"
     inkscape:snap-to-guides="true"
     inkscape:snap-bbox="true"
     inkscape:bbox-nodes="true"
     inkscape:document-rotation="0">
    <sodipodi:guide
       position="34.178002,41.295163"
       orientation="0,1"
       id="guide821"
       inkscape:locked="false" />
    <sodipodi:guide
       position="31.909897,40.434847"
       orientation="1,0"
       id="guide823"
       inkscape:locked="false" />
  </sodipodi:namedview>
  <metadata
     id="metadata6198">
    <rdf:RDF>
      <cc:Work
         rdf:about="">
        <dc:format>image/svg+xml</dc:format>
        <dc:type
           rdf:resource="http://purl.org/dc/dcmitype/StillImage" />
        <dc:title></dc:title>
      </cc:Work>
    </rdf:RDF>
  </metadata>
  <g
     inkscape:label="Layer 1"
     inkscape:groupmode="layer"
     id="layer1"
     transform="translate(0,-233.2354)">
    <rect
       ry="1.8520712"
       rx="1.8520712"
       y="233.71448"
       x="0.47908357"
       height="62.806416"
       width="62.806416"
       id="rect5191"
       style="fill:#7f7f7f;fill-opacity:1;stroke:#7f7f7f;stroke-width:0.95816714;stroke-linejoin:miter;stroke-miterlimit:4;stroke-dasharray:none;stroke-opacity:1" />
    <rect
       style="fill:#7f7f7f;fill-opacity:1;stroke:#303030;stroke-width:0.264819;stroke-linejoin:miter;stroke-miterlimit:4;stroke-dasharray:none;stroke-opacity:1"
       id="rect3744"
       width="62.970596"
       height="62.970596"
       x="0.4253391"
       y="233.60405"
       rx="1.8537331"
       ry="1.8537331" />
    <path
       inkscape:connector-curvature="0"
       style="fill:#303030;fill-opacity:1;stroke-width:0.04149897"
       d="m 31.69482,291.43109 c -0.182509,-0.1238 -0.176127,-0.38737 0.01208,-0.49894 0.121569,-0.072 0.08981,-0.12349 -0.114957,-0.18601 -0.105106,-0.0321 -0.218033,-0.0753 -0.250952,-0.0962 -0.05081,-0.032 -0.05668,-0.0181 -0.03888,0.0925 0.01605,0.0996 0.003,0.14983 -0.05556,0.21382 -0.102271,0.11164 -0.302231,0.10633 -0.394831,-0.0109 -0.06292,-0.0795 -0.06862,-0.11148 -0.03651,-0.20505 0.03435,-0.10009 0.0935,-0.13283 0.331043,-0.18357 0.03143,-0.006 0.02317,-0.0476 -0.0281,-0.13907 -0.123614,-0.22051 -0.173363,-0.41472 -0.151911,-0.59301 0.03673,-0.30526 0.301361,-0.62013 0.610027,-0.72582 0.16457,-0.0564 0.157502,-0.12224 -0.01692,-0.1576 -0.347075,-0.0705 -0.694848,-0.19491 -0.949975,-0.34008 -0.147488,-0.0839 -0.281273,-0.15264 -0.297298,-0.15264 -0.01603,0 0.0048,0.0742 0.04624,0.16505 0.10019,0.21937 0.09784,0.46823 -0.006,0.64178 -0.100368,0.16763 -0.273838,0.30778 -0.438702,0.35443 -0.12805,0.0362 -0.16303,0.11444 -0.07478,0.16728 0.07934,0.0476 0.05838,0.22218 -0.03458,0.28821 -0.163319,0.116 -0.385218,-0.14859 -0.234721,-0.27996 0.0916,-0.08 0.05919,-0.1344 -0.114543,-0.19247 -0.226409,-0.0756 -0.238884,-0.0728 -0.213887,0.0499 0.02901,0.1425 -0.03297,0.24681 -0.170574,0.28707 -0.123262,0.036 -0.296654,-0.0494 -0.323787,-0.15972 -0.03383,-0.13752 0.06733,-0.25483 0.244201,-0.28333 l 0.172989,-0.0279 -0.105505,-0.20652 c -0.08375,-0.16396 -0.101563,-0.23873 -0.08639,-0.36273 0.04707,-0.3846 0.446772,-0.68833 0.832029,-0.63223 0.110966,0.0161 0.227744,0.0449 0.259507,0.0639 0.115107,0.0689 0.05379,-0.0723 -0.120464,-0.27749 -0.09802,-0.11538 -0.233894,-0.32806 -0.301945,-0.47259 -0.06805,-0.14454 -0.135792,-0.2628 -0.150532,-0.2628 -0.01474,0 -0.03646,0.06 -0.04826,0.13331 -0.0503,0.31247 -0.564217,0.44053 -0.776456,0.19346 -0.136234,-0.15858 -0.125967,-0.41442 0.02291,-0.57085 0.148497,-0.15602 0.432181,-0.16291 0.618242,-0.0156 0.07171,0.0571 0.133965,0.10368 0.13835,0.10368 0.0044,0 -8.19e-4,-0.19405 -0.01155,-0.43122 -0.01844,-0.40745 -0.01378,-0.44999 0.08449,-0.77101 0.25016,-0.81724 0.954969,-1.46695 1.791121,-1.6511 0.150805,-0.0332 0.27419,-0.0786 0.27419,-0.10072 0,-0.0221 -0.138341,-0.056 -0.307425,-0.075 -1.236068,-0.13955 -2.306346,-0.53231 -3.244303,-1.19056 -0.1895,-0.133 -0.351253,-0.23135 -0.359451,-0.21856 -0.0082,0.0125 0.06026,0.13284 0.152121,0.26681 0.387207,0.56472 0.444786,1.27382 0.152027,1.87226 -0.04513,0.0923 -0.08206,0.18096 -0.08206,0.19711 0,0.0161 0.06547,0.0293 0.145488,0.0293 0.154275,0 0.241658,0.0967 0.208621,0.23097 -0.04409,0.17915 -0.347196,0.15825 -0.37811,-0.026 -0.024,-0.14313 -0.06393,-0.12769 -0.308349,0.11865 l -0.216028,0.21774 0.178951,0.0354 c 0.327986,0.065 0.440487,0.42714 0.184499,0.59391 -0.213004,0.13876 -0.516963,0.0393 -0.562415,-0.1839 -0.01382,-0.068 -0.0019,-0.16014 0.0308,-0.23791 0.06419,-0.1528 0.07821,-0.15171 -0.313402,-0.0239 -0.17384,0.0568 -0.374106,0.11663 -0.445034,0.13315 -0.144252,0.0334 -0.129242,0.0845 0.05126,0.17442 0.235777,0.11741 0.349909,0.41686 0.259378,0.6806 -0.04007,0.11678 -0.232009,0.27838 -0.396224,0.33372 l -0.114836,0.0387 0.0759,0.0959 c 0.09486,0.11974 0.08079,0.25743 -0.03229,0.31616 -0.196237,0.10197 -0.360838,-0.18382 -0.188648,-0.32751 0.06967,-0.0582 0.06403,-0.0667 -0.0971,-0.14859 -0.319614,-0.16246 -0.423723,-0.35822 -0.35549,-0.66851 0.0287,-0.1305 0.213372,-0.31602 0.383736,-0.38548 0.115719,-0.0472 0.05693,-0.0889 -0.205466,-0.14547 -0.20032,-0.0433 -0.466839,-0.15076 -0.844405,-0.34037 -0.05851,-0.0293 -0.05716,-0.0165 0.01496,0.14126 0.104148,0.22804 0.10334,0.47413 -0.0022,0.65031 -0.100368,0.16764 -0.273839,0.30779 -0.438702,0.35444 -0.13281,0.0376 -0.158121,0.0998 -0.07136,0.17553 0.150497,0.13128 -0.0714,0.39597 -0.234722,0.27996 -0.09295,-0.0659 -0.113913,-0.24075 -0.03458,-0.28821 0.09493,-0.0567 0.04911,-0.12832 -0.117959,-0.18424 -0.226407,-0.0756 -0.238883,-0.0728 -0.213885,0.05 0.02901,0.1425 -0.03297,0.24681 -0.170575,0.28706 -0.123262,0.036 -0.296653,-0.0496 -0.323786,-0.15971 -0.03383,-0.13752 0.06733,-0.25483 0.2442,-0.28333 l 0.172988,-0.0279 -0.105504,-0.20652 c -0.131126,-0.25667 -0.118392,-0.44464 0.04634,-0.68403 0.189728,-0.27571 0.550429,-0.39106 0.866068,-0.27698 0.0726,0.0264 0.138625,0.0374 0.146712,0.0248 0.0081,-0.0125 -0.07018,-0.14546 -0.173933,-0.29508 -0.103751,-0.14968 -0.231239,-0.39621 -0.283306,-0.54783 l -0.09466,-0.27568 -0.06879,0.18178 c -0.08685,0.22951 -0.232666,0.34788 -0.469365,0.38101 -0.250487,0.0351 -0.456036,-0.0597 -0.593335,-0.27389 -0.120548,-0.18796 -0.123426,-0.30817 -0.01219,-0.50919 0.213534,-0.38587 0.824479,-0.37902 1.047414,0.0125 0.08167,0.14313 0.120113,0.0995 0.120515,-0.13705 6.65e-4,-0.40411 0.192775,-0.84222 0.523896,-1.19485 0.125855,-0.13408 0.102815,-0.21184 -0.06317,-0.21335 -0.04803,-4.2e-4 -0.107368,-0.0385 -0.131862,-0.0845 -0.03818,-0.0717 -0.03349,-0.0976 0.03285,-0.18136 0.09447,-0.11928 0.196731,-0.12458 0.296612,-0.0156 0.05407,0.0591 0.0691,0.1121 0.05346,0.18895 -0.01778,0.0873 -0.01045,0.10103 0.0402,0.0755 0.868218,-0.43932 1.396154,-0.48117 2.121018,-0.16814 0.163688,0.0706 0.302399,0.12115 0.308245,0.11195 0.0058,-0.009 -0.105648,-0.14064 -0.247763,-0.29242 -0.617934,-0.65965 -0.982204,-1.22155 -1.325592,-2.04478 -0.106994,-0.25649 -0.197546,-0.43136 -0.201228,-0.38863 -0.03119,0.36204 -0.05936,0.47504 -0.167551,0.67212 -0.07369,0.13424 -0.201415,0.281 -0.321682,0.36968 -0.174407,0.12863 -0.275087,0.17316 -0.646853,0.28626 l -0.07806,0.0239 0.09285,0.13424 0.09285,0.13424 -0.07663,0.0967 c -0.08514,0.10742 -0.206348,0.12473 -0.304098,0.043 -0.08543,-0.0713 -0.08129,-0.19322 0.01049,-0.30935 l 0.07478,-0.0946 -0.08309,-0.0254 c -0.0457,-0.014 -0.162746,-0.051 -0.260107,-0.082 -0.26299,-0.0842 -0.29481,-0.0787 -0.226952,0.0382 0.05776,0.0995 0.07082,0.25456 0.02957,0.35088 -0.08634,0.20161 -0.442472,0.24347 -0.58493,0.0688 -0.137731,-0.16892 -0.117619,-0.34276 0.05368,-0.464 0.07769,-0.055 0.200872,-0.10041 0.273745,-0.10103 l 0.132496,-8e-4 -0.170388,-0.17891 c -0.09371,-0.0984 -0.201342,-0.24026 -0.239176,-0.31526 -0.06718,-0.13315 -0.137925,-0.13533 -0.137925,-0.005 0,0.0362 -0.03833,0.12177 -0.08519,0.19044 -0.120966,0.17718 -0.511419,0.20808 -0.670015,0.053 -0.204148,-0.19957 -0.167801,-0.4949 0.08113,-0.65917 0.160793,-0.10618 0.344683,-0.0856 0.527196,0.0588 0.08992,0.0711 0.165512,0.1294 0.167973,0.12956 0.0025,1.1e-4 0.0045,-0.11288 0.0045,-0.2511 0,-0.13829 0.01789,-0.30345 0.03976,-0.36718 0.05157,-0.1503 0.02245,-0.19054 -0.08337,-0.11537 -0.197079,0.14001 -0.518278,0.0237 -0.564738,-0.20458 -0.0163,-0.08 0.0011,-0.14718 0.06309,-0.24392 0.17209,-0.26832 0.615608,-0.13596 0.646879,0.19306 0.01247,0.13113 0.0011,0.1358 0.230083,-0.0943 0.18302,-0.18401 0.216739,-0.26358 0.111696,-0.26358 -0.03453,0 -0.0981,-0.0466 -0.141249,-0.10368 l -0.07846,-0.10368 0.07846,-0.10368 c 0.09004,-0.11897 0.164325,-0.12957 0.288391,-0.0415 0.07372,0.0524 0.08443,0.0859 0.06809,0.21331 -0.01768,0.13783 -0.01281,0.14796 0.05533,0.11522 0.147589,-0.0709 0.740286,-0.0923 0.922587,-0.0332 0.254753,0.0826 0.525687,0.28839 0.672637,0.51104 0.147047,0.22278 0.151933,0.18868 0.05459,-0.38096 -0.05361,-0.31375 -0.07015,-0.56478 -0.07053,-1.07037 l -4.98e-4,-0.66046 -0.118148,0.16173 c -0.188864,0.25855 -0.321501,0.32486 -0.654745,0.32735 -0.25118,0.002 -0.325424,-0.0179 -0.463285,-0.12348 -0.114612,-0.0878 -0.168179,-0.10696 -0.177451,-0.0636 -0.04569,0.21371 -0.318935,0.30186 -0.409329,0.13206 -0.03824,-0.0719 -0.03307,-0.0981 0.03662,-0.18612 0.06291,-0.0794 0.110066,-0.0953 0.209706,-0.0705 0.09709,0.0242 0.12426,0.0159 0.111026,-0.0342 -0.0096,-0.0365 -0.03533,-0.15108 -0.0571,-0.25487 l -0.03958,-0.18872 -0.113554,0.10447 c -0.175969,0.16187 -0.443072,0.061 -0.443072,-0.16749 0,-0.24615 0.335464,-0.31812 0.482057,-0.10337 l 0.08269,0.12115 0.112962,-0.20316 0.11296,-0.20318 -0.135382,-0.0377 c -0.157515,-0.044 -0.206807,-0.1043 -0.178648,-0.21865 0.05806,-0.2359 0.387468,-0.18469 0.387468,0.0602 0,0.116 0.01017,0.12676 0.0914,0.097 0.522941,-0.19233 1.013244,0.0172 1.137847,0.48617 0.05302,0.19959 0.082,0.1675 0.151074,-0.16729 0.0308,-0.14921 0.122601,-0.46626 0.204007,-0.70438 0.0814,-0.23811 0.140995,-0.44385 0.132423,-0.45721 -0.0086,-0.014 -0.06027,0.0125 -0.114887,0.0558 -0.2263,0.18246 -0.532342,0.14984 -0.716793,-0.0762 -0.22409,-0.27484 0.02013,-0.72153 0.394482,-0.72153 0.239877,0 0.481909,0.22574 0.481909,0.44949 0,0.0663 0.01253,0.12053 0.02784,0.12053 0.02853,0 0.537152,-0.85104 0.537152,-0.89878 0,-0.014 -0.0795,-0.014 -0.176673,0.002 -0.222854,0.0359 -0.388322,-0.0781 -0.388322,-0.2675 0,-0.17948 0.118006,-0.2866 0.315733,-0.2866 0.198368,0 0.315733,0.10712 0.315733,0.28794 0,0.0695 0.01409,0.12661 0.03132,0.12661 0.04473,0 0.457802,-0.47947 0.479902,-0.55705 0.01321,-0.0463 -0.02309,-0.0647 -0.127686,-0.0647 -0.122867,0 -0.250594,-0.0924 -0.250594,-0.18136 0,-0.0784 0.125257,-0.18137 0.220587,-0.18137 0.171742,0 0.254894,0.0851 0.230602,0.23601 -0.02486,0.15435 -0.01439,0.14843 0.4296,-0.24671 0.584002,-0.51969 1.500105,-1.03345 2.293158,-1.28603 0.362834,-0.11554 1.34473,-0.30899 1.570357,-0.30937 0.07769,-1.1e-4 0.141249,-0.0193 0.141249,-0.0426 0,-0.0232 -0.404692,-0.0713 -0.899315,-0.10649 -3.470793,-0.2475 -6.806938,-1.5007 -9.409072,-3.53443 -0.398454,-0.31142 -0.559475,-0.4238 -0.559475,-0.39047 0,0.009 0.141847,0.18563 0.315215,0.39149 0.546122,0.64844 0.926669,1.40258 1.106109,2.19197 0.06852,0.30143 0.08851,0.50233 0.100496,1.00965 0.01491,0.63142 0.01517,0.63312 0.08484,0.55704 0.08084,-0.0882 0.295994,-0.10088 0.389629,-0.0226 0.07675,0.0641 0.08387,0.21923 0.0142,0.30939 -0.08373,0.10836 -0.30026,0.0886 -0.409554,-0.0374 l -0.09797,-0.11288 -0.08678,0.38113 c -0.111194,0.48836 -0.110445,0.51611 0.01128,0.41796 0.204645,-0.16499 0.600926,-0.0597 0.648132,0.17218 0.04956,0.24346 -0.111896,0.4224 -0.381135,0.4224 -0.203646,0 -0.281651,-0.0577 -0.364276,-0.26956 l -0.06214,-0.15931 -0.110568,0.24885 c -0.06081,0.13689 -0.181607,0.37691 -0.268433,0.53341 -0.16556,0.29842 -0.197193,0.40822 -0.09971,0.34607 0.258741,-0.16493 0.571016,-0.16393 0.788866,0.003 0.177688,0.1358 0.239485,0.31505 0.198224,0.57516 -0.02825,0.17809 -0.05086,0.21125 -0.214375,0.31437 -0.305822,0.19292 -0.662916,0.14126 -0.865995,-0.12504 -0.09159,-0.12021 -0.10232,-0.16213 -0.09219,-0.36072 0.0063,-0.12364 0.0011,-0.22475 -0.01156,-0.22475 -0.01267,0 -0.147375,0.14001 -0.299355,0.31105 -0.151981,0.17108 -0.437103,0.44019 -0.633605,0.59802 -0.196503,0.15786 -0.357277,0.30105 -0.357277,0.31823 0,0.0172 0.101007,0.0165 0.22446,-0.002 0.442116,-0.0641 0.919735,0.1607 1.092665,0.51417 0.05245,0.10727 0.09372,0.27129 0.103999,0.41345 0.01382,0.19113 0.02718,0.22924 0.07067,0.20153 0.151384,-0.0964 0.245337,-0.11475 0.351721,-0.0689 0.21709,0.0934 0.217518,0.3488 7.68e-4,0.46032 -0.151701,0.0781 -0.332478,-0.009 -0.393519,-0.1916 l -0.04411,-0.13128 -0.06355,0.12489 c -0.03496,0.0687 -0.112161,0.18068 -0.17157,0.24883 -0.05941,0.0681 -0.108013,0.14282 -0.108013,0.16596 0,0.0231 0.06356,0.0421 0.141248,0.0423 0.16888,2e-4 0.357278,0.16168 0.357278,0.30618 0,0.13035 -0.142707,0.30388 -0.283704,0.34512 -0.134652,0.0393 -0.31799,-0.048 -0.401052,-0.19106 -0.05822,-0.10025 -0.05846,-0.1135 -0.0048,-0.25919 l 0.05652,-0.15357 -0.256781,0.0343 c -0.298669,0.0399 -0.34704,0.0834 -0.24126,0.21701 0.155803,0.1967 -0.03608,0.47255 -0.284914,0.40959 -0.242033,-0.0613 -0.285631,-0.2822 -0.09101,-0.46122 0.134733,-0.12396 0.149338,-0.1 -0.168154,-0.27561 -0.202254,-0.11179 -0.402856,-0.38799 -0.452601,-0.62299 -0.05234,-0.24729 0.0055,-0.49309 0.178386,-0.75771 0.09642,-0.14765 0.118018,-0.20323 0.0716,-0.18441 -0.03656,0.0156 -0.19646,0.0867 -0.355336,0.15981 -0.570638,0.26251 -1.050267,0.39381 -1.94899,0.53352 -0.0975,0.0156 -0.170363,0.0384 -0.161907,0.0516 0.0085,0.0125 0.137743,0.0695 0.287305,0.1252 0.344196,0.12816 0.58315,0.30417 0.780256,0.57468 0.209377,0.28735 0.285297,0.53315 0.285297,0.92366 0,0.28316 0.03218,0.38957 0.08076,0.26704 0.03692,-0.0931 0.246945,-0.11398 0.366163,-0.0362 0.09091,0.0593 0.118072,0.10696 0.118072,0.20729 0,0.16566 -0.08537,0.23766 -0.281824,0.23766 -0.118106,0 -0.171831,-0.029 -0.234257,-0.12629 l -0.081,-0.12629 -0.199985,0.3118 c -0.109991,0.1715 -0.199985,0.32265 -0.199985,0.33591 0,0.0125 0.05244,0.009 0.116545,-0.009 0.278193,-0.0814 0.614627,0.145 0.614627,0.41359 0,0.33662 -0.424232,0.56112 -0.707312,0.37432 -0.206758,-0.13643 -0.256677,-0.31077 -0.175185,-0.61176 0.02047,-0.0756 -0.007,-0.0714 -0.220062,0.034 -0.133903,0.0663 -0.318239,0.1372 -0.409636,0.15764 -0.253747,0.0569 -0.275136,0.0985 -0.103276,0.20088 0.162191,0.0965 0.319304,0.34121 0.319304,0.49715 0,0.16318 -0.16131,0.40854 -0.309874,0.47134 -0.253624,0.10727 -0.245923,0.097 -0.157093,0.20986 0.111534,0.14188 0.0578,0.27201 -0.120905,0.29295 -0.182706,0.0214 -0.249256,-0.0987 -0.147874,-0.26702 0.07659,-0.12707 0.06496,-0.18895 -0.03552,-0.18895 -0.0798,0 -0.299906,-0.1745 -0.358176,-0.28397 -0.120002,-0.22545 -0.0015,-0.59077 0.228677,-0.70532 0.160916,-0.0801 0.196124,-0.13985 0.09962,-0.1691 -0.04377,-0.0125 -0.214188,-0.075 -0.378701,-0.13721 -0.164514,-0.0622 -0.333286,-0.12551 -0.375048,-0.14063 -0.0707,-0.0256 -0.07327,-0.0184 -0.03733,0.10462 0.0634,0.21695 0.01274,0.39271 -0.145486,0.50469 -0.269556,0.19079 -0.61133,0.0864 -0.720334,-0.22006 -0.04577,-0.12863 -0.04434,-0.15155 0.01741,-0.28058 0.09501,-0.1984 0.287892,-0.2933 0.523213,-0.25743 l 0.193014,0.0295 -0.217669,-0.3344 -0.217671,-0.33441 -0.08185,0.12754 c -0.166915,0.26023 -0.561974,0.11958 -0.501298,-0.17843 0.04031,-0.19801 0.280503,-0.23769 0.518989,-0.0857 0.04532,0.0288 0.05059,-0.006 0.0376,-0.25052 -0.03727,-0.70074 0.374437,-1.28238 1.092556,-1.5435 0.163944,-0.0596 0.292955,-0.11631 0.286692,-0.12614 -0.0063,-0.009 -0.189918,-0.0418 -0.408121,-0.0713 -0.835936,-0.11257 -1.575033,-0.37496 -2.253761,-0.79992 -0.253637,-0.15879 -0.475881,-0.28872 -0.493874,-0.28872 -0.01799,0 0.05275,0.13113 0.1572,0.29141 0.232859,0.3573 0.314223,0.62025 0.315194,1.01864 8.19e-4,0.32914 -0.05088,0.56762 -0.180362,0.8323 -0.108132,0.22104 -0.10662,0.25698 0.0091,0.21733 0.140354,-0.048 0.278706,0.05 0.26565,0.18836 -0.02291,0.24273 -0.392817,0.22835 -0.392817,-0.0156 0,-0.0536 -0.0079,-0.0973 -0.01763,-0.0973 -0.03659,0 -0.480892,0.43246 -0.480892,0.46807 0,0.0206 0.08203,0.0479 0.182278,0.0608 0.193474,0.0249 0.316248,0.14313 0.316248,0.30442 0,0.11491 -0.138716,0.28902 -0.264659,0.33213 -0.127003,0.0435 -0.341217,-0.051 -0.418837,-0.18468 -0.0601,-0.10352 -0.06027,-0.11413 -0.0042,-0.26633 0.03209,-0.0872 0.05414,-0.16402 0.049,-0.17077 -0.0051,-0.006 -0.121514,0.0298 -0.258609,0.0812 -0.137095,0.0514 -0.342737,0.10945 -0.456982,0.12894 -0.114246,0.0195 -0.207719,0.0524 -0.207719,0.0731 0,0.0207 0.05915,0.0652 0.131441,0.099 0.333297,0.15576 0.434455,0.53199 0.221413,0.82363 -0.06184,0.0847 -0.170155,0.1708 -0.240701,0.19145 -0.180931,0.0528 -0.189047,0.0709 -0.09117,0.20217 0.08277,0.11101 0.08416,0.12099 0.02885,0.20719 -0.07479,0.11663 -0.277928,0.0957 -0.328963,-0.0337 -0.0299,-0.0758 -0.02142,-0.11086 0.04627,-0.19111 0.06428,-0.0762 0.07174,-0.10384 0.03323,-0.12348 -0.0273,-0.014 -0.106099,-0.0522 -0.175111,-0.0854 -0.187819,-0.0901 -0.323198,-0.28886 -0.323198,-0.47445 0,-0.20365 0.147082,-0.4318 0.327099,-0.50737 0.076,-0.032 0.138192,-0.0761 0.138192,-0.0984 0,-0.0221 -0.123386,-0.0664 -0.274189,-0.0979 -0.150803,-0.0317 -0.398974,-0.11927 -0.551489,-0.19458 -0.152515,-0.0753 -0.285779,-0.12379 -0.296142,-0.10758 -0.01036,0.0162 0.0066,0.0733 0.03777,0.12691 0.03114,0.0536 0.06493,0.1775 0.0751,0.27522 0.01498,0.14391 7.68e-4,0.21056 -0.07482,0.35062 -0.09622,0.17829 -0.311439,0.36169 -0.42842,0.36511 -0.03656,7.9e-4 -0.0889,0.0243 -0.116323,0.0515 -0.04231,0.0421 -0.03852,0.062 0.02504,0.13174 0.157092,0.17252 -0.06303,0.37672 -0.271587,0.25195 -0.07022,-0.042 -0.06695,-0.20996 0.0053,-0.27299 0.07438,-0.0649 0.04483,-0.1079 -0.1134131,-0.16524 -0.1965982,-0.0711 -0.2396125,-0.0619 -0.2212774,0.0474 0.0285,0.16997 -0.078081,0.27355 -0.2638136,0.25637 -0.3080249,-0.0285 -0.3075439,-0.33877 6.65e-4,-0.42574 l 0.168534,-0.0476 -0.1035526,-0.20091 c -0.1020947,-0.19807 -0.1028727,-0.20393 -0.05524,-0.4171 0.090561,-0.40528 0.3677653,-0.58399 0.8416917,-0.54261 l 0.294855,0.0257 -0.185027,-0.275 c -0.101766,-0.15124 -0.223487,-0.39333 -0.27049,-0.53794 -0.047,-0.14469 -0.0923,-0.26295 -0.100665,-0.26295 -0.0084,0 -0.03833,0.0697 -0.06659,0.15498 -0.1677455,0.50576 -0.9301913,0.51435 -1.1202834,0.0125 -0.05061,-0.13362 -0.05082,-0.15947 -0.0025,-0.31501 0.1490739,-0.47989 0.8652743,-0.53798 1.1039854,-0.0895 0.06884,0.12926 0.101722,0.0961 0.101722,-0.10321 0,-0.10166 0.03195,-0.30051 0.071,-0.44203 0.03905,-0.14157 0.06248,-0.27059 0.05208,-0.28682 -0.0104,-0.0162 -0.07388,-0.002 -0.141064,0.0334 -0.3531693,0.18172 -0.6865523,-0.2476 -0.4057596,-0.52254 0.2171484,-0.21261 0.5835996,-0.0572 0.5986266,0.25376 0.003,0.0619 0.01574,0.11257 0.02833,0.11257 0.01259,0 0.115829,-0.12239 0.229425,-0.27203 l 0.206538,-0.27206 -0.139617,-0.0299 c -0.187403,-0.0402 -0.259611,-0.20201 -0.136152,-0.30502 0.162038,-0.13518 0.380031,-0.008 0.344966,0.20068 -0.01587,0.0946 0.0012,0.0917 0.283648,-0.0499 0.422763,-0.21198 0.723253,-0.27438 1.151646,-0.23918 0.321338,0.0265 0.755899,0.1636 1.030287,0.32526 0.08355,0.0493 -0.06808,-0.15186 -0.298081,-0.39529 -0.238066,-0.25197 -0.667725,-0.90684 -0.832119,-1.26828 -0.158803,-0.34916 -0.286023,-0.72776 -0.348238,-1.03636 -0.06408,-0.31786 -0.08907,-0.31953 -0.146815,-0.009 -0.03722,0.19964 -0.09647,0.35488 -0.196953,0.51608 -0.26999,0.43313 -0.854105,0.76331 -1.350341,0.76331 -0.110447,0 -0.2008122,0.0125 -0.2008122,0.0284 0,0.0156 0.0394,0.0812 0.087561,0.14578 0.07459,0.1001 0.08198,0.13377 0.04989,0.2272 -0.09761,0.28435 -0.5362711,0.22787 -0.5362711,-0.0691 0,-0.10025 0.02714,-0.14812 0.1176618,-0.20702 0.1118866,-0.0728 0.1305138,-0.17715 0.03165,-0.17715 -0.0254,0 -0.167994,-0.06 -0.3168829,-0.13331 -0.2648587,-0.1305 -0.3494432,-0.13377 -0.2705777,-0.0109 0.02163,0.0337 0.03933,0.12254 0.03933,0.19737 0,0.44325 -0.6091027,0.60823 -0.8513142,0.23059 -0.1064637,-0.16598 -0.099801,-0.29941 0.023,-0.46052 0.1298328,-0.17033 0.2175624,-0.20357 0.4639409,-0.17578 0.1090097,0.0125 0.1981992,0.0125 0.1981992,8e-4 0,-0.0125 -0.07552,-0.12723 -0.16783,-0.25656 -0.092311,-0.1294 -0.1978123,-0.3269 -0.2344565,-0.43889 l -0.06663,-0.20363 -0.0734,0.17188 c -0.1104836,0.25871 -0.2934718,0.37956 -0.5710545,0.37713 -0.4540518,-0.005 -0.7067404,-0.38371 -0.5120732,-0.76956 0.099001,-0.19624 0.2703837,-0.29084 0.5244403,-0.28953 0.2478865,0.002 0.4745749,0.13081 0.5344983,0.30535 0.05756,0.16769 0.091051,0.1291 0.1094997,-0.12613 0.0099,-0.13752 0.05628,-0.32416 0.1123357,-0.45242 0.05248,-0.12005 0.1070906,-0.2471 0.1213667,-0.28231 0.01896,-0.0468 -0.01124,-0.0437 -0.1121927,0.0125 -0.1870281,0.10291 -0.3838884,0.0939 -0.5523654,-0.0254 -0.2368475,-0.16762 -0.2358175,-0.51109 0.002,-0.67947 0.3457102,-0.24474 0.7925949,0.0179 0.7391616,0.43448 -0.0104,0.0811 -0.0073,0.1397 0.007,0.13035 0.01423,-0.009 0.148561,-0.11039 0.2985069,-0.22439 0.2609806,-0.19842 0.329326,-0.285 0.2249654,-0.285 -0.090361,0 -0.2162493,-0.11912 -0.2377925,-0.22487 -0.03143,-0.15436 0.094451,-0.29331 0.2657507,-0.29331 0.2338844,0 0.3541242,0.21165 0.2359254,0.41529 -0.04678,0.0806 -0.01724,0.0864 0.4237471,0.0834 0.514819,-0.003 0.754659,0.0666 1.06458,0.31154 0.194115,0.15342 0.426846,0.47671 0.530916,0.73762 l 0.075,0.18804 0.02054,-0.54409 c 0.02405,-0.63717 0.119505,-1.13268 0.32552,-1.68979 0.07472,-0.20205 0.135849,-0.38352 0.135849,-0.40324 0,-0.0198 -0.06356,0.0214 -0.141249,0.0915 -0.42298,0.38121 -1.024363,0.38676 -1.433166,0.0125 -0.07941,-0.0725 -0.169745,-0.19227 -0.20075,-0.26605 l -0.05637,-0.13408 -0.09462,0.15792 c -0.07827,0.13066 -0.12038,0.15793 -0.243777,0.15793 -0.3017924,0 -0.391051,-0.34741 -0.1215983,-0.47328 0.1085507,-0.0507 0.1541263,-0.0466 0.2697703,0.0242 0.07653,0.0469 0.141914,0.0797 0.145287,0.0728 0.0034,-0.008 0.01472,-0.14843 0.02522,-0.31464 0.01704,-0.26987 0.01309,-0.29823 -0.03696,-0.26483 -0.03082,0.0206 -0.138301,0.048 -0.238837,0.0611 -0.1517432,0.0196 -0.1983175,0.005 -0.274189,-0.0887 -0.1995532,-0.24553 -0.05874,-0.54167 0.257572,-0.54167 0.210441,0 0.348968,0.12239 0.348968,0.30839 0,0.15545 0.02068,0.15854 0.149557,0.0221 0.05484,-0.058 0.149388,-0.13892 0.210112,-0.17994 0.121455,-0.0818 0.114545,-0.18022 -0.01266,-0.18022 -0.07782,0 -0.214065,-0.15979 -0.214065,-0.25105 0,-0.0948 0.13429,-0.22529 0.254992,-0.24764 0.226735,-0.0419 0.335173,0.13113 0.273787,0.43711 -0.01038,0.0518 0.0537,0.0711 0.268862,0.0808 0.37645,0.017 0.62892,0.14672 0.82534,0.42412 0.15441,0.21807 0.155091,0.22051 0.154522,0.5548 l -5.63e-4,0.33579 0.256521,-0.37156 c 0.24327,-0.35236 0.429942,-0.57125 0.749983,-0.87938 0.07769,-0.0748 0.141249,-0.15373 0.141249,-0.17522 0,-0.0215 -0.113086,-0.0304 -0.251304,-0.0195 -0.291907,0.0229 -0.506489,-0.0779 -0.61245,-0.28792 -0.08906,-0.17651 -0.08423,-0.32079 0.01794,-0.53591 l 0.08476,-0.17847 -0.13955,-0.0259 c -0.173214,-0.0321 -0.246421,-0.17438 -0.148259,-0.28803 0.139665,-0.1617 0.378674,-0.0385 0.342595,0.17665 -0.0217,0.12941 -0.01693,0.13066 0.20261,0.0516 0.319962,-0.11507 0.730523,0.1213 0.783647,0.45129 0.01495,0.0929 6.14e-4,0.19288 -0.0448,0.31295 -0.07995,0.21128 -0.03802,0.23256 0.156646,0.0795 0.06782,-0.0533 0.280342,-0.18565 0.472275,-0.29407 0.191932,-0.10836 0.361124,-0.21315 0.375982,-0.23275 0.01486,-0.0197 -0.04842,-0.0513 -0.140631,-0.0703 -0.334715,-0.0692 -0.449226,-0.45879 -0.185384,-0.63067 0.355022,-0.23128 0.759864,0.11865 0.546658,0.47244 -0.04191,0.0695 -0.06927,0.1372 -0.0608,0.15045 0.0085,0.0125 0.104498,-0.008 0.213388,-0.0466 0.108891,-0.0388 0.283979,-0.0979 0.389086,-0.13112 0.105105,-0.0332 0.191101,-0.077 0.191101,-0.0973 0,-0.0203 -0.04483,-0.0632 -0.09963,-0.0954 -0.136345,-0.0803 -0.163767,-0.21449 -0.06841,-0.33489 0.125964,-0.15903 0.397872,-0.10945 0.444767,0.0811 0.01027,0.0418 -0.01328,0.13923 -0.05232,0.21658 l -0.07099,0.14063 0.164244,-0.034 c 0.09033,-0.0187 0.427866,-0.0489 0.75007,-0.0673 1.124923,-0.0639 2.182971,0.20835 3.154168,0.81161 0.186778,0.116 0.352529,0.20414 0.368335,0.19583 0.01581,-0.008 -0.218429,-0.25996 -0.520522,-0.5592 -1.854309,-1.83684 -3.207393,-3.96792 -4.022095,-6.33473 -0.10546,-0.30636 -0.200445,-0.55704 -0.211079,-0.55704 -0.01063,0 -0.01933,0.25068 -0.01933,0.55704 0,0.52199 -0.0067,0.57845 -0.10677,0.8972 -0.141104,0.44955 -0.454403,0.97393 -0.778567,1.30311 -0.264479,0.2686 -0.285922,0.34913 -0.09343,0.35092 0.09836,8.1e-4 0.164514,0.0872 0.164514,0.21441 0,0.13268 -0.19161,0.21784 -0.326005,0.14484 -0.08731,-0.0474 -0.106052,-0.085 -0.106052,-0.21233 0,-0.0851 -0.01123,-0.14687 -0.02497,-0.13736 -0.01373,0.009 -0.163289,0.0962 -0.332351,0.19275 -0.317963,0.18155 -0.382312,0.26496 -0.204393,0.26496 0.05664,0 0.153307,0.0373 0.214805,0.0828 0.274973,0.20344 0.121071,0.5909 -0.23471,0.5909 -0.31418,0 -0.459646,-0.25693 -0.296126,-0.52303 0.10937,-0.17799 0.118784,-0.17631 -0.384671,-0.0691 -0.210498,0.0449 -0.448091,0.0932 -0.527982,0.10774 -0.160628,0.029 -0.150317,0.0778 0.03608,0.17063 0.170228,0.0848 0.32521,0.32076 0.32521,0.49517 0,0.19523 -0.183999,0.46785 -0.367593,0.54463 -0.203927,0.0853 -0.210734,0.0976 -0.116941,0.2127 0.09928,0.12177 0.08169,0.22704 -0.04989,0.29855 -0.203462,0.11054 -0.406027,-0.1577 -0.229982,-0.30458 0.101251,-0.0845 0.08012,-0.14282 -0.0657,-0.18116 -0.160454,-0.0423 -0.330591,-0.21318 -0.397654,-0.39946 -0.04441,-0.12333 -0.04389,-0.15657 0.0049,-0.31617 0.05066,-0.16561 0.156525,-0.27592 0.408581,-0.42566 0.05665,-0.0337 0.04929,-0.0454 -0.04985,-0.0789 -0.06398,-0.0217 -0.26588,-0.0655 -0.448673,-0.0975 -0.182792,-0.032 -0.466847,-0.11584 -0.631232,-0.18637 -0.380864,-0.16359 -0.42622,-0.16201 -0.29935,0.0109 0.216713,0.29449 0.273654,0.62537 0.164343,0.95494 -0.06236,0.18803 -0.311059,0.44442 -0.505567,0.52122 -0.078,0.0309 -0.149015,0.0742 -0.157817,0.0964 -0.0088,0.0221 0.03632,0.0886 0.100271,0.14734 0.130085,0.11974 0.145043,0.20927 0.05593,0.335 -0.09248,0.1305 -0.2446089,0.15743 -0.3823298,0.0677 -0.1396109,-0.0909 -0.159629,-0.22357 -0.05585,-0.36999 0.098931,-0.13954 0.08188,-0.18122 -0.074781,-0.18259 -0.07769,-6.8e-4 -0.2006532,-0.0226 -0.2732567,-0.049 -0.1447719,-0.0524 -0.1838321,-0.0329 -0.1233488,0.0614 0.02163,0.0337 0.03933,0.12598 0.03933,0.20508 0,0.38366 -0.6257749,0.43218 -0.6867733,0.0532 -0.03158,-0.1962 0.1128177,-0.37319 0.3044629,-0.37319 0.08016,0 0.153841,-0.0204 0.163739,-0.0454 0.0099,-0.0249 -0.03783,-0.10587 -0.1060526,-0.17977 -0.068231,-0.0739 -0.1434119,-0.18307 -0.1670771,-0.2426 -0.04257,-0.10711 -0.04403,-0.10649 -0.1379658,0.0502 -0.07861,0.13113 -0.1205898,0.15846 -0.2440965,0.15846 -0.1883532,0 -0.3256941,-0.14999 -0.2697797,-0.29469 0.01996,-0.0516 0.079101,-0.12661 0.1314018,-0.1666 0.092321,-0.0706 0.2073373,-0.05 0.3845764,0.0684 0.04449,0.0298 0.05656,-0.009 0.07005,-0.22848 0.01228,-0.1993 0.03996,-0.30328 0.1124217,-0.42228 0.2138303,-0.35116 0.641546,-0.54919 1.0516335,-0.4869 0.141042,0.0214 0.224338,0.0156 0.224338,-0.0175 0,-0.0284 -0.02919,-0.0659 -0.06485,-0.0836 -0.1010266,-0.0499 -0.5453193,-0.51516 -0.6995763,-0.73244 -0.07645,-0.10773 -0.2086753,-0.34806 -0.2938298,-0.53416 l -0.154825,-0.33835 -0.02107,0.26805 c -0.02722,0.34624 -0.1259398,0.58984 -0.320449,0.79072 -0.1511959,0.15613 -0.4577089,0.32304 -0.7136934,0.3886 -0.1406389,0.036 -0.15454,0.0769 -0.05816,0.17066 0.08011,0.078 0.083391,0.13377 0.01424,0.2415 -0.094561,0.14749 -0.3798284,0.0733 -0.3798284,-0.0989 0,-0.0402 0.03275,-0.10868 0.07277,-0.15249 0.04002,-0.0438 0.0662,-0.0887 0.05816,-0.10009 -0.02356,-0.0334 -0.5412583,-0.1883 -0.5554094,-0.16624 -0.0071,0.0109 0.0118,0.0789 0.04198,0.15061 0.1072466,0.2552 -0.042,0.44843 -0.3463562,0.44843 -0.1776971,0 -0.3346691,-0.14578 -0.3346691,-0.31091 0,-0.16605 0.156941,-0.31091 0.3368331,-0.31091 0.088931,0 0.161693,-0.0221 0.161693,-0.0493 0,-0.0271 -0.06617,-0.12036 -0.1470379,-0.20707 -0.08087,-0.0867 -0.1764971,-0.21611 -0.2125023,-0.28747 -0.08284,-0.16421 -0.091891,-0.16268 -0.1332628,0.0223 -0.097291,0.43514 -0.7517567,0.45397 -0.8770475,0.0252 -0.03123,-0.1068 -0.02624,-0.15217 0.02955,-0.2687 0.1324128,-0.27653 0.5037831,-0.33431 0.7356456,-0.11444 0.05925,0.0563 0.1148507,0.10212 0.1235487,0.10212 0.0087,0 0.01653,-0.11069 0.01741,-0.24614 0.0024,-0.36638 0.083951,-0.573 0.321292,-0.8138 0.2194354,-0.22265 0.2509956,-0.28732 0.1402179,-0.28732 -0.1903702,0 -0.2710497,-0.26972 -0.1093507,-0.36557 0.06089,-0.036 0.1231698,-0.034 0.2028233,0.008 0.1048176,0.054 0.1131887,0.073 0.094981,0.21487 -0.01899,0.14796 -0.01545,0.15404 0.07137,0.12317 0.05024,-0.0179 0.2334175,-0.0463 0.4070705,-0.0633 0.5093732,-0.0497 0.8812115,0.12754 1.1882764,0.56676 l 0.15138,0.21655 -0.02281,-0.15545 c -0.05061,-0.34489 -0.06122,-0.85868 -0.02268,-1.09863 0.02196,-0.13673 0.08374,-0.38341 0.1372908,-0.54813 0.05355,-0.16474 0.097351,-0.3108 0.097351,-0.32461 0,-0.014 -0.086001,0.0422 -0.1911011,0.12457 -0.3427082,0.26849 -0.6988214,0.33113 -1.0565396,0.1859 -0.4911061,-0.19938 -0.6874163,-0.5769 -0.5981797,-1.15032 l 0.02622,-0.16848 -0.1194187,0.0778 c -0.1494199,0.0973 -0.2907028,0.0989 -0.4351507,0.005 -0.15354,-0.10009 -0.1826361,-0.26504 -0.07604,-0.43124 0.1766811,-0.27545 0.6022018,-0.18342 0.643588,0.13923 0.01113,0.0869 0.02403,0.15776 0.02867,0.15776 0.0047,0 0.095361,-0.0816 0.2016103,-0.18138 0.1062446,-0.0998 0.2061512,-0.18134 0.2220153,-0.18134 0.06874,0 -0.01636,-0.0932 -0.1124697,-0.12317 -0.2175593,-0.0678 -0.2634966,-0.2853 -0.08985,-0.42531 0.1150177,-0.0928 0.327741,-0.0762 0.4113325,0.032 0.06299,0.0815 0.062,0.2273 -0.0021,0.31026 -0.02786,0.036 -0.04332,0.077 -0.03435,0.0909 0.009,0.014 0.155148,0.0307 0.324845,0.0371 0.6249969,0.0237 1.0294264,0.45625 0.9776271,1.04546 -0.01085,0.12349 -0.011,0.22446 -3.32e-4,0.22446 0.01067,0 0.096381,-0.10789 0.1904652,-0.23984 0.1935622,-0.27139 0.4229676,-0.5095 0.7272606,-0.75489 l 0.208205,-0.16789 -0.250418,-0.0334 c -0.2765871,-0.0368 -0.422817,-0.13065 -0.5276717,-0.33855 -0.1019546,-0.20208 -0.088171,-0.36875 0.04692,-0.5674 0.1376269,-0.20236 0.1420359,-0.22982 0.03692,-0.22982 -0.04367,0 -0.1142277,-0.044 -0.156788,-0.0978 -0.06491,-0.082 -0.07049,-0.1107 -0.03462,-0.17804 0.05973,-0.11226 0.2087403,-0.15342 0.318907,-0.0881 0.07901,0.0469 0.090091,0.0767 0.07425,0.20022 l -0.01862,0.14516 0.2555617,-0.003 c 0.544985,-0.006 0.812907,0.46997 0.530053,0.94074 -0.08475,0.1411 -0.05071,0.14733 0.207417,0.0379 0.100536,-0.0426 0.315763,-0.11163 0.478282,-0.15357 0.162518,-0.0418 0.302102,-0.0864 0.310186,-0.099 0.0081,-0.0125 -0.05236,-0.0691 -0.134327,-0.12566 -0.159166,-0.10977 -0.21415,-0.25353 -0.158726,-0.415 0.08606,-0.25071 0.496144,-0.28799 0.652279,-0.0593 0.106017,0.15529 0.103384,0.20626 -0.02016,0.3903 l -0.10216,0.15217 0.309879,0.0279 c 0.343327,0.031 0.428996,0.006 0.345214,-0.10306 -0.07462,-0.0965 -0.06418,-0.19511 0.03099,-0.29232 0.09318,-0.0953 0.283384,-0.067 0.346348,0.0513 0.04806,0.0903 0.01401,0.22582 -0.06677,0.2658 -0.08593,0.0426 -0.08001,0.12068 0.01138,0.15014 0.04113,0.014 0.226103,0.0703 0.411053,0.12692 0.738843,0.22612 1.302109,0.67002 1.765844,1.39164 0.169083,0.26312 0.307424,0.45904 0.307424,0.43537 0,-0.0237 -0.05983,-0.32709 -0.132955,-0.6743 -0.342435,-1.6259 -0.441204,-3.50414 -0.26321,-5.00536 0.02998,-0.25283 0.02382,-0.41055 -0.01302,-0.33381 -0.0057,0.0125 -0.06636,0.14313 -0.134805,0.29158 -0.06844,0.14843 -0.181784,0.34081 -0.251873,0.42734 -0.289886,0.35798 -0.8644,0.6732 -1.380503,0.75749 l -0.198882,0.0324 0.07686,0.097 c 0.04227,0.0533 0.0718,0.13798 0.06562,0.18798 -0.01563,0.12661 -0.170615,0.20335 -0.284458,0.14095 -0.117229,-0.0642 -0.133876,-0.2062 -0.03833,-0.32683 l 0.07521,-0.095 -0.147386,-0.0312 c -0.08106,-0.0171 -0.23609,-0.0469 -0.344505,-0.0663 l -0.197117,-0.0351 0.07249,0.14375 c 0.0931,0.18452 0.09124,0.23962 -0.01328,0.3927 -0.07232,0.10586 -0.119105,0.12567 -0.298361,0.12567 -0.185229,0 -0.223841,-0.0176 -0.299958,-0.13627 -0.06354,-0.099 -0.08123,-0.16635 -0.06487,-0.24671 0.02629,-0.12909 0.17826,-0.2648 0.296669,-0.2648 0.04553,0 0.09103,-0.0209 0.101115,-0.0463 0.01407,-0.0355 -0.33458,-0.3351 -0.717739,-0.61679 -0.0121,-0.009 -0.01392,0.0778 -0.004,0.19279 0.01582,0.18391 0.0059,0.22655 -0.08289,0.35585 -0.337767,0.49196 -1.1373807,0.26091 -1.1373807,-0.32865 0,-0.0471 0.04931,-0.16235 0.1095727,-0.2563 0.178545,-0.27837 0.487626,-0.35867 0.805867,-0.20935 0.08888,0.0418 0.167477,0.0666 0.174661,0.0555 0.0072,-0.0109 -0.03087,-0.12115 -0.08457,-0.24423 -0.120838,-0.27707 -0.17465,-0.51607 -0.17465,-0.7757 0,-0.23471 -0.02628,-0.24732 -0.135456,-0.065 -0.16335,0.27287 -0.318111,0.35631 -0.662185,0.35703 -0.4809565,8e-4 -0.6818167,-0.16979 -0.7783093,-0.66184 -0.01677,-0.0854 -0.0256,-0.0865 -0.1167907,-0.0125 -0.1370759,0.11054 -0.3439812,0.1029 -0.4125346,-0.0156 -0.073701,-0.12691 -0.06931,-0.19464 0.01886,-0.29094 0.1173487,-0.12816 0.31323,-0.10368 0.4128226,0.0516 l 0.084841,0.13222 0.1116717,-0.19705 c 0.06142,-0.10836 0.1122947,-0.21455 0.1130557,-0.23593 7.68e-4,-0.0214 -0.04447,-0.0388 -0.1005066,-0.0388 -0.2004463,0 -0.3045469,-0.19363 -0.1661751,-0.30908 0.1634761,-0.13643 0.3926355,0.002 0.3500412,0.2109 -0.02409,0.11834 -0.03622,0.11756 0.2222754,0.014 0.3957397,-0.15806 0.8482767,0.0664 0.9752977,0.48357 0.03656,0.12005 0.07542,0.21918 0.08635,0.22021 0.01093,8.1e-4 0.04646,-0.09 0.07895,-0.20236 0.06545,-0.22631 0.190768,-0.44908 0.416312,-0.74006 l 0.149558,-0.19296 -0.232644,0.0304 c -0.297741,0.039 -0.495075,-0.0432 -0.637768,-0.26579 -0.131528,-0.20507 -0.13688,-0.313 -0.02793,-0.5633 l 0.08209,-0.18859 h -0.10897 c -0.05993,0 -0.138,-0.0337 -0.173482,-0.0747 -0.135329,-0.15667 0.06063,-0.34784 0.271853,-0.26519 0.06053,0.0237 0.07907,0.0663 0.07907,0.18123 0,0.14828 0.0016,0.14968 0.12312,0.0973 0.169821,-0.0731 0.499131,-0.0301 0.652624,0.0853 0.07996,0.0602 0.147969,0.16237 0.182015,0.27368 0.05178,0.1693 0.05098,0.18729 -0.01689,0.38049 -0.03918,0.11148 -0.06132,0.20276 -0.04919,0.20276 0.01213,0 0.134272,-0.0569 0.271428,-0.12629 0.137157,-0.0694 0.336558,-0.1531 0.443113,-0.18588 0.106556,-0.0327 0.186909,-0.0703 0.178563,-0.0833 -0.0083,-0.0125 -0.08057,-0.0752 -0.160502,-0.13798 -0.307242,-0.24168 -0.146614,-0.63235 0.243939,-0.59331 0.313354,0.0313 0.432284,0.32665 0.226887,0.56341 -0.05412,0.0624 -0.09063,0.13299 -0.08113,0.157 0.0095,0.024 0.159319,0.0437 0.33293,0.0437 h 0.31556 l -0.05106,-0.11366 c -0.04615,-0.10275 -0.04584,-0.12271 0.0033,-0.20728 0.06256,-0.10773 0.274811,-0.12753 0.336496,-0.0315 0.07188,0.1121 0.0442,0.23624 -0.06603,0.29616 -0.05852,0.0318 -0.09198,0.0758 -0.07478,0.0982 0.01713,0.0223 0.16022,0.10415 0.317987,0.18189 0.342625,0.16873 0.621065,0.43768 0.831775,0.80346 0.150743,0.26165 0.26063,0.62984 0.26063,0.87326 0,0.19718 0.06117,0.13658 0.100906,-0.1 0.161762,-0.96284 0.507254,-2.19807 0.892675,-3.19152 0.11434,-0.29472 0.201524,-0.54579 0.19374,-0.55792 -0.0078,-0.0125 -0.102386,0.0608 -0.210225,0.16201 -0.263209,0.24712 -0.467298,0.33704 -0.844454,0.37204 -0.257294,0.0239 -0.368111,0.009 -0.596249,-0.0812 -0.346794,-0.13674 -0.33958,-0.13705 -0.315133,0.0156 0.01498,0.0931 0.0029,0.1397 -0.04703,0.18138 -0.140405,0.11709 -0.403923,0.0362 -0.403923,-0.12411 0,-0.11304 0.135566,-0.23431 0.262039,-0.23431 h 0.114307 l -0.196481,-0.28033 -0.196482,-0.28035 -0.04606,0.14578 c -0.06286,0.19899 -0.18044,0.28534 -0.388593,0.28534 -0.193172,0 -0.355331,-0.1383 -0.372682,-0.31801 -0.02914,-0.30167 0.384428,-0.48916 0.632849,-0.28691 l 0.124631,0.1015 v -0.27294 c 0,-0.15015 0.0096,-0.34759 0.02128,-0.43887 l 0.02128,-0.16592 -0.128807,0.10758 c -0.222637,0.18604 -0.56821,0.13346 -0.736331,-0.1121 -0.200908,-0.29343 0.04088,-0.66115 0.434738,-0.66115 0.221556,0 0.392716,0.13751 0.438841,0.35272 0.04981,0.23234 0.05864,0.23485 0.201451,0.0574 0.07136,-0.0887 0.185825,-0.20608 0.254373,-0.26083 0.153279,-0.12239 0.159767,-0.20099 0.01662,-0.20126 -0.05941,-9e-5 -0.157578,-0.0474 -0.218158,-0.10493 -0.136336,-0.12956 -0.135141,-0.32375 0.003,-0.48383 0.175914,-0.20389 0.580711,-0.1068 0.645082,0.15483 0.01056,0.0429 -9.73e-4,0.14063 -0.02565,0.2172 -0.02466,0.0765 -0.05018,0.15608 -0.05671,0.17673 -0.01142,0.0362 0.527314,-0.008 0.555134,-0.0444 0.0075,-0.009 -0.0143,-0.0664 -0.04846,-0.12535 -0.04748,-0.0819 -0.05379,-0.12754 -0.0268,-0.19424 0.05053,-0.12489 0.209827,-0.18385 0.320032,-0.1185 0.138061,0.082 0.152248,0.20686 0.03943,0.34712 -0.104636,0.13003 -0.106427,0.12738 0.150267,0.23006 0.507758,0.20319 0.836532,0.74161 0.789155,1.29232 -0.0098,0.11429 -0.0064,0.2077 0.0075,0.2077 0.01396,0 0.150512,-0.23902 0.303456,-0.53112 0.152944,-0.29214 0.476606,-0.84819 0.719249,-1.23567 0.242644,-0.38749 0.44117,-0.71895 0.44117,-0.73656 0,-0.0176 -0.06936,0.014 -0.154143,0.0709 -0.449026,0.3001 -1.050245,0.18387 -1.333509,-0.25778 -0.138832,-0.21645 -0.161647,-0.37095 -0.09498,-0.64312 0.07169,-0.29269 0.07154,-0.29325 -0.06468,-0.23461 -0.06517,0.0281 -0.166125,0.0352 -0.224337,0.0159 -0.343733,-0.11382 -0.268926,-0.56761 0.09357,-0.56761 0.201008,0 0.315733,0.1174 0.315733,0.32327 0,0.0692 0.01127,0.11803 0.02506,0.10852 0.01378,-0.009 0.118473,-0.0755 0.232645,-0.14656 0.114172,-0.0711 0.207586,-0.14219 0.207586,-0.158 0,-0.0157 -0.05092,-0.0574 -0.113153,-0.0925 -0.141484,-0.0798 -0.17045,-0.18848 -0.0855,-0.32092 0.08661,-0.13502 0.297078,-0.13673 0.402694,-0.003 l 0.07846,0.0992 -0.07236,0.15279 -0.07236,0.1528 0.251645,0.0296 c 0.563629,0.0666 0.944861,0.62638 0.771115,1.13256 -0.01976,0.0575 -0.02811,0.11693 -0.01856,0.13175 0.0096,0.0156 0.20145,-0.20321 0.42644,-0.48468 0.224988,-0.28147 0.533313,-0.64798 0.685165,-0.81445 0.151853,-0.16648 0.268947,-0.31383 0.260209,-0.32746 -0.0087,-0.014 -0.102154,0.003 -0.207588,0.0373 -0.356428,0.11538 -0.73483,-0.0658 -0.83731,-0.40084 -0.0524,-0.17131 -0.05166,-0.18837 0.0164,-0.38209 l 0.07124,-0.20279 h -0.126497 c -0.07819,0 -0.156462,-0.0396 -0.204958,-0.10368 l -0.07846,-0.10368 0.07846,-0.10368 c 0.04315,-0.0571 0.121671,-0.10369 0.174484,-0.10369 0.111906,0 0.236167,0.16954 0.208036,0.28383 -0.02397,0.0975 -0.0041,0.0975 0.200693,6.2e-4 0.205108,-0.097 0.364175,-0.0976 0.567254,-0.002 0.222528,0.10447 0.349737,0.30581 0.349737,0.55367 0,0.10696 -0.01496,0.20894 -0.03324,0.22656 -0.04118,0.0396 -0.04375,0.12956 -0.0037,0.12956 0.0256,0 0.832782,-0.73958 1.067208,-0.97783 0.08114,-0.0825 0.07667,-0.0851 -0.190232,-0.11225 -0.204929,-0.0207 -0.296407,-0.0546 -0.365585,-0.13503 -0.172451,-0.20055 -0.143067,-0.47662 0.06766,-0.63569 0.178816,-0.13502 0.394266,-0.1372 0.579521,-0.006 0.182813,0.1294 0.233539,0.29155 0.160284,0.51242 -0.03092,0.0932 -0.03919,0.16264 -0.01938,0.16264 0.04935,0 0.888712,-0.6608 0.911098,-0.71727 0.01024,-0.0259 -0.05502,-0.058 -0.14504,-0.0716 -0.436856,-0.0655 -0.455412,-0.59475 -0.02281,-0.65068 0.286376,-0.0371 0.479409,0.18608 0.388966,0.44956 -0.0655,0.19081 -0.07402,0.19374 0.504993,-0.17406 0.123386,-0.0784 0.224258,-0.15752 0.224162,-0.17586 -9.9e-5,-0.0184 -0.06998,-0.0683 -0.155298,-0.11101 -0.193367,-0.097 -0.247296,-0.21277 -0.164999,-0.35456 0.163915,-0.28241 0.621072,-0.0957 0.515901,0.2107 -0.01905,0.0555 -0.02631,0.11398 -0.01613,0.12972 0.02153,0.0335 0.513516,-0.23398 0.580443,-0.31563 0.03543,-0.0432 0.01569,-0.0747 -0.0914,-0.14562 -0.215366,-0.14266 -0.156544,-0.36793 0.09606,-0.36793 0.164175,0 0.243716,0.0937 0.217531,0.25642 -0.01131,0.0703 -0.0045,0.12036 0.01642,0.12036 0.0197,0 0.276997,-0.11771 0.571781,-0.26145 1.746135,-0.85179 3.687255,-1.41175 5.774806,-1.66587 0.677012,-0.0825 3.118612,-0.0837 3.822031,-0.002 2.063607,0.23968 4.049212,0.80987 5.808041,1.66785 0.294784,0.14376 0.552084,0.26145 0.571779,0.26145 0.02088,0 0.02773,-0.0502 0.01643,-0.12036 -0.02618,-0.16265 0.05335,-0.25642 0.217531,-0.25642 0.252599,0 0.311422,0.22531 0.09605,0.36793 -0.107083,0.0709 -0.126825,0.10228 -0.0914,0.14562 0.06693,0.0817 0.558917,0.34919 0.580443,0.31563 0.01018,-0.0159 0.0029,-0.0742 -0.01613,-0.12972 -0.103853,-0.30255 0.351484,-0.49396 0.513019,-0.21567 0.03083,0.0532 0.04698,0.13346 0.03587,0.17857 -0.02325,0.0945 -0.216786,0.23278 -0.325809,0.23278 -0.049,0 -0.06301,0.0175 -0.04125,0.0513 0.0402,0.0627 0.754635,0.52052 0.771415,0.49437 0.0066,-0.0109 -0.005,-0.0681 -0.0258,-0.12863 -0.09308,-0.27118 0.09589,-0.49494 0.386275,-0.4574 0.4326,0.056 0.414042,0.58522 -0.02282,0.65067 -0.09002,0.014 -0.155288,0.0457 -0.145042,0.0716 0.02238,0.0564 0.861749,0.71725 0.9111,0.71725 0.01981,0 0.01154,-0.0694 -0.01938,-0.16263 -0.07326,-0.22086 -0.02253,-0.38304 0.160286,-0.51242 0.450658,-0.31893 1.002622,0.22846 0.647177,0.64184 -0.06918,0.0804 -0.160655,0.11428 -0.365586,0.13502 -0.266904,0.0271 -0.271367,0.0296 -0.190231,0.11226 0.234427,0.23823 1.041607,0.97781 1.067207,0.97781 0.04006,0 0.0375,-0.0898 -0.0037,-0.12956 -0.01828,-0.0176 -0.03323,-0.11959 -0.03323,-0.22655 0,-0.47068 0.4788,-0.75853 0.91699,-0.55128 0.204772,0.0968 0.224667,0.0968 0.200694,-6.2e-4 -0.02813,-0.11428 0.09613,-0.28382 0.208035,-0.28382 0.05281,0 0.131331,0.0466 0.174484,0.10368 l 0.07846,0.10368 -0.07846,0.10368 c -0.0485,0.0641 -0.126772,0.10369 -0.204957,0.10369 h -0.126497 l 0.07124,0.20278 c 0.06806,0.19372 0.06879,0.21078 0.01639,0.3821 -0.102477,0.33505 -0.480882,0.51619 -0.837308,0.40083 -0.105434,-0.0341 -0.198849,-0.051 -0.207589,-0.0373 -0.0087,0.014 0.108356,0.16098 0.260207,0.32745 0.151855,0.16649 0.46018,0.53299 0.685167,0.81446 0.224988,0.28146 0.416888,0.49957 0.426439,0.48468 0.0096,-0.0156 0.0012,-0.0742 -0.01856,-0.13175 -0.173746,-0.50616 0.207487,-1.06609 0.771114,-1.13256 l 0.251648,-0.0298 -0.07236,-0.15279 -0.07236,-0.1528 0.07846,-0.0992 c 0.105612,-0.13346 0.316078,-0.13175 0.40269,0.003 0.08495,0.13253 0.05598,0.24117 -0.0855,0.32093 -0.06223,0.0351 -0.113148,0.0767 -0.113148,0.0925 0,0.0157 0.09341,0.0868 0.207584,0.158 0.114173,0.0711 0.218863,0.13705 0.232646,0.14656 0.01377,0.009 0.02504,-0.0393 0.02504,-0.10852 0,-0.2058 0.114726,-0.32325 0.315735,-0.32325 0.27051,0 0.404083,0.2479 0.250404,0.46475 -0.07041,0.0993 -0.288671,0.13206 -0.439996,0.0659 l -0.08989,-0.0393 0.06423,0.22062 c 0.08035,0.27601 0.08126,0.39004 0.0046,0.57145 -0.151146,0.35739 -0.489722,0.57362 -0.88829,0.56732 -0.208337,-0.003 -0.387382,-0.0695 -0.662454,-0.24515 -0.03656,-0.0232 0.143199,0.29371 0.39946,0.70454 0.256261,0.41085 0.5977,0.99764 0.758747,1.30403 0.161047,0.30637 0.298814,0.55703 0.306146,0.55703 0.0073,0 0.0041,-0.10493 -0.0072,-0.23317 -0.05074,-0.5772 0.267698,-1.11096 0.786727,-1.31865 0.257003,-0.10291 0.255027,-0.0996 0.147556,-0.23489 -0.0814,-0.10243 -0.09196,-0.1397 -0.06156,-0.21734 0.05105,-0.1305 0.208833,-0.19179 0.321429,-0.12489 0.119611,0.0709 0.146788,0.18987 0.07262,0.31765 -0.03256,0.0561 -0.05308,0.11023 -0.04557,0.12036 0.0278,0.0374 0.566554,0.0806 0.555132,0.0444 -0.0065,-0.0207 -0.03205,-0.1001 -0.05671,-0.17675 -0.02468,-0.0765 -0.0362,-0.17429 -0.02565,-0.2172 0.06438,-0.26155 0.46917,-0.35868 0.645082,-0.15482 0.138121,0.16009 0.139321,0.35425 0.003,0.48384 -0.0606,0.0575 -0.158749,0.10478 -0.218158,0.10493 -0.143147,2.5e-4 -0.13666,0.0789 0.01664,0.20126 0.06855,0.0547 0.183018,0.17211 0.254378,0.26081 0.142811,0.17752 0.151641,0.17501 0.201442,-0.0574 0.087,-0.40589 0.630124,-0.48854 0.873585,-0.13299 0.201111,0.29373 -0.0409,0.66114 -0.435503,0.66114 -0.10653,0 -0.222741,-0.039 -0.300781,-0.10104 l -0.127181,-0.10103 0.0204,0.15939 c 0.0113,0.0876 0.0204,0.28221 0.0204,0.43232 v 0.27294 l 0.124631,-0.1015 c 0.248431,-0.20226 0.661984,-0.0156 0.632854,0.2869 -0.0174,0.17964 -0.179511,0.318 -0.372683,0.318 -0.208161,0 -0.325732,-0.0864 -0.388592,-0.28532 l -0.0461,-0.14578 -0.196481,0.28033 -0.196486,0.28035 h 0.114305 c 0.126481,0 0.262042,0.12115 0.262042,0.23429 0,0.16033 -0.263512,0.24133 -0.403924,0.12411 -0.04992,-0.0416 -0.06201,-0.0884 -0.04705,-0.18136 0.02447,-0.15186 0.03164,-0.15155 -0.315136,-0.0156 -0.228137,0.09 -0.33895,0.10509 -0.596246,0.0811 -0.377156,-0.0351 -0.581248,-0.12489 -0.844457,-0.37205 -0.107834,-0.10118 -0.202438,-0.17415 -0.210225,-0.16202 -0.0078,0.0125 0.0794,0.2632 0.193744,0.55794 0.38542,0.99345 0.730913,2.22866 0.892672,3.1915 0.03973,0.23656 0.100908,0.29711 0.100908,0.0999 0,-0.24341 0.109887,-0.61158 0.260628,-0.87325 0.210712,-0.36576 0.489153,-0.63471 0.831785,-0.80346 0.157761,-0.0776 0.300852,-0.15953 0.317982,-0.18187 0.0172,-0.0224 -0.0162,-0.0664 -0.0748,-0.0982 -0.11024,-0.0599 -0.137921,-0.18407 -0.066,-0.29615 0.0617,-0.0962 0.273942,-0.0762 0.336502,0.0315 0.0491,0.0847 0.0494,0.10446 0.003,0.20727 l -0.0511,0.11366 h 0.315652 c 0.173611,0 0.323432,-0.0196 0.332922,-0.0437 0.01,-0.024 -0.027,-0.0946 -0.0811,-0.15701 -0.205391,-0.23675 -0.0865,-0.53209 0.226892,-0.56341 0.390552,-0.039 0.551173,0.35165 0.243941,0.59332 -0.0799,0.0628 -0.152161,0.12488 -0.160501,0.13798 -0.008,0.0125 0.072,0.0505 0.178561,0.0833 0.106551,0.0327 0.305952,0.11647 0.443113,0.18589 0.137161,0.0694 0.260322,0.12629 0.273702,0.12629 0.0134,0 -0.005,-0.0758 -0.0415,-0.16841 -0.0903,-0.23101 -0.0829,-0.36749 0.0298,-0.54305 0.157571,-0.24568 0.518273,-0.34791 0.793415,-0.22488 0.10396,0.0465 0.10779,0.0429 0.10779,-0.10259 0,-0.11569 0.0184,-0.15806 0.0791,-0.18178 0.211211,-0.0826 0.407172,0.10852 0.271851,0.26517 -0.0355,0.0412 -0.11355,0.0747 -0.173481,0.0747 h -0.109 l 0.0821,0.18861 c 0.108951,0.25028 0.103601,0.35822 -0.028,0.56328 -0.142691,0.22249 -0.340032,0.30472 -0.637764,0.26579 l -0.232651,-0.0304 0.14956,0.19296 c 0.225542,0.291 0.350863,0.51376 0.416313,0.74006 0.0325,0.11226 0.068,0.20341 0.079,0.20238 0.0109,-8e-4 0.0498,-0.1001 0.0863,-0.22023 0.082,-0.26943 0.248522,-0.42338 0.548173,-0.50687 0.182322,-0.0508 0.250932,-0.0471 0.427133,0.0232 0.258492,0.10321 0.246362,0.10399 0.222272,-0.014 -0.0426,-0.20926 0.186561,-0.34732 0.350042,-0.21091 0.138371,0.11538 0.0343,0.30907 -0.166171,0.30907 -0.056,0 -0.101271,0.0175 -0.100511,0.0388 5.1e-4,0.0214 0.0516,0.12754 0.113051,0.23593 l 0.11167,0.19706 0.0848,-0.13222 c 0.0996,-0.15529 0.295472,-0.17976 0.412823,-0.0516 0.224061,0.24469 -0.129181,0.51939 -0.393673,0.30615 -0.0912,-0.0736 -0.100021,-0.0725 -0.116791,0.0125 -0.0965,0.49205 -0.297351,0.66284 -0.778304,0.66182 -0.344083,-7.1e-4 -0.498834,-0.0842 -0.662185,-0.35701 -0.1109,-0.18524 -0.13534,-0.16988 -0.13619,0.0856 -5.1e-4,0.23011 -0.0816,0.55973 -0.201762,0.82288 -0.0389,0.0851 -0.0646,0.16412 -0.0571,0.17569 0.007,0.0109 0.0862,-0.0125 0.175081,-0.0547 0.209211,-0.0982 0.400213,-0.096 0.593324,0.006 0.155291,0.0825 0.322112,0.32503 0.322112,0.46828 0,0.581 -0.802965,0.80656 -1.137377,0.3195 -0.0888,-0.12925 -0.0987,-0.17196 -0.0829,-0.35587 0.01,-0.11491 0.008,-0.20168 -0.004,-0.19279 -0.383162,0.28169 -0.731814,0.58131 -0.717744,0.6168 0.0101,0.0254 0.0556,0.0463 0.10112,0.0463 0.0455,0 0.125841,0.0348 0.178471,0.0772 0.346183,0.2791 -0.11659,0.78504 -0.475303,0.51964 -0.156411,-0.11568 -0.183211,-0.25371 -0.0882,-0.45405 l 0.0741,-0.15633 -0.195321,0.0348 c -0.107421,0.0192 -0.261641,0.0488 -0.342702,0.0659 l -0.147391,0.0312 0.0752,0.0949 c 0.0955,0.12068 0.0789,0.26256 -0.0383,0.32684 -0.11384,0.0624 -0.268821,-0.014 -0.284451,-0.14094 -0.006,-0.05 0.0234,-0.13455 0.0656,-0.188 l 0.0768,-0.097 -0.198881,-0.0324 c -0.746174,-0.12177 -1.378843,-0.5866 -1.649845,-1.21197 -0.132518,-0.30579 -0.12428,-0.29138 -0.146609,-0.25657 -0.01039,0.0162 -0.0031,0.16463 0.01669,0.32982 0.169331,1.42814 0.07653,3.36651 -0.231705,4.83975 -0.22127,1.0576 -0.238622,0.99969 0.12767,0.4261 0.477546,-0.74782 1.029754,-1.18727 1.780689,-1.41708 0.184941,-0.0566 0.369922,-0.11367 0.411052,-0.12692 0.0914,-0.0293 0.0973,-0.10758 0.0114,-0.15014 -0.0808,-0.0399 -0.11484,-0.17552 -0.0668,-0.2658 0.063,-0.11834 0.253171,-0.14641 0.346352,-0.0513 0.0952,0.0971 0.105601,0.19576 0.031,0.29234 -0.0838,0.10836 0.002,0.13393 0.345212,0.10306 l 0.309872,-0.0279 -0.10215,-0.15217 c -0.123541,-0.18406 -0.126171,-0.23503 -0.0202,-0.39032 0.156141,-0.22869 0.566224,-0.19141 0.652275,0.0592 0.0554,0.16146 4.3e-4,0.30522 -0.158721,0.41499 -0.082,0.0564 -0.142411,0.11304 -0.134331,0.12567 0.008,0.0125 0.147671,0.0572 0.310192,0.099 0.162511,0.0418 0.377742,0.11085 0.478283,0.15357 0.258501,0.10945 0.291941,0.10353 0.209351,-0.0379 -0.132201,-0.22629 -0.150791,-0.33406 -0.0913,-0.52945 0.0828,-0.27202 0.297472,-0.41457 0.619434,-0.4113 l 0.255552,0.003 -0.0186,-0.14516 c -0.0158,-0.12348 -0.005,-0.15341 0.0742,-0.20022 0.110171,-0.0653 0.259182,-0.0242 0.318912,0.0881 0.0358,0.0674 0.0303,0.096 -0.0346,0.17804 -0.0425,0.0538 -0.113111,0.0978 -0.156781,0.0978 -0.105121,0 -0.100721,0.0274 0.0369,0.22983 0.135081,0.19863 0.148871,0.36531 0.0469,0.56739 -0.10486,0.20784 -0.251091,0.30166 -0.527673,0.33856 l -0.250411,0.0334 0.208201,0.16789 c 0.304292,0.24537 0.533693,0.48348 0.727254,0.75487 0.0941,0.1319 0.180751,0.23984 0.192612,0.23984 0.0119,0 0.0117,-0.0814 -3.4e-4,-0.18102 -0.0287,-0.23837 -3.3e-4,-0.39758 0.10618,-0.59481 0.177751,-0.32935 0.658634,-0.56813 1.012587,-0.50276 0.170881,0.0315 0.227531,-0.0156 0.14595,-0.12099 -0.0631,-0.0815 -0.0635,-0.22779 -0.001,-0.30875 0.0836,-0.10821 0.296312,-0.12473 0.411333,-0.032 0.173651,0.14001 0.127711,0.35744 -0.0898,0.4253 -0.0961,0.0299 -0.181211,0.12317 -0.11247,0.12317 0.0159,0 0.11577,0.0815 0.222021,0.18136 0.106241,0.0998 0.196961,0.18136 0.201601,0.18136 0.005,0 0.0176,-0.0709 0.0287,-0.15776 0.0414,-0.32263 0.466912,-0.41466 0.643594,-0.13923 0.210051,0.3275 -0.172812,0.64689 -0.511194,0.42644 l -0.11941,-0.0778 0.0262,0.16848 c 0.0892,0.57342 -0.107081,0.95094 -0.598184,1.15032 -0.367832,0.14936 -0.719394,0.0812 -1.089777,-0.21122 -0.0868,-0.0686 -0.157861,-0.11506 -0.157861,-0.10321 0,0.0125 0.0561,0.20452 0.124631,0.42835 0.113771,0.37152 0.124631,0.44536 0.124631,0.84743 0,0.24224 -0.0135,0.53372 -0.0299,0.64773 l -0.0299,0.20725 0.151241,-0.21653 c 0.306712,-0.43916 0.678715,-0.61661 1.188138,-0.56678 0.173651,0.017 0.356832,0.0455 0.407062,0.0633 0.0868,0.0309 0.0904,0.0248 0.0714,-0.12317 -0.0182,-0.14204 -0.01,-0.16092 0.095,-0.21485 0.0797,-0.041 0.141941,-0.0432 0.202832,-0.008 0.161701,0.0959 0.081,0.36556 -0.109351,0.36556 -0.110781,0 -0.0792,0.0647 0.140211,0.28732 0.237341,0.24082 0.318922,0.44744 0.321302,0.81381 10e-4,0.13533 0.009,0.24614 0.0174,0.24614 0.009,0 0.0643,-0.046 0.123541,-0.10213 0.231871,-0.21985 0.603233,-0.16207 0.735644,0.11444 0.0558,0.11647 0.0608,0.16184 0.0295,0.26872 -0.0551,0.18867 -0.226681,0.30958 -0.439262,0.30958 -0.225752,0 -0.391213,-0.1266 -0.437783,-0.33482 -0.0414,-0.18518 -0.0702,-0.19048 -0.139501,-0.0256 -0.0292,0.0695 -0.120691,0.19894 -0.203231,0.28749 -0.0825,0.0886 -0.150071,0.18317 -0.150071,0.21029 0,0.0271 0.0728,0.0493 0.161691,0.0493 0.179891,0 0.336832,0.14485 0.336832,0.31091 0,0.35028 -0.583814,0.43609 -0.698274,0.10259 -0.0298,-0.0867 -0.0262,-0.13673 0.0173,-0.24014 0.0302,-0.0719 0.049,-0.13954 0.042,-0.15061 -0.0141,-0.022 -0.531853,0.13284 -0.555413,0.16624 -0.008,0.0109 0.0181,0.0564 0.0582,0.10009 0.04,0.0437 0.0728,0.11226 0.0728,0.15249 0,0.17205 -0.285261,0.24626 -0.379832,0.0989 -0.0691,-0.10774 -0.0659,-0.16351 0.0142,-0.2415 0.0964,-0.0939 0.0825,-0.13471 -0.0582,-0.17066 -0.255982,-0.0655 -0.562494,-0.23247 -0.713695,-0.38862 -0.194511,-0.20086 -0.293231,-0.44448 -0.320452,-0.7907 l -0.021,-0.26806 -0.154821,0.33836 c -0.0851,0.1861 -0.217381,0.42647 -0.293832,0.53415 -0.154261,0.2173 -0.598553,0.68245 -0.699574,0.73245 -0.0357,0.0176 -0.0649,0.0552 -0.0649,0.0836 0,0.0323 0.0833,0.0388 0.224331,0.0175 0.631004,-0.0959 1.171537,0.36065 1.171537,0.9894 0,0.16061 0.009,0.1836 0.0582,0.15092 0.183161,-0.12145 0.296002,-0.14203 0.388982,-0.0711 0.0523,0.0399 0.111431,0.11491 0.131401,0.16658 0.0559,0.14468 -0.0814,0.2947 -0.269782,0.2947 -0.1235,0 -0.165481,-0.0273 -0.244091,-0.15845 -0.0939,-0.15677 -0.0954,-0.1573 -0.137971,-0.0502 -0.0236,0.0596 -0.0988,0.16872 -0.167081,0.24261 -0.0682,0.0739 -0.115941,0.15482 -0.106051,0.17977 0.01,0.0249 0.0836,0.0454 0.163751,0.0454 0.191641,0 0.336042,0.17699 0.304452,0.37319 -0.061,0.37892 -0.686774,0.3304 -0.686774,-0.0532 0,-0.079 0.0177,-0.17134 0.0393,-0.20508 0.0605,-0.0943 0.0215,-0.11382 -0.123351,-0.0614 -0.0726,0.0264 -0.195561,0.0483 -0.273251,0.049 -0.156661,0.002 -0.173711,0.043 -0.0748,0.18261 0.103781,0.1464 0.0838,0.27902 -0.0559,0.36997 -0.137721,0.0897 -0.289842,0.0627 -0.382323,-0.0677 -0.0891,-0.12582 -0.0742,-0.21532 0.0559,-0.33498 0.064,-0.0588 0.10906,-0.1252 0.10026,-0.14734 -0.009,-0.0221 -0.0798,-0.0655 -0.157811,-0.0964 -0.194511,-0.0769 -0.443202,-0.33319 -0.505563,-0.52122 -0.10932,-0.32959 -0.0524,-0.66045 0.164341,-0.95494 0.126871,-0.17241 0.0815,-0.17399 -0.299352,-0.0109 -0.164381,0.0706 -0.448442,0.15451 -0.631233,0.18638 -0.182792,0.032 -0.384693,0.0758 -0.448673,0.0975 -0.0991,0.0337 -0.106501,0.0452 -0.0499,0.0789 0.246242,0.14625 0.358203,0.26094 0.405353,0.41509 0.0442,0.14437 0.045,0.18828 0.006,0.31538 -0.0589,0.19082 -0.228161,0.36679 -0.395282,0.41082 -0.145821,0.0383 -0.166941,0.0967 -0.0657,0.18115 0.176051,0.14688 -0.0265,0.41517 -0.229971,0.30458 -0.131581,-0.0716 -0.149181,-0.17677 -0.0499,-0.29854 0.0938,-0.11507 0.087,-0.12738 -0.11695,-0.2127 -0.183591,-0.0769 -0.367593,-0.3494 -0.367593,-0.54464 0,-0.1744 0.154981,-0.41038 0.325222,-0.49516 0.186392,-0.0928 0.196692,-0.14157 0.0361,-0.17065 -0.0799,-0.014 -0.317482,-0.063 -0.527984,-0.10774 -0.503463,-0.10727 -0.494043,-0.10883 -0.384672,0.0691 0.163521,0.26612 0.0181,0.52305 -0.296122,0.52305 -0.251891,0 -0.420452,-0.19886 -0.363772,-0.42916 0.0269,-0.10929 0.217071,-0.24447 0.343862,-0.24447 0.0566,0 0.102991,-0.0192 0.102991,-0.0427 0,-0.0337 -0.619433,-0.42362 -0.673026,-0.42362 -0.0074,0 -0.0071,0.0674 5.12e-4,0.14984 0.01244,0.13205 5.12e-4,0.15667 -0.09911,0.20803 -0.210794,0.10852 -0.41137,-0.0993 -0.28543,-0.29561 0.02191,-0.0342 0.07801,-0.0625 0.124628,-0.063 0.19249,-0.002 0.171047,-0.0823 -0.09344,-0.35092 -0.324163,-0.32919 -0.637462,-0.85356 -0.778562,-1.30311 -0.100051,-0.31875 -0.106773,-0.37522 -0.106773,-0.89714 0,-0.30634 -0.0087,-0.557 -0.01935,-0.55705 -0.01065,-3e-5 -0.105618,0.25062 -0.211077,0.55699 -0.814704,2.3668 -2.167785,4.49788 -4.022095,6.33473 -0.302093,0.29924 -0.536327,0.55089 -0.520524,0.5592 0.01581,0.008 0.181559,-0.0798 0.368337,-0.19583 0.971198,-0.60326 2.029243,-0.87552 3.154165,-0.81163 0.322208,0.0182 0.65974,0.0485 0.750074,0.0674 l 0.164242,0.034 -0.07212,-0.14297 c -0.07745,-0.15358 -0.0597,-0.2966 0.04454,-0.35896 0.103619,-0.0621 0.274185,-0.031 0.349031,0.0636 0.09536,0.12036 0.06794,0.25464 -0.0684,0.33489 -0.05479,0.0323 -0.09963,0.0752 -0.09963,0.0954 0,0.0203 0.086,0.0641 0.191102,0.0973 0.105105,0.0334 0.280197,0.0923 0.389086,0.13113 0.108889,0.0388 0.204917,0.0597 0.213391,0.0466 0.0084,-0.0125 -0.01889,-0.0809 -0.0608,-0.15046 -0.213206,-0.35385 0.191635,-0.70373 0.546658,-0.47245 0.263843,0.17188 0.149332,0.56145 -0.185385,0.63069 -0.09221,0.019 -0.155487,0.051 -0.140627,0.0709 0.01485,0.02 0.146659,0.10243 0.292889,0.18327 0.146235,0.0808 0.360754,0.21283 0.476704,0.29339 0.282172,0.196 0.321322,0.19238 0.237492,-0.022 -0.0925,-0.23664 -0.083,-0.33863 0.0501,-0.53424 0.0824,-0.12114 0.170891,-0.18851 0.304502,-0.23176 0.178061,-0.0577 0.247212,-0.0535 0.499483,0.0301 0.0978,0.0324 0.104381,0.0262 0.0862,-0.0822 -0.037,-0.22068 0.199491,-0.347 0.341612,-0.18245 0.0982,0.11366 0.0249,0.25587 -0.148251,0.28804 l -0.139561,0.0259 0.0848,0.17847 c 0.10217,0.21512 0.107,0.3594 0.0179,0.53591 -0.105061,0.20827 -0.315672,0.30751 -0.610024,0.28744 -0.139631,-0.009 -0.253842,-9e-5 -0.253802,0.0209 0,0.021 0.0636,0.0995 0.141331,0.1742 0.320042,0.30813 0.506703,0.527 0.749975,0.87937 l 0.256521,0.37157 -5.1e-4,-0.33579 c -5.1e-4,-0.33429 0,-0.33674 0.154531,-0.55482 0.196412,-0.2774 0.448883,-0.40714 0.825335,-0.42408 0.215162,-0.009 0.279242,-0.0289 0.268862,-0.0808 -0.0614,-0.30595 0.047,-0.47907 0.273782,-0.4371 0.120701,0.0223 0.254991,0.15279 0.254991,0.24764 0,0.0912 -0.13625,0.25105 -0.214061,0.25105 -0.132111,0 -0.129641,0.0926 0.005,0.19481 0.0692,0.0524 0.166741,0.13752 0.216831,0.18905 0.0881,0.0906 0.0917,0.0906 0.110411,-0.003 0.0558,-0.27764 0.204591,-0.39948 0.429993,-0.35215 0.277812,0.0583 0.370532,0.32139 0.191101,0.54216 -0.0759,0.0934 -0.122441,0.10836 -0.274182,0.0887 -0.10054,-0.0125 -0.208021,-0.0405 -0.238841,-0.0611 -0.05,-0.0334 -0.054,-0.005 -0.037,0.26483 0.0105,0.16624 0.0219,0.30782 0.0252,0.31464 0.004,0.008 0.0688,-0.0259 0.145281,-0.0728 0.11565,-0.0708 0.161221,-0.0748 0.269771,-0.0242 0.269452,0.12582 0.180201,0.47328 -0.12159,0.47328 -0.123401,0 -0.165501,-0.0273 -0.243782,-0.15793 l -0.0946,-0.15791 -0.0564,0.13409 c -0.031,0.0737 -0.121341,0.19349 -0.200751,0.26605 -0.408793,0.37354 -1.010176,0.36799 -1.433159,-0.014 -0.0777,-0.07 -0.141251,-0.11522 -0.141251,-0.10041 0,0.014 0.0747,0.24488 0.166061,0.51141 0.200001,0.5836 0.298602,1.14564 0.300972,1.71557 0.002,0.41078 0.003,0.4166 0.0581,0.28965 0.128551,-0.29567 0.351703,-0.61787 0.530554,-0.76603 0.327772,-0.27154 0.564413,-0.34524 1.096756,-0.34163 0.440983,0.003 0.470533,-0.003 0.423743,-0.0834 -0.118191,-0.20364 0.002,-0.41529 0.235932,-0.41529 0.171301,0 0.297171,0.13892 0.265751,0.2933 -0.0216,0.10587 -0.147431,0.22488 -0.237801,0.22488 -0.104361,0 -0.036,0.0865 0.224971,0.28499 0.149951,0.11398 0.284272,0.21498 0.298502,0.22439 0.0142,0.009 0.0165,-0.0557 0.005,-0.14468 -0.0526,-0.40984 0.397372,-0.66335 0.743045,-0.41869 0.236851,0.16765 0.235821,0.5111 -0.002,0.67948 -0.156441,0.1107 -0.360233,0.12738 -0.516974,0.0421 -0.0585,-0.0318 -0.11393,-0.046 -0.12317,-0.0316 -0.009,0.014 0.0306,0.13097 0.0884,0.25899 0.0672,0.14874 0.111481,0.3192 0.122531,0.47204 0.0188,0.26007 0.052,0.29976 0.109871,0.13128 0.0599,-0.17458 0.286611,-0.30409 0.534493,-0.30537 0.254062,-0.002 0.425443,0.0932 0.524443,0.28955 0.194671,0.38585 -0.058,0.7656 -0.512073,0.76956 -0.277582,0.003 -0.460573,-0.1185 -0.571054,-0.37713 l -0.0734,-0.17188 -0.0666,0.20361 c -0.0367,0.11195 -0.142151,0.3095 -0.234452,0.4389 -0.0923,0.12941 -0.167831,0.24484 -0.167831,0.25655 0,0.0125 0.0892,0.0109 0.198201,-7.9e-4 0.246372,-0.0278 0.334102,0.006 0.463933,0.17578 0.122801,0.1611 0.129471,0.29453 0.023,0.46053 -0.172571,0.26905 -0.601893,0.28179 -0.779964,0.0231 -0.0778,-0.11304 -0.0948,-0.35315 -0.032,-0.45109 0.0789,-0.12302 -0.006,-0.11959 -0.270571,0.0109 -0.148891,0.0734 -0.291492,0.13331 -0.316882,0.13331 -0.0989,0 -0.0802,0.10431 0.0316,0.17715 0.0905,0.0589 0.117661,0.10664 0.117661,0.207 0,0.29694 -0.438663,0.35343 -0.536274,0.0691 -0.0321,-0.0935 -0.0247,-0.12707 0.0499,-0.22718 0.0482,-0.0645 0.0876,-0.13019 0.0876,-0.14578 0,-0.0156 -0.0904,-0.0284 -0.200811,-0.0284 -0.489503,0 -1.074317,-0.3272 -1.348278,-0.75434 -0.102551,-0.15991 -0.157951,-0.30483 -0.197412,-0.51642 -0.0302,-0.16178 -0.0656,-0.27433 -0.0787,-0.2501 -0.0132,0.0242 -0.066,0.21583 -0.117461,0.42578 -0.0515,0.20995 -0.165491,0.54944 -0.253421,0.75441 -0.183882,0.42866 -0.621074,1.10391 -0.918836,1.41917 -0.183891,0.1947 -0.274012,0.32057 -0.229512,0.32057 0.009,0 0.155591,-0.0594 0.325992,-0.1319 0.377143,-0.16062 0.933856,-0.2182 1.283758,-0.13284 0.133521,0.0326 0.378003,0.12707 0.543304,0.20994 0.282442,0.14157 0.299522,0.14469 0.283642,0.0499 -0.023,-0.13705 0.0606,-0.25431 0.181171,-0.25431 0.278731,0 0.301842,0.29978 0.0276,0.35865 l -0.139621,0.0299 0.207201,0.27289 0.207192,0.27291 0.0542,-0.16856 c 0.0298,-0.0926 0.0916,-0.19768 0.137311,-0.23327 0.210261,-0.16378 0.565003,0.005 0.565003,0.2686 0,0.24604 -0.284792,0.40549 -0.513783,0.28765 -0.0672,-0.0346 -0.130661,-0.0496 -0.141061,-0.0334 -0.0104,0.0162 0.013,0.14532 0.0521,0.28682 0.0391,0.14157 0.071,0.34044 0.071,0.44203 0,0.19918 0.0329,0.23253 0.101721,0.10322 0.0987,-0.18552 0.308061,-0.30084 0.546363,-0.30101 0.636444,-4.7e-4 0.804015,0.77349 0.224351,1.03622 -0.308352,0.13986 -0.683384,-0.0232 -0.789515,-0.34331 -0.0283,-0.0853 -0.0582,-0.15497 -0.0666,-0.15497 -0.008,0 -0.0537,0.11833 -0.100671,0.26294 -0.047,0.14469 -0.168721,0.3867 -0.270481,0.53794 l -0.185031,0.275 0.294851,-0.0257 c 0.473923,-0.0413 0.751135,0.13736 0.841696,0.54263 0.0476,0.21315 0.0468,0.21901 -0.0552,0.4171 l -0.10355,0.20089 0.168531,0.0476 c 0.308202,0.087 0.308682,0.39728 5.1e-4,0.42575 -0.185731,0.0172 -0.292322,-0.0864 -0.263812,-0.25637 0.0183,-0.10929 -0.0247,-0.11849 -0.221281,-0.0474 -0.158241,0.0572 -0.187792,0.10025 -0.113411,0.16522 0.0723,0.0631 0.0755,0.23098 0.005,0.273 -0.208561,0.12473 -0.428683,-0.0794 -0.271582,-0.25194 0.0636,-0.0698 0.0673,-0.0898 0.025,-0.1319 -0.0274,-0.0273 -0.0798,-0.0505 -0.11633,-0.0514 -0.116981,-0.003 -0.332202,-0.18682 -0.428413,-0.36511 -0.0756,-0.14001 -0.0898,-0.20668 -0.0748,-0.35062 0.0102,-0.0977 0.044,-0.22158 0.0751,-0.27521 0.0311,-0.0536 0.0481,-0.1107 0.0378,-0.12692 -0.0103,-0.0162 -0.143631,0.0323 -0.296142,0.10758 -0.15251,0.0753 -0.400682,0.16292 -0.551493,0.19458 -0.150801,0.0317 -0.274182,0.0758 -0.274182,0.0979 0,0.0221 0.0622,0.0664 0.138191,0.0984 0.166541,0.0698 0.327092,0.30506 0.327092,0.47907 0,0.25234 -0.143971,0.42276 -0.498303,0.5899 -0.0382,0.0181 -0.0305,0.046 0.0332,0.12162 0.0677,0.0803 0.0762,0.11522 0.0463,0.1911 -0.0511,0.12941 -0.254182,0.1503 -0.328972,0.0337 -0.0553,-0.0862 -0.0539,-0.0962 0.0289,-0.2072 0.0979,-0.13128 0.0898,-0.14921 -0.0912,-0.20217 -0.0705,-0.0207 -0.178861,-0.1068 -0.240691,-0.19143 -0.213042,-0.29164 -0.111881,-0.66795 0.221411,-0.82363 0.0723,-0.0338 0.131441,-0.0783 0.131441,-0.099 0,-0.0207 -0.0952,-0.0535 -0.211571,-0.0728 -0.116371,-0.0195 -0.321442,-0.0794 -0.455723,-0.1333 -0.134271,-0.0539 -0.248912,-0.0904 -0.254752,-0.0814 -0.006,0.009 0.0157,0.0878 0.0477,0.17504 0.056,0.15218 0.0559,0.16278 -0.004,0.26634 -0.0776,0.13377 -0.291831,0.22818 -0.418832,0.18468 -0.125941,-0.043 -0.264662,-0.21721 -0.264662,-0.33213 0,-0.16123 0.122771,-0.27942 0.316252,-0.30444 0.100251,-0.0125 0.182271,-0.0404 0.182271,-0.0608 8e-5,-0.0355 -0.444222,-0.46806 -0.480823,-0.46806 -0.01,0 -0.0176,0.0438 -0.0176,0.0973 0,0.2436 -0.369905,0.25797 -0.392812,0.0156 -0.01306,-0.1383 0.125301,-0.23643 0.265651,-0.18836 0.115761,0.0396 0.117271,0.005 0.009,-0.21735 -0.12948,-0.26468 -0.18117,-0.50316 -0.180366,-0.83228 10e-4,-0.39839 0.08237,-0.66135 0.315197,-1.01866 0.104451,-0.16027 0.175191,-0.2914 0.157201,-0.2914 -0.018,0 -0.235271,0.12675 -0.482843,0.28161 -0.681423,0.42631 -1.427436,0.69308 -2.249431,0.80436 -0.226523,0.0307 -0.417037,0.0639 -0.423365,0.0737 -0.0063,0.009 0.122625,0.0667 0.286566,0.12629 0.71708,0.26075 1.12982,0.84292 1.092679,1.54123 -0.01096,0.2059 -0.0036,0.28183 0.02734,0.28183 0.0233,0 0.05038,-0.0203 0.06021,-0.0451 0.06281,-0.15846 0.432356,-0.078 0.469026,0.10228 0.06059,0.29762 -0.334659,0.43791 -0.50139,0.17796 l -0.08185,-0.12754 -0.21767,0.33439 -0.217666,0.3344 0.193013,-0.0295 c 0.235319,-0.0359 0.428203,0.0589 0.523212,0.25743 0.06176,0.12894 0.06318,0.15186 0.01741,0.28057 -0.109002,0.30645 -0.450779,0.41085 -0.720331,0.22006 -0.158227,-0.11195 -0.20889,-0.28773 -0.145487,-0.50468 0.03594,-0.12302 0.03338,-0.13019 -0.03733,-0.10462 -0.04178,0.0156 -0.210533,0.0784 -0.375047,0.14048 -0.164514,0.0622 -0.334931,0.12395 -0.378702,0.1372 -0.0965,0.0293 -0.06129,0.089 0.09962,0.16911 0.230236,0.11459 0.348683,0.47988 0.228679,0.70532 -0.05827,0.10945 -0.278369,0.28398 -0.358177,0.28398 -0.100486,0 -0.112114,0.0619 -0.03553,0.18895 0.101383,0.16825 0.03482,0.28843 -0.147873,0.26701 -0.178707,-0.0209 -0.232437,-0.15109 -0.120901,-0.29294 0.08882,-0.11288 0.09652,-0.10274 -0.157094,-0.20986 -0.148565,-0.0628 -0.309879,-0.30816 -0.309879,-0.47134 0,-0.15596 0.157116,-0.40057 0.319305,-0.49714 0.171861,-0.10228 0.150474,-0.14391 -0.103273,-0.2009 -0.0914,-0.0204 -0.275733,-0.0915 -0.409636,-0.15763 -0.213013,-0.10524 -0.240534,-0.10961 -0.220062,-0.034 0.08149,0.30099 0.03158,0.47531 -0.175185,0.61175 -0.28308,0.1868 -0.707311,-0.0377 -0.707311,-0.37431 0,-0.26856 0.336435,-0.49496 0.614625,-0.41359 0.0641,0.0187 0.116545,0.0232 0.116545,0.009 0,-0.0125 -0.08999,-0.16443 -0.199985,-0.33592 l -0.199981,-0.3118 -0.081,0.12629 c -0.06242,0.0973 -0.116153,0.12629 -0.234256,0.12629 -0.196449,0 -0.281824,-0.072 -0.281824,-0.23764 0,-0.10041 0.02716,-0.14812 0.118074,-0.20729 0.119217,-0.0776 0.329247,-0.0569 0.366164,0.0362 0.04857,0.12255 0.08076,0.0162 0.08076,-0.26701 0,-0.38243 0.07183,-0.62236 0.272793,-0.91118 0.18371,-0.26402 0.44533,-0.45779 0.792756,-0.58717 0.149563,-0.0557 0.27885,-0.1121 0.287309,-0.1252 0.0084,-0.0125 -0.06441,-0.0363 -0.161908,-0.0516 -0.898721,-0.1397 -1.378353,-0.27101 -1.948988,-0.53352 -0.158877,-0.0731 -0.318778,-0.145 -0.355336,-0.15983 -0.04642,-0.0189 -0.02482,0.0368 0.0716,0.18444 0.172862,0.26461 0.230731,0.51041 0.178386,0.75769 -0.04975,0.23501 -0.250346,0.51113 -0.452602,0.623 -0.317491,0.17559 -0.302888,0.1517 -0.168156,0.27559 0.194625,0.17904 0.151027,0.4 -0.09101,0.46124 -0.248834,0.063 -0.440717,-0.21288 -0.284914,-0.40958 0.105781,-0.13362 0.05741,-0.17707 -0.241261,-0.21704 l -0.25678,-0.0343 0.05652,0.15358 c 0.05365,0.14578 0.05341,0.15889 -0.0048,0.25917 -0.08306,0.14313 -0.266397,0.23046 -0.401049,0.19106 -0.140997,-0.0413 -0.283705,-0.21483 -0.283705,-0.3451 0,-0.14453 0.188396,-0.30596 0.357276,-0.3062 0.07769,-9e-5 0.141249,-0.0192 0.141249,-0.0423 0,-0.0232 -0.0486,-0.0979 -0.108014,-0.16597 -0.05941,-0.0681 -0.136612,-0.18013 -0.171569,-0.24884 l -0.06356,-0.12489 -0.04411,0.13128 c -0.08881,0.26428 -0.454879,0.29371 -0.540772,0.0435 -0.09603,-0.27975 0.209062,-0.42824 0.499746,-0.24321 0.0435,0.0278 0.05685,-0.0109 0.07067,-0.20155 0.01028,-0.14219 0.05155,-0.30621 0.103999,-0.41343 0.172929,-0.35349 0.650549,-0.57824 1.092665,-0.51417 0.123452,0.0179 0.22446,0.0186 0.22446,0.002 0,-0.0172 -0.160774,-0.16035 -0.357277,-0.31818 -0.196502,-0.15785 -0.481626,-0.42697 -0.633607,-0.59804 -0.151979,-0.17109 -0.286688,-0.31107 -0.299353,-0.31107 -0.01266,0 -0.01787,0.10119 -0.01156,0.22475 0.01013,0.19861 -6.14e-4,0.24058 -0.09219,0.36074 -0.203079,0.26643 -0.560174,0.31802 -0.865996,0.12504 -0.163512,-0.10306 -0.186123,-0.13626 -0.214376,-0.31438 -0.04126,-0.2601 0.02054,-0.4394 0.198224,-0.57515 0.217853,-0.16644 0.530126,-0.16744 0.788866,-0.003 0.09749,0.062 0.06586,-0.0477 -0.0997,-0.34607 -0.08683,-0.1565 -0.207623,-0.39653 -0.268433,-0.53341 l -0.11057,-0.24885 -0.06214,0.15931 c -0.08263,0.21184 -0.160632,0.26956 -0.364276,0.26956 -0.271235,0 -0.439158,-0.19252 -0.379465,-0.43506 0.0549,-0.22308 0.44747,-0.31995 0.646461,-0.15952 0.121718,0.0981 0.122469,0.0705 0.01128,-0.41795 l -0.08678,-0.38114 -0.09796,0.11289 c -0.109293,0.12597 -0.32582,0.14577 -0.409555,0.0374 -0.06967,-0.0901 -0.06255,-0.24534 0.0142,-0.30939 0.09363,-0.0781 0.308783,-0.0656 0.389627,0.0226 0.06967,0.0761 0.06993,0.0744 0.08484,-0.55704 0.01198,-0.50732 0.03197,-0.70822 0.100496,-1.00965 0.17944,-0.78939 0.559988,-1.54351 1.106109,-2.19197 0.173367,-0.20586 0.315214,-0.38291 0.315214,-0.39347 0,-0.0288 -0.161595,0.0858 -0.764405,0.54199 -2.591035,1.96136 -5.794505,3.13836 -9.214419,3.38551 -0.488971,0.0354 -0.889037,0.0831 -0.889037,0.10634 0,0.0231 0.06356,0.0421 0.141249,0.0423 0.225626,3.6e-4 1.207522,0.19381 1.570355,0.30936 0.793055,0.25258 1.709157,0.76635 2.29316,1.28606 0.434155,0.38634 0.458966,0.40168 0.43152,0.26686 -0.03301,-0.16218 0.04099,-0.25617 0.201701,-0.25617 0.119964,0 0.247567,0.0935 0.247567,0.18136 0,0.0903 -0.127875,0.18136 -0.254407,0.18136 -0.08247,0 -0.144968,0.0204 -0.138873,0.0452 0.01544,0.063 0.456205,0.57666 0.494747,0.57666 0.01731,0 0.03147,-0.0571 0.03147,-0.1266 0,-0.18093 0.117364,-0.28795 0.315734,-0.28795 0.197725,0 0.315733,0.10712 0.315733,0.2866 0,0.18938 -0.165468,0.30335 -0.388323,0.26749 -0.09717,-0.0156 -0.176674,-0.0165 -0.176674,-0.002 0,0.0477 0.50862,0.89877 0.537152,0.89877 0.01531,0 0.02784,-0.0543 0.02784,-0.12052 0,-0.22374 0.242031,-0.44949 0.481908,-0.44949 0.24102,0 0.481908,0.22586 0.481908,0.45184 0,0.39468 -0.485032,0.60337 -0.804218,0.34603 -0.05462,-0.0441 -0.106319,-0.0691 -0.11489,-0.0558 -0.0086,0.014 0.05102,0.21912 0.132425,0.45723 0.0814,0.2381 0.173207,0.55507 0.204006,0.70436 0.06907,0.33481 0.09805,0.36689 0.151077,0.16731 0.124602,-0.46902 0.614905,-0.67852 1.137845,-0.48619 0.08122,0.0298 0.0914,0.019 0.0914,-0.097 0,-0.17534 0.165398,-0.27536 0.295084,-0.17846 0.140904,0.10525 0.114458,0.26153 -0.05413,0.3198 -0.07769,0.0268 -0.140641,0.0617 -0.139899,0.0778 7.17e-4,0.0159 0.04534,0.10914 0.09912,0.20722 l 0.09776,0.17831 0.08341,-0.12224 c 0.147261,-0.21569 0.482769,-0.14453 0.482769,0.10244 0,0.22839 -0.267103,0.32935 -0.443073,0.16748 l -0.113554,-0.10446 -0.03958,0.18871 c -0.02177,0.10384 -0.04746,0.21849 -0.0571,0.25488 -0.01323,0.05 0.01394,0.0583 0.111028,0.0341 0.09964,-0.0248 0.1468,-0.009 0.209703,0.0705 0.06969,0.0879 0.07486,0.11428 0.03662,0.18611 -0.09039,0.16982 -0.363634,0.0817 -0.409329,-0.13206 -0.0093,-0.0433 -0.06284,-0.0242 -0.177449,0.0636 -0.137862,0.10556 -0.212106,0.12536 -0.463286,0.12349 -0.333643,-0.003 -0.465846,-0.0688 -0.655695,-0.32865 l -0.119101,-0.16306 3.32e-4,0.66179 c 3.32e-4,0.50951 -0.01575,0.75609 -0.06958,1.07166 -0.09719,0.56974 -0.09231,0.6037 0.05471,0.38095 0.146949,-0.22263 0.417885,-0.42847 0.672637,-0.51103 0.182298,-0.0591 0.774998,-0.0377 0.922586,0.0332 0.06815,0.0327 0.07301,0.0226 0.05533,-0.11522 -0.01634,-0.12738 -0.0056,-0.16092 0.06809,-0.21329 0.124065,-0.0881 0.198346,-0.0775 0.288389,0.0415 l 0.07846,0.10369 -0.07846,0.10368 c -0.04315,0.0571 -0.106713,0.10368 -0.141248,0.10368 -0.105043,0 -0.07133,0.0795 0.111696,0.26357 0.228983,0.23021 0.217617,0.22555 0.230084,0.0943 0.03127,-0.32901 0.474789,-0.46138 0.64688,-0.19307 0.06201,0.0967 0.07939,0.16389 0.06309,0.24393 -0.04646,0.22823 -0.367656,0.34459 -0.564737,0.20458 -0.105405,-0.0748 -0.134977,-0.0349 -0.08404,0.11335 0.0215,0.0627 0.03852,0.22785 0.03783,0.36714 -7.17e-4,0.13923 0.0016,0.25321 0.0051,0.25308 0.0035,-1.1e-4 0.07998,-0.0585 0.169905,-0.12956 0.182513,-0.14438 0.366403,-0.16487 0.527194,-0.0588 0.248931,0.16427 0.285276,0.4596 0.08113,0.65917 -0.08712,0.0851 -0.151572,0.10165 -0.345139,0.0882 -0.253275,-0.0175 -0.354651,-0.10057 -0.413059,-0.33874 -0.0372,-0.15171 -0.07617,-0.14734 -0.144898,0.0162 -0.09863,0.2347 -0.415322,0.51145 -0.668497,0.58416 -0.126784,0.0363 -0.267907,0.0784 -0.313606,0.0935 l -0.08309,0.0273 0.07478,0.0946 c 0.09178,0.11615 0.09592,0.23808 0.01049,0.30936 -0.09775,0.0815 -0.218956,0.0644 -0.304097,-0.043 l -0.07663,-0.0967 0.09285,-0.13424 0.09285,-0.13408 -0.07806,-0.0239 c -0.371768,-0.11304 -0.472447,-0.15766 -0.646854,-0.28627 -0.120265,-0.0887 -0.247994,-0.23546 -0.321679,-0.36969 -0.108197,-0.19707 -0.136367,-0.31008 -0.167551,-0.6721 -0.0037,-0.0427 -0.09424,0.13206 -0.201229,0.38863 -0.345655,0.82865 -0.726531,1.41475 -1.327474,2.04275 -0.14315,0.14953 -0.254643,0.28076 -0.247764,0.2915 0.0069,0.0109 0.14644,-0.0383 0.310127,-0.10898 0.725015,-0.31306 1.252747,-0.27123 2.121021,0.1681 0.05065,0.0256 0.05798,0.0125 0.0402,-0.0755 -0.01563,-0.0767 -6.14e-4,-0.12988 0.05346,-0.18894 0.09988,-0.10913 0.202136,-0.10368 0.296613,0.0156 0.06634,0.0837 0.07103,0.1096 0.03285,0.18136 -0.02449,0.046 -0.08383,0.084 -0.131859,0.0845 -0.165986,0.002 -0.189029,0.0794 -0.06317,0.21337 0.331121,0.35263 0.52321,0.79073 0.523894,1.19483 3.99e-4,0.23647 0.03884,0.28017 0.120517,0.13705 0.222935,-0.39077 0.833878,-0.39762 1.047413,-0.0125 0.111234,0.20101 0.108356,0.32123 -0.0122,0.50919 -0.137297,0.21407 -0.342847,0.30894 -0.593335,0.27387 -0.236697,-0.0332 -0.382509,-0.15154 -0.469362,-0.381 l -0.06879,-0.18177 -0.09467,0.27567 c -0.05207,0.15155 -0.179552,0.39815 -0.283306,0.54784 -0.103749,0.14968 -0.182021,0.28247 -0.173932,0.29508 0.0081,0.0125 0.07411,0.002 0.146713,-0.0248 0.438776,-0.15861 0.943374,0.14578 0.999401,0.60301 0.01604,0.13081 4.99e-4,0.19505 -0.08318,0.34365 -0.05659,0.10057 -0.102899,0.19714 -0.102899,0.21474 0,0.0176 0.0673,0.032 0.149558,0.032 0.161967,0 0.296307,0.14267 0.26274,0.27908 -0.02848,0.11568 -0.199222,0.20281 -0.325318,0.16593 -0.137603,-0.0402 -0.199584,-0.14453 -0.170573,-0.28706 0.025,-0.12286 0.01252,-0.12567 -0.213888,-0.05 -0.173729,0.0581 -0.206143,0.11257 -0.114544,0.19249 0.150498,0.13128 -0.0714,0.39597 -0.23472,0.27996 -0.09295,-0.0659 -0.113913,-0.24075 -0.03458,-0.28821 0.08825,-0.0527 0.05327,-0.13112 -0.07478,-0.16728 -0.164863,-0.0466 -0.338337,-0.1868 -0.438703,-0.35444 -0.105474,-0.17618 -0.106285,-0.42227 -0.0022,-0.65031 0.07212,-0.15791 0.07347,-0.17068 0.01496,-0.14126 -0.377568,0.18967 -0.644086,0.29709 -0.844406,0.34037 -0.262402,0.0566 -0.321184,0.0984 -0.205463,0.14547 0.170362,0.0694 0.355033,0.25498 0.383735,0.38548 0.06823,0.31029 -0.03588,0.50605 -0.355493,0.66851 -0.16113,0.0819 -0.166763,0.0906 -0.0971,0.14859 0.172191,0.14375 0.0076,0.42945 -0.188648,0.32751 -0.113086,-0.0588 -0.127148,-0.1964 -0.03229,-0.31616 l 0.0759,-0.0959 -0.114838,-0.0387 c -0.164214,-0.0554 -0.356153,-0.21699 -0.396224,-0.33372 -0.09053,-0.26375 0.0236,-0.56322 0.259379,-0.68061 0.180506,-0.0898 0.195516,-0.14095 0.05127,-0.17441 -0.07093,-0.0164 -0.271195,-0.0764 -0.445038,-0.13315 -0.391612,-0.12785 -0.377589,-0.12894 -0.3134,0.0239 0.07274,0.17308 0.03354,0.33231 -0.10383,0.42181 -0.27572,0.17961 -0.627095,-0.026 -0.565075,-0.33068 0.0272,-0.13362 0.145796,-0.22815 0.332916,-0.26534 l 0.167823,-0.0334 -0.216027,-0.21772 c -0.244425,-0.24634 -0.284353,-0.26172 -0.308349,-0.11865 -0.03092,0.18432 -0.334018,0.20521 -0.378112,0.026 -0.03303,-0.13424 0.05435,-0.23097 0.20862,-0.23097 0.08002,0 0.14549,-0.0125 0.14549,-0.0293 0,-0.0161 -0.03692,-0.10493 -0.08206,-0.19711 -0.125117,-0.25575 -0.183896,-0.51938 -0.183088,-0.82117 9.73e-4,-0.36639 0.0899,-0.65268 0.31908,-1.02733 0.10386,-0.16976 0.179173,-0.30866 0.167365,-0.30866 -0.01181,0 -0.17486,0.10774 -0.362335,0.23923 -0.934095,0.65556 -2.006378,1.04863 -3.240627,1.18797 -0.169084,0.019 -0.307424,0.0529 -0.307424,0.075 0,0.0221 0.123384,0.0675 0.274188,0.10072 0.836155,0.18413 1.540963,0.83384 1.791123,1.65109 0.09827,0.32101 0.10293,0.36356 0.08449,0.771 -0.01074,0.23717 -0.01593,0.43124 -0.01155,0.43124 0.0044,0 0.06664,-0.0466 0.138351,-0.10368 0.18606,-0.14781 0.469745,-0.14095 0.618242,0.0156 0.148877,0.15643 0.159146,0.41226 0.02291,0.57084 -0.21224,0.24707 -0.726157,0.11897 -0.776458,-0.19347 -0.0118,-0.0733 -0.03352,-0.13331 -0.04826,-0.13331 -0.01475,0 -0.08248,0.11834 -0.150532,0.2628 -0.06805,0.14453 -0.203931,0.3572 -0.301947,0.47259 -0.174258,0.20512 -0.235571,0.34638 -0.120464,0.27751 0.03176,-0.019 0.148541,-0.0477 0.259506,-0.0639 0.385257,-0.0561 0.784962,0.24763 0.832029,0.63223 0.01518,0.12396 -0.0026,0.19876 -0.08639,0.36274 l -0.105504,0.20652 0.172988,0.0279 c 0.176867,0.0285 0.278031,0.14578 0.244201,0.28331 -0.02713,0.11023 -0.200523,0.19578 -0.323789,0.15972 -0.137603,-0.0402 -0.199583,-0.14453 -0.170572,-0.28707 0.025,-0.12286 0.01252,-0.12567 -0.213887,-0.0499 -0.17373,0.0582 -0.206144,0.11257 -0.114545,0.19247 0.150498,0.13128 -0.0714,0.39599 -0.234719,0.27996 -0.09295,-0.0659 -0.113913,-0.24074 -0.03458,-0.28819 0.08825,-0.0529 0.05327,-0.13112 -0.07478,-0.16729 -0.164863,-0.0466 -0.338336,-0.18679 -0.438703,-0.35444 -0.103889,-0.17355 -0.106235,-0.42239 -0.006,-0.64176 0.04146,-0.0907 0.06227,-0.16507 0.04624,-0.16507 -0.01602,0 -0.14981,0.0686 -0.297298,0.15264 -0.255128,0.14516 -0.6029,0.26967 -0.949975,0.34008 -0.17442,0.0354 -0.181488,0.10119 -0.01692,0.1576 0.180039,0.0616 0.370327,0.20992 0.470142,0.36632 0.185649,0.2909 0.190104,0.5433 0.01562,0.88504 -0.06704,0.13128 -0.08568,0.20018 -0.0559,0.20651 0.237231,0.0505 0.296849,0.0836 0.331197,0.18358 0.03211,0.0935 0.0264,0.12566 -0.03651,0.20504 -0.0926,0.11693 -0.292559,0.12223 -0.39483,0.0109 -0.05857,-0.0639 -0.07161,-0.11413 -0.05556,-0.21382 0.0178,-0.11054 0.01192,-0.12457 -0.03888,-0.0925 -0.03292,0.0207 -0.145846,0.0641 -0.250951,0.0962 -0.20477,0.0625 -0.236527,0.11398 -0.114957,0.18602 0.191623,0.11366 0.194157,0.37775 0.0048,0.50111 -0.138552,0.0903 -0.233141,0.0897 -0.368587,-0.003 z m -3.153848,-2.29251 c -0.05285,-0.0825 -0.05176,-0.0934 0.01793,-0.18139 0.09167,-0.11569 0.194564,-0.11943 0.294176,-0.0109 0.07225,0.0789 0.07317,0.0878 0.01886,0.18139 -0.07163,0.12333 -0.254876,0.12926 -0.330963,0.0109 z m 6.35259,-0.0109 c -0.05431,-0.0935 -0.05339,-0.10243 0.01886,-0.18139 0.09961,-0.10882 0.202507,-0.10508 0.294172,0.0109 0.06969,0.0879 0.07078,0.099 0.01792,0.18139 -0.07609,0.11865 -0.259336,0.11272 -0.330965,-0.0109 z m -5.961338,-2.72861 c -0.08606,-0.094 -0.09579,-0.24101 -0.02224,-0.33618 0.07829,-0.10135 0.333983,-0.0842 0.413239,0.0276 0.09251,0.1305 0.08377,0.21752 -0.03116,0.31018 -0.125711,0.10134 -0.266132,0.10072 -0.359841,-0.002 z m 5.53455,-8e-4 c -0.108539,-0.0918 -0.115508,-0.17938 -0.0245,-0.30779 0.07926,-0.11179 0.334946,-0.12894 0.413237,-0.0276 0.194086,0.25113 -0.143751,0.54259 -0.38874,0.33537 z m -11.30988,-0.16171 c -0.05285,-0.0825 -0.05176,-0.0934 0.01793,-0.18136 0.09167,-0.11569 0.194564,-0.11943 0.294176,-0.0109 0.07225,0.0789 0.07317,0.0878 0.01886,0.18136 -0.07163,0.12332 -0.254875,0.12925 -0.330962,0.0109 z m 17.120747,-0.0109 c -0.05431,-0.0936 -0.05339,-0.10244 0.01886,-0.18136 0.09961,-0.10883 0.202508,-0.10509 0.294174,0.0109 0.06969,0.0879 0.07078,0.099 0.01792,0.18136 -0.07609,0.11865 -0.259337,0.11273 -0.330964,-0.0109 z m -17.692398,-1.6639 c -0.08594,-0.0552 -0.100053,-0.23237 -0.0222,-0.27895 0.179579,-0.10742 0.413101,0.0438 0.31016,0.20091 -0.065,0.0992 -0.198573,0.13534 -0.287953,0.0781 z m 18.382383,8.1e-4 c -0.09743,-0.0613 -0.124963,-0.14562 -0.07697,-0.2358 0.04078,-0.0766 0.215984,-0.10135 0.311805,-0.044 0.08323,0.0497 0.06294,0.22405 -0.03268,0.28072 -0.09907,0.0588 -0.107371,0.0586 -0.202155,-7.9e-4 z M 23.76126,283.21119 c -0.195946,-0.24033 -0.05161,-0.53663 0.2614,-0.53663 0.22241,0 0.348967,0.12084 0.348967,0.33297 0,0.11694 -0.02308,0.17154 -0.09805,0.23199 -0.145242,0.11709 -0.405458,0.10274 -0.512313,-0.0284 z m 15.724007,0.0259 c -0.06779,-0.0574 -0.0914,-0.11678 -0.0914,-0.22991 0,-0.21187 0.126706,-0.33266 0.348969,-0.33266 0.313008,0 0.457343,0.29632 0.261397,0.53663 -0.105976,0.13003 -0.379794,0.14359 -0.518969,0.0259 z m 0.623157,-1.74227 c -0.144379,-0.1277 -0.156896,-0.34716 -0.02875,-0.50431 0.105268,-0.12909 0.261636,-0.13751 0.44382,-0.0238 0.291162,0.18164 0.168565,0.59166 -0.175969,0.58851 -0.09495,-8e-4 -0.202541,-0.0281 -0.2391,-0.0603 z m -30.9999936,-2.7922 c -0.07249,-0.0658 -0.07589,-0.23325 -0.0056,-0.27531 0.092591,-0.0553 0.2319154,-0.0338 0.2983538,0.0463 0.06331,0.0764 0.06305,0.0797 -0.01395,0.18136 -0.085471,0.11288 -0.1877471,0.13034 -0.2788167,0.0477 z m 45.2698196,-0.0477 c -0.077,-0.10166 -0.0773,-0.10509 -0.0139,-0.18136 0.117311,-0.14141 0.350923,-0.0872 0.350923,0.0814 0,0.20321 -0.211302,0.26589 -0.336973,0.0999 z M 8.4523893,276.9196 c -0.096391,-0.18109 0.094901,-0.34404 0.2706387,-0.23055 0.1011846,0.0653 0.1189887,0.14516 0.05471,0.24542 -0.0562,0.0876 -0.2761467,0.0775 -0.325352,-0.0156 z m 46.5353647,0.0156 c -0.0643,-0.10025 -0.0465,-0.18008 0.0547,-0.24542 0.175741,-0.11351 0.367032,0.0494 0.270631,0.23055 -0.0492,0.0924 -0.269151,0.10243 -0.325352,0.0156 z M 22.46335,275.01193 c -0.09614,-0.10961 -0.05404,-0.26585 0.07691,-0.2854 0.168749,-0.0253 0.269318,0.0292 0.269318,0.14547 0,0.18687 -0.225208,0.2779 -0.34623,0.13985 z m 18.550729,0.0125 c -0.08542,-0.0776 -0.07327,-0.24704 0.02033,-0.28368 0.14527,-0.0569 0.302146,-0.006 0.315368,0.10305 0.02334,0.19183 -0.194376,0.30899 -0.335695,0.18065 z M 6.9016997,272.43752 c -0.1704351,-0.10602 -0.1124717,-0.31077 0.087991,-0.31077 0.150572,0 0.2367685,0.12146 0.1633211,0.23022 -0.067221,0.0995 -0.1686411,0.13206 -0.2513166,0.0806 z m 49.7861053,0 c -0.170431,-0.10602 -0.112471,-0.31077 0.088,-0.31077 0.150571,0 0.236762,0.12146 0.163321,0.23022 -0.0672,0.0995 -0.168641,0.13206 -0.251321,0.0806 z M 5.9201466,261.00963 c -0.1923742,-0.16285 -0.1354258,-0.44097 0.1115257,-0.54465 0.3431871,-0.14407 0.6829262,0.35018 0.3774773,0.54916 -0.1461579,0.0953 -0.3736863,0.0931 -0.489003,-0.005 z m 51.4289624,0.002 c -0.196261,-0.133 -0.120141,-0.43865 0.136801,-0.54925 0.231561,-0.0996 0.519443,0.12317 0.470373,0.36427 -0.0486,0.23866 -0.379293,0.33941 -0.607174,0.18498 z M 6.6979754,258.93507 c -0.2228974,-0.24343 0.085661,-0.55148 0.3680803,-0.3675 0.1380459,0.09 0.154728,0.19151 0.05658,0.34454 -0.08192,0.12769 -0.31709,0.14047 -0.4246607,0.0231 z m 49.9448886,-0.0229 c -0.0982,-0.1531 -0.0815,-0.2546 0.0566,-0.34454 0.199341,-0.12987 0.441943,-0.0242 0.441943,0.1925 0,0.24288 -0.368233,0.3552 -0.498534,0.15201 z M 9.7007261,254.68602 c -0.068811,-0.10727 -0.06588,-0.16262 0.01206,-0.22765 0.095161,-0.0794 0.2870878,-0.065 0.3350519,0.0251 0.107114,0.20122 -0.2240272,0.39449 -0.3471109,0.20259 z m 44.0392199,-0.0125 c -0.0691,-0.11911 -0.0699,-0.19614 -0.003,-0.2365 0.130141,-0.0778 0.379483,0.002 0.379483,0.12208 0,0.19687 -0.279882,0.28178 -0.377053,0.11444 z M 9.0087248,252.94968 c -0.03199,-0.029 -0.05816,-0.0979 -0.05816,-0.15295 0,-0.11553 0.1010316,-0.16982 0.2695907,-0.14469 0.087421,0.0125 0.1149877,0.0429 0.1232258,0.13331 0.01628,0.17868 -0.2012403,0.28549 -0.3346551,0.16435 z m 45.4798262,8e-4 c -0.124091,-0.0777 -0.0861,-0.27753 0.0568,-0.29881 0.169042,-0.0251 0.269592,0.029 0.269592,0.14547 0,0.1781 -0.163721,0.25501 -0.326382,0.15326 z m -38.862369,-7.45553 c -0.06368,-0.0815 -0.07159,-0.11803 -0.04197,-0.19432 0.05956,-0.15326 0.259175,-0.20577 0.395972,-0.10399 0.13332,0.0992 0.141986,0.15092 0.04944,0.29513 -0.08783,0.13689 -0.297633,0.1386 -0.403447,0.003 z m 32.109686,-0.003 c -0.09254,-0.14422 -0.08387,-0.196 0.04946,-0.29513 0.136799,-0.10166 0.336412,-0.0493 0.395974,0.10399 0.0929,0.23913 -0.305097,0.40985 -0.445418,0.19108 z"
       id="path29993" />
    <path
       inkscape:connector-curvature="0"
       id="path9098"
       d="m 31.326172,247.49023 v 16.50782 h 1.324219 v -16.50782 z"
       style="color:#000000;font-style:normal;font-variant:normal;font-weight:normal;font-stretch:normal;font-size:medium;line-height:normal;font-family:sans-serif;font-variant-ligatures:normal;font-variant-position:normal;font-variant-caps:normal;font-variant-numeric:normal;font-variant-alternates:normal;font-feature-settings:normal;text-indent:0;text-align:start;text-decoration:none;text-decoration-line:none;text-decoration-style:solid;text-decoration-color:#000000;letter-spacing:normal;word-spacing:normal;text-transform:none;writing-mode:lr-tb;direction:ltr;text-orientation:mixed;dominant-baseline:auto;baseline-shift:baseline;text-anchor:start;white-space:normal;shape-padding:0;clip-rule:nonzero;display:inline;overflow:visible;visibility:visible;opacity:1;isolation:auto;mix-blend-mode:normal;color-interpolation:sRGB;color-interpolation-filters:linearRGB;solid-color:#000000;solid-opacity:1;vector-effect:none;fill:#d0d0d0;fill-opacity:1;fill-rule:nonzero;stroke:#d0d0d0;stroke-width:0.52916667;stroke-linecap:butt;stroke-linejoin:miter;stroke-miterlimit:4;stroke-dasharray:none;stroke-dashoffset:0;stroke-opacity:1;color-rendering:auto;image-rendering:auto;shape-rendering:auto;text-rendering:auto;enable-background:accumulate" />
    <path
       inkscape:connector-curvature="0"
       style="fill:#d0d0d0;fill-opacity:1;fill-rule:evenodd;stroke:#d0d0d0;stroke-width:0.52916671pt;stroke-opacity:1"
       d="m 31.988109,267.05186 -2.645833,-4.57729 h 5.291666 z"
       id="path9666" />
    <path
       inkscape:connector-curvature="0"
       style="fill:#d0d0d0;fill-opacity:1;fill-rule:evenodd;stroke:#d0d0d0;stroke-width:0.52916671pt;stroke-opacity:1"
       d="m 31.988109,244.43599 2.645833,4.57729 h -5.291666 z"
       id="path9668" />
    <path
       inkscape:connector-curvature="0"
       id="path9100"
       d="m 23.703125,255.06055 v 1.32226 h 16.570313 v -1.32226 z"
       style="color:#000000;font-style:normal;font-variant:normal;font-weight:normal;font-stretch:normal;font-size:medium;line-height:normal;font-family:sans-serif;font-variant-ligatures:normal;font-variant-position:normal;font-variant-caps:normal;font-variant-numeric:normal;font-variant-alternates:normal;font-feature-settings:normal;text-indent:0;text-align:start;text-decoration:none;text-decoration-line:none;text-decoration-style:solid;text-decoration-color:#000000;letter-spacing:normal;word-spacing:normal;text-transform:none;writing-mode:lr-tb;direction:ltr;text-orientation:mixed;dominant-baseline:auto;baseline-shift:baseline;text-anchor:start;white-space:normal;shape-padding:0;clip-rule:nonzero;display:inline;overflow:visible;visibility:visible;opacity:1;isolation:auto;mix-blend-mode:normal;color-interpolation:sRGB;color-interpolation-filters:linearRGB;solid-color:#000000;solid-opacity:1;vector-effect:none;fill:#d0d0d0;fill-opacity:1;fill-rule:nonzero;stroke:#d0d0d0;stroke-width:0.52916667;stroke-linecap:butt;stroke-linejoin:miter;stroke-miterlimit:4;stroke-dasharray:none;stroke-dashoffset:0;stroke-opacity:1;color-rendering:auto;image-rendering:auto;shape-rendering:auto;text-rendering:auto;enable-background:accumulate" />
    <path
       inkscape:connector-curvature="0"
       id="path9644"
       d="m 20.649259,255.72159 4.577292,-2.64583 v 5.29166 z"
       style="fill:#d0d0d0;fill-opacity:1;fill-rule:evenodd;stroke:#d0d0d0;stroke-width:0.52916671pt;stroke-opacity:1" />
    <path
       inkscape:connector-curvature="0"
       id="path9646"
       d="m 43.326959,255.72159 -4.577292,2.64583 v -5.29166 z"
       style="fill:#d0d0d0;fill-opacity:1;fill-rule:evenodd;stroke:#d0d0d0;stroke-width:0.52916671pt;stroke-opacity:1" />
  </g>
</svg>
